%TF.GenerationSoftware,KiCad,Pcbnew,(6.0.2)*%
%TF.CreationDate,2022-03-15T12:48:44+01:00*%
%TF.ProjectId,ruetueta-pcb,72756574-7565-4746-912d-7063622e6b69,rev?*%
%TF.SameCoordinates,Original*%
%TF.FileFunction,Legend,Bot*%
%TF.FilePolarity,Positive*%
%FSLAX46Y46*%
G04 Gerber Fmt 4.6, Leading zero omitted, Abs format (unit mm)*
G04 Created by KiCad (PCBNEW (6.0.2)) date 2022-03-15 12:48:44*
%MOMM*%
%LPD*%
G01*
G04 APERTURE LIST*
%ADD10C,0.150000*%
%ADD11C,0.120000*%
%ADD12R,2.805000X1.800000*%
%ADD13O,2.805000X1.800000*%
%ADD14R,1.800000X2.805000*%
%ADD15O,1.800000X2.805000*%
%ADD16R,2.170000X2.805000*%
%ADD17O,2.805000X2.805000*%
G04 APERTURE END LIST*
D10*
X222250000Y-56515000D02*
X186055000Y-56515000D01*
X186055000Y-56515000D02*
X186055000Y-48895000D01*
X186055000Y-48895000D02*
X222250000Y-48895000D01*
X222250000Y-48895000D02*
X222250000Y-56515000D01*
G36*
X222250000Y-56515000D02*
G01*
X186055000Y-56515000D01*
X186055000Y-48895000D01*
X222250000Y-48895000D01*
X222250000Y-56515000D01*
G37*
X222250000Y-56515000D02*
X186055000Y-56515000D01*
X186055000Y-48895000D01*
X222250000Y-48895000D01*
X222250000Y-56515000D01*
X246903095Y-66944761D02*
X246903095Y-65611428D01*
X246903095Y-65992380D02*
X246807857Y-65801904D01*
X246712619Y-65706666D01*
X246522142Y-65611428D01*
X246331666Y-65611428D01*
X244807857Y-65611428D02*
X244807857Y-66944761D01*
X245665000Y-65611428D02*
X245665000Y-66659047D01*
X245569761Y-66849523D01*
X245379285Y-66944761D01*
X245093571Y-66944761D01*
X244903095Y-66849523D01*
X244807857Y-66754285D01*
X245569761Y-64944761D02*
X245474523Y-65040000D01*
X245569761Y-65135238D01*
X245665000Y-65040000D01*
X245569761Y-64944761D01*
X245569761Y-65135238D01*
X244807857Y-64944761D02*
X244712619Y-65040000D01*
X244807857Y-65135238D01*
X244903095Y-65040000D01*
X244807857Y-64944761D01*
X244807857Y-65135238D01*
X244141190Y-65611428D02*
X243379285Y-65611428D01*
X243855476Y-64944761D02*
X243855476Y-66659047D01*
X243760238Y-66849523D01*
X243569761Y-66944761D01*
X243379285Y-66944761D01*
X241855476Y-65611428D02*
X241855476Y-66944761D01*
X242712619Y-65611428D02*
X242712619Y-66659047D01*
X242617380Y-66849523D01*
X242426904Y-66944761D01*
X242141190Y-66944761D01*
X241950714Y-66849523D01*
X241855476Y-66754285D01*
X242617380Y-64944761D02*
X242522142Y-65040000D01*
X242617380Y-65135238D01*
X242712619Y-65040000D01*
X242617380Y-64944761D01*
X242617380Y-65135238D01*
X241855476Y-64944761D02*
X241760238Y-65040000D01*
X241855476Y-65135238D01*
X241950714Y-65040000D01*
X241855476Y-64944761D01*
X241855476Y-65135238D01*
X241188809Y-65611428D02*
X240426904Y-65611428D01*
X240903095Y-64944761D02*
X240903095Y-66659047D01*
X240807857Y-66849523D01*
X240617380Y-66944761D01*
X240426904Y-66944761D01*
X238903095Y-66944761D02*
X238903095Y-65897142D01*
X238998333Y-65706666D01*
X239188809Y-65611428D01*
X239569761Y-65611428D01*
X239760238Y-65706666D01*
X238903095Y-66849523D02*
X239093571Y-66944761D01*
X239569761Y-66944761D01*
X239760238Y-66849523D01*
X239855476Y-66659047D01*
X239855476Y-66468571D01*
X239760238Y-66278095D01*
X239569761Y-66182857D01*
X239093571Y-66182857D01*
X238903095Y-66087619D01*
X237950714Y-66754285D02*
X237855476Y-66849523D01*
X237950714Y-66944761D01*
X238045952Y-66849523D01*
X237950714Y-66754285D01*
X237950714Y-66944761D01*
X236141190Y-66944761D02*
X236141190Y-64944761D01*
X236141190Y-66849523D02*
X236331666Y-66944761D01*
X236712619Y-66944761D01*
X236903095Y-66849523D01*
X236998333Y-66754285D01*
X237093571Y-66563809D01*
X237093571Y-65992380D01*
X236998333Y-65801904D01*
X236903095Y-65706666D01*
X236712619Y-65611428D01*
X236331666Y-65611428D01*
X236141190Y-65706666D01*
X234426904Y-66849523D02*
X234617380Y-66944761D01*
X234998333Y-66944761D01*
X235188809Y-66849523D01*
X235284047Y-66659047D01*
X235284047Y-65897142D01*
X235188809Y-65706666D01*
X234998333Y-65611428D01*
X234617380Y-65611428D01*
X234426904Y-65706666D01*
X234331666Y-65897142D01*
X234331666Y-66087619D01*
X235284047Y-66278095D01*
X221898809Y-47894761D02*
X221898809Y-45894761D01*
X221422619Y-45894761D01*
X221136904Y-45990000D01*
X220946428Y-46180476D01*
X220851190Y-46370952D01*
X220755952Y-46751904D01*
X220755952Y-47037619D01*
X220851190Y-47418571D01*
X220946428Y-47609047D01*
X221136904Y-47799523D01*
X221422619Y-47894761D01*
X221898809Y-47894761D01*
X219898809Y-47894761D02*
X219898809Y-46561428D01*
X219898809Y-45894761D02*
X219994047Y-45990000D01*
X219898809Y-46085238D01*
X219803571Y-45990000D01*
X219898809Y-45894761D01*
X219898809Y-46085238D01*
X218184523Y-47799523D02*
X218375000Y-47894761D01*
X218755952Y-47894761D01*
X218946428Y-47799523D01*
X219041666Y-47609047D01*
X219041666Y-46847142D01*
X218946428Y-46656666D01*
X218755952Y-46561428D01*
X218375000Y-46561428D01*
X218184523Y-46656666D01*
X218089285Y-46847142D01*
X218089285Y-47037619D01*
X219041666Y-47228095D01*
X217327380Y-47799523D02*
X217136904Y-47894761D01*
X216755952Y-47894761D01*
X216565476Y-47799523D01*
X216470238Y-47609047D01*
X216470238Y-47513809D01*
X216565476Y-47323333D01*
X216755952Y-47228095D01*
X217041666Y-47228095D01*
X217232142Y-47132857D01*
X217327380Y-46942380D01*
X217327380Y-46847142D01*
X217232142Y-46656666D01*
X217041666Y-46561428D01*
X216755952Y-46561428D01*
X216565476Y-46656666D01*
X214851190Y-47799523D02*
X215041666Y-47894761D01*
X215422619Y-47894761D01*
X215613095Y-47799523D01*
X215708333Y-47609047D01*
X215708333Y-46847142D01*
X215613095Y-46656666D01*
X215422619Y-46561428D01*
X215041666Y-46561428D01*
X214851190Y-46656666D01*
X214755952Y-46847142D01*
X214755952Y-47037619D01*
X215708333Y-47228095D01*
X212375000Y-47894761D02*
X212375000Y-45894761D01*
X211613095Y-45894761D01*
X211422619Y-45990000D01*
X211327380Y-46085238D01*
X211232142Y-46275714D01*
X211232142Y-46561428D01*
X211327380Y-46751904D01*
X211422619Y-46847142D01*
X211613095Y-46942380D01*
X212375000Y-46942380D01*
X210089285Y-47894761D02*
X210279761Y-47799523D01*
X210375000Y-47609047D01*
X210375000Y-45894761D01*
X208470238Y-47894761D02*
X208470238Y-46847142D01*
X208565476Y-46656666D01*
X208755952Y-46561428D01*
X209136904Y-46561428D01*
X209327380Y-46656666D01*
X208470238Y-47799523D02*
X208660714Y-47894761D01*
X209136904Y-47894761D01*
X209327380Y-47799523D01*
X209422619Y-47609047D01*
X209422619Y-47418571D01*
X209327380Y-47228095D01*
X209136904Y-47132857D01*
X208660714Y-47132857D01*
X208470238Y-47037619D01*
X207803571Y-46561428D02*
X207041666Y-46561428D01*
X207517857Y-45894761D02*
X207517857Y-47609047D01*
X207422619Y-47799523D01*
X207232142Y-47894761D01*
X207041666Y-47894761D01*
X206375000Y-47894761D02*
X206375000Y-46561428D01*
X206375000Y-45894761D02*
X206470238Y-45990000D01*
X206375000Y-46085238D01*
X206279761Y-45990000D01*
X206375000Y-45894761D01*
X206375000Y-46085238D01*
X205422619Y-46561428D02*
X205422619Y-47894761D01*
X205422619Y-46751904D02*
X205327380Y-46656666D01*
X205136904Y-46561428D01*
X204851190Y-46561428D01*
X204660714Y-46656666D01*
X204565476Y-46847142D01*
X204565476Y-47894761D01*
X202851190Y-47799523D02*
X203041666Y-47894761D01*
X203422619Y-47894761D01*
X203613095Y-47799523D01*
X203708333Y-47609047D01*
X203708333Y-46847142D01*
X203613095Y-46656666D01*
X203422619Y-46561428D01*
X203041666Y-46561428D01*
X202851190Y-46656666D01*
X202755952Y-46847142D01*
X202755952Y-47037619D01*
X203708333Y-47228095D01*
X199517857Y-46561428D02*
X199517857Y-48180476D01*
X199613095Y-48370952D01*
X199708333Y-48466190D01*
X199898809Y-48561428D01*
X200184523Y-48561428D01*
X200375000Y-48466190D01*
X199517857Y-47799523D02*
X199708333Y-47894761D01*
X200089285Y-47894761D01*
X200279761Y-47799523D01*
X200375000Y-47704285D01*
X200470238Y-47513809D01*
X200470238Y-46942380D01*
X200375000Y-46751904D01*
X200279761Y-46656666D01*
X200089285Y-46561428D01*
X199708333Y-46561428D01*
X199517857Y-46656666D01*
X197803571Y-47799523D02*
X197994047Y-47894761D01*
X198375000Y-47894761D01*
X198565476Y-47799523D01*
X198660714Y-47609047D01*
X198660714Y-46847142D01*
X198565476Y-46656666D01*
X198375000Y-46561428D01*
X197994047Y-46561428D01*
X197803571Y-46656666D01*
X197708333Y-46847142D01*
X197708333Y-47037619D01*
X198660714Y-47228095D01*
X196851190Y-47894761D02*
X196851190Y-45894761D01*
X195994047Y-47894761D02*
X195994047Y-46847142D01*
X196089285Y-46656666D01*
X196279761Y-46561428D01*
X196565476Y-46561428D01*
X196755952Y-46656666D01*
X196851190Y-46751904D01*
X194755952Y-47894761D02*
X194946428Y-47799523D01*
X195041666Y-47704285D01*
X195136904Y-47513809D01*
X195136904Y-46942380D01*
X195041666Y-46751904D01*
X194946428Y-46656666D01*
X194755952Y-46561428D01*
X194470238Y-46561428D01*
X194279761Y-46656666D01*
X194184523Y-46751904D01*
X194089285Y-46942380D01*
X194089285Y-47513809D01*
X194184523Y-47704285D01*
X194279761Y-47799523D01*
X194470238Y-47894761D01*
X194755952Y-47894761D01*
X194946428Y-45894761D02*
X194851190Y-45990000D01*
X194946428Y-46085238D01*
X195041666Y-45990000D01*
X194946428Y-45894761D01*
X194946428Y-46085238D01*
X194184523Y-45894761D02*
X194089285Y-45990000D01*
X194184523Y-46085238D01*
X194279761Y-45990000D01*
X194184523Y-45894761D01*
X194184523Y-46085238D01*
X193232142Y-47894761D02*
X193232142Y-46561428D01*
X193232142Y-46942380D02*
X193136904Y-46751904D01*
X193041666Y-46656666D01*
X192851190Y-46561428D01*
X192660714Y-46561428D01*
X192279761Y-46561428D02*
X191517857Y-46561428D01*
X191994047Y-45894761D02*
X191994047Y-47609047D01*
X191898809Y-47799523D01*
X191708333Y-47894761D01*
X191517857Y-47894761D01*
X190851190Y-47704285D02*
X190755952Y-47799523D01*
X190851190Y-47894761D01*
X190946428Y-47799523D01*
X190851190Y-47704285D01*
X190851190Y-47894761D01*
X190851190Y-46656666D02*
X190755952Y-46751904D01*
X190851190Y-46847142D01*
X190946428Y-46751904D01*
X190851190Y-46656666D01*
X190851190Y-46847142D01*
%TO.C,R5*%
X197792844Y-63153919D02*
X197316654Y-62820586D01*
X197792844Y-62582490D02*
X196792844Y-62582490D01*
X196792844Y-62963443D01*
X196840464Y-63058681D01*
X196888083Y-63106300D01*
X196983321Y-63153919D01*
X197126178Y-63153919D01*
X197221416Y-63106300D01*
X197269035Y-63058681D01*
X197316654Y-62963443D01*
X197316654Y-62582490D01*
X196792844Y-64058681D02*
X196792844Y-63582490D01*
X197269035Y-63534871D01*
X197221416Y-63582490D01*
X197173797Y-63677728D01*
X197173797Y-63915824D01*
X197221416Y-64011062D01*
X197269035Y-64058681D01*
X197364273Y-64106300D01*
X197602368Y-64106300D01*
X197697606Y-64058681D01*
X197745225Y-64011062D01*
X197792844Y-63915824D01*
X197792844Y-63677728D01*
X197745225Y-63582490D01*
X197697606Y-63534871D01*
%TO.C,R8*%
X238926666Y-36012380D02*
X239260000Y-35536190D01*
X239498095Y-36012380D02*
X239498095Y-35012380D01*
X239117142Y-35012380D01*
X239021904Y-35060000D01*
X238974285Y-35107619D01*
X238926666Y-35202857D01*
X238926666Y-35345714D01*
X238974285Y-35440952D01*
X239021904Y-35488571D01*
X239117142Y-35536190D01*
X239498095Y-35536190D01*
X238355238Y-35440952D02*
X238450476Y-35393333D01*
X238498095Y-35345714D01*
X238545714Y-35250476D01*
X238545714Y-35202857D01*
X238498095Y-35107619D01*
X238450476Y-35060000D01*
X238355238Y-35012380D01*
X238164761Y-35012380D01*
X238069523Y-35060000D01*
X238021904Y-35107619D01*
X237974285Y-35202857D01*
X237974285Y-35250476D01*
X238021904Y-35345714D01*
X238069523Y-35393333D01*
X238164761Y-35440952D01*
X238355238Y-35440952D01*
X238450476Y-35488571D01*
X238498095Y-35536190D01*
X238545714Y-35631428D01*
X238545714Y-35821904D01*
X238498095Y-35917142D01*
X238450476Y-35964761D01*
X238355238Y-36012380D01*
X238164761Y-36012380D01*
X238069523Y-35964761D01*
X238021904Y-35917142D01*
X237974285Y-35821904D01*
X237974285Y-35631428D01*
X238021904Y-35536190D01*
X238069523Y-35488571D01*
X238164761Y-35440952D01*
%TO.C,J1*%
X162258333Y-29507380D02*
X162258333Y-30221666D01*
X162305952Y-30364523D01*
X162401190Y-30459761D01*
X162544047Y-30507380D01*
X162639285Y-30507380D01*
X161258333Y-30507380D02*
X161829761Y-30507380D01*
X161544047Y-30507380D02*
X161544047Y-29507380D01*
X161639285Y-29650238D01*
X161734523Y-29745476D01*
X161829761Y-29793095D01*
%TO.C,C3*%
X185221666Y-72521467D02*
X185269285Y-72569086D01*
X185412142Y-72616705D01*
X185507380Y-72616705D01*
X185650238Y-72569086D01*
X185745476Y-72473848D01*
X185793095Y-72378610D01*
X185840714Y-72188134D01*
X185840714Y-72045277D01*
X185793095Y-71854801D01*
X185745476Y-71759563D01*
X185650238Y-71664325D01*
X185507380Y-71616705D01*
X185412142Y-71616705D01*
X185269285Y-71664325D01*
X185221666Y-71711944D01*
X184888333Y-71616705D02*
X184269285Y-71616705D01*
X184602619Y-71997658D01*
X184459761Y-71997658D01*
X184364523Y-72045277D01*
X184316904Y-72092896D01*
X184269285Y-72188134D01*
X184269285Y-72426229D01*
X184316904Y-72521467D01*
X184364523Y-72569086D01*
X184459761Y-72616705D01*
X184745476Y-72616705D01*
X184840714Y-72569086D01*
X184888333Y-72521467D01*
%TO.C,C5*%
X238246779Y-58142142D02*
X238294398Y-58189761D01*
X238437255Y-58237380D01*
X238532493Y-58237380D01*
X238675351Y-58189761D01*
X238770589Y-58094523D01*
X238818208Y-57999285D01*
X238865827Y-57808809D01*
X238865827Y-57665952D01*
X238818208Y-57475476D01*
X238770589Y-57380238D01*
X238675351Y-57285000D01*
X238532493Y-57237380D01*
X238437255Y-57237380D01*
X238294398Y-57285000D01*
X238246779Y-57332619D01*
X237342017Y-57237380D02*
X237818208Y-57237380D01*
X237865827Y-57713571D01*
X237818208Y-57665952D01*
X237722970Y-57618333D01*
X237484874Y-57618333D01*
X237389636Y-57665952D01*
X237342017Y-57713571D01*
X237294398Y-57808809D01*
X237294398Y-58046904D01*
X237342017Y-58142142D01*
X237389636Y-58189761D01*
X237484874Y-58237380D01*
X237722970Y-58237380D01*
X237818208Y-58189761D01*
X237865827Y-58142142D01*
%TO.C,R9*%
X202382380Y-33488333D02*
X201906190Y-33155000D01*
X202382380Y-32916904D02*
X201382380Y-32916904D01*
X201382380Y-33297857D01*
X201430000Y-33393095D01*
X201477619Y-33440714D01*
X201572857Y-33488333D01*
X201715714Y-33488333D01*
X201810952Y-33440714D01*
X201858571Y-33393095D01*
X201906190Y-33297857D01*
X201906190Y-32916904D01*
X202382380Y-33964523D02*
X202382380Y-34155000D01*
X202334761Y-34250238D01*
X202287142Y-34297857D01*
X202144285Y-34393095D01*
X201953809Y-34440714D01*
X201572857Y-34440714D01*
X201477619Y-34393095D01*
X201430000Y-34345476D01*
X201382380Y-34250238D01*
X201382380Y-34059761D01*
X201430000Y-33964523D01*
X201477619Y-33916904D01*
X201572857Y-33869285D01*
X201810952Y-33869285D01*
X201906190Y-33916904D01*
X201953809Y-33964523D01*
X202001428Y-34059761D01*
X202001428Y-34250238D01*
X201953809Y-34345476D01*
X201906190Y-34393095D01*
X201810952Y-34440714D01*
%TO.C,Q4*%
X231537068Y-67214761D02*
X231489449Y-67119523D01*
X231394210Y-67024285D01*
X231251353Y-66881428D01*
X231203734Y-66786190D01*
X231203734Y-66690952D01*
X231441829Y-66738571D02*
X231394210Y-66643333D01*
X231298972Y-66548095D01*
X231108496Y-66500476D01*
X230775163Y-66500476D01*
X230584687Y-66548095D01*
X230489449Y-66643333D01*
X230441829Y-66738571D01*
X230441829Y-66929047D01*
X230489449Y-67024285D01*
X230584687Y-67119523D01*
X230775163Y-67167142D01*
X231108496Y-67167142D01*
X231298972Y-67119523D01*
X231394210Y-67024285D01*
X231441829Y-66929047D01*
X231441829Y-66738571D01*
X230775163Y-68024285D02*
X231441829Y-68024285D01*
X230394210Y-67786190D02*
X231108496Y-67548095D01*
X231108496Y-68167142D01*
%TO.C,R10*%
X239402857Y-30932380D02*
X239736190Y-30456190D01*
X239974285Y-30932380D02*
X239974285Y-29932380D01*
X239593333Y-29932380D01*
X239498095Y-29980000D01*
X239450476Y-30027619D01*
X239402857Y-30122857D01*
X239402857Y-30265714D01*
X239450476Y-30360952D01*
X239498095Y-30408571D01*
X239593333Y-30456190D01*
X239974285Y-30456190D01*
X238450476Y-30932380D02*
X239021904Y-30932380D01*
X238736190Y-30932380D02*
X238736190Y-29932380D01*
X238831428Y-30075238D01*
X238926666Y-30170476D01*
X239021904Y-30218095D01*
X237831428Y-29932380D02*
X237736190Y-29932380D01*
X237640952Y-29980000D01*
X237593333Y-30027619D01*
X237545714Y-30122857D01*
X237498095Y-30313333D01*
X237498095Y-30551428D01*
X237545714Y-30741904D01*
X237593333Y-30837142D01*
X237640952Y-30884761D01*
X237736190Y-30932380D01*
X237831428Y-30932380D01*
X237926666Y-30884761D01*
X237974285Y-30837142D01*
X238021904Y-30741904D01*
X238069523Y-30551428D01*
X238069523Y-30313333D01*
X238021904Y-30122857D01*
X237974285Y-30027619D01*
X237926666Y-29980000D01*
X237831428Y-29932380D01*
%TO.C,C1*%
X170946467Y-33533221D02*
X170994086Y-33485602D01*
X171041705Y-33342745D01*
X171041705Y-33247507D01*
X170994086Y-33104649D01*
X170898848Y-33009411D01*
X170803610Y-32961792D01*
X170613134Y-32914173D01*
X170470277Y-32914173D01*
X170279801Y-32961792D01*
X170184563Y-33009411D01*
X170089325Y-33104649D01*
X170041705Y-33247507D01*
X170041705Y-33342745D01*
X170089325Y-33485602D01*
X170136944Y-33533221D01*
X171041705Y-34485602D02*
X171041705Y-33914173D01*
X171041705Y-34199888D02*
X170041705Y-34199888D01*
X170184563Y-34104649D01*
X170279801Y-34009411D01*
X170327420Y-33914173D01*
%TO.C,C2*%
X166928308Y-60682142D02*
X166975927Y-60729761D01*
X167118784Y-60777380D01*
X167214022Y-60777380D01*
X167356880Y-60729761D01*
X167452118Y-60634523D01*
X167499737Y-60539285D01*
X167547356Y-60348809D01*
X167547356Y-60205952D01*
X167499737Y-60015476D01*
X167452118Y-59920238D01*
X167356880Y-59825000D01*
X167214022Y-59777380D01*
X167118784Y-59777380D01*
X166975927Y-59825000D01*
X166928308Y-59872619D01*
X166547356Y-59872619D02*
X166499737Y-59825000D01*
X166404499Y-59777380D01*
X166166403Y-59777380D01*
X166071165Y-59825000D01*
X166023546Y-59872619D01*
X165975927Y-59967857D01*
X165975927Y-60063095D01*
X166023546Y-60205952D01*
X166594975Y-60777380D01*
X165975927Y-60777380D01*
%TO.C,Q3*%
X216297068Y-69119761D02*
X216249449Y-69024523D01*
X216154210Y-68929285D01*
X216011353Y-68786428D01*
X215963734Y-68691190D01*
X215963734Y-68595952D01*
X216201829Y-68643571D02*
X216154210Y-68548333D01*
X216058972Y-68453095D01*
X215868496Y-68405476D01*
X215535163Y-68405476D01*
X215344687Y-68453095D01*
X215249449Y-68548333D01*
X215201829Y-68643571D01*
X215201829Y-68834047D01*
X215249449Y-68929285D01*
X215344687Y-69024523D01*
X215535163Y-69072142D01*
X215868496Y-69072142D01*
X216058972Y-69024523D01*
X216154210Y-68929285D01*
X216201829Y-68834047D01*
X216201829Y-68643571D01*
X215201829Y-69405476D02*
X215201829Y-70024523D01*
X215582782Y-69691190D01*
X215582782Y-69834047D01*
X215630401Y-69929285D01*
X215678020Y-69976904D01*
X215773258Y-70024523D01*
X216011353Y-70024523D01*
X216106591Y-69976904D01*
X216154210Y-69929285D01*
X216201829Y-69834047D01*
X216201829Y-69548333D01*
X216154210Y-69453095D01*
X216106591Y-69405476D01*
%TO.C,Q2*%
X197939409Y-69119761D02*
X197891790Y-69024523D01*
X197796551Y-68929285D01*
X197653694Y-68786428D01*
X197606075Y-68691190D01*
X197606075Y-68595952D01*
X197844170Y-68643571D02*
X197796551Y-68548333D01*
X197701313Y-68453095D01*
X197510837Y-68405476D01*
X197177504Y-68405476D01*
X196987028Y-68453095D01*
X196891790Y-68548333D01*
X196844170Y-68643571D01*
X196844170Y-68834047D01*
X196891790Y-68929285D01*
X196987028Y-69024523D01*
X197177504Y-69072142D01*
X197510837Y-69072142D01*
X197701313Y-69024523D01*
X197796551Y-68929285D01*
X197844170Y-68834047D01*
X197844170Y-68643571D01*
X196939409Y-69453095D02*
X196891790Y-69500714D01*
X196844170Y-69595952D01*
X196844170Y-69834047D01*
X196891790Y-69929285D01*
X196939409Y-69976904D01*
X197034647Y-70024523D01*
X197129885Y-70024523D01*
X197272742Y-69976904D01*
X197844170Y-69405476D01*
X197844170Y-70024523D01*
%TO.C,Q1*%
X180737068Y-69119761D02*
X180689449Y-69024523D01*
X180594210Y-68929285D01*
X180451353Y-68786428D01*
X180403734Y-68691190D01*
X180403734Y-68595952D01*
X180641829Y-68643571D02*
X180594210Y-68548333D01*
X180498972Y-68453095D01*
X180308496Y-68405476D01*
X179975163Y-68405476D01*
X179784687Y-68453095D01*
X179689449Y-68548333D01*
X179641829Y-68643571D01*
X179641829Y-68834047D01*
X179689449Y-68929285D01*
X179784687Y-69024523D01*
X179975163Y-69072142D01*
X180308496Y-69072142D01*
X180498972Y-69024523D01*
X180594210Y-68929285D01*
X180641829Y-68834047D01*
X180641829Y-68643571D01*
X180641829Y-70024523D02*
X180641829Y-69453095D01*
X180641829Y-69738809D02*
X179641829Y-69738809D01*
X179784687Y-69643571D01*
X179879925Y-69548333D01*
X179927544Y-69453095D01*
%TO.C,Q5*%
X229782619Y-36099761D02*
X229735000Y-36004523D01*
X229639761Y-35909285D01*
X229496904Y-35766428D01*
X229449285Y-35671190D01*
X229449285Y-35575952D01*
X229687380Y-35623571D02*
X229639761Y-35528333D01*
X229544523Y-35433095D01*
X229354047Y-35385476D01*
X229020714Y-35385476D01*
X228830238Y-35433095D01*
X228735000Y-35528333D01*
X228687380Y-35623571D01*
X228687380Y-35814047D01*
X228735000Y-35909285D01*
X228830238Y-36004523D01*
X229020714Y-36052142D01*
X229354047Y-36052142D01*
X229544523Y-36004523D01*
X229639761Y-35909285D01*
X229687380Y-35814047D01*
X229687380Y-35623571D01*
X228687380Y-36956904D02*
X228687380Y-36480714D01*
X229163571Y-36433095D01*
X229115952Y-36480714D01*
X229068333Y-36575952D01*
X229068333Y-36814047D01*
X229115952Y-36909285D01*
X229163571Y-36956904D01*
X229258809Y-37004523D01*
X229496904Y-37004523D01*
X229592142Y-36956904D01*
X229639761Y-36909285D01*
X229687380Y-36814047D01*
X229687380Y-36575952D01*
X229639761Y-36480714D01*
X229592142Y-36433095D01*
%TO.C,C4*%
X206496779Y-72521467D02*
X206544398Y-72569086D01*
X206687255Y-72616705D01*
X206782493Y-72616705D01*
X206925351Y-72569086D01*
X207020589Y-72473848D01*
X207068208Y-72378610D01*
X207115827Y-72188134D01*
X207115827Y-72045277D01*
X207068208Y-71854801D01*
X207020589Y-71759563D01*
X206925351Y-71664325D01*
X206782493Y-71616705D01*
X206687255Y-71616705D01*
X206544398Y-71664325D01*
X206496779Y-71711944D01*
X205639636Y-71950039D02*
X205639636Y-72616705D01*
X205877732Y-71569086D02*
X206115827Y-72283372D01*
X205496779Y-72283372D01*
%TO.C,R4*%
X178887380Y-58888333D02*
X178411190Y-58555000D01*
X178887380Y-58316904D02*
X177887380Y-58316904D01*
X177887380Y-58697857D01*
X177935000Y-58793095D01*
X177982619Y-58840714D01*
X178077857Y-58888333D01*
X178220714Y-58888333D01*
X178315952Y-58840714D01*
X178363571Y-58793095D01*
X178411190Y-58697857D01*
X178411190Y-58316904D01*
X178220714Y-59745476D02*
X178887380Y-59745476D01*
X177839761Y-59507380D02*
X178554047Y-59269285D01*
X178554047Y-59888333D01*
%TO.C,R7*%
X193492380Y-33488333D02*
X193016190Y-33155000D01*
X193492380Y-32916904D02*
X192492380Y-32916904D01*
X192492380Y-33297857D01*
X192540000Y-33393095D01*
X192587619Y-33440714D01*
X192682857Y-33488333D01*
X192825714Y-33488333D01*
X192920952Y-33440714D01*
X192968571Y-33393095D01*
X193016190Y-33297857D01*
X193016190Y-32916904D01*
X192492380Y-33821666D02*
X192492380Y-34488333D01*
X193492380Y-34059761D01*
%TO.C,R3*%
X187784282Y-63333333D02*
X187308092Y-63000000D01*
X187784282Y-62761904D02*
X186784282Y-62761904D01*
X186784282Y-63142857D01*
X186831902Y-63238095D01*
X186879521Y-63285714D01*
X186974759Y-63333333D01*
X187117616Y-63333333D01*
X187212854Y-63285714D01*
X187260473Y-63238095D01*
X187308092Y-63142857D01*
X187308092Y-62761904D01*
X186784282Y-63666666D02*
X186784282Y-64285714D01*
X187165235Y-63952380D01*
X187165235Y-64095238D01*
X187212854Y-64190476D01*
X187260473Y-64238095D01*
X187355711Y-64285714D01*
X187593806Y-64285714D01*
X187689044Y-64238095D01*
X187736663Y-64190476D01*
X187784282Y-64095238D01*
X187784282Y-63809523D01*
X187736663Y-63714285D01*
X187689044Y-63666666D01*
%TO.C,R1*%
X167806666Y-42362380D02*
X168140000Y-41886190D01*
X168378095Y-42362380D02*
X168378095Y-41362380D01*
X167997142Y-41362380D01*
X167901904Y-41410000D01*
X167854285Y-41457619D01*
X167806666Y-41552857D01*
X167806666Y-41695714D01*
X167854285Y-41790952D01*
X167901904Y-41838571D01*
X167997142Y-41886190D01*
X168378095Y-41886190D01*
X166854285Y-42362380D02*
X167425714Y-42362380D01*
X167140000Y-42362380D02*
X167140000Y-41362380D01*
X167235238Y-41505238D01*
X167330476Y-41600476D01*
X167425714Y-41648095D01*
%TO.C,C6*%
X222832817Y-29313333D02*
X222880436Y-29265714D01*
X222928055Y-29122857D01*
X222928055Y-29027619D01*
X222880436Y-28884761D01*
X222785198Y-28789523D01*
X222689960Y-28741904D01*
X222499484Y-28694285D01*
X222356627Y-28694285D01*
X222166151Y-28741904D01*
X222070913Y-28789523D01*
X221975675Y-28884761D01*
X221928055Y-29027619D01*
X221928055Y-29122857D01*
X221975675Y-29265714D01*
X222023294Y-29313333D01*
X221928055Y-30170476D02*
X221928055Y-29980000D01*
X221975675Y-29884761D01*
X222023294Y-29837142D01*
X222166151Y-29741904D01*
X222356627Y-29694285D01*
X222737579Y-29694285D01*
X222832817Y-29741904D01*
X222880436Y-29789523D01*
X222928055Y-29884761D01*
X222928055Y-30075238D01*
X222880436Y-30170476D01*
X222832817Y-30218095D01*
X222737579Y-30265714D01*
X222499484Y-30265714D01*
X222404246Y-30218095D01*
X222356627Y-30170476D01*
X222309008Y-30075238D01*
X222309008Y-29884761D01*
X222356627Y-29789523D01*
X222404246Y-29741904D01*
X222499484Y-29694285D01*
%TO.C,R2*%
X167171666Y-72207380D02*
X167505000Y-71731190D01*
X167743095Y-72207380D02*
X167743095Y-71207380D01*
X167362142Y-71207380D01*
X167266904Y-71255000D01*
X167219285Y-71302619D01*
X167171666Y-71397857D01*
X167171666Y-71540714D01*
X167219285Y-71635952D01*
X167266904Y-71683571D01*
X167362142Y-71731190D01*
X167743095Y-71731190D01*
X166790714Y-71302619D02*
X166743095Y-71255000D01*
X166647857Y-71207380D01*
X166409761Y-71207380D01*
X166314523Y-71255000D01*
X166266904Y-71302619D01*
X166219285Y-71397857D01*
X166219285Y-71493095D01*
X166266904Y-71635952D01*
X166838333Y-72207380D01*
X166219285Y-72207380D01*
%TO.C,R6*%
X217622380Y-63333333D02*
X217146190Y-63000000D01*
X217622380Y-62761904D02*
X216622380Y-62761904D01*
X216622380Y-63142857D01*
X216670000Y-63238095D01*
X216717619Y-63285714D01*
X216812857Y-63333333D01*
X216955714Y-63333333D01*
X217050952Y-63285714D01*
X217098571Y-63238095D01*
X217146190Y-63142857D01*
X217146190Y-62761904D01*
X216622380Y-64190476D02*
X216622380Y-64000000D01*
X216670000Y-63904761D01*
X216717619Y-63857142D01*
X216860476Y-63761904D01*
X217050952Y-63714285D01*
X217431904Y-63714285D01*
X217527142Y-63761904D01*
X217574761Y-63809523D01*
X217622380Y-63904761D01*
X217622380Y-64095238D01*
X217574761Y-64190476D01*
X217527142Y-64238095D01*
X217431904Y-64285714D01*
X217193809Y-64285714D01*
X217098571Y-64238095D01*
X217050952Y-64190476D01*
X217003333Y-64095238D01*
X217003333Y-63904761D01*
X217050952Y-63809523D01*
X217098571Y-63761904D01*
X217193809Y-63714285D01*
D11*
%TO.C,R5*%
X201250464Y-66590586D02*
X198510464Y-66590586D01*
X198510464Y-60050586D02*
X201250464Y-60050586D01*
X198510464Y-66590586D02*
X198510464Y-60050586D01*
X199880464Y-67360586D02*
X199880464Y-66590586D01*
X201250464Y-60050586D02*
X201250464Y-66590586D01*
X199880464Y-59280586D02*
X199880464Y-60050586D01*
%TO.C,R8*%
X235490000Y-36730000D02*
X242030000Y-36730000D01*
X242030000Y-36730000D02*
X242030000Y-39470000D01*
X234720000Y-38100000D02*
X235490000Y-38100000D01*
X242800000Y-38100000D02*
X242030000Y-38100000D01*
X242030000Y-39470000D02*
X235490000Y-39470000D01*
X235490000Y-39470000D02*
X235490000Y-36730000D01*
%TO.C,J1*%
X160595000Y-33655000D02*
X160595000Y-36255000D01*
X163255000Y-33655000D02*
X160595000Y-33655000D01*
X163255000Y-33655000D02*
X163255000Y-36255000D01*
X163255000Y-31055000D02*
X161925000Y-31055000D01*
X163255000Y-32385000D02*
X163255000Y-31055000D01*
X163255000Y-36255000D02*
X160595000Y-36255000D01*
%TO.C,C3*%
X184254000Y-69620000D02*
X184254000Y-71035000D01*
X184174000Y-66152000D02*
X184174000Y-67540000D01*
X182734000Y-67402000D02*
X182734000Y-69758000D01*
X183174000Y-66795000D02*
X183174000Y-67540000D01*
X183854000Y-69620000D02*
X183854000Y-70870000D01*
X184174000Y-69620000D02*
X184174000Y-71008000D01*
X183454000Y-66545000D02*
X183454000Y-67540000D01*
X184294000Y-66112000D02*
X184294000Y-67540000D01*
X184575000Y-69620000D02*
X184575000Y-71116000D01*
X184895000Y-66004000D02*
X184895000Y-67540000D01*
X183694000Y-69620000D02*
X183694000Y-70780000D01*
X184975000Y-66001000D02*
X184975000Y-67540000D01*
X185055000Y-66000000D02*
X185055000Y-67540000D01*
X184415000Y-69620000D02*
X184415000Y-71081000D01*
X182774000Y-67329000D02*
X182774000Y-69831000D01*
X183454000Y-69620000D02*
X183454000Y-70615000D01*
X183534000Y-66485000D02*
X183534000Y-67540000D01*
X184294000Y-69620000D02*
X184294000Y-71048000D01*
X184775000Y-66015000D02*
X184775000Y-67540000D01*
X184655000Y-69620000D02*
X184655000Y-71130000D01*
X184815000Y-66011000D02*
X184815000Y-67540000D01*
X183974000Y-66232000D02*
X183974000Y-67540000D01*
X182694000Y-67482000D02*
X182694000Y-69678000D01*
X183534000Y-69620000D02*
X183534000Y-70675000D01*
X183494000Y-69620000D02*
X183494000Y-70645000D01*
X184214000Y-66138000D02*
X184214000Y-67540000D01*
X184695000Y-69620000D02*
X184695000Y-71136000D01*
X183654000Y-69620000D02*
X183654000Y-70755000D01*
X184655000Y-66030000D02*
X184655000Y-67540000D01*
X184815000Y-69620000D02*
X184815000Y-71149000D01*
X183174000Y-69620000D02*
X183174000Y-70365000D01*
X183774000Y-66333000D02*
X183774000Y-67540000D01*
X183654000Y-66405000D02*
X183654000Y-67540000D01*
X187609775Y-66855000D02*
X187609775Y-67355000D01*
X183494000Y-66515000D02*
X183494000Y-67540000D01*
X183134000Y-69620000D02*
X183134000Y-70323000D01*
X184094000Y-69620000D02*
X184094000Y-70978000D01*
X183214000Y-66754000D02*
X183214000Y-67540000D01*
X183614000Y-66431000D02*
X183614000Y-67540000D01*
X183974000Y-69620000D02*
X183974000Y-70928000D01*
X184535000Y-66052000D02*
X184535000Y-67540000D01*
X182574000Y-67775000D02*
X182574000Y-69385000D01*
X183094000Y-66881000D02*
X183094000Y-67540000D01*
X184254000Y-66125000D02*
X184254000Y-67540000D01*
X183814000Y-69620000D02*
X183814000Y-70848000D01*
X183574000Y-66458000D02*
X183574000Y-67540000D01*
X184134000Y-66166000D02*
X184134000Y-67540000D01*
X184935000Y-69620000D02*
X184935000Y-71158000D01*
X184615000Y-66037000D02*
X184615000Y-67540000D01*
X184214000Y-69620000D02*
X184214000Y-71022000D01*
X183294000Y-69620000D02*
X183294000Y-70481000D01*
X182494000Y-68062000D02*
X182494000Y-69098000D01*
X184855000Y-66007000D02*
X184855000Y-67540000D01*
X183054000Y-69620000D02*
X183054000Y-70233000D01*
X183894000Y-66270000D02*
X183894000Y-67540000D01*
X183014000Y-66975000D02*
X183014000Y-70185000D01*
X184775000Y-69620000D02*
X184775000Y-71145000D01*
X183334000Y-69620000D02*
X183334000Y-70517000D01*
X184615000Y-69620000D02*
X184615000Y-71123000D01*
X182654000Y-67569000D02*
X182654000Y-69591000D01*
X182974000Y-67026000D02*
X182974000Y-70134000D01*
X183814000Y-66312000D02*
X183814000Y-67540000D01*
X183294000Y-66679000D02*
X183294000Y-67540000D01*
X183214000Y-69620000D02*
X183214000Y-70406000D01*
X183414000Y-66576000D02*
X183414000Y-67540000D01*
X183614000Y-69620000D02*
X183614000Y-70729000D01*
X184375000Y-66089000D02*
X184375000Y-67540000D01*
X182814000Y-67261000D02*
X182814000Y-69899000D01*
X187859775Y-67105000D02*
X187359775Y-67105000D01*
X184935000Y-66002000D02*
X184935000Y-67540000D01*
X185055000Y-69620000D02*
X185055000Y-71160000D01*
X183734000Y-69620000D02*
X183734000Y-70804000D01*
X183254000Y-69620000D02*
X183254000Y-70444000D01*
X182534000Y-67903000D02*
X182534000Y-69257000D01*
X183254000Y-66716000D02*
X183254000Y-67540000D01*
X184735000Y-66019000D02*
X184735000Y-67540000D01*
X183094000Y-69620000D02*
X183094000Y-70279000D01*
X184014000Y-69620000D02*
X184014000Y-70945000D01*
X184334000Y-66100000D02*
X184334000Y-67540000D01*
X184735000Y-69620000D02*
X184735000Y-71141000D01*
X183574000Y-69620000D02*
X183574000Y-70702000D01*
X182614000Y-67665000D02*
X182614000Y-69495000D01*
X183854000Y-66290000D02*
X183854000Y-67540000D01*
X183334000Y-66643000D02*
X183334000Y-67540000D01*
X184495000Y-66060000D02*
X184495000Y-67540000D01*
X184695000Y-66024000D02*
X184695000Y-67540000D01*
X183934000Y-66251000D02*
X183934000Y-67540000D01*
X184975000Y-69620000D02*
X184975000Y-71159000D01*
X184054000Y-69620000D02*
X184054000Y-70962000D01*
X183374000Y-66609000D02*
X183374000Y-67540000D01*
X183734000Y-66356000D02*
X183734000Y-67540000D01*
X185015000Y-69620000D02*
X185015000Y-71160000D01*
X184855000Y-69620000D02*
X184855000Y-71153000D01*
X184334000Y-69620000D02*
X184334000Y-71060000D01*
X184455000Y-66069000D02*
X184455000Y-67540000D01*
X184415000Y-66079000D02*
X184415000Y-67540000D01*
X183774000Y-69620000D02*
X183774000Y-70827000D01*
X184014000Y-66215000D02*
X184014000Y-67540000D01*
X184495000Y-69620000D02*
X184495000Y-71100000D01*
X183694000Y-66380000D02*
X183694000Y-67540000D01*
X185015000Y-66000000D02*
X185015000Y-67540000D01*
X184895000Y-69620000D02*
X184895000Y-71156000D01*
X182894000Y-67137000D02*
X182894000Y-70023000D01*
X183934000Y-69620000D02*
X183934000Y-70909000D01*
X182454000Y-68296000D02*
X182454000Y-68864000D01*
X184535000Y-69620000D02*
X184535000Y-71108000D01*
X184375000Y-69620000D02*
X184375000Y-71071000D01*
X184575000Y-66044000D02*
X184575000Y-67540000D01*
X184455000Y-69620000D02*
X184455000Y-71091000D01*
X184054000Y-66198000D02*
X184054000Y-67540000D01*
X183374000Y-69620000D02*
X183374000Y-70551000D01*
X184094000Y-66182000D02*
X184094000Y-67540000D01*
X182854000Y-67197000D02*
X182854000Y-69963000D01*
X182934000Y-67080000D02*
X182934000Y-70080000D01*
X183134000Y-66837000D02*
X183134000Y-67540000D01*
X183414000Y-69620000D02*
X183414000Y-70584000D01*
X184134000Y-69620000D02*
X184134000Y-70994000D01*
X183894000Y-69620000D02*
X183894000Y-70890000D01*
X183054000Y-66927000D02*
X183054000Y-67540000D01*
X187675000Y-68580000D02*
G75*
G03*
X187675000Y-68580000I-2620000J0D01*
G01*
%TO.C,C5*%
X237640113Y-62635000D02*
X237640113Y-64138000D01*
X237319113Y-59127000D02*
X237319113Y-60555000D01*
X236839113Y-59327000D02*
X236839113Y-60555000D01*
X235719113Y-60497000D02*
X235719113Y-62693000D01*
X236159113Y-62635000D02*
X236159113Y-63338000D01*
X237079113Y-62635000D02*
X237079113Y-63977000D01*
X236599113Y-62635000D02*
X236599113Y-63717000D01*
X237760113Y-62635000D02*
X237760113Y-64156000D01*
X237480113Y-59084000D02*
X237480113Y-60555000D01*
X236359113Y-59658000D02*
X236359113Y-60555000D01*
X237279113Y-59140000D02*
X237279113Y-60555000D01*
X240884888Y-60120000D02*
X240384888Y-60120000D01*
X237239113Y-62635000D02*
X237239113Y-64037000D01*
X236119113Y-62635000D02*
X236119113Y-63294000D01*
X237079113Y-59213000D02*
X237079113Y-60555000D01*
X238000113Y-62635000D02*
X238000113Y-64174000D01*
X236279113Y-62635000D02*
X236279113Y-63459000D01*
X236679113Y-62635000D02*
X236679113Y-63770000D01*
X237319113Y-62635000D02*
X237319113Y-64063000D01*
X237039113Y-59230000D02*
X237039113Y-60555000D01*
X236679113Y-59420000D02*
X236679113Y-60555000D01*
X236279113Y-59731000D02*
X236279113Y-60555000D01*
X237440113Y-62635000D02*
X237440113Y-64096000D01*
X236879113Y-59305000D02*
X236879113Y-60555000D01*
X236439113Y-62635000D02*
X236439113Y-63599000D01*
X236639113Y-62635000D02*
X236639113Y-63744000D01*
X237359113Y-59115000D02*
X237359113Y-60555000D01*
X237920113Y-62635000D02*
X237920113Y-64171000D01*
X237560113Y-59067000D02*
X237560113Y-60555000D01*
X236199113Y-59810000D02*
X236199113Y-60555000D01*
X236079113Y-59942000D02*
X236079113Y-60555000D01*
X235959113Y-60095000D02*
X235959113Y-63095000D01*
X236879113Y-62635000D02*
X236879113Y-63885000D01*
X237880113Y-62635000D02*
X237880113Y-64168000D01*
X235879113Y-60212000D02*
X235879113Y-62978000D01*
X235759113Y-60417000D02*
X235759113Y-62773000D01*
X236799113Y-62635000D02*
X236799113Y-63842000D01*
X236919113Y-59285000D02*
X236919113Y-60555000D01*
X237239113Y-59153000D02*
X237239113Y-60555000D01*
X237119113Y-62635000D02*
X237119113Y-63993000D01*
X238000113Y-59016000D02*
X238000113Y-60555000D01*
X235839113Y-60276000D02*
X235839113Y-62914000D01*
X236639113Y-59446000D02*
X236639113Y-60555000D01*
X236999113Y-62635000D02*
X236999113Y-63943000D01*
X237800113Y-62635000D02*
X237800113Y-64160000D01*
X235919113Y-60152000D02*
X235919113Y-63038000D01*
X236839113Y-62635000D02*
X236839113Y-63863000D01*
X236239113Y-59769000D02*
X236239113Y-60555000D01*
X237159113Y-62635000D02*
X237159113Y-64009000D01*
X236319113Y-59694000D02*
X236319113Y-60555000D01*
X237400113Y-62635000D02*
X237400113Y-64086000D01*
X237039113Y-62635000D02*
X237039113Y-63960000D01*
X240634888Y-59870000D02*
X240634888Y-60370000D01*
X237400113Y-59104000D02*
X237400113Y-60555000D01*
X236759113Y-59371000D02*
X236759113Y-60555000D01*
X237440113Y-59094000D02*
X237440113Y-60555000D01*
X238040113Y-59015000D02*
X238040113Y-60555000D01*
X236239113Y-62635000D02*
X236239113Y-63421000D01*
X236119113Y-59896000D02*
X236119113Y-60555000D01*
X236439113Y-59591000D02*
X236439113Y-60555000D01*
X236399113Y-59624000D02*
X236399113Y-60555000D01*
X235799113Y-60344000D02*
X235799113Y-62846000D01*
X237960113Y-59017000D02*
X237960113Y-60555000D01*
X237600113Y-59059000D02*
X237600113Y-60555000D01*
X236919113Y-62635000D02*
X236919113Y-63905000D01*
X237560113Y-62635000D02*
X237560113Y-64123000D01*
X237960113Y-62635000D02*
X237960113Y-64173000D01*
X237359113Y-62635000D02*
X237359113Y-64075000D01*
X236559113Y-62635000D02*
X236559113Y-63690000D01*
X236519113Y-59530000D02*
X236519113Y-60555000D01*
X237800113Y-59030000D02*
X237800113Y-60555000D01*
X237680113Y-59045000D02*
X237680113Y-60555000D01*
X237880113Y-59022000D02*
X237880113Y-60555000D01*
X237600113Y-62635000D02*
X237600113Y-64131000D01*
X236959113Y-59266000D02*
X236959113Y-60555000D01*
X235999113Y-60041000D02*
X235999113Y-63149000D01*
X236599113Y-59473000D02*
X236599113Y-60555000D01*
X238040113Y-62635000D02*
X238040113Y-64175000D01*
X237720113Y-59039000D02*
X237720113Y-60555000D01*
X236799113Y-59348000D02*
X236799113Y-60555000D01*
X235639113Y-60680000D02*
X235639113Y-62510000D01*
X237640113Y-59052000D02*
X237640113Y-60555000D01*
X236079113Y-62635000D02*
X236079113Y-63248000D01*
X237760113Y-59034000D02*
X237760113Y-60555000D01*
X237840113Y-59026000D02*
X237840113Y-60555000D01*
X237840113Y-62635000D02*
X237840113Y-64164000D01*
X235479113Y-61311000D02*
X235479113Y-61879000D01*
X237520113Y-59075000D02*
X237520113Y-60555000D01*
X237920113Y-59019000D02*
X237920113Y-60555000D01*
X237279113Y-62635000D02*
X237279113Y-64050000D01*
X237199113Y-62635000D02*
X237199113Y-64023000D01*
X236479113Y-62635000D02*
X236479113Y-63630000D01*
X236479113Y-59560000D02*
X236479113Y-60555000D01*
X236359113Y-62635000D02*
X236359113Y-63532000D01*
X236519113Y-62635000D02*
X236519113Y-63660000D01*
X235519113Y-61077000D02*
X235519113Y-62113000D01*
X236399113Y-62635000D02*
X236399113Y-63566000D01*
X236039113Y-59990000D02*
X236039113Y-63200000D01*
X237199113Y-59167000D02*
X237199113Y-60555000D01*
X236159113Y-59852000D02*
X236159113Y-60555000D01*
X237480113Y-62635000D02*
X237480113Y-64106000D01*
X236959113Y-62635000D02*
X236959113Y-63924000D01*
X237720113Y-62635000D02*
X237720113Y-64151000D01*
X237520113Y-62635000D02*
X237520113Y-64115000D01*
X236559113Y-59500000D02*
X236559113Y-60555000D01*
X237119113Y-59197000D02*
X237119113Y-60555000D01*
X237680113Y-62635000D02*
X237680113Y-64145000D01*
X236719113Y-59395000D02*
X236719113Y-60555000D01*
X236719113Y-62635000D02*
X236719113Y-63795000D01*
X235599113Y-60790000D02*
X235599113Y-62400000D01*
X235679113Y-60584000D02*
X235679113Y-62606000D01*
X238080113Y-62635000D02*
X238080113Y-64175000D01*
X237159113Y-59181000D02*
X237159113Y-60555000D01*
X236999113Y-59247000D02*
X236999113Y-60555000D01*
X235559113Y-60918000D02*
X235559113Y-62272000D01*
X236759113Y-62635000D02*
X236759113Y-63819000D01*
X236199113Y-62635000D02*
X236199113Y-63380000D01*
X236319113Y-62635000D02*
X236319113Y-63496000D01*
X238080113Y-59015000D02*
X238080113Y-60555000D01*
X240700113Y-61595000D02*
G75*
G03*
X240700113Y-61595000I-2620000J0D01*
G01*
%TO.C,R9*%
X205840000Y-36925000D02*
X203100000Y-36925000D01*
X203100000Y-30385000D02*
X205840000Y-30385000D01*
X205840000Y-30385000D02*
X205840000Y-36925000D01*
X204470000Y-37695000D02*
X204470000Y-36925000D01*
X203100000Y-36925000D02*
X203100000Y-30385000D01*
X204470000Y-29615000D02*
X204470000Y-30385000D01*
%TO.C,Q4*%
X230450000Y-65510000D02*
X230450000Y-69110000D01*
X225999999Y-67310000D02*
G75*
G03*
X230438478Y-69148478I2600001J0D01*
G01*
X230438478Y-65471522D02*
G75*
G03*
X226000000Y-67310000I-1838478J-1838478D01*
G01*
%TO.C,R10*%
X242800000Y-33020000D02*
X242030000Y-33020000D01*
X234720000Y-33020000D02*
X235490000Y-33020000D01*
X235490000Y-31650000D02*
X242030000Y-31650000D01*
X235490000Y-34390000D02*
X235490000Y-31650000D01*
X242030000Y-34390000D02*
X235490000Y-34390000D01*
X242030000Y-31650000D02*
X242030000Y-34390000D01*
%TO.C,C1*%
X164577000Y-34580888D02*
X165965000Y-34580888D01*
X168045000Y-34059888D02*
X169561000Y-34059888D01*
X168045000Y-34540888D02*
X169447000Y-34540888D01*
X164537000Y-34460888D02*
X165965000Y-34460888D01*
X168045000Y-35180888D02*
X169127000Y-35180888D01*
X168045000Y-33739888D02*
X169585000Y-33739888D01*
X165104000Y-35460888D02*
X165965000Y-35460888D01*
X165034000Y-35380888D02*
X165965000Y-35380888D01*
X168045000Y-35220888D02*
X169100000Y-35220888D01*
X168045000Y-34940888D02*
X169273000Y-34940888D01*
X164425000Y-33699888D02*
X165965000Y-33699888D01*
X168045000Y-35380888D02*
X168976000Y-35380888D01*
X164477000Y-34219888D02*
X165965000Y-34219888D01*
X168045000Y-33939888D02*
X169574000Y-33939888D01*
X168045000Y-34620888D02*
X169419000Y-34620888D01*
X168045000Y-34700888D02*
X169387000Y-34700888D01*
X168045000Y-35500888D02*
X168869000Y-35500888D01*
X165622000Y-35900888D02*
X168388000Y-35900888D01*
X164830000Y-35100888D02*
X165965000Y-35100888D01*
X164485000Y-34259888D02*
X165965000Y-34259888D01*
X165001000Y-35340888D02*
X165965000Y-35340888D01*
X164805000Y-35060888D02*
X165965000Y-35060888D01*
X165994000Y-36100888D02*
X168016000Y-36100888D01*
X168045000Y-35540888D02*
X168831000Y-35540888D01*
X165686000Y-35940888D02*
X168324000Y-35940888D01*
X168045000Y-34780888D02*
X169353000Y-34780888D01*
X164715000Y-34900888D02*
X165965000Y-34900888D01*
X164455000Y-34099888D02*
X165965000Y-34099888D01*
X168045000Y-34139888D02*
X169548000Y-34139888D01*
X168045000Y-35260888D02*
X169070000Y-35260888D01*
X165280000Y-31145113D02*
X165780000Y-31145113D01*
X166090000Y-36140888D02*
X167920000Y-36140888D01*
X164607000Y-34660888D02*
X165965000Y-34660888D01*
X168045000Y-34299888D02*
X169516000Y-34299888D01*
X168045000Y-35140888D02*
X169154000Y-35140888D01*
X165562000Y-35860888D02*
X168448000Y-35860888D01*
X164623000Y-34700888D02*
X165965000Y-34700888D01*
X168045000Y-34420888D02*
X169485000Y-34420888D01*
X168045000Y-34219888D02*
X169533000Y-34219888D01*
X168045000Y-34820888D02*
X169334000Y-34820888D01*
X166200000Y-36180888D02*
X167810000Y-36180888D01*
X168045000Y-35420888D02*
X168942000Y-35420888D01*
X168045000Y-33859888D02*
X169581000Y-33859888D01*
X168045000Y-35340888D02*
X169009000Y-35340888D01*
X164563000Y-34540888D02*
X165965000Y-34540888D01*
X168045000Y-34259888D02*
X169525000Y-34259888D01*
X168045000Y-33819888D02*
X169583000Y-33819888D01*
X165505000Y-35820888D02*
X168505000Y-35820888D01*
X166721000Y-36300888D02*
X167289000Y-36300888D01*
X165306000Y-35660888D02*
X165965000Y-35660888D01*
X168045000Y-34740888D02*
X169370000Y-34740888D01*
X164758000Y-34980888D02*
X165965000Y-34980888D01*
X168045000Y-34460888D02*
X169473000Y-34460888D01*
X164504000Y-34339888D02*
X165965000Y-34339888D01*
X164514000Y-34379888D02*
X165965000Y-34379888D01*
X164469000Y-34179888D02*
X165965000Y-34179888D01*
X168045000Y-35700888D02*
X168658000Y-35700888D01*
X168045000Y-35300888D02*
X169040000Y-35300888D01*
X164436000Y-33939888D02*
X165965000Y-33939888D01*
X164910000Y-35220888D02*
X165965000Y-35220888D01*
X164970000Y-35300888D02*
X165965000Y-35300888D01*
X164525000Y-34420888D02*
X165965000Y-34420888D01*
X168045000Y-35460888D02*
X168906000Y-35460888D01*
X168045000Y-33779888D02*
X169584000Y-33779888D01*
X166487000Y-36260888D02*
X167523000Y-36260888D01*
X164462000Y-34139888D02*
X165965000Y-34139888D01*
X164432000Y-33899888D02*
X165965000Y-33899888D01*
X168045000Y-34900888D02*
X169295000Y-34900888D01*
X168045000Y-35660888D02*
X168704000Y-35660888D01*
X164940000Y-35260888D02*
X165965000Y-35260888D01*
X168045000Y-35060888D02*
X169205000Y-35060888D01*
X165400000Y-35740888D02*
X168610000Y-35740888D01*
X164856000Y-35140888D02*
X165965000Y-35140888D01*
X165827000Y-36020888D02*
X168183000Y-36020888D01*
X165451000Y-35780888D02*
X168559000Y-35780888D01*
X168045000Y-35020888D02*
X169229000Y-35020888D01*
X164425000Y-33739888D02*
X165965000Y-33739888D01*
X168045000Y-33979888D02*
X169570000Y-33979888D01*
X164429000Y-33859888D02*
X165965000Y-33859888D01*
X168045000Y-34860888D02*
X169315000Y-34860888D01*
X166328000Y-36220888D02*
X167682000Y-36220888D01*
X164444000Y-34019888D02*
X165965000Y-34019888D01*
X165907000Y-36060888D02*
X168103000Y-36060888D01*
X168045000Y-35620888D02*
X168748000Y-35620888D01*
X164426000Y-33779888D02*
X165965000Y-33779888D01*
X165754000Y-35980888D02*
X168256000Y-35980888D01*
X168045000Y-34339888D02*
X169506000Y-34339888D01*
X165141000Y-35500888D02*
X165965000Y-35500888D01*
X168045000Y-34379888D02*
X169496000Y-34379888D01*
X164550000Y-34500888D02*
X165965000Y-34500888D01*
X165068000Y-35420888D02*
X165965000Y-35420888D01*
X165262000Y-35620888D02*
X165965000Y-35620888D01*
X168045000Y-34580888D02*
X169433000Y-34580888D01*
X168045000Y-33899888D02*
X169578000Y-33899888D01*
X164640000Y-34740888D02*
X165965000Y-34740888D01*
X168045000Y-34019888D02*
X169566000Y-34019888D01*
X164676000Y-34820888D02*
X165965000Y-34820888D01*
X164695000Y-34860888D02*
X165965000Y-34860888D01*
X168045000Y-35580888D02*
X168790000Y-35580888D01*
X164494000Y-34299888D02*
X165965000Y-34299888D01*
X168045000Y-33699888D02*
X169585000Y-33699888D01*
X165352000Y-35700888D02*
X165965000Y-35700888D01*
X164883000Y-35180888D02*
X165965000Y-35180888D01*
X164440000Y-33979888D02*
X165965000Y-33979888D01*
X164427000Y-33819888D02*
X165965000Y-33819888D01*
X168045000Y-34980888D02*
X169252000Y-34980888D01*
X168045000Y-34179888D02*
X169541000Y-34179888D01*
X164591000Y-34620888D02*
X165965000Y-34620888D01*
X164781000Y-35020888D02*
X165965000Y-35020888D01*
X165530000Y-30895113D02*
X165530000Y-31395113D01*
X168045000Y-34099888D02*
X169555000Y-34099888D01*
X164737000Y-34940888D02*
X165965000Y-34940888D01*
X164449000Y-34059888D02*
X165965000Y-34059888D01*
X165220000Y-35580888D02*
X165965000Y-35580888D01*
X164657000Y-34780888D02*
X165965000Y-34780888D01*
X168045000Y-35100888D02*
X169180000Y-35100888D01*
X168045000Y-34500888D02*
X169460000Y-34500888D01*
X168045000Y-34660888D02*
X169403000Y-34660888D01*
X165179000Y-35540888D02*
X165965000Y-35540888D01*
X169625000Y-33699888D02*
G75*
G03*
X169625000Y-33699888I-2620000J0D01*
G01*
%TO.C,C2*%
X167922642Y-62869325D02*
X167922642Y-61599325D01*
X168482642Y-62869325D02*
X168482642Y-61972325D01*
X167441642Y-66400325D02*
X167441642Y-64949325D01*
X164206867Y-65634325D02*
X164206867Y-65134325D01*
X167401642Y-66410325D02*
X167401642Y-64949325D01*
X167882642Y-62869325D02*
X167882642Y-61580325D01*
X169202642Y-64824325D02*
X169202642Y-62994325D01*
X168282642Y-66004325D02*
X168282642Y-64949325D01*
X166841642Y-62869325D02*
X166841642Y-61330325D01*
X167642642Y-66337325D02*
X167642642Y-64949325D01*
X168042642Y-66156325D02*
X168042642Y-64949325D01*
X168082642Y-66133325D02*
X168082642Y-64949325D01*
X167121642Y-66465325D02*
X167121642Y-64949325D01*
X166961642Y-66482325D02*
X166961642Y-64949325D01*
X169122642Y-65007325D02*
X169122642Y-62811325D01*
X167161642Y-62869325D02*
X167161642Y-61359325D01*
X168442642Y-65880325D02*
X168442642Y-64949325D01*
X168402642Y-62869325D02*
X168402642Y-61905325D01*
X167201642Y-66452325D02*
X167201642Y-64949325D01*
X168242642Y-62869325D02*
X168242642Y-61787325D01*
X168802642Y-65514325D02*
X168802642Y-62304325D01*
X166881642Y-62869325D02*
X166881642Y-61331325D01*
X168882642Y-65409325D02*
X168882642Y-62409325D01*
X169002642Y-65228325D02*
X169002642Y-62590325D01*
X168202642Y-62869325D02*
X168202642Y-61760325D01*
X168602642Y-62869325D02*
X168602642Y-62083325D01*
X167001642Y-62869325D02*
X167001642Y-61340325D01*
X167882642Y-66238325D02*
X167882642Y-64949325D01*
X167241642Y-62869325D02*
X167241642Y-61373325D01*
X167041642Y-62869325D02*
X167041642Y-61344325D01*
X167321642Y-62869325D02*
X167321642Y-61389325D01*
X167562642Y-62869325D02*
X167562642Y-61454325D01*
X168442642Y-62869325D02*
X168442642Y-61938325D01*
X167722642Y-66307325D02*
X167722642Y-64949325D01*
X167121642Y-62869325D02*
X167121642Y-61353325D01*
X168402642Y-65913325D02*
X168402642Y-64949325D01*
X169322642Y-64427325D02*
X169322642Y-63391325D01*
X167241642Y-66445325D02*
X167241642Y-64949325D01*
X168642642Y-62869325D02*
X168642642Y-62124325D01*
X167802642Y-62869325D02*
X167802642Y-61544325D01*
X167361642Y-62869325D02*
X167361642Y-61398325D01*
X168842642Y-65463325D02*
X168842642Y-62355325D01*
X167321642Y-66429325D02*
X167321642Y-64949325D01*
X168242642Y-66031325D02*
X168242642Y-64949325D01*
X168682642Y-65652325D02*
X168682642Y-64949325D01*
X168682642Y-62869325D02*
X168682642Y-62166325D01*
X168522642Y-65810325D02*
X168522642Y-64949325D01*
X167722642Y-62869325D02*
X167722642Y-61511325D01*
X167682642Y-62869325D02*
X167682642Y-61495325D01*
X168362642Y-62869325D02*
X168362642Y-61874325D01*
X167842642Y-66257325D02*
X167842642Y-64949325D01*
X169282642Y-64586325D02*
X169282642Y-63232325D01*
X167482642Y-62869325D02*
X167482642Y-61429325D01*
X167361642Y-66420325D02*
X167361642Y-64949325D01*
X167001642Y-66478325D02*
X167001642Y-64949325D01*
X168482642Y-65846325D02*
X168482642Y-64949325D01*
X168122642Y-66109325D02*
X168122642Y-64949325D01*
X166921642Y-66485325D02*
X166921642Y-64949325D01*
X167922642Y-66219325D02*
X167922642Y-64949325D01*
X168042642Y-62869325D02*
X168042642Y-61662325D01*
X166961642Y-62869325D02*
X166961642Y-61336325D01*
X167081642Y-66470325D02*
X167081642Y-64949325D01*
X168722642Y-62869325D02*
X168722642Y-62210325D01*
X167642642Y-62869325D02*
X167642642Y-61481325D01*
X167802642Y-66274325D02*
X167802642Y-64949325D01*
X168602642Y-65735325D02*
X168602642Y-64949325D01*
X167602642Y-62869325D02*
X167602642Y-61467325D01*
X168362642Y-65944325D02*
X168362642Y-64949325D01*
X167081642Y-62869325D02*
X167081642Y-61348325D01*
X169042642Y-65160325D02*
X169042642Y-62658325D01*
X168642642Y-65694325D02*
X168642642Y-64949325D01*
X167562642Y-66364325D02*
X167562642Y-64949325D01*
X166921642Y-62869325D02*
X166921642Y-61333325D01*
X167962642Y-66199325D02*
X167962642Y-64949325D01*
X166761642Y-62869325D02*
X166761642Y-61329325D01*
X169162642Y-64920325D02*
X169162642Y-62898325D01*
X163956867Y-65384325D02*
X164456867Y-65384325D01*
X166801642Y-62869325D02*
X166801642Y-61329325D01*
X168282642Y-62869325D02*
X168282642Y-61814325D01*
X167041642Y-66474325D02*
X167041642Y-64949325D01*
X169242642Y-64714325D02*
X169242642Y-63104325D01*
X168762642Y-65562325D02*
X168762642Y-64949325D01*
X167842642Y-62869325D02*
X167842642Y-61561325D01*
X169362642Y-64193325D02*
X169362642Y-63625325D01*
X167762642Y-62869325D02*
X167762642Y-61527325D01*
X166841642Y-66488325D02*
X166841642Y-64949325D01*
X167762642Y-66291325D02*
X167762642Y-64949325D01*
X167522642Y-62869325D02*
X167522642Y-61441325D01*
X167281642Y-66437325D02*
X167281642Y-64949325D01*
X167441642Y-62869325D02*
X167441642Y-61418325D01*
X167201642Y-62869325D02*
X167201642Y-61366325D01*
X168122642Y-62869325D02*
X168122642Y-61709325D01*
X168002642Y-62869325D02*
X168002642Y-61641325D01*
X168322642Y-65974325D02*
X168322642Y-64949325D01*
X168562642Y-65773325D02*
X168562642Y-64949325D01*
X166881642Y-66487325D02*
X166881642Y-64949325D01*
X167602642Y-66351325D02*
X167602642Y-64949325D01*
X168162642Y-66084325D02*
X168162642Y-64949325D01*
X168082642Y-62869325D02*
X168082642Y-61685325D01*
X169082642Y-65087325D02*
X169082642Y-62731325D01*
X168322642Y-62869325D02*
X168322642Y-61844325D01*
X167682642Y-66323325D02*
X167682642Y-64949325D01*
X166761642Y-66489325D02*
X166761642Y-64949325D01*
X168162642Y-62869325D02*
X168162642Y-61734325D01*
X167161642Y-66459325D02*
X167161642Y-64949325D01*
X166801642Y-66489325D02*
X166801642Y-64949325D01*
X167522642Y-66377325D02*
X167522642Y-64949325D01*
X167281642Y-62869325D02*
X167281642Y-61381325D01*
X168922642Y-65352325D02*
X168922642Y-62466325D01*
X168962642Y-65292325D02*
X168962642Y-62526325D01*
X167482642Y-66389325D02*
X167482642Y-64949325D01*
X168202642Y-66058325D02*
X168202642Y-64949325D01*
X167962642Y-62869325D02*
X167962642Y-61619325D01*
X168722642Y-65608325D02*
X168722642Y-64949325D01*
X168522642Y-62869325D02*
X168522642Y-62008325D01*
X168002642Y-66177325D02*
X168002642Y-64949325D01*
X168562642Y-62869325D02*
X168562642Y-62045325D01*
X167401642Y-62869325D02*
X167401642Y-61408325D01*
X168762642Y-62869325D02*
X168762642Y-62256325D01*
X169381642Y-63909325D02*
G75*
G03*
X169381642Y-63909325I-2620000J0D01*
G01*
%TO.C,Q3*%
X215210000Y-67415000D02*
X215210000Y-71015000D01*
X215198478Y-67376522D02*
G75*
G03*
X210760000Y-69215000I-1838478J-1838478D01*
G01*
X210759999Y-69215000D02*
G75*
G03*
X215198478Y-71053478I2600001J0D01*
G01*
%TO.C,D9*%
X212110000Y-31475000D02*
X212110000Y-34565000D01*
X212110000Y-31475170D02*
G75*
G03*
X206560000Y-33020462I-2560000J-1544830D01*
G01*
X206560000Y-33019538D02*
G75*
G03*
X212110000Y-34564830I2990000J-462D01*
G01*
X212050000Y-33020000D02*
G75*
G03*
X212050000Y-33020000I-2500000J0D01*
G01*
%TO.C,Q2*%
X196852341Y-67415000D02*
X196852341Y-71015000D01*
X192402340Y-69215000D02*
G75*
G03*
X196840819Y-71053478I2600001J0D01*
G01*
X196840819Y-67376522D02*
G75*
G03*
X192402341Y-69215000I-1838478J-1838478D01*
G01*
%TO.C,Q1*%
X179650000Y-67415000D02*
X179650000Y-71015000D01*
X175199999Y-69215000D02*
G75*
G03*
X179638478Y-71053478I2600001J0D01*
G01*
X179638478Y-67376522D02*
G75*
G03*
X175200000Y-69215000I-1838478J-1838478D01*
G01*
%TO.C,Q5*%
X227910000Y-34395000D02*
X227910000Y-37995000D01*
X223459999Y-36195000D02*
G75*
G03*
X227898478Y-38033478I2600001J0D01*
G01*
X227898478Y-34356522D02*
G75*
G03*
X223460000Y-36195000I-1838478J-1838478D01*
G01*
%TO.C,C4*%
X205009113Y-69620000D02*
X205009113Y-70804000D01*
X205850113Y-66044000D02*
X205850113Y-67540000D01*
X205129113Y-66290000D02*
X205129113Y-67540000D01*
X205890113Y-69620000D02*
X205890113Y-71123000D01*
X204249113Y-67026000D02*
X204249113Y-70134000D01*
X205129113Y-69620000D02*
X205129113Y-70870000D01*
X204769113Y-66515000D02*
X204769113Y-67540000D01*
X205730113Y-69620000D02*
X205730113Y-71091000D01*
X206250113Y-69620000D02*
X206250113Y-71159000D01*
X205970113Y-69620000D02*
X205970113Y-71136000D01*
X205529113Y-69620000D02*
X205529113Y-71035000D01*
X204369113Y-69620000D02*
X204369113Y-70279000D01*
X205249113Y-66232000D02*
X205249113Y-67540000D01*
X204089113Y-67261000D02*
X204089113Y-69899000D01*
X206250113Y-66001000D02*
X206250113Y-67540000D01*
X205329113Y-66198000D02*
X205329113Y-67540000D01*
X205529113Y-66125000D02*
X205529113Y-67540000D01*
X205650113Y-66089000D02*
X205650113Y-67540000D01*
X205810113Y-66052000D02*
X205810113Y-67540000D01*
X204169113Y-67137000D02*
X204169113Y-70023000D01*
X206010113Y-69620000D02*
X206010113Y-71141000D01*
X203729113Y-68296000D02*
X203729113Y-68864000D01*
X205369113Y-66182000D02*
X205369113Y-67540000D01*
X204929113Y-66405000D02*
X204929113Y-67540000D01*
X204009113Y-67402000D02*
X204009113Y-69758000D01*
X205489113Y-69620000D02*
X205489113Y-71022000D01*
X204609113Y-66643000D02*
X204609113Y-67540000D01*
X206170113Y-66004000D02*
X206170113Y-67540000D01*
X205890113Y-66037000D02*
X205890113Y-67540000D01*
X204809113Y-66485000D02*
X204809113Y-67540000D01*
X204209113Y-67080000D02*
X204209113Y-70080000D01*
X205609113Y-66100000D02*
X205609113Y-67540000D01*
X205690113Y-66079000D02*
X205690113Y-67540000D01*
X204769113Y-69620000D02*
X204769113Y-70645000D01*
X204409113Y-69620000D02*
X204409113Y-70323000D01*
X204689113Y-66576000D02*
X204689113Y-67540000D01*
X205329113Y-69620000D02*
X205329113Y-70962000D01*
X205810113Y-69620000D02*
X205810113Y-71108000D01*
X206050113Y-69620000D02*
X206050113Y-71145000D01*
X206210113Y-66002000D02*
X206210113Y-67540000D01*
X203969113Y-67482000D02*
X203969113Y-69678000D01*
X205009113Y-66356000D02*
X205009113Y-67540000D01*
X204889113Y-66431000D02*
X204889113Y-67540000D01*
X203849113Y-67775000D02*
X203849113Y-69385000D01*
X204409113Y-66837000D02*
X204409113Y-67540000D01*
X205169113Y-69620000D02*
X205169113Y-70890000D01*
X206330113Y-66000000D02*
X206330113Y-67540000D01*
X205690113Y-69620000D02*
X205690113Y-71081000D01*
X204649113Y-69620000D02*
X204649113Y-70551000D01*
X204449113Y-69620000D02*
X204449113Y-70365000D01*
X203769113Y-68062000D02*
X203769113Y-69098000D01*
X204449113Y-66795000D02*
X204449113Y-67540000D01*
X204649113Y-66609000D02*
X204649113Y-67540000D01*
X205730113Y-66069000D02*
X205730113Y-67540000D01*
X206010113Y-66019000D02*
X206010113Y-67540000D01*
X203809113Y-67903000D02*
X203809113Y-69257000D01*
X204809113Y-69620000D02*
X204809113Y-70675000D01*
X205049113Y-66333000D02*
X205049113Y-67540000D01*
X205650113Y-69620000D02*
X205650113Y-71071000D01*
X204889113Y-69620000D02*
X204889113Y-70729000D01*
X204489113Y-66754000D02*
X204489113Y-67540000D01*
X204289113Y-66975000D02*
X204289113Y-70185000D01*
X204689113Y-69620000D02*
X204689113Y-70584000D01*
X206050113Y-66015000D02*
X206050113Y-67540000D01*
X205970113Y-66024000D02*
X205970113Y-67540000D01*
X204929113Y-69620000D02*
X204929113Y-70755000D01*
X205089113Y-66312000D02*
X205089113Y-67540000D01*
X205609113Y-69620000D02*
X205609113Y-71060000D01*
X204609113Y-69620000D02*
X204609113Y-70517000D01*
X205850113Y-69620000D02*
X205850113Y-71116000D01*
X205169113Y-66270000D02*
X205169113Y-67540000D01*
X204729113Y-66545000D02*
X204729113Y-67540000D01*
X205770113Y-69620000D02*
X205770113Y-71100000D01*
X206090113Y-69620000D02*
X206090113Y-71149000D01*
X208884888Y-66855000D02*
X208884888Y-67355000D01*
X206290113Y-69620000D02*
X206290113Y-71160000D01*
X205209113Y-69620000D02*
X205209113Y-70909000D01*
X204849113Y-69620000D02*
X204849113Y-70702000D01*
X205930113Y-69620000D02*
X205930113Y-71130000D01*
X206090113Y-66011000D02*
X206090113Y-67540000D01*
X205489113Y-66138000D02*
X205489113Y-67540000D01*
X205569113Y-69620000D02*
X205569113Y-71048000D01*
X203889113Y-67665000D02*
X203889113Y-69495000D01*
X206170113Y-69620000D02*
X206170113Y-71156000D01*
X204129113Y-67197000D02*
X204129113Y-69963000D01*
X204969113Y-69620000D02*
X204969113Y-70780000D01*
X205369113Y-69620000D02*
X205369113Y-70978000D01*
X206130113Y-66007000D02*
X206130113Y-67540000D01*
X203929113Y-67569000D02*
X203929113Y-69591000D01*
X206290113Y-66000000D02*
X206290113Y-67540000D01*
X205289113Y-66215000D02*
X205289113Y-67540000D01*
X204729113Y-69620000D02*
X204729113Y-70615000D01*
X205289113Y-69620000D02*
X205289113Y-70945000D01*
X204369113Y-66881000D02*
X204369113Y-67540000D01*
X205209113Y-66251000D02*
X205209113Y-67540000D01*
X204569113Y-66679000D02*
X204569113Y-67540000D01*
X205449113Y-69620000D02*
X205449113Y-71008000D01*
X204329113Y-66927000D02*
X204329113Y-67540000D01*
X204969113Y-66380000D02*
X204969113Y-67540000D01*
X204529113Y-69620000D02*
X204529113Y-70444000D01*
X206130113Y-69620000D02*
X206130113Y-71153000D01*
X209134888Y-67105000D02*
X208634888Y-67105000D01*
X204529113Y-66716000D02*
X204529113Y-67540000D01*
X205930113Y-66030000D02*
X205930113Y-67540000D01*
X205449113Y-66152000D02*
X205449113Y-67540000D01*
X204329113Y-69620000D02*
X204329113Y-70233000D01*
X206210113Y-69620000D02*
X206210113Y-71158000D01*
X205569113Y-66112000D02*
X205569113Y-67540000D01*
X204489113Y-69620000D02*
X204489113Y-70406000D01*
X205409113Y-66166000D02*
X205409113Y-67540000D01*
X205049113Y-69620000D02*
X205049113Y-70827000D01*
X206330113Y-69620000D02*
X206330113Y-71160000D01*
X204049113Y-67329000D02*
X204049113Y-69831000D01*
X204849113Y-66458000D02*
X204849113Y-67540000D01*
X204569113Y-69620000D02*
X204569113Y-70481000D01*
X205409113Y-69620000D02*
X205409113Y-70994000D01*
X205249113Y-69620000D02*
X205249113Y-70928000D01*
X205770113Y-66060000D02*
X205770113Y-67540000D01*
X205089113Y-69620000D02*
X205089113Y-70848000D01*
X208950113Y-68580000D02*
G75*
G03*
X208950113Y-68580000I-2620000J0D01*
G01*
%TO.C,D8*%
X187980000Y-31475000D02*
X187980000Y-34565000D01*
X182430000Y-33019538D02*
G75*
G03*
X187980000Y-34564830I2990000J-462D01*
G01*
X187980000Y-31475170D02*
G75*
G03*
X182430000Y-33020462I-2560000J-1544830D01*
G01*
X187920000Y-33020000D02*
G75*
G03*
X187920000Y-33020000I-2500000J0D01*
G01*
%TO.C,D10*%
X218460000Y-31475000D02*
X218460000Y-34565000D01*
X212910000Y-33019538D02*
G75*
G03*
X218460000Y-34564830I2990000J-462D01*
G01*
X218460000Y-31475170D02*
G75*
G03*
X212910000Y-33020462I-2560000J-1544830D01*
G01*
X218400000Y-33020000D02*
G75*
G03*
X218400000Y-33020000I-2500000J0D01*
G01*
%TO.C,R4*%
X180975000Y-55015000D02*
X180975000Y-55785000D01*
X180975000Y-63095000D02*
X180975000Y-62325000D01*
X179605000Y-62325000D02*
X179605000Y-55785000D01*
X182345000Y-55785000D02*
X182345000Y-62325000D01*
X182345000Y-62325000D02*
X179605000Y-62325000D01*
X179605000Y-55785000D02*
X182345000Y-55785000D01*
%TO.C,R7*%
X190500000Y-37695000D02*
X190500000Y-36925000D01*
X190500000Y-29615000D02*
X190500000Y-30385000D01*
X189130000Y-30385000D02*
X191870000Y-30385000D01*
X189130000Y-36925000D02*
X189130000Y-30385000D01*
X191870000Y-36925000D02*
X189130000Y-36925000D01*
X191870000Y-30385000D02*
X191870000Y-36925000D01*
%TO.C,R3*%
X188501902Y-60230000D02*
X191241902Y-60230000D01*
X188501902Y-66770000D02*
X188501902Y-60230000D01*
X189871902Y-59460000D02*
X189871902Y-60230000D01*
X189871902Y-67540000D02*
X189871902Y-66770000D01*
X191241902Y-60230000D02*
X191241902Y-66770000D01*
X191241902Y-66770000D02*
X188501902Y-66770000D01*
%TO.C,R1*%
X163600000Y-39370000D02*
X164370000Y-39370000D01*
X171680000Y-39370000D02*
X170910000Y-39370000D01*
X170910000Y-40740000D02*
X164370000Y-40740000D01*
X170910000Y-38000000D02*
X170910000Y-40740000D01*
X164370000Y-40740000D02*
X164370000Y-38000000D01*
X164370000Y-38000000D02*
X170910000Y-38000000D01*
%TO.C,C6*%
X228488000Y-28599000D02*
X227100000Y-28599000D01*
X225020000Y-27479000D02*
X224407000Y-27479000D01*
X225020000Y-28399000D02*
X223712000Y-28399000D01*
X228640000Y-29440000D02*
X227100000Y-29440000D01*
X228610000Y-29080000D02*
X227100000Y-29080000D01*
X225020000Y-29360000D02*
X223482000Y-29360000D01*
X225020000Y-29440000D02*
X223480000Y-29440000D01*
X225020000Y-29480000D02*
X223480000Y-29480000D01*
X228561000Y-28840000D02*
X227100000Y-28840000D01*
X227785000Y-32034775D02*
X227285000Y-32034775D01*
X228640000Y-29480000D02*
X227100000Y-29480000D01*
X227311000Y-27199000D02*
X224809000Y-27199000D01*
X227997000Y-27759000D02*
X227100000Y-27759000D01*
X227238000Y-27159000D02*
X224882000Y-27159000D01*
X228636000Y-29320000D02*
X227100000Y-29320000D01*
X225020000Y-28039000D02*
X223911000Y-28039000D01*
X228639000Y-29400000D02*
X227100000Y-29400000D01*
X226578000Y-26919000D02*
X225542000Y-26919000D01*
X225020000Y-29320000D02*
X223484000Y-29320000D01*
X228528000Y-28719000D02*
X227100000Y-28719000D01*
X227158000Y-27119000D02*
X224962000Y-27119000D01*
X226975000Y-27039000D02*
X225145000Y-27039000D01*
X228284000Y-28159000D02*
X227100000Y-28159000D01*
X225020000Y-28599000D02*
X223632000Y-28599000D01*
X228235000Y-28079000D02*
X227100000Y-28079000D01*
X225020000Y-27839000D02*
X224056000Y-27839000D01*
X228551000Y-28800000D02*
X227100000Y-28800000D01*
X227535000Y-32284775D02*
X227535000Y-31784775D01*
X225020000Y-28119000D02*
X223860000Y-28119000D01*
X227071000Y-27079000D02*
X225049000Y-27079000D01*
X228596000Y-29000000D02*
X227100000Y-29000000D01*
X225020000Y-27959000D02*
X223965000Y-27959000D01*
X228370000Y-28319000D02*
X227100000Y-28319000D01*
X227503000Y-27319000D02*
X224617000Y-27319000D01*
X225020000Y-28759000D02*
X223580000Y-28759000D01*
X225020000Y-29120000D02*
X223504000Y-29120000D01*
X228458000Y-28519000D02*
X227100000Y-28519000D01*
X228350000Y-28279000D02*
X227100000Y-28279000D01*
X228389000Y-28359000D02*
X227100000Y-28359000D01*
X228260000Y-28119000D02*
X227100000Y-28119000D01*
X225020000Y-27719000D02*
X224159000Y-27719000D01*
X228621000Y-29160000D02*
X227100000Y-29160000D01*
X225020000Y-27519000D02*
X224361000Y-27519000D01*
X228633000Y-29280000D02*
X227100000Y-29280000D01*
X225020000Y-28359000D02*
X223731000Y-28359000D01*
X228515000Y-28679000D02*
X227100000Y-28679000D01*
X225020000Y-27999000D02*
X223938000Y-27999000D01*
X225020000Y-28199000D02*
X223813000Y-28199000D01*
X225020000Y-28840000D02*
X223559000Y-28840000D01*
X225020000Y-28719000D02*
X223592000Y-28719000D01*
X227379000Y-27239000D02*
X224741000Y-27239000D01*
X227665000Y-27439000D02*
X224455000Y-27439000D01*
X225020000Y-28079000D02*
X223885000Y-28079000D01*
X228209000Y-28039000D02*
X227100000Y-28039000D01*
X228307000Y-28199000D02*
X227100000Y-28199000D01*
X225020000Y-27639000D02*
X224234000Y-27639000D01*
X225020000Y-28679000D02*
X223605000Y-28679000D01*
X227443000Y-27279000D02*
X224677000Y-27279000D01*
X225020000Y-27919000D02*
X223995000Y-27919000D01*
X225020000Y-28279000D02*
X223770000Y-28279000D01*
X228125000Y-27919000D02*
X227100000Y-27919000D01*
X227886000Y-27639000D02*
X227100000Y-27639000D01*
X225020000Y-28239000D02*
X223792000Y-28239000D01*
X228629000Y-29240000D02*
X227100000Y-29240000D01*
X225020000Y-27679000D02*
X224196000Y-27679000D01*
X228625000Y-29200000D02*
X227100000Y-29200000D01*
X228580000Y-28920000D02*
X227100000Y-28920000D01*
X227924000Y-27679000D02*
X227100000Y-27679000D01*
X228031000Y-27799000D02*
X227100000Y-27799000D01*
X225020000Y-27559000D02*
X224317000Y-27559000D01*
X225020000Y-29240000D02*
X223491000Y-29240000D01*
X227759000Y-27519000D02*
X227100000Y-27519000D01*
X225020000Y-28519000D02*
X223662000Y-28519000D01*
X228638000Y-29360000D02*
X227100000Y-29360000D01*
X228182000Y-27999000D02*
X227100000Y-27999000D01*
X228425000Y-28439000D02*
X227100000Y-28439000D01*
X227614000Y-27399000D02*
X224506000Y-27399000D01*
X225020000Y-28920000D02*
X223540000Y-28920000D01*
X225020000Y-29160000D02*
X223499000Y-29160000D01*
X228155000Y-27959000D02*
X227100000Y-27959000D01*
X225020000Y-29000000D02*
X223524000Y-29000000D01*
X228616000Y-29120000D02*
X227100000Y-29120000D01*
X228474000Y-28559000D02*
X227100000Y-28559000D01*
X225020000Y-27799000D02*
X224089000Y-27799000D01*
X225020000Y-28880000D02*
X223549000Y-28880000D01*
X228502000Y-28639000D02*
X227100000Y-28639000D01*
X226737000Y-26959000D02*
X225383000Y-26959000D01*
X228064000Y-27839000D02*
X227100000Y-27839000D01*
X225020000Y-28960000D02*
X223532000Y-28960000D01*
X225020000Y-28439000D02*
X223695000Y-28439000D01*
X227961000Y-27719000D02*
X227100000Y-27719000D01*
X225020000Y-29080000D02*
X223510000Y-29080000D01*
X227560000Y-27359000D02*
X224560000Y-27359000D01*
X228540000Y-28759000D02*
X227100000Y-28759000D01*
X225020000Y-29200000D02*
X223495000Y-29200000D01*
X227845000Y-27599000D02*
X227100000Y-27599000D01*
X225020000Y-28639000D02*
X223618000Y-28639000D01*
X225020000Y-27879000D02*
X224025000Y-27879000D01*
X227803000Y-27559000D02*
X227100000Y-27559000D01*
X225020000Y-27599000D02*
X224275000Y-27599000D01*
X225020000Y-27759000D02*
X224123000Y-27759000D01*
X228442000Y-28479000D02*
X227100000Y-28479000D01*
X225020000Y-29280000D02*
X223487000Y-29280000D01*
X228603000Y-29040000D02*
X227100000Y-29040000D01*
X225020000Y-28159000D02*
X223836000Y-28159000D01*
X228408000Y-28399000D02*
X227100000Y-28399000D01*
X225020000Y-28800000D02*
X223569000Y-28800000D01*
X228095000Y-27879000D02*
X227100000Y-27879000D01*
X226344000Y-26879000D02*
X225776000Y-26879000D01*
X225020000Y-29400000D02*
X223481000Y-29400000D01*
X225020000Y-29040000D02*
X223517000Y-29040000D01*
X225020000Y-28559000D02*
X223646000Y-28559000D01*
X227713000Y-27479000D02*
X227100000Y-27479000D01*
X228328000Y-28239000D02*
X227100000Y-28239000D01*
X228588000Y-28960000D02*
X227100000Y-28960000D01*
X225020000Y-28479000D02*
X223678000Y-28479000D01*
X226865000Y-26999000D02*
X225255000Y-26999000D01*
X228571000Y-28880000D02*
X227100000Y-28880000D01*
X225020000Y-28319000D02*
X223750000Y-28319000D01*
X228680000Y-29480000D02*
G75*
G03*
X228680000Y-29480000I-2620000J0D01*
G01*
%TO.C,R2*%
X163735000Y-70585000D02*
X163735000Y-67845000D01*
X163735000Y-67845000D02*
X170275000Y-67845000D01*
X170275000Y-67845000D02*
X170275000Y-70585000D01*
X162965000Y-69215000D02*
X163735000Y-69215000D01*
X170275000Y-70585000D02*
X163735000Y-70585000D01*
X171045000Y-69215000D02*
X170275000Y-69215000D01*
%TO.C,D7*%
X181630000Y-31475000D02*
X181630000Y-34565000D01*
X181630000Y-31475170D02*
G75*
G03*
X176080000Y-33020462I-2560000J-1544830D01*
G01*
X176080000Y-33019538D02*
G75*
G03*
X181630000Y-34564830I2990000J-462D01*
G01*
X181570000Y-33020000D02*
G75*
G03*
X181570000Y-33020000I-2500000J0D01*
G01*
%TO.C,R6*%
X221080000Y-66770000D02*
X218340000Y-66770000D01*
X218340000Y-60230000D02*
X221080000Y-60230000D01*
X221080000Y-60230000D02*
X221080000Y-66770000D01*
X218340000Y-66770000D02*
X218340000Y-60230000D01*
X219710000Y-59460000D02*
X219710000Y-60230000D01*
X219710000Y-67540000D02*
X219710000Y-66770000D01*
%TD*%
%LPC*%
%TO.C,REF\u002A\u002A*%
G36*
X180862412Y-36028369D02*
G01*
X181582980Y-36028369D01*
X181582980Y-37469504D01*
X180862412Y-37469504D01*
X180862412Y-38190071D01*
X180141845Y-38190071D01*
X180141845Y-38910639D01*
X179421277Y-38910639D01*
X179421277Y-38190071D01*
X178700710Y-38190071D01*
X178700710Y-37469504D01*
X177980143Y-37469504D01*
X177980143Y-36028369D01*
X178700710Y-36028369D01*
X178700710Y-35307802D01*
X180862412Y-35307802D01*
X180862412Y-36028369D01*
G37*
G36*
X185906384Y-36028369D02*
G01*
X186626951Y-36028369D01*
X186626951Y-37469504D01*
X185906384Y-37469504D01*
X185906384Y-38190071D01*
X185185816Y-38190071D01*
X185185816Y-38910639D01*
X184465249Y-38910639D01*
X184465249Y-38190071D01*
X183744682Y-38190071D01*
X183744682Y-36748937D01*
X184465249Y-36748937D01*
X184465249Y-36028369D01*
X185185816Y-36028369D01*
X185185816Y-35307802D01*
X185906384Y-35307802D01*
X185906384Y-36028369D01*
G37*
G36*
X211126242Y-37469504D02*
G01*
X210405675Y-37469504D01*
X210405675Y-38910639D01*
X209685107Y-38910639D01*
X209685107Y-39631206D01*
X208964540Y-39631206D01*
X208964540Y-38910639D01*
X208243972Y-38910639D01*
X208243972Y-38190071D01*
X207523405Y-38190071D01*
X207523405Y-36748937D01*
X208964540Y-36748937D01*
X208964540Y-36028369D01*
X211126242Y-36028369D01*
X211126242Y-37469504D01*
G37*
G36*
X216170214Y-36748937D02*
G01*
X216890781Y-36748937D01*
X216890781Y-38190071D01*
X216170214Y-38190071D01*
X216170214Y-38910639D01*
X215449646Y-38910639D01*
X215449646Y-39631206D01*
X214008511Y-39631206D01*
X214008511Y-38190071D01*
X213287944Y-38190071D01*
X213287944Y-37469504D01*
X214008511Y-37469504D01*
X214008511Y-36748937D01*
X215449646Y-36748937D01*
X215449646Y-36028369D01*
X216170214Y-36028369D01*
X216170214Y-36748937D01*
G37*
%TD*%
D12*
%TO.C,D2*%
X216402500Y-58420000D03*
D13*
X212857500Y-58420000D03*
%TD*%
D12*
%TO.C,D5*%
X198622500Y-44450000D03*
D13*
X195077500Y-44450000D03*
%TD*%
D12*
%TO.C,D1*%
X164967500Y-55245000D03*
D13*
X161422500Y-55245000D03*
%TD*%
D14*
%TO.C,D3*%
X184150000Y-56647500D03*
D15*
X184150000Y-60192500D03*
%TD*%
D12*
%TO.C,D4*%
X227832500Y-44450000D03*
D13*
X224287500Y-44450000D03*
%TD*%
D12*
%TO.C,D6*%
X244342500Y-53340000D03*
D13*
X240797500Y-53340000D03*
%TD*%
D16*
%TO.C,D9*%
X211005000Y-32517500D03*
D17*
X207777500Y-32517500D03*
%TD*%
D16*
%TO.C,D8*%
X186875000Y-32517500D03*
D17*
X183647500Y-32517500D03*
%TD*%
D16*
%TO.C,D10*%
X217355000Y-32517500D03*
D17*
X214127500Y-32517500D03*
%TD*%
D16*
%TO.C,D7*%
X180525000Y-32517500D03*
D17*
X177297500Y-32517500D03*
%TD*%
M02*
