%TF.GenerationSoftware,KiCad,Pcbnew,(6.0.2)*%
%TF.CreationDate,2022-03-15T12:48:44+01:00*%
%TF.ProjectId,ruetueta-pcb,72756574-7565-4746-912d-7063622e6b69,rev?*%
%TF.SameCoordinates,Original*%
%TF.FileFunction,Soldermask,Top*%
%TF.FilePolarity,Negative*%
%FSLAX46Y46*%
G04 Gerber Fmt 4.6, Leading zero omitted, Abs format (unit mm)*
G04 Created by KiCad (PCBNEW (6.0.2)) date 2022-03-15 12:48:44*
%MOMM*%
%LPD*%
G01*
G04 APERTURE LIST*
%ADD10O,1.600000X3.175000*%
%ADD11O,3.175000X1.600000*%
%ADD12O,3.175000X2.120000*%
%ADD13R,3.175000X2.120000*%
%ADD14R,2.705000X1.600000*%
%ADD15O,2.610000X1.600000*%
%ADD16R,2.020000X1.270000*%
%ADD17O,2.655000X1.270000*%
%ADD18O,2.020000X1.270000*%
%ADD19R,1.600000X2.705000*%
%ADD20O,1.600000X2.610000*%
%ADD21R,2.170000X2.805000*%
%ADD22O,2.805000X2.805000*%
G04 APERTURE END LIST*
%TO.C,REF\u002A\u002A*%
G36*
X216170214Y-36748937D02*
G01*
X216890781Y-36748937D01*
X216890781Y-38190071D01*
X216170214Y-38190071D01*
X216170214Y-38910639D01*
X215449646Y-38910639D01*
X215449646Y-39631206D01*
X214008511Y-39631206D01*
X214008511Y-38190071D01*
X213287944Y-38190071D01*
X213287944Y-37469504D01*
X214008511Y-37469504D01*
X214008511Y-36748937D01*
X215449646Y-36748937D01*
X215449646Y-36028369D01*
X216170214Y-36028369D01*
X216170214Y-36748937D01*
G37*
G36*
X180862412Y-36028369D02*
G01*
X181582980Y-36028369D01*
X181582980Y-37469504D01*
X180862412Y-37469504D01*
X180862412Y-38190071D01*
X180141845Y-38190071D01*
X180141845Y-38910639D01*
X179421277Y-38910639D01*
X179421277Y-38190071D01*
X178700710Y-38190071D01*
X178700710Y-37469504D01*
X177980143Y-37469504D01*
X177980143Y-36028369D01*
X178700710Y-36028369D01*
X178700710Y-35307802D01*
X180862412Y-35307802D01*
X180862412Y-36028369D01*
G37*
G36*
X185906384Y-36028369D02*
G01*
X186626951Y-36028369D01*
X186626951Y-37469504D01*
X185906384Y-37469504D01*
X185906384Y-38190071D01*
X185185816Y-38190071D01*
X185185816Y-38910639D01*
X184465249Y-38910639D01*
X184465249Y-38190071D01*
X183744682Y-38190071D01*
X183744682Y-36748937D01*
X184465249Y-36748937D01*
X184465249Y-36028369D01*
X185185816Y-36028369D01*
X185185816Y-35307802D01*
X185906384Y-35307802D01*
X185906384Y-36028369D01*
G37*
G36*
X211126242Y-37469504D02*
G01*
X210405675Y-37469504D01*
X210405675Y-38910639D01*
X209685107Y-38910639D01*
X209685107Y-39631206D01*
X208964540Y-39631206D01*
X208964540Y-38910639D01*
X208243972Y-38910639D01*
X208243972Y-38190071D01*
X207523405Y-38190071D01*
X207523405Y-36748937D01*
X208964540Y-36748937D01*
X208964540Y-36028369D01*
X211126242Y-36028369D01*
X211126242Y-37469504D01*
G37*
%TD*%
D10*
%TO.C,R5*%
X199880464Y-68718086D03*
X199880464Y-57923086D03*
%TD*%
D11*
%TO.C,R8*%
X233362500Y-38100000D03*
X244157500Y-38100000D03*
%TD*%
D12*
%TO.C,J1*%
X162242500Y-32175000D03*
D13*
X162242500Y-35135000D03*
%TD*%
D14*
%TO.C,C3*%
X186607500Y-68580000D03*
D15*
X183550000Y-68580000D03*
%TD*%
D14*
%TO.C,C5*%
X239632613Y-61595000D03*
D15*
X236575113Y-61595000D03*
%TD*%
D10*
%TO.C,R9*%
X204470000Y-39052500D03*
X204470000Y-29527500D03*
%TD*%
D16*
%TO.C,Q4*%
X229495000Y-65405000D03*
D17*
X227387500Y-67310000D03*
D18*
X229495000Y-69215000D03*
%TD*%
D11*
%TO.C,R10*%
X233362500Y-33020000D03*
X244157500Y-33020000D03*
%TD*%
D19*
%TO.C,C1*%
X167005000Y-32147388D03*
D20*
X167005000Y-35204888D03*
%TD*%
D14*
%TO.C,C2*%
X165209142Y-63909325D03*
D15*
X168266642Y-63909325D03*
%TD*%
D16*
%TO.C,Q3*%
X214255000Y-67310000D03*
D17*
X212147500Y-69215000D03*
D18*
X214255000Y-71120000D03*
%TD*%
D21*
%TO.C,D9*%
X211005000Y-32517500D03*
D22*
X207777500Y-32517500D03*
%TD*%
D16*
%TO.C,Q2*%
X195897341Y-67310000D03*
D17*
X193789841Y-69215000D03*
D18*
X195897341Y-71120000D03*
%TD*%
D16*
%TO.C,Q1*%
X178695000Y-67310000D03*
D17*
X176587500Y-69215000D03*
D18*
X178695000Y-71120000D03*
%TD*%
D16*
%TO.C,Q5*%
X226955000Y-34290000D03*
D17*
X224847500Y-36195000D03*
D18*
X226955000Y-38100000D03*
%TD*%
D14*
%TO.C,C4*%
X207882613Y-68580000D03*
D15*
X204825113Y-68580000D03*
%TD*%
D21*
%TO.C,D8*%
X186875000Y-32517500D03*
D22*
X183647500Y-32517500D03*
%TD*%
D21*
%TO.C,D10*%
X217355000Y-32517500D03*
D22*
X214127500Y-32517500D03*
%TD*%
D10*
%TO.C,R4*%
X180975000Y-64452500D03*
X180975000Y-53657500D03*
%TD*%
%TO.C,R7*%
X190500000Y-39052500D03*
X190500000Y-29527500D03*
%TD*%
%TO.C,R3*%
X189871902Y-68897500D03*
X189871902Y-58102500D03*
%TD*%
D11*
%TO.C,R1*%
X173037500Y-39370000D03*
X162242500Y-39370000D03*
%TD*%
D19*
%TO.C,C6*%
X226060000Y-31032500D03*
D20*
X226060000Y-27975000D03*
%TD*%
D11*
%TO.C,R2*%
X172402500Y-69215000D03*
X161607500Y-69215000D03*
%TD*%
D21*
%TO.C,D7*%
X180525000Y-32517500D03*
D22*
X177297500Y-32517500D03*
%TD*%
D10*
%TO.C,R6*%
X219710000Y-68897500D03*
X219710000Y-58102500D03*
%TD*%
M02*
