%TF.GenerationSoftware,KiCad,Pcbnew,(6.0.2)*%
%TF.CreationDate,2022-03-15T12:48:44+01:00*%
%TF.ProjectId,ruetueta-pcb,72756574-7565-4746-912d-7063622e6b69,rev?*%
%TF.SameCoordinates,Original*%
%TF.FileFunction,Legend,Top*%
%TF.FilePolarity,Positive*%
%FSLAX46Y46*%
G04 Gerber Fmt 4.6, Leading zero omitted, Abs format (unit mm)*
G04 Created by KiCad (PCBNEW (6.0.2)) date 2022-03-15 12:48:44*
%MOMM*%
%LPD*%
G01*
G04 APERTURE LIST*
%ADD10C,0.264582*%
%ADD11C,0.132291*%
%ADD12C,0.120000*%
%ADD13O,1.600000X3.175000*%
%ADD14O,3.175000X1.600000*%
%ADD15O,3.175000X2.120000*%
%ADD16R,3.175000X2.120000*%
%ADD17R,2.705000X1.600000*%
%ADD18O,2.610000X1.600000*%
%ADD19R,2.020000X1.270000*%
%ADD20O,2.655000X1.270000*%
%ADD21O,2.020000X1.270000*%
%ADD22R,1.600000X2.705000*%
%ADD23O,1.600000X2.610000*%
%ADD24R,2.170000X2.805000*%
%ADD25O,2.805000X2.805000*%
G04 APERTURE END LIST*
D10*
%TO.C,REF\u002A\u002A*%
X234205399Y-69073068D02*
X234205399Y-69734526D01*
X234205399Y-69734526D02*
X234866857Y-69734526D01*
X234866857Y-69734526D02*
X234866857Y-69073068D01*
X234866857Y-69073068D02*
X234205399Y-69073068D01*
X234205399Y-69073068D02*
X234205399Y-69073068D01*
G36*
X234866857Y-69734526D02*
G01*
X234205399Y-69734526D01*
X234205399Y-69073068D01*
X234866857Y-69073068D01*
X234866857Y-69734526D01*
G37*
X234866857Y-69734526D02*
X234205399Y-69734526D01*
X234205399Y-69073068D01*
X234866857Y-69073068D01*
X234866857Y-69734526D01*
X234866857Y-67750151D02*
X234866857Y-68411610D01*
X234866857Y-68411610D02*
X235528316Y-68411610D01*
X235528316Y-68411610D02*
X235528316Y-67750151D01*
X235528316Y-67750151D02*
X234866857Y-67750151D01*
X234866857Y-67750151D02*
X234866857Y-67750151D01*
G36*
X235528316Y-68411610D02*
G01*
X234866857Y-68411610D01*
X234866857Y-67750151D01*
X235528316Y-67750151D01*
X235528316Y-68411610D01*
G37*
X235528316Y-68411610D02*
X234866857Y-68411610D01*
X234866857Y-67750151D01*
X235528316Y-67750151D01*
X235528316Y-68411610D01*
X234205399Y-67750151D02*
X234866857Y-67750151D01*
X234866857Y-67750151D02*
X234866857Y-67088693D01*
X234866857Y-67088693D02*
X234205399Y-67088693D01*
X234205399Y-67088693D02*
X234205399Y-67750151D01*
X234205399Y-67750151D02*
X234205399Y-67750151D01*
G36*
X234866857Y-67750151D02*
G01*
X234205399Y-67750151D01*
X234205399Y-67088693D01*
X234866857Y-67088693D01*
X234866857Y-67750151D01*
G37*
X234866857Y-67750151D02*
X234205399Y-67750151D01*
X234205399Y-67088693D01*
X234866857Y-67088693D01*
X234866857Y-67750151D01*
X232221024Y-67088693D02*
X232221024Y-67750151D01*
X232221024Y-67750151D02*
X232882482Y-67750151D01*
X232882482Y-67750151D02*
X232882482Y-67088693D01*
X232882482Y-67088693D02*
X232221024Y-67088693D01*
X232221024Y-67088693D02*
X232221024Y-67088693D01*
G36*
X232882482Y-67750151D02*
G01*
X232221024Y-67750151D01*
X232221024Y-67088693D01*
X232882482Y-67088693D01*
X232882482Y-67750151D01*
G37*
X232882482Y-67750151D02*
X232221024Y-67750151D01*
X232221024Y-67088693D01*
X232882482Y-67088693D01*
X232882482Y-67750151D01*
X232882482Y-67750151D02*
X232882482Y-69073068D01*
X232882482Y-69073068D02*
X232882482Y-69734526D01*
X232882482Y-69734526D02*
X233543941Y-69734526D01*
X233543941Y-69734526D02*
X233543941Y-69073068D01*
X233543941Y-69073068D02*
X234205399Y-69073068D01*
X234205399Y-69073068D02*
X234205399Y-68411610D01*
X234205399Y-68411610D02*
X234205399Y-67750151D01*
X234205399Y-67750151D02*
X232882482Y-67750151D01*
X232882482Y-67750151D02*
X232882482Y-67750151D01*
G36*
X234205399Y-69073068D02*
G01*
X233543941Y-69073068D01*
X233543941Y-69734526D01*
X232882482Y-69734526D01*
X232882482Y-67750151D01*
X234205399Y-67750151D01*
X234205399Y-69073068D01*
G37*
X234205399Y-69073068D02*
X233543941Y-69073068D01*
X233543941Y-69734526D01*
X232882482Y-69734526D01*
X232882482Y-67750151D01*
X234205399Y-67750151D01*
X234205399Y-69073068D01*
X232882482Y-69734526D02*
X232221024Y-69734526D01*
X232221024Y-69734526D02*
X232221024Y-70395985D01*
X232221024Y-70395985D02*
X232882482Y-70395985D01*
X232882482Y-70395985D02*
X232882482Y-69734526D01*
X232882482Y-69734526D02*
X232882482Y-69734526D01*
G36*
X232882482Y-70395985D02*
G01*
X232221024Y-70395985D01*
X232221024Y-69734526D01*
X232882482Y-69734526D01*
X232882482Y-70395985D01*
G37*
X232882482Y-70395985D02*
X232221024Y-70395985D01*
X232221024Y-69734526D01*
X232882482Y-69734526D01*
X232882482Y-70395985D01*
D11*
X240880399Y-33018350D02*
X241541858Y-33018350D01*
X241541858Y-33018350D02*
X241541858Y-34341266D01*
X241541858Y-34341266D02*
X240880399Y-34341266D01*
X240880399Y-34341266D02*
X240880399Y-33018350D01*
X240880399Y-33018350D02*
X240880399Y-33018350D01*
G36*
X241541858Y-34341266D02*
G01*
X240880399Y-34341266D01*
X240880399Y-33018350D01*
X241541858Y-33018350D01*
X241541858Y-34341266D01*
G37*
X241541858Y-34341266D02*
X240880399Y-34341266D01*
X240880399Y-33018350D01*
X241541858Y-33018350D01*
X241541858Y-34341266D01*
X240218941Y-33679808D02*
X240880399Y-33679808D01*
X240880399Y-33679808D02*
X240880399Y-35002725D01*
X240880399Y-35002725D02*
X240218941Y-35002725D01*
X240218941Y-35002725D02*
X240218941Y-33679808D01*
X240218941Y-33679808D02*
X240218941Y-33679808D01*
G36*
X240880399Y-35002725D02*
G01*
X240218941Y-35002725D01*
X240218941Y-33679808D01*
X240880399Y-33679808D01*
X240880399Y-35002725D01*
G37*
X240880399Y-35002725D02*
X240218941Y-35002725D01*
X240218941Y-33679808D01*
X240880399Y-33679808D01*
X240880399Y-35002725D01*
X239557483Y-32356891D02*
X240880399Y-32356891D01*
X240880399Y-32356891D02*
X240880399Y-33679808D01*
X240880399Y-33679808D02*
X239557483Y-33679808D01*
X239557483Y-33679808D02*
X239557483Y-32356891D01*
X239557483Y-32356891D02*
X239557483Y-32356891D01*
G36*
X240880399Y-33679808D02*
G01*
X239557483Y-33679808D01*
X239557483Y-32356891D01*
X240880399Y-32356891D01*
X240880399Y-33679808D01*
G37*
X240880399Y-33679808D02*
X239557483Y-33679808D01*
X239557483Y-32356891D01*
X240880399Y-32356891D01*
X240880399Y-33679808D01*
X240880399Y-31695433D02*
X241541858Y-31695433D01*
X241541858Y-31695433D02*
X241541858Y-32356891D01*
X241541858Y-32356891D02*
X240880399Y-32356891D01*
X240880399Y-32356891D02*
X240880399Y-31695433D01*
X240880399Y-31695433D02*
X240880399Y-31695433D01*
G36*
X241541858Y-32356891D02*
G01*
X240880399Y-32356891D01*
X240880399Y-31695433D01*
X241541858Y-31695433D01*
X241541858Y-32356891D01*
G37*
X241541858Y-32356891D02*
X240880399Y-32356891D01*
X240880399Y-31695433D01*
X241541858Y-31695433D01*
X241541858Y-32356891D01*
X238896024Y-33018350D02*
X239557483Y-33018350D01*
X239557483Y-33018350D02*
X239557483Y-33679808D01*
X239557483Y-33679808D02*
X238896024Y-33679808D01*
X238896024Y-33679808D02*
X238896024Y-33018350D01*
X238896024Y-33018350D02*
X238896024Y-33018350D01*
G36*
X239557483Y-33679808D02*
G01*
X238896024Y-33679808D01*
X238896024Y-33018350D01*
X239557483Y-33018350D01*
X239557483Y-33679808D01*
G37*
X239557483Y-33679808D02*
X238896024Y-33679808D01*
X238896024Y-33018350D01*
X239557483Y-33018350D01*
X239557483Y-33679808D01*
X239557483Y-33679808D02*
X240218941Y-33679808D01*
X240218941Y-33679808D02*
X240218941Y-34341266D01*
X240218941Y-34341266D02*
X239557483Y-34341266D01*
X239557483Y-34341266D02*
X239557483Y-33679808D01*
X239557483Y-33679808D02*
X239557483Y-33679808D01*
G36*
X240218941Y-34341266D02*
G01*
X239557483Y-34341266D01*
X239557483Y-33679808D01*
X240218941Y-33679808D01*
X240218941Y-34341266D01*
G37*
X240218941Y-34341266D02*
X239557483Y-34341266D01*
X239557483Y-33679808D01*
X240218941Y-33679808D01*
X240218941Y-34341266D01*
X238896024Y-31695433D02*
X240218941Y-31695433D01*
X240218941Y-31695433D02*
X240218941Y-32356891D01*
X240218941Y-32356891D02*
X238896024Y-32356891D01*
X238896024Y-32356891D02*
X238896024Y-31695433D01*
X238896024Y-31695433D02*
X238896024Y-31695433D01*
G36*
X240218941Y-32356891D02*
G01*
X238896024Y-32356891D01*
X238896024Y-31695433D01*
X240218941Y-31695433D01*
X240218941Y-32356891D01*
G37*
X240218941Y-32356891D02*
X238896024Y-32356891D01*
X238896024Y-31695433D01*
X240218941Y-31695433D01*
X240218941Y-32356891D01*
D12*
%TO.C,D2*%
X217190000Y-59965000D02*
X217190000Y-56875000D01*
X211640000Y-58419538D02*
G75*
G03*
X217190000Y-59964830I2990000J-462D01*
G01*
X217190000Y-56875170D02*
G75*
G03*
X211640000Y-58420462I-2560000J-1544830D01*
G01*
X217130000Y-58420000D02*
G75*
G03*
X217130000Y-58420000I-2500000J0D01*
G01*
%TO.C,D5*%
X199410000Y-45995000D02*
X199410000Y-42905000D01*
X193860000Y-44449538D02*
G75*
G03*
X199410000Y-45994830I2990000J-462D01*
G01*
X199410000Y-42905170D02*
G75*
G03*
X193860000Y-44450462I-2560000J-1544830D01*
G01*
X199350000Y-44450000D02*
G75*
G03*
X199350000Y-44450000I-2500000J0D01*
G01*
D11*
%TO.C,REF\u002A\u002A*%
X180640243Y-67593433D02*
X180640243Y-68254892D01*
X180640243Y-68254892D02*
X179978784Y-68254892D01*
X179978784Y-68254892D02*
X179978784Y-68916350D01*
X179978784Y-68916350D02*
X180640243Y-68916350D01*
X180640243Y-68916350D02*
X180640243Y-69577808D01*
X180640243Y-69577808D02*
X181301701Y-69577808D01*
X181301701Y-69577808D02*
X181301701Y-68916350D01*
X181301701Y-68916350D02*
X181963159Y-68916350D01*
X181963159Y-68916350D02*
X181963159Y-68254892D01*
X181963159Y-68254892D02*
X181301701Y-68254892D01*
X181301701Y-68254892D02*
X181301701Y-67593433D01*
X181301701Y-67593433D02*
X180640243Y-67593433D01*
X180640243Y-67593433D02*
X180640243Y-67593433D01*
G36*
X181301701Y-68254892D02*
G01*
X181963159Y-68254892D01*
X181963159Y-68916350D01*
X181301701Y-68916350D01*
X181301701Y-69577808D01*
X180640243Y-69577808D01*
X180640243Y-68916350D01*
X179978784Y-68916350D01*
X179978784Y-68254892D01*
X180640243Y-68254892D01*
X180640243Y-67593433D01*
X181301701Y-67593433D01*
X181301701Y-68254892D01*
G37*
X181301701Y-68254892D02*
X181963159Y-68254892D01*
X181963159Y-68916350D01*
X181301701Y-68916350D01*
X181301701Y-69577808D01*
X180640243Y-69577808D01*
X180640243Y-68916350D01*
X179978784Y-68916350D01*
X179978784Y-68254892D01*
X180640243Y-68254892D01*
X180640243Y-67593433D01*
X181301701Y-67593433D01*
X181301701Y-68254892D01*
D12*
%TO.C,D1*%
X165755000Y-56790000D02*
X165755000Y-53700000D01*
X165755000Y-53700170D02*
G75*
G03*
X160205000Y-55245462I-2560000J-1544830D01*
G01*
X160205000Y-55244538D02*
G75*
G03*
X165755000Y-56789830I2990000J-462D01*
G01*
X165695000Y-55245000D02*
G75*
G03*
X165695000Y-55245000I-2500000J0D01*
G01*
D10*
%TO.C,REF\u002A\u002A*%
X173880399Y-32630301D02*
X174541857Y-32630301D01*
X174541857Y-32630301D02*
X174541857Y-31968843D01*
X174541857Y-31968843D02*
X173880399Y-31968843D01*
X173880399Y-31968843D02*
X173880399Y-32630301D01*
X173880399Y-32630301D02*
X173880399Y-32630301D01*
G36*
X174541857Y-32630301D02*
G01*
X173880399Y-32630301D01*
X173880399Y-31968843D01*
X174541857Y-31968843D01*
X174541857Y-32630301D01*
G37*
X174541857Y-32630301D02*
X173880399Y-32630301D01*
X173880399Y-31968843D01*
X174541857Y-31968843D01*
X174541857Y-32630301D01*
X172557482Y-32630301D02*
X172557482Y-33953218D01*
X172557482Y-33953218D02*
X172557482Y-34614676D01*
X172557482Y-34614676D02*
X173218941Y-34614676D01*
X173218941Y-34614676D02*
X173218941Y-33953218D01*
X173218941Y-33953218D02*
X173880399Y-33953218D01*
X173880399Y-33953218D02*
X173880399Y-33291760D01*
X173880399Y-33291760D02*
X173880399Y-32630301D01*
X173880399Y-32630301D02*
X172557482Y-32630301D01*
X172557482Y-32630301D02*
X172557482Y-32630301D01*
G36*
X173880399Y-33953218D02*
G01*
X173218941Y-33953218D01*
X173218941Y-34614676D01*
X172557482Y-34614676D01*
X172557482Y-32630301D01*
X173880399Y-32630301D01*
X173880399Y-33953218D01*
G37*
X173880399Y-33953218D02*
X173218941Y-33953218D01*
X173218941Y-34614676D01*
X172557482Y-34614676D01*
X172557482Y-32630301D01*
X173880399Y-32630301D01*
X173880399Y-33953218D01*
X171896024Y-31968843D02*
X171896024Y-32630301D01*
X171896024Y-32630301D02*
X172557482Y-32630301D01*
X172557482Y-32630301D02*
X172557482Y-31968843D01*
X172557482Y-31968843D02*
X171896024Y-31968843D01*
X171896024Y-31968843D02*
X171896024Y-31968843D01*
G36*
X172557482Y-32630301D02*
G01*
X171896024Y-32630301D01*
X171896024Y-31968843D01*
X172557482Y-31968843D01*
X172557482Y-32630301D01*
G37*
X172557482Y-32630301D02*
X171896024Y-32630301D01*
X171896024Y-31968843D01*
X172557482Y-31968843D01*
X172557482Y-32630301D01*
X173880399Y-33953218D02*
X173880399Y-34614676D01*
X173880399Y-34614676D02*
X174541857Y-34614676D01*
X174541857Y-34614676D02*
X174541857Y-33953218D01*
X174541857Y-33953218D02*
X173880399Y-33953218D01*
X173880399Y-33953218D02*
X173880399Y-33953218D01*
G36*
X174541857Y-34614676D02*
G01*
X173880399Y-34614676D01*
X173880399Y-33953218D01*
X174541857Y-33953218D01*
X174541857Y-34614676D01*
G37*
X174541857Y-34614676D02*
X173880399Y-34614676D01*
X173880399Y-33953218D01*
X174541857Y-33953218D01*
X174541857Y-34614676D01*
X172557482Y-34614676D02*
X171896024Y-34614676D01*
X171896024Y-34614676D02*
X171896024Y-35276135D01*
X171896024Y-35276135D02*
X172557482Y-35276135D01*
X172557482Y-35276135D02*
X172557482Y-34614676D01*
X172557482Y-34614676D02*
X172557482Y-34614676D01*
G36*
X172557482Y-35276135D02*
G01*
X171896024Y-35276135D01*
X171896024Y-34614676D01*
X172557482Y-34614676D01*
X172557482Y-35276135D01*
G37*
X172557482Y-35276135D02*
X171896024Y-35276135D01*
X171896024Y-34614676D01*
X172557482Y-34614676D01*
X172557482Y-35276135D01*
X174541857Y-32630301D02*
X174541857Y-33291760D01*
X174541857Y-33291760D02*
X175203316Y-33291760D01*
X175203316Y-33291760D02*
X175203316Y-32630301D01*
X175203316Y-32630301D02*
X174541857Y-32630301D01*
X174541857Y-32630301D02*
X174541857Y-32630301D01*
G36*
X175203316Y-33291760D02*
G01*
X174541857Y-33291760D01*
X174541857Y-32630301D01*
X175203316Y-32630301D01*
X175203316Y-33291760D01*
G37*
X175203316Y-33291760D02*
X174541857Y-33291760D01*
X174541857Y-32630301D01*
X175203316Y-32630301D01*
X175203316Y-33291760D01*
D12*
%TO.C,D3*%
X185695000Y-55860000D02*
X182605000Y-55860000D01*
X184149538Y-61410000D02*
G75*
G03*
X185694830Y-55860000I462J2990000D01*
G01*
X182605170Y-55860000D02*
G75*
G03*
X184150462Y-61410000I1544830J-2560000D01*
G01*
X186650000Y-58420000D02*
G75*
G03*
X186650000Y-58420000I-2500000J0D01*
G01*
D11*
%TO.C,REF\u002A\u002A*%
X158415243Y-47908433D02*
X158415243Y-48569892D01*
X158415243Y-48569892D02*
X157753784Y-48569892D01*
X157753784Y-48569892D02*
X157753784Y-49231350D01*
X157753784Y-49231350D02*
X158415243Y-49231350D01*
X158415243Y-49231350D02*
X158415243Y-49892808D01*
X158415243Y-49892808D02*
X159076701Y-49892808D01*
X159076701Y-49892808D02*
X159076701Y-49231350D01*
X159076701Y-49231350D02*
X159738159Y-49231350D01*
X159738159Y-49231350D02*
X159738159Y-48569892D01*
X159738159Y-48569892D02*
X159076701Y-48569892D01*
X159076701Y-48569892D02*
X159076701Y-47908433D01*
X159076701Y-47908433D02*
X158415243Y-47908433D01*
X158415243Y-47908433D02*
X158415243Y-47908433D01*
G36*
X159076701Y-48569892D02*
G01*
X159738159Y-48569892D01*
X159738159Y-49231350D01*
X159076701Y-49231350D01*
X159076701Y-49892808D01*
X158415243Y-49892808D01*
X158415243Y-49231350D01*
X157753784Y-49231350D01*
X157753784Y-48569892D01*
X158415243Y-48569892D01*
X158415243Y-47908433D01*
X159076701Y-47908433D01*
X159076701Y-48569892D01*
G37*
X159076701Y-48569892D02*
X159738159Y-48569892D01*
X159738159Y-49231350D01*
X159076701Y-49231350D01*
X159076701Y-49892808D01*
X158415243Y-49892808D01*
X158415243Y-49231350D01*
X157753784Y-49231350D01*
X157753784Y-48569892D01*
X158415243Y-48569892D01*
X158415243Y-47908433D01*
X159076701Y-47908433D01*
X159076701Y-48569892D01*
X205171321Y-71663856D02*
X205832779Y-71663856D01*
X205832779Y-71663856D02*
X205832779Y-72325314D01*
X205832779Y-72325314D02*
X205171321Y-72325314D01*
X205171321Y-72325314D02*
X205171321Y-71663856D01*
X205171321Y-71663856D02*
X205171321Y-71663856D01*
G36*
X205832779Y-72325314D02*
G01*
X205171321Y-72325314D01*
X205171321Y-71663856D01*
X205832779Y-71663856D01*
X205832779Y-72325314D01*
G37*
X205832779Y-72325314D02*
X205171321Y-72325314D01*
X205171321Y-71663856D01*
X205832779Y-71663856D01*
X205832779Y-72325314D01*
X189530243Y-63148433D02*
X189530243Y-63809892D01*
X189530243Y-63809892D02*
X188868784Y-63809892D01*
X188868784Y-63809892D02*
X188868784Y-64471350D01*
X188868784Y-64471350D02*
X189530243Y-64471350D01*
X189530243Y-64471350D02*
X189530243Y-65132808D01*
X189530243Y-65132808D02*
X190191701Y-65132808D01*
X190191701Y-65132808D02*
X190191701Y-64471350D01*
X190191701Y-64471350D02*
X190853159Y-64471350D01*
X190853159Y-64471350D02*
X190853159Y-63809892D01*
X190853159Y-63809892D02*
X190191701Y-63809892D01*
X190191701Y-63809892D02*
X190191701Y-63148433D01*
X190191701Y-63148433D02*
X189530243Y-63148433D01*
X189530243Y-63148433D02*
X189530243Y-63148433D01*
G36*
X190191701Y-63809892D02*
G01*
X190853159Y-63809892D01*
X190853159Y-64471350D01*
X190191701Y-64471350D01*
X190191701Y-65132808D01*
X189530243Y-65132808D01*
X189530243Y-64471350D01*
X188868784Y-64471350D01*
X188868784Y-63809892D01*
X189530243Y-63809892D01*
X189530243Y-63148433D01*
X190191701Y-63148433D01*
X190191701Y-63809892D01*
G37*
X190191701Y-63809892D02*
X190853159Y-63809892D01*
X190853159Y-64471350D01*
X190191701Y-64471350D01*
X190191701Y-65132808D01*
X189530243Y-65132808D01*
X189530243Y-64471350D01*
X188868784Y-64471350D01*
X188868784Y-63809892D01*
X189530243Y-63809892D01*
X189530243Y-63148433D01*
X190191701Y-63148433D01*
X190191701Y-63809892D01*
X166035243Y-68863433D02*
X166035243Y-69524892D01*
X166035243Y-69524892D02*
X165373784Y-69524892D01*
X165373784Y-69524892D02*
X165373784Y-70186350D01*
X165373784Y-70186350D02*
X166035243Y-70186350D01*
X166035243Y-70186350D02*
X166035243Y-70847808D01*
X166035243Y-70847808D02*
X166696701Y-70847808D01*
X166696701Y-70847808D02*
X166696701Y-70186350D01*
X166696701Y-70186350D02*
X167358159Y-70186350D01*
X167358159Y-70186350D02*
X167358159Y-69524892D01*
X167358159Y-69524892D02*
X166696701Y-69524892D01*
X166696701Y-69524892D02*
X166696701Y-68863433D01*
X166696701Y-68863433D02*
X166035243Y-68863433D01*
X166035243Y-68863433D02*
X166035243Y-68863433D01*
G36*
X166696701Y-69524892D02*
G01*
X167358159Y-69524892D01*
X167358159Y-70186350D01*
X166696701Y-70186350D01*
X166696701Y-70847808D01*
X166035243Y-70847808D01*
X166035243Y-70186350D01*
X165373784Y-70186350D01*
X165373784Y-69524892D01*
X166035243Y-69524892D01*
X166035243Y-68863433D01*
X166696701Y-68863433D01*
X166696701Y-69524892D01*
G37*
X166696701Y-69524892D02*
X167358159Y-69524892D01*
X167358159Y-70186350D01*
X166696701Y-70186350D01*
X166696701Y-70847808D01*
X166035243Y-70847808D01*
X166035243Y-70186350D01*
X165373784Y-70186350D01*
X165373784Y-69524892D01*
X166035243Y-69524892D01*
X166035243Y-68863433D01*
X166696701Y-68863433D01*
X166696701Y-69524892D01*
X197740921Y-29867911D02*
X198402380Y-29867911D01*
X198402380Y-29867911D02*
X198402380Y-31190827D01*
X198402380Y-31190827D02*
X197740921Y-31190827D01*
X197740921Y-31190827D02*
X197740921Y-29867911D01*
X197740921Y-29867911D02*
X197740921Y-29867911D01*
G36*
X198402380Y-31190827D02*
G01*
X197740921Y-31190827D01*
X197740921Y-29867911D01*
X198402380Y-29867911D01*
X198402380Y-31190827D01*
G37*
X198402380Y-31190827D02*
X197740921Y-31190827D01*
X197740921Y-29867911D01*
X198402380Y-29867911D01*
X198402380Y-31190827D01*
X196418005Y-30529369D02*
X197079463Y-30529369D01*
X197079463Y-30529369D02*
X197079463Y-31190827D01*
X197079463Y-31190827D02*
X196418005Y-31190827D01*
X196418005Y-31190827D02*
X196418005Y-30529369D01*
X196418005Y-30529369D02*
X196418005Y-30529369D01*
G36*
X197079463Y-31190827D02*
G01*
X196418005Y-31190827D01*
X196418005Y-30529369D01*
X197079463Y-30529369D01*
X197079463Y-31190827D01*
G37*
X197079463Y-31190827D02*
X196418005Y-31190827D01*
X196418005Y-30529369D01*
X197079463Y-30529369D01*
X197079463Y-31190827D01*
X197740921Y-28544994D02*
X198402380Y-28544994D01*
X198402380Y-28544994D02*
X198402380Y-29206452D01*
X198402380Y-29206452D02*
X197740921Y-29206452D01*
X197740921Y-29206452D02*
X197740921Y-28544994D01*
X197740921Y-28544994D02*
X197740921Y-28544994D01*
G36*
X198402380Y-29206452D02*
G01*
X197740921Y-29206452D01*
X197740921Y-28544994D01*
X198402380Y-28544994D01*
X198402380Y-29206452D01*
G37*
X198402380Y-29206452D02*
X197740921Y-29206452D01*
X197740921Y-28544994D01*
X198402380Y-28544994D01*
X198402380Y-29206452D01*
X197079463Y-30529369D02*
X197740921Y-30529369D01*
X197740921Y-30529369D02*
X197740921Y-31852286D01*
X197740921Y-31852286D02*
X197079463Y-31852286D01*
X197079463Y-31852286D02*
X197079463Y-30529369D01*
X197079463Y-30529369D02*
X197079463Y-30529369D01*
G36*
X197740921Y-31852286D02*
G01*
X197079463Y-31852286D01*
X197079463Y-30529369D01*
X197740921Y-30529369D01*
X197740921Y-31852286D01*
G37*
X197740921Y-31852286D02*
X197079463Y-31852286D01*
X197079463Y-30529369D01*
X197740921Y-30529369D01*
X197740921Y-31852286D01*
X195756546Y-29867911D02*
X196418005Y-29867911D01*
X196418005Y-29867911D02*
X196418005Y-30529369D01*
X196418005Y-30529369D02*
X195756546Y-30529369D01*
X195756546Y-30529369D02*
X195756546Y-29867911D01*
X195756546Y-29867911D02*
X195756546Y-29867911D01*
G36*
X196418005Y-30529369D02*
G01*
X195756546Y-30529369D01*
X195756546Y-29867911D01*
X196418005Y-29867911D01*
X196418005Y-30529369D01*
G37*
X196418005Y-30529369D02*
X195756546Y-30529369D01*
X195756546Y-29867911D01*
X196418005Y-29867911D01*
X196418005Y-30529369D01*
X195756546Y-28544994D02*
X197079463Y-28544994D01*
X197079463Y-28544994D02*
X197079463Y-29206452D01*
X197079463Y-29206452D02*
X195756546Y-29206452D01*
X195756546Y-29206452D02*
X195756546Y-28544994D01*
X195756546Y-28544994D02*
X195756546Y-28544994D01*
G36*
X197079463Y-29206452D02*
G01*
X195756546Y-29206452D01*
X195756546Y-28544994D01*
X197079463Y-28544994D01*
X197079463Y-29206452D01*
G37*
X197079463Y-29206452D02*
X195756546Y-29206452D01*
X195756546Y-28544994D01*
X197079463Y-28544994D01*
X197079463Y-29206452D01*
X196418005Y-29206452D02*
X197740921Y-29206452D01*
X197740921Y-29206452D02*
X197740921Y-30529369D01*
X197740921Y-30529369D02*
X196418005Y-30529369D01*
X196418005Y-30529369D02*
X196418005Y-29206452D01*
X196418005Y-29206452D02*
X196418005Y-29206452D01*
G36*
X197740921Y-30529369D02*
G01*
X196418005Y-30529369D01*
X196418005Y-29206452D01*
X197740921Y-29206452D01*
X197740921Y-30529369D01*
G37*
X197740921Y-30529369D02*
X196418005Y-30529369D01*
X196418005Y-29206452D01*
X197740921Y-29206452D01*
X197740921Y-30529369D01*
X231206321Y-47533856D02*
X231867779Y-47533856D01*
X231867779Y-47533856D02*
X231867779Y-48195314D01*
X231867779Y-48195314D02*
X231206321Y-48195314D01*
X231206321Y-48195314D02*
X231206321Y-47533856D01*
X231206321Y-47533856D02*
X231206321Y-47533856D01*
G36*
X231867779Y-48195314D02*
G01*
X231206321Y-48195314D01*
X231206321Y-47533856D01*
X231867779Y-47533856D01*
X231867779Y-48195314D01*
G37*
X231867779Y-48195314D02*
X231206321Y-48195314D01*
X231206321Y-47533856D01*
X231867779Y-47533856D01*
X231867779Y-48195314D01*
X223586321Y-69123856D02*
X224247779Y-69123856D01*
X224247779Y-69123856D02*
X224247779Y-69785314D01*
X224247779Y-69785314D02*
X223586321Y-69785314D01*
X223586321Y-69785314D02*
X223586321Y-69123856D01*
X223586321Y-69123856D02*
X223586321Y-69123856D01*
G36*
X224247779Y-69785314D02*
G01*
X223586321Y-69785314D01*
X223586321Y-69123856D01*
X224247779Y-69123856D01*
X224247779Y-69785314D01*
G37*
X224247779Y-69785314D02*
X223586321Y-69785314D01*
X223586321Y-69123856D01*
X224247779Y-69123856D01*
X224247779Y-69785314D01*
X176195243Y-39018433D02*
X176195243Y-39679892D01*
X176195243Y-39679892D02*
X175533784Y-39679892D01*
X175533784Y-39679892D02*
X175533784Y-40341350D01*
X175533784Y-40341350D02*
X176195243Y-40341350D01*
X176195243Y-40341350D02*
X176195243Y-41002808D01*
X176195243Y-41002808D02*
X176856701Y-41002808D01*
X176856701Y-41002808D02*
X176856701Y-40341350D01*
X176856701Y-40341350D02*
X177518159Y-40341350D01*
X177518159Y-40341350D02*
X177518159Y-39679892D01*
X177518159Y-39679892D02*
X176856701Y-39679892D01*
X176856701Y-39679892D02*
X176856701Y-39018433D01*
X176856701Y-39018433D02*
X176195243Y-39018433D01*
X176195243Y-39018433D02*
X176195243Y-39018433D01*
G36*
X176856701Y-39679892D02*
G01*
X177518159Y-39679892D01*
X177518159Y-40341350D01*
X176856701Y-40341350D01*
X176856701Y-41002808D01*
X176195243Y-41002808D01*
X176195243Y-40341350D01*
X175533784Y-40341350D01*
X175533784Y-39679892D01*
X176195243Y-39679892D01*
X176195243Y-39018433D01*
X176856701Y-39018433D01*
X176856701Y-39679892D01*
G37*
X176856701Y-39679892D02*
X177518159Y-39679892D01*
X177518159Y-40341350D01*
X176856701Y-40341350D01*
X176856701Y-41002808D01*
X176195243Y-41002808D01*
X176195243Y-40341350D01*
X175533784Y-40341350D01*
X175533784Y-39679892D01*
X176195243Y-39679892D01*
X176195243Y-39018433D01*
X176856701Y-39018433D01*
X176856701Y-39679892D01*
X246446321Y-42453856D02*
X247107779Y-42453856D01*
X247107779Y-42453856D02*
X247107779Y-43115314D01*
X247107779Y-43115314D02*
X246446321Y-43115314D01*
X246446321Y-43115314D02*
X246446321Y-42453856D01*
X246446321Y-42453856D02*
X246446321Y-42453856D01*
G36*
X247107779Y-43115314D02*
G01*
X246446321Y-43115314D01*
X246446321Y-42453856D01*
X247107779Y-42453856D01*
X247107779Y-43115314D01*
G37*
X247107779Y-43115314D02*
X246446321Y-43115314D01*
X246446321Y-42453856D01*
X247107779Y-42453856D01*
X247107779Y-43115314D01*
X212791321Y-27848856D02*
X213452779Y-27848856D01*
X213452779Y-27848856D02*
X213452779Y-28510314D01*
X213452779Y-28510314D02*
X212791321Y-28510314D01*
X212791321Y-28510314D02*
X212791321Y-27848856D01*
X212791321Y-27848856D02*
X212791321Y-27848856D01*
G36*
X213452779Y-28510314D02*
G01*
X212791321Y-28510314D01*
X212791321Y-27848856D01*
X213452779Y-27848856D01*
X213452779Y-28510314D01*
G37*
X213452779Y-28510314D02*
X212791321Y-28510314D01*
X212791321Y-27848856D01*
X213452779Y-27848856D01*
X213452779Y-28510314D01*
G36*
X216530497Y-43234043D02*
G01*
X216530497Y-43954610D01*
X217251064Y-43954610D01*
X217251064Y-43234043D01*
X218692199Y-43234043D01*
X218692199Y-42513476D01*
X220853901Y-42513476D01*
X220853901Y-41792908D01*
X233103547Y-41792908D01*
X233103547Y-42513476D01*
X233824114Y-42513476D01*
X233824114Y-43954610D01*
X228780142Y-43954610D01*
X228780142Y-44675178D01*
X228059575Y-44675178D01*
X228059575Y-46116313D01*
X227339008Y-46116313D01*
X227339008Y-49719149D01*
X226618440Y-49719149D01*
X226618440Y-56924823D01*
X225897873Y-56924823D01*
X225897873Y-60527660D01*
X225177305Y-60527660D01*
X225177305Y-63409930D01*
X224456738Y-63409930D01*
X224456738Y-64851064D01*
X223015603Y-64851064D01*
X223015603Y-63409930D01*
X222295036Y-63409930D01*
X222295036Y-55483688D01*
X223015603Y-55483688D01*
X223015603Y-51160284D01*
X223736171Y-51160284D01*
X223736171Y-46836880D01*
X224456738Y-46836880D01*
X224456738Y-44675178D01*
X220133334Y-44675178D01*
X220133334Y-45395745D01*
X217971632Y-45395745D01*
X217971632Y-51160284D01*
X217251064Y-51160284D01*
X217251064Y-57645391D01*
X216530497Y-57645391D01*
X216530497Y-62689362D01*
X215809930Y-62689362D01*
X215809930Y-63409930D01*
X213648227Y-63409930D01*
X213648227Y-60527660D01*
X212927660Y-60527660D01*
X212927660Y-59807093D01*
X211486525Y-59807093D01*
X211486525Y-60527660D01*
X210045391Y-60527660D01*
X210045391Y-61248227D01*
X205721986Y-61248227D01*
X205721986Y-60527660D01*
X204280852Y-60527660D01*
X204280852Y-59807093D01*
X203560284Y-59807093D01*
X203560284Y-58365958D01*
X202839717Y-58365958D01*
X202839717Y-54763121D01*
X203560284Y-54763121D01*
X203560284Y-48278015D01*
X204280852Y-48278015D01*
X204280852Y-44675178D01*
X205001419Y-44675178D01*
X205001419Y-43234043D01*
X205721986Y-43234043D01*
X205721986Y-41792908D01*
X206442554Y-41792908D01*
X206442554Y-42513476D01*
X207163121Y-42513476D01*
X207163121Y-43234043D01*
X207883688Y-43234043D01*
X207883688Y-47557447D01*
X207163121Y-47557447D01*
X207163121Y-51160284D01*
X206442554Y-51160284D01*
X206442554Y-56924823D01*
X207163121Y-56924823D01*
X207163121Y-58365958D01*
X209324823Y-58365958D01*
X209324823Y-57645391D01*
X210045391Y-57645391D01*
X210045391Y-56924823D01*
X211486525Y-56924823D01*
X211486525Y-56204256D01*
X212207093Y-56204256D01*
X212207093Y-55483688D01*
X212927660Y-55483688D01*
X212927660Y-54042554D01*
X213648227Y-54042554D01*
X213648227Y-51880852D01*
X214368795Y-51880852D01*
X214368795Y-45395745D01*
X217251064Y-45395745D01*
X217971632Y-45395745D01*
X217971632Y-43954610D01*
X217251064Y-43954610D01*
X217251064Y-45395745D01*
X214368795Y-45395745D01*
X214368795Y-43234043D01*
X216530497Y-43234043D01*
G37*
G36*
X161767376Y-49719149D02*
G01*
X161767376Y-47557447D01*
X162487944Y-47557447D01*
X162487944Y-45395745D01*
X161046809Y-45395745D01*
X161046809Y-44675178D01*
X160326242Y-44675178D01*
X160326242Y-43234043D01*
X161046809Y-43234043D01*
X161046809Y-42513476D01*
X163929079Y-42513476D01*
X163929079Y-41792908D01*
X168973050Y-41792908D01*
X168973050Y-42513476D01*
X170414185Y-42513476D01*
X170414185Y-43234043D01*
X171134752Y-43234043D01*
X171134752Y-43954610D01*
X171855320Y-43954610D01*
X171855320Y-48278015D01*
X171134752Y-48278015D01*
X171134752Y-48998582D01*
X170414185Y-48998582D01*
X170414185Y-50439717D01*
X169693618Y-50439717D01*
X169693618Y-51160284D01*
X168973050Y-51160284D01*
X168973050Y-51880852D01*
X168252483Y-51880852D01*
X168252483Y-53321986D01*
X167531915Y-53321986D01*
X167531915Y-54042554D01*
X168252483Y-54042554D01*
X168252483Y-54763121D01*
X168973050Y-54763121D01*
X168973050Y-56204256D01*
X169693618Y-56204256D01*
X169693618Y-56924823D01*
X170414185Y-56924823D01*
X170414185Y-57645391D01*
X171134752Y-57645391D01*
X171134752Y-59086525D01*
X171855320Y-59086525D01*
X171855320Y-59807093D01*
X172575887Y-59807093D01*
X172575887Y-60527660D01*
X173296454Y-60527660D01*
X173296454Y-61968795D01*
X174017022Y-61968795D01*
X174017022Y-62689362D01*
X174737589Y-62689362D01*
X174737589Y-64130497D01*
X172575887Y-64130497D01*
X172575887Y-63409930D01*
X171855320Y-63409930D01*
X171855320Y-62689362D01*
X170414185Y-62689362D01*
X170414185Y-61968795D01*
X169693618Y-61968795D01*
X169693618Y-61248227D01*
X168973050Y-61248227D01*
X168973050Y-60527660D01*
X168252483Y-60527660D01*
X168252483Y-59807093D01*
X167531915Y-59807093D01*
X167531915Y-59086525D01*
X166811348Y-59086525D01*
X166811348Y-58365958D01*
X166090781Y-58365958D01*
X166090781Y-56924823D01*
X165370213Y-56924823D01*
X165370213Y-55483688D01*
X164649646Y-55483688D01*
X164649646Y-54042554D01*
X163929079Y-54042554D01*
X163929079Y-54763121D01*
X163208511Y-54763121D01*
X163208511Y-56924823D01*
X162487944Y-56924823D01*
X162487944Y-61248227D01*
X161046809Y-61248227D01*
X161046809Y-60527660D01*
X159605674Y-60527660D01*
X159605674Y-57645391D01*
X160326242Y-57645391D01*
X160326242Y-52601419D01*
X161046809Y-52601419D01*
X161046809Y-50439717D01*
X163929079Y-50439717D01*
X164649646Y-50439717D01*
X164649646Y-49719149D01*
X166090781Y-49719149D01*
X166090781Y-48998582D01*
X167531915Y-48998582D01*
X167531915Y-48278015D01*
X168252483Y-48278015D01*
X168252483Y-47557447D01*
X168973050Y-47557447D01*
X168973050Y-46836880D01*
X169693618Y-46836880D01*
X169693618Y-44675178D01*
X168973050Y-44675178D01*
X168973050Y-43954610D01*
X165370213Y-43954610D01*
X165370213Y-44675178D01*
X164649646Y-44675178D01*
X164649646Y-46116313D01*
X163929079Y-46116313D01*
X163929079Y-50439717D01*
X161046809Y-50439717D01*
X161046809Y-49719149D01*
X161767376Y-49719149D01*
G37*
G36*
X234544681Y-49719149D02*
G01*
X234544681Y-47557447D01*
X235265249Y-47557447D01*
X235265249Y-46116313D01*
X235985816Y-46116313D01*
X235985816Y-43954610D01*
X236706383Y-43954610D01*
X236706383Y-42513476D01*
X237426951Y-42513476D01*
X237426951Y-41792908D01*
X238147518Y-41792908D01*
X238147518Y-41072341D01*
X241750355Y-41072341D01*
X241750355Y-41792908D01*
X242470922Y-41792908D01*
X242470922Y-42513476D01*
X243191490Y-42513476D01*
X243191490Y-45395745D01*
X243912057Y-45395745D01*
X243912057Y-48278015D01*
X244632625Y-48278015D01*
X244632625Y-50439717D01*
X245353192Y-50439717D01*
X245353192Y-51160284D01*
X246073759Y-51160284D01*
X246073759Y-51880852D01*
X247514894Y-51880852D01*
X247514894Y-52601419D01*
X246073759Y-52601419D01*
X246073759Y-53321986D01*
X245353192Y-53321986D01*
X245353192Y-61968795D01*
X246073759Y-61968795D01*
X246073759Y-65571632D01*
X244632625Y-65571632D01*
X244632625Y-64851064D01*
X243912057Y-64851064D01*
X243912057Y-63409930D01*
X243191490Y-63409930D01*
X243191490Y-61968795D01*
X242470922Y-61968795D01*
X242470922Y-57645391D01*
X241750355Y-57645391D01*
X241750355Y-54042554D01*
X240309220Y-54042554D01*
X240309220Y-54763121D01*
X238147518Y-54763121D01*
X238147518Y-55483688D01*
X235985816Y-55483688D01*
X235985816Y-56924823D01*
X235265249Y-56924823D01*
X235265249Y-58365958D01*
X234544681Y-58365958D01*
X234544681Y-59807093D01*
X233824114Y-59807093D01*
X233824114Y-60527660D01*
X233103547Y-60527660D01*
X233103547Y-61968795D01*
X231662412Y-61968795D01*
X231662412Y-61248227D01*
X230941844Y-61248227D01*
X230941844Y-59807093D01*
X230221277Y-59807093D01*
X230221277Y-58365958D01*
X230941844Y-58365958D01*
X230941844Y-56924823D01*
X231662412Y-56924823D01*
X231662412Y-55483688D01*
X232382979Y-55483688D01*
X232382979Y-53321986D01*
X233103547Y-53321986D01*
X233103547Y-51880852D01*
X233824114Y-51880852D01*
X237426951Y-51880852D01*
X240309220Y-51880852D01*
X240309220Y-51160284D01*
X241029788Y-51160284D01*
X241029788Y-47557447D01*
X240309220Y-47557447D01*
X240309220Y-46116313D01*
X239588653Y-46116313D01*
X239588653Y-46836880D01*
X238868086Y-46836880D01*
X238868086Y-48278015D01*
X238147518Y-48278015D01*
X238147518Y-50439717D01*
X237426951Y-50439717D01*
X237426951Y-51880852D01*
X233824114Y-51880852D01*
X233824114Y-49719149D01*
X234544681Y-49719149D01*
G37*
G36*
X205001419Y-43234043D02*
G01*
X203560284Y-43234043D01*
X203560284Y-43954610D01*
X199957447Y-43954610D01*
X199957447Y-44675178D01*
X198516313Y-44675178D01*
X198516313Y-46836880D01*
X197795745Y-46836880D01*
X197795745Y-50439717D01*
X197075178Y-50439717D01*
X197075178Y-54042554D01*
X196354610Y-54042554D01*
X196354610Y-61248227D01*
X195634043Y-61248227D01*
X195634043Y-64130497D01*
X194192908Y-64130497D01*
X194192908Y-64851064D01*
X193472341Y-64851064D01*
X193472341Y-63409930D01*
X192751774Y-63409930D01*
X192751774Y-55483688D01*
X193472341Y-55483688D01*
X193472341Y-51160284D01*
X194192908Y-51160284D01*
X194192908Y-46836880D01*
X194913476Y-46836880D01*
X194913476Y-44675178D01*
X187707802Y-44675178D01*
X187707802Y-43234043D01*
X189148937Y-43234043D01*
X189148937Y-42513476D01*
X192751774Y-42513476D01*
X192751774Y-41792908D01*
X205001419Y-41792908D01*
X205001419Y-43234043D01*
G37*
G36*
X178340426Y-45395745D02*
G01*
X177619859Y-45395745D01*
X177619859Y-49719149D01*
X176899291Y-49719149D01*
X176899291Y-54763121D01*
X176178724Y-54763121D01*
X176178724Y-56204256D01*
X176899291Y-56204256D01*
X176899291Y-56924823D01*
X177619859Y-56924823D01*
X177619859Y-57645391D01*
X179781561Y-57645391D01*
X179781561Y-56924823D01*
X181943263Y-56924823D01*
X181943263Y-56204256D01*
X182663830Y-56204256D01*
X182663830Y-55483688D01*
X183384398Y-55483688D01*
X183384398Y-54042554D01*
X184104965Y-54042554D01*
X184104965Y-51160284D01*
X184825532Y-51160284D01*
X184825532Y-43234043D01*
X185546100Y-43234043D01*
X185546100Y-42513476D01*
X186987235Y-42513476D01*
X186987235Y-44675178D01*
X187707802Y-44675178D01*
X187707802Y-53321986D01*
X186987235Y-53321986D01*
X186987235Y-59807093D01*
X186266667Y-59807093D01*
X186266667Y-63409930D01*
X184104965Y-63409930D01*
X184104965Y-61248227D01*
X183384398Y-61248227D01*
X183384398Y-59807093D01*
X181943263Y-59807093D01*
X181943263Y-60527660D01*
X180502128Y-60527660D01*
X180502128Y-61248227D01*
X179060993Y-61248227D01*
X179060993Y-61968795D01*
X176899291Y-61968795D01*
X176899291Y-61248227D01*
X175458157Y-61248227D01*
X175458157Y-59807093D01*
X174737589Y-59807093D01*
X174737589Y-59086525D01*
X174017022Y-59086525D01*
X174017022Y-57645391D01*
X173296454Y-57645391D01*
X173296454Y-51880852D01*
X174017022Y-51880852D01*
X174017022Y-48278015D01*
X174737589Y-48278015D01*
X174737589Y-44675178D01*
X175458157Y-44675178D01*
X175458157Y-43234043D01*
X176178724Y-43234043D01*
X176178724Y-42513476D01*
X178340426Y-42513476D01*
X178340426Y-45395745D01*
G37*
X223512545Y-39025826D02*
X224174003Y-39025826D01*
X224174003Y-39025826D02*
X224174003Y-39687284D01*
X224174003Y-39687284D02*
X223512545Y-39687284D01*
X223512545Y-39687284D02*
X223512545Y-39025826D01*
X223512545Y-39025826D02*
X223512545Y-39025826D01*
G36*
X224174003Y-39687284D02*
G01*
X223512545Y-39687284D01*
X223512545Y-39025826D01*
X224174003Y-39025826D01*
X224174003Y-39687284D01*
G37*
X224174003Y-39687284D02*
X223512545Y-39687284D01*
X223512545Y-39025826D01*
X224174003Y-39025826D01*
X224174003Y-39687284D01*
X194610243Y-37113433D02*
X194610243Y-37774892D01*
X194610243Y-37774892D02*
X193948784Y-37774892D01*
X193948784Y-37774892D02*
X193948784Y-38436350D01*
X193948784Y-38436350D02*
X194610243Y-38436350D01*
X194610243Y-38436350D02*
X194610243Y-39097808D01*
X194610243Y-39097808D02*
X195271701Y-39097808D01*
X195271701Y-39097808D02*
X195271701Y-38436350D01*
X195271701Y-38436350D02*
X195933159Y-38436350D01*
X195933159Y-38436350D02*
X195933159Y-37774892D01*
X195933159Y-37774892D02*
X195271701Y-37774892D01*
X195271701Y-37774892D02*
X195271701Y-37113433D01*
X195271701Y-37113433D02*
X194610243Y-37113433D01*
X194610243Y-37113433D02*
X194610243Y-37113433D01*
G36*
X195271701Y-37774892D02*
G01*
X195933159Y-37774892D01*
X195933159Y-38436350D01*
X195271701Y-38436350D01*
X195271701Y-39097808D01*
X194610243Y-39097808D01*
X194610243Y-38436350D01*
X193948784Y-38436350D01*
X193948784Y-37774892D01*
X194610243Y-37774892D01*
X194610243Y-37113433D01*
X195271701Y-37113433D01*
X195271701Y-37774892D01*
G37*
X195271701Y-37774892D02*
X195933159Y-37774892D01*
X195933159Y-38436350D01*
X195271701Y-38436350D01*
X195271701Y-39097808D01*
X194610243Y-39097808D01*
X194610243Y-38436350D01*
X193948784Y-38436350D01*
X193948784Y-37774892D01*
X194610243Y-37774892D01*
X194610243Y-37113433D01*
X195271701Y-37113433D01*
X195271701Y-37774892D01*
X198821321Y-55153856D02*
X199482779Y-55153856D01*
X199482779Y-55153856D02*
X199482779Y-55815314D01*
X199482779Y-55815314D02*
X198821321Y-55815314D01*
X198821321Y-55815314D02*
X198821321Y-55153856D01*
X198821321Y-55153856D02*
X198821321Y-55153856D01*
G36*
X199482779Y-55815314D02*
G01*
X198821321Y-55815314D01*
X198821321Y-55153856D01*
X199482779Y-55153856D01*
X199482779Y-55815314D01*
G37*
X199482779Y-55815314D02*
X198821321Y-55815314D01*
X198821321Y-55153856D01*
X199482779Y-55153856D01*
X199482779Y-55815314D01*
X200726321Y-34833856D02*
X201387779Y-34833856D01*
X201387779Y-34833856D02*
X201387779Y-35495314D01*
X201387779Y-35495314D02*
X200726321Y-35495314D01*
X200726321Y-35495314D02*
X200726321Y-34833856D01*
X200726321Y-34833856D02*
X200726321Y-34833856D01*
G36*
X201387779Y-35495314D02*
G01*
X200726321Y-35495314D01*
X200726321Y-34833856D01*
X201387779Y-34833856D01*
X201387779Y-35495314D01*
G37*
X201387779Y-35495314D02*
X200726321Y-35495314D01*
X200726321Y-34833856D01*
X201387779Y-34833856D01*
X201387779Y-35495314D01*
X202159463Y-64819369D02*
X202820921Y-64819369D01*
X202820921Y-64819369D02*
X202820921Y-66142286D01*
X202820921Y-66142286D02*
X202159463Y-66142286D01*
X202159463Y-66142286D02*
X202159463Y-64819369D01*
X202159463Y-64819369D02*
X202159463Y-64819369D01*
G36*
X202820921Y-66142286D02*
G01*
X202159463Y-66142286D01*
X202159463Y-64819369D01*
X202820921Y-64819369D01*
X202820921Y-66142286D01*
G37*
X202820921Y-66142286D02*
X202159463Y-66142286D01*
X202159463Y-64819369D01*
X202820921Y-64819369D01*
X202820921Y-66142286D01*
X202820921Y-64157911D02*
X203482380Y-64157911D01*
X203482380Y-64157911D02*
X203482380Y-65480827D01*
X203482380Y-65480827D02*
X202820921Y-65480827D01*
X202820921Y-65480827D02*
X202820921Y-64157911D01*
X202820921Y-64157911D02*
X202820921Y-64157911D01*
G36*
X203482380Y-65480827D02*
G01*
X202820921Y-65480827D01*
X202820921Y-64157911D01*
X203482380Y-64157911D01*
X203482380Y-65480827D01*
G37*
X203482380Y-65480827D02*
X202820921Y-65480827D01*
X202820921Y-64157911D01*
X203482380Y-64157911D01*
X203482380Y-65480827D01*
X200836546Y-64157911D02*
X201498005Y-64157911D01*
X201498005Y-64157911D02*
X201498005Y-64819369D01*
X201498005Y-64819369D02*
X200836546Y-64819369D01*
X200836546Y-64819369D02*
X200836546Y-64157911D01*
X200836546Y-64157911D02*
X200836546Y-64157911D01*
G36*
X201498005Y-64819369D02*
G01*
X200836546Y-64819369D01*
X200836546Y-64157911D01*
X201498005Y-64157911D01*
X201498005Y-64819369D01*
G37*
X201498005Y-64819369D02*
X200836546Y-64819369D01*
X200836546Y-64157911D01*
X201498005Y-64157911D01*
X201498005Y-64819369D01*
X201498005Y-63496452D02*
X202820921Y-63496452D01*
X202820921Y-63496452D02*
X202820921Y-64819369D01*
X202820921Y-64819369D02*
X201498005Y-64819369D01*
X201498005Y-64819369D02*
X201498005Y-63496452D01*
X201498005Y-63496452D02*
X201498005Y-63496452D01*
G36*
X202820921Y-64819369D02*
G01*
X201498005Y-64819369D01*
X201498005Y-63496452D01*
X202820921Y-63496452D01*
X202820921Y-64819369D01*
G37*
X202820921Y-64819369D02*
X201498005Y-64819369D01*
X201498005Y-63496452D01*
X202820921Y-63496452D01*
X202820921Y-64819369D01*
X200836546Y-62834994D02*
X202159463Y-62834994D01*
X202159463Y-62834994D02*
X202159463Y-63496452D01*
X202159463Y-63496452D02*
X200836546Y-63496452D01*
X200836546Y-63496452D02*
X200836546Y-62834994D01*
X200836546Y-62834994D02*
X200836546Y-62834994D01*
G36*
X202159463Y-63496452D02*
G01*
X200836546Y-63496452D01*
X200836546Y-62834994D01*
X202159463Y-62834994D01*
X202159463Y-63496452D01*
G37*
X202159463Y-63496452D02*
X200836546Y-63496452D01*
X200836546Y-62834994D01*
X202159463Y-62834994D01*
X202159463Y-63496452D01*
X201498005Y-64819369D02*
X202159463Y-64819369D01*
X202159463Y-64819369D02*
X202159463Y-65480827D01*
X202159463Y-65480827D02*
X201498005Y-65480827D01*
X201498005Y-65480827D02*
X201498005Y-64819369D01*
X201498005Y-64819369D02*
X201498005Y-64819369D01*
G36*
X202159463Y-65480827D02*
G01*
X201498005Y-65480827D01*
X201498005Y-64819369D01*
X202159463Y-64819369D01*
X202159463Y-65480827D01*
G37*
X202159463Y-65480827D02*
X201498005Y-65480827D01*
X201498005Y-64819369D01*
X202159463Y-64819369D01*
X202159463Y-65480827D01*
X202820921Y-62834994D02*
X203482380Y-62834994D01*
X203482380Y-62834994D02*
X203482380Y-63496452D01*
X203482380Y-63496452D02*
X202820921Y-63496452D01*
X202820921Y-63496452D02*
X202820921Y-62834994D01*
X202820921Y-62834994D02*
X202820921Y-62834994D01*
G36*
X203482380Y-63496452D02*
G01*
X202820921Y-63496452D01*
X202820921Y-62834994D01*
X203482380Y-62834994D01*
X203482380Y-63496452D01*
G37*
X203482380Y-63496452D02*
X202820921Y-63496452D01*
X202820921Y-62834994D01*
X203482380Y-62834994D01*
X203482380Y-63496452D01*
D12*
%TO.C,D4*%
X228620000Y-45995000D02*
X228620000Y-42905000D01*
X228620000Y-42905170D02*
G75*
G03*
X223070000Y-44450462I-2560000J-1544830D01*
G01*
X223070000Y-44449538D02*
G75*
G03*
X228620000Y-45994830I2990000J-462D01*
G01*
X228560000Y-44450000D02*
G75*
G03*
X228560000Y-44450000I-2500000J0D01*
G01*
D11*
%TO.C,REF\u002A\u002A*%
X174056321Y-28483856D02*
X174717779Y-28483856D01*
X174717779Y-28483856D02*
X174717779Y-29145314D01*
X174717779Y-29145314D02*
X174056321Y-29145314D01*
X174056321Y-29145314D02*
X174056321Y-28483856D01*
X174056321Y-28483856D02*
X174056321Y-28483856D01*
G36*
X174717779Y-29145314D02*
G01*
X174056321Y-29145314D01*
X174056321Y-28483856D01*
X174717779Y-28483856D01*
X174717779Y-29145314D01*
G37*
X174717779Y-29145314D02*
X174056321Y-29145314D01*
X174056321Y-28483856D01*
X174717779Y-28483856D01*
X174717779Y-29145314D01*
X229535243Y-37748433D02*
X229535243Y-38409892D01*
X229535243Y-38409892D02*
X228873784Y-38409892D01*
X228873784Y-38409892D02*
X228873784Y-39071350D01*
X228873784Y-39071350D02*
X229535243Y-39071350D01*
X229535243Y-39071350D02*
X229535243Y-39732808D01*
X229535243Y-39732808D02*
X230196701Y-39732808D01*
X230196701Y-39732808D02*
X230196701Y-39071350D01*
X230196701Y-39071350D02*
X230858159Y-39071350D01*
X230858159Y-39071350D02*
X230858159Y-38409892D01*
X230858159Y-38409892D02*
X230196701Y-38409892D01*
X230196701Y-38409892D02*
X230196701Y-37748433D01*
X230196701Y-37748433D02*
X229535243Y-37748433D01*
X229535243Y-37748433D02*
X229535243Y-37748433D01*
G36*
X230196701Y-38409892D02*
G01*
X230858159Y-38409892D01*
X230858159Y-39071350D01*
X230196701Y-39071350D01*
X230196701Y-39732808D01*
X229535243Y-39732808D01*
X229535243Y-39071350D01*
X228873784Y-39071350D01*
X228873784Y-38409892D01*
X229535243Y-38409892D01*
X229535243Y-37748433D01*
X230196701Y-37748433D01*
X230196701Y-38409892D01*
G37*
X230196701Y-38409892D02*
X230858159Y-38409892D01*
X230858159Y-39071350D01*
X230196701Y-39071350D01*
X230196701Y-39732808D01*
X229535243Y-39732808D01*
X229535243Y-39071350D01*
X228873784Y-39071350D01*
X228873784Y-38409892D01*
X229535243Y-38409892D01*
X229535243Y-37748433D01*
X230196701Y-37748433D01*
X230196701Y-38409892D01*
X181041321Y-50073856D02*
X181702779Y-50073856D01*
X181702779Y-50073856D02*
X181702779Y-50735314D01*
X181702779Y-50735314D02*
X181041321Y-50735314D01*
X181041321Y-50735314D02*
X181041321Y-50073856D01*
X181041321Y-50073856D02*
X181041321Y-50073856D01*
G36*
X181702779Y-50735314D02*
G01*
X181041321Y-50735314D01*
X181041321Y-50073856D01*
X181702779Y-50073856D01*
X181702779Y-50735314D01*
G37*
X181702779Y-50735314D02*
X181041321Y-50735314D01*
X181041321Y-50073856D01*
X181702779Y-50073856D01*
X181702779Y-50735314D01*
D10*
X161539470Y-65263068D02*
X161539470Y-65924526D01*
X161539470Y-65924526D02*
X162200928Y-65924526D01*
X162200928Y-65924526D02*
X162200928Y-65263068D01*
X162200928Y-65263068D02*
X161539470Y-65263068D01*
X161539470Y-65263068D02*
X161539470Y-65263068D01*
G36*
X162200928Y-65924526D02*
G01*
X161539470Y-65924526D01*
X161539470Y-65263068D01*
X162200928Y-65263068D01*
X162200928Y-65924526D01*
G37*
X162200928Y-65924526D02*
X161539470Y-65924526D01*
X161539470Y-65263068D01*
X162200928Y-65263068D01*
X162200928Y-65924526D01*
X160216553Y-63940151D02*
X160216553Y-65263068D01*
X160216553Y-65263068D02*
X160216553Y-65924526D01*
X160216553Y-65924526D02*
X160878012Y-65924526D01*
X160878012Y-65924526D02*
X160878012Y-65263068D01*
X160878012Y-65263068D02*
X161539470Y-65263068D01*
X161539470Y-65263068D02*
X161539470Y-64601610D01*
X161539470Y-64601610D02*
X161539470Y-63940151D01*
X161539470Y-63940151D02*
X160216553Y-63940151D01*
X160216553Y-63940151D02*
X160216553Y-63940151D01*
G36*
X161539470Y-65263068D02*
G01*
X160878012Y-65263068D01*
X160878012Y-65924526D01*
X160216553Y-65924526D01*
X160216553Y-63940151D01*
X161539470Y-63940151D01*
X161539470Y-65263068D01*
G37*
X161539470Y-65263068D02*
X160878012Y-65263068D01*
X160878012Y-65924526D01*
X160216553Y-65924526D01*
X160216553Y-63940151D01*
X161539470Y-63940151D01*
X161539470Y-65263068D01*
X159555095Y-63278693D02*
X159555095Y-63940151D01*
X159555095Y-63940151D02*
X160216553Y-63940151D01*
X160216553Y-63940151D02*
X160216553Y-63278693D01*
X160216553Y-63278693D02*
X159555095Y-63278693D01*
X159555095Y-63278693D02*
X159555095Y-63278693D01*
G36*
X160216553Y-63940151D02*
G01*
X159555095Y-63940151D01*
X159555095Y-63278693D01*
X160216553Y-63278693D01*
X160216553Y-63940151D01*
G37*
X160216553Y-63940151D02*
X159555095Y-63940151D01*
X159555095Y-63278693D01*
X160216553Y-63278693D01*
X160216553Y-63940151D01*
X161539470Y-63940151D02*
X162200928Y-63940151D01*
X162200928Y-63940151D02*
X162200928Y-63278693D01*
X162200928Y-63278693D02*
X161539470Y-63278693D01*
X161539470Y-63278693D02*
X161539470Y-63940151D01*
X161539470Y-63940151D02*
X161539470Y-63940151D01*
G36*
X162200928Y-63940151D02*
G01*
X161539470Y-63940151D01*
X161539470Y-63278693D01*
X162200928Y-63278693D01*
X162200928Y-63940151D01*
G37*
X162200928Y-63940151D02*
X161539470Y-63940151D01*
X161539470Y-63278693D01*
X162200928Y-63278693D01*
X162200928Y-63940151D01*
X162200928Y-63940151D02*
X162200928Y-64601610D01*
X162200928Y-64601610D02*
X162862387Y-64601610D01*
X162862387Y-64601610D02*
X162862387Y-63940151D01*
X162862387Y-63940151D02*
X162200928Y-63940151D01*
X162200928Y-63940151D02*
X162200928Y-63940151D01*
G36*
X162862387Y-64601610D02*
G01*
X162200928Y-64601610D01*
X162200928Y-63940151D01*
X162862387Y-63940151D01*
X162862387Y-64601610D01*
G37*
X162862387Y-64601610D02*
X162200928Y-64601610D01*
X162200928Y-63940151D01*
X162862387Y-63940151D01*
X162862387Y-64601610D01*
X160216553Y-65924526D02*
X159555095Y-65924526D01*
X159555095Y-65924526D02*
X159555095Y-66585985D01*
X159555095Y-66585985D02*
X160216553Y-66585985D01*
X160216553Y-66585985D02*
X160216553Y-65924526D01*
X160216553Y-65924526D02*
X160216553Y-65924526D01*
G36*
X160216553Y-66585985D02*
G01*
X159555095Y-66585985D01*
X159555095Y-65924526D01*
X160216553Y-65924526D01*
X160216553Y-66585985D01*
G37*
X160216553Y-66585985D02*
X159555095Y-66585985D01*
X159555095Y-65924526D01*
X160216553Y-65924526D01*
X160216553Y-66585985D01*
D11*
X248986321Y-60868856D02*
X249647779Y-60868856D01*
X249647779Y-60868856D02*
X249647779Y-61530314D01*
X249647779Y-61530314D02*
X248986321Y-61530314D01*
X248986321Y-61530314D02*
X248986321Y-60868856D01*
X248986321Y-60868856D02*
X248986321Y-60868856D01*
G36*
X249647779Y-61530314D02*
G01*
X248986321Y-61530314D01*
X248986321Y-60868856D01*
X249647779Y-60868856D01*
X249647779Y-61530314D01*
G37*
X249647779Y-61530314D02*
X248986321Y-61530314D01*
X248986321Y-60868856D01*
X249647779Y-60868856D01*
X249647779Y-61530314D01*
X238425243Y-65053433D02*
X238425243Y-65714892D01*
X238425243Y-65714892D02*
X237763784Y-65714892D01*
X237763784Y-65714892D02*
X237763784Y-66376350D01*
X237763784Y-66376350D02*
X238425243Y-66376350D01*
X238425243Y-66376350D02*
X238425243Y-67037808D01*
X238425243Y-67037808D02*
X239086701Y-67037808D01*
X239086701Y-67037808D02*
X239086701Y-66376350D01*
X239086701Y-66376350D02*
X239748159Y-66376350D01*
X239748159Y-66376350D02*
X239748159Y-65714892D01*
X239748159Y-65714892D02*
X239086701Y-65714892D01*
X239086701Y-65714892D02*
X239086701Y-65053433D01*
X239086701Y-65053433D02*
X238425243Y-65053433D01*
X238425243Y-65053433D02*
X238425243Y-65053433D01*
G36*
X239086701Y-65714892D02*
G01*
X239748159Y-65714892D01*
X239748159Y-66376350D01*
X239086701Y-66376350D01*
X239086701Y-67037808D01*
X238425243Y-67037808D01*
X238425243Y-66376350D01*
X237763784Y-66376350D01*
X237763784Y-65714892D01*
X238425243Y-65714892D01*
X238425243Y-65053433D01*
X239086701Y-65053433D01*
X239086701Y-65714892D01*
G37*
X239086701Y-65714892D02*
X239748159Y-65714892D01*
X239748159Y-66376350D01*
X239086701Y-66376350D01*
X239086701Y-67037808D01*
X238425243Y-67037808D01*
X238425243Y-66376350D01*
X237763784Y-66376350D01*
X237763784Y-65714892D01*
X238425243Y-65714892D01*
X238425243Y-65053433D01*
X239086701Y-65053433D01*
X239086701Y-65714892D01*
X220010243Y-63783433D02*
X220010243Y-64444892D01*
X220010243Y-64444892D02*
X219348784Y-64444892D01*
X219348784Y-64444892D02*
X219348784Y-65106350D01*
X219348784Y-65106350D02*
X220010243Y-65106350D01*
X220010243Y-65106350D02*
X220010243Y-65767808D01*
X220010243Y-65767808D02*
X220671701Y-65767808D01*
X220671701Y-65767808D02*
X220671701Y-65106350D01*
X220671701Y-65106350D02*
X221333159Y-65106350D01*
X221333159Y-65106350D02*
X221333159Y-64444892D01*
X221333159Y-64444892D02*
X220671701Y-64444892D01*
X220671701Y-64444892D02*
X220671701Y-63783433D01*
X220671701Y-63783433D02*
X220010243Y-63783433D01*
X220010243Y-63783433D02*
X220010243Y-63783433D01*
G36*
X220671701Y-64444892D02*
G01*
X221333159Y-64444892D01*
X221333159Y-65106350D01*
X220671701Y-65106350D01*
X220671701Y-65767808D01*
X220010243Y-65767808D01*
X220010243Y-65106350D01*
X219348784Y-65106350D01*
X219348784Y-64444892D01*
X220010243Y-64444892D01*
X220010243Y-63783433D01*
X220671701Y-63783433D01*
X220671701Y-64444892D01*
G37*
X220671701Y-64444892D02*
X221333159Y-64444892D01*
X221333159Y-65106350D01*
X220671701Y-65106350D01*
X220671701Y-65767808D01*
X220010243Y-65767808D01*
X220010243Y-65106350D01*
X219348784Y-65106350D01*
X219348784Y-64444892D01*
X220010243Y-64444892D01*
X220010243Y-63783433D01*
X220671701Y-63783433D01*
X220671701Y-64444892D01*
D12*
%TO.C,D6*%
X245130000Y-54885000D02*
X245130000Y-51795000D01*
X245130000Y-51795170D02*
G75*
G03*
X239580000Y-53340462I-2560000J-1544830D01*
G01*
X239580000Y-53339538D02*
G75*
G03*
X245130000Y-54884830I2990000J-462D01*
G01*
X245070000Y-53340000D02*
G75*
G03*
X245070000Y-53340000I-2500000J0D01*
G01*
D11*
%TO.C,REF\u002A\u002A*%
X210886321Y-50073856D02*
X211547779Y-50073856D01*
X211547779Y-50073856D02*
X211547779Y-50735314D01*
X211547779Y-50735314D02*
X210886321Y-50735314D01*
X210886321Y-50735314D02*
X210886321Y-50073856D01*
X210886321Y-50073856D02*
X210886321Y-50073856D01*
G36*
X211547779Y-50735314D02*
G01*
X210886321Y-50735314D01*
X210886321Y-50073856D01*
X211547779Y-50073856D01*
X211547779Y-50735314D01*
G37*
X211547779Y-50735314D02*
X210886321Y-50735314D01*
X210886321Y-50073856D01*
X211547779Y-50073856D01*
X211547779Y-50735314D01*
D10*
X230701553Y-28380151D02*
X230701553Y-29703068D01*
X230701553Y-29703068D02*
X230701553Y-30364526D01*
X230701553Y-30364526D02*
X231363012Y-30364526D01*
X231363012Y-30364526D02*
X231363012Y-29703068D01*
X231363012Y-29703068D02*
X232024470Y-29703068D01*
X232024470Y-29703068D02*
X232024470Y-29041610D01*
X232024470Y-29041610D02*
X232024470Y-28380151D01*
X232024470Y-28380151D02*
X230701553Y-28380151D01*
X230701553Y-28380151D02*
X230701553Y-28380151D01*
G36*
X232024470Y-29703068D02*
G01*
X231363012Y-29703068D01*
X231363012Y-30364526D01*
X230701553Y-30364526D01*
X230701553Y-28380151D01*
X232024470Y-28380151D01*
X232024470Y-29703068D01*
G37*
X232024470Y-29703068D02*
X231363012Y-29703068D01*
X231363012Y-30364526D01*
X230701553Y-30364526D01*
X230701553Y-28380151D01*
X232024470Y-28380151D01*
X232024470Y-29703068D01*
X232024470Y-29703068D02*
X232024470Y-30364526D01*
X232024470Y-30364526D02*
X232685928Y-30364526D01*
X232685928Y-30364526D02*
X232685928Y-29703068D01*
X232685928Y-29703068D02*
X232024470Y-29703068D01*
X232024470Y-29703068D02*
X232024470Y-29703068D01*
G36*
X232685928Y-30364526D02*
G01*
X232024470Y-30364526D01*
X232024470Y-29703068D01*
X232685928Y-29703068D01*
X232685928Y-30364526D01*
G37*
X232685928Y-30364526D02*
X232024470Y-30364526D01*
X232024470Y-29703068D01*
X232685928Y-29703068D01*
X232685928Y-30364526D01*
X232024470Y-28380151D02*
X232685928Y-28380151D01*
X232685928Y-28380151D02*
X232685928Y-27718693D01*
X232685928Y-27718693D02*
X232024470Y-27718693D01*
X232024470Y-27718693D02*
X232024470Y-28380151D01*
X232024470Y-28380151D02*
X232024470Y-28380151D01*
G36*
X232685928Y-28380151D02*
G01*
X232024470Y-28380151D01*
X232024470Y-27718693D01*
X232685928Y-27718693D01*
X232685928Y-28380151D01*
G37*
X232685928Y-28380151D02*
X232024470Y-28380151D01*
X232024470Y-27718693D01*
X232685928Y-27718693D01*
X232685928Y-28380151D01*
X230040095Y-27718693D02*
X230040095Y-28380151D01*
X230040095Y-28380151D02*
X230701553Y-28380151D01*
X230701553Y-28380151D02*
X230701553Y-27718693D01*
X230701553Y-27718693D02*
X230040095Y-27718693D01*
X230040095Y-27718693D02*
X230040095Y-27718693D01*
G36*
X230701553Y-28380151D02*
G01*
X230040095Y-28380151D01*
X230040095Y-27718693D01*
X230701553Y-27718693D01*
X230701553Y-28380151D01*
G37*
X230701553Y-28380151D02*
X230040095Y-28380151D01*
X230040095Y-27718693D01*
X230701553Y-27718693D01*
X230701553Y-28380151D01*
X232685928Y-28380151D02*
X232685928Y-29041610D01*
X232685928Y-29041610D02*
X233347387Y-29041610D01*
X233347387Y-29041610D02*
X233347387Y-28380151D01*
X233347387Y-28380151D02*
X232685928Y-28380151D01*
X232685928Y-28380151D02*
X232685928Y-28380151D01*
G36*
X233347387Y-29041610D02*
G01*
X232685928Y-29041610D01*
X232685928Y-28380151D01*
X233347387Y-28380151D01*
X233347387Y-29041610D01*
G37*
X233347387Y-29041610D02*
X232685928Y-29041610D01*
X232685928Y-28380151D01*
X233347387Y-28380151D01*
X233347387Y-29041610D01*
X230701553Y-30364526D02*
X230040095Y-30364526D01*
X230040095Y-30364526D02*
X230040095Y-31025985D01*
X230040095Y-31025985D02*
X230701553Y-31025985D01*
X230701553Y-31025985D02*
X230701553Y-30364526D01*
X230701553Y-30364526D02*
X230701553Y-30364526D01*
G36*
X230701553Y-31025985D02*
G01*
X230040095Y-31025985D01*
X230040095Y-30364526D01*
X230701553Y-30364526D01*
X230701553Y-31025985D01*
G37*
X230701553Y-31025985D02*
X230040095Y-31025985D01*
X230040095Y-30364526D01*
X230701553Y-30364526D01*
X230701553Y-31025985D01*
D11*
X191201321Y-48803856D02*
X191862779Y-48803856D01*
X191862779Y-48803856D02*
X191862779Y-49465314D01*
X191862779Y-49465314D02*
X191201321Y-49465314D01*
X191201321Y-49465314D02*
X191201321Y-48803856D01*
X191201321Y-48803856D02*
X191201321Y-48803856D01*
G36*
X191862779Y-49465314D02*
G01*
X191201321Y-49465314D01*
X191201321Y-48803856D01*
X191862779Y-48803856D01*
X191862779Y-49465314D01*
G37*
X191862779Y-49465314D02*
X191201321Y-49465314D01*
X191201321Y-48803856D01*
X191862779Y-48803856D01*
X191862779Y-49465314D01*
%TD*%
%LPC*%
%TO.C,REF\u002A\u002A*%
G36*
X216170214Y-36748937D02*
G01*
X216890781Y-36748937D01*
X216890781Y-38190071D01*
X216170214Y-38190071D01*
X216170214Y-38910639D01*
X215449646Y-38910639D01*
X215449646Y-39631206D01*
X214008511Y-39631206D01*
X214008511Y-38190071D01*
X213287944Y-38190071D01*
X213287944Y-37469504D01*
X214008511Y-37469504D01*
X214008511Y-36748937D01*
X215449646Y-36748937D01*
X215449646Y-36028369D01*
X216170214Y-36028369D01*
X216170214Y-36748937D01*
G37*
G36*
X180862412Y-36028369D02*
G01*
X181582980Y-36028369D01*
X181582980Y-37469504D01*
X180862412Y-37469504D01*
X180862412Y-38190071D01*
X180141845Y-38190071D01*
X180141845Y-38910639D01*
X179421277Y-38910639D01*
X179421277Y-38190071D01*
X178700710Y-38190071D01*
X178700710Y-37469504D01*
X177980143Y-37469504D01*
X177980143Y-36028369D01*
X178700710Y-36028369D01*
X178700710Y-35307802D01*
X180862412Y-35307802D01*
X180862412Y-36028369D01*
G37*
G36*
X185906384Y-36028369D02*
G01*
X186626951Y-36028369D01*
X186626951Y-37469504D01*
X185906384Y-37469504D01*
X185906384Y-38190071D01*
X185185816Y-38190071D01*
X185185816Y-38910639D01*
X184465249Y-38910639D01*
X184465249Y-38190071D01*
X183744682Y-38190071D01*
X183744682Y-36748937D01*
X184465249Y-36748937D01*
X184465249Y-36028369D01*
X185185816Y-36028369D01*
X185185816Y-35307802D01*
X185906384Y-35307802D01*
X185906384Y-36028369D01*
G37*
G36*
X211126242Y-37469504D02*
G01*
X210405675Y-37469504D01*
X210405675Y-38910639D01*
X209685107Y-38910639D01*
X209685107Y-39631206D01*
X208964540Y-39631206D01*
X208964540Y-38910639D01*
X208243972Y-38910639D01*
X208243972Y-38190071D01*
X207523405Y-38190071D01*
X207523405Y-36748937D01*
X208964540Y-36748937D01*
X208964540Y-36028369D01*
X211126242Y-36028369D01*
X211126242Y-37469504D01*
G37*
%TD*%
D13*
%TO.C,R5*%
X199880464Y-68718086D03*
X199880464Y-57923086D03*
%TD*%
D14*
%TO.C,R8*%
X233362500Y-38100000D03*
X244157500Y-38100000D03*
%TD*%
D15*
%TO.C,J1*%
X162242500Y-32175000D03*
D16*
X162242500Y-35135000D03*
%TD*%
D17*
%TO.C,C3*%
X186607500Y-68580000D03*
D18*
X183550000Y-68580000D03*
%TD*%
D17*
%TO.C,C5*%
X239632613Y-61595000D03*
D18*
X236575113Y-61595000D03*
%TD*%
D13*
%TO.C,R9*%
X204470000Y-39052500D03*
X204470000Y-29527500D03*
%TD*%
D19*
%TO.C,Q4*%
X229495000Y-65405000D03*
D20*
X227387500Y-67310000D03*
D21*
X229495000Y-69215000D03*
%TD*%
D14*
%TO.C,R10*%
X233362500Y-33020000D03*
X244157500Y-33020000D03*
%TD*%
D22*
%TO.C,C1*%
X167005000Y-32147388D03*
D23*
X167005000Y-35204888D03*
%TD*%
D17*
%TO.C,C2*%
X165209142Y-63909325D03*
D18*
X168266642Y-63909325D03*
%TD*%
D19*
%TO.C,Q3*%
X214255000Y-67310000D03*
D20*
X212147500Y-69215000D03*
D21*
X214255000Y-71120000D03*
%TD*%
D24*
%TO.C,D9*%
X211005000Y-32517500D03*
D25*
X207777500Y-32517500D03*
%TD*%
D19*
%TO.C,Q2*%
X195897341Y-67310000D03*
D20*
X193789841Y-69215000D03*
D21*
X195897341Y-71120000D03*
%TD*%
D19*
%TO.C,Q1*%
X178695000Y-67310000D03*
D20*
X176587500Y-69215000D03*
D21*
X178695000Y-71120000D03*
%TD*%
D19*
%TO.C,Q5*%
X226955000Y-34290000D03*
D20*
X224847500Y-36195000D03*
D21*
X226955000Y-38100000D03*
%TD*%
D17*
%TO.C,C4*%
X207882613Y-68580000D03*
D18*
X204825113Y-68580000D03*
%TD*%
D24*
%TO.C,D8*%
X186875000Y-32517500D03*
D25*
X183647500Y-32517500D03*
%TD*%
D24*
%TO.C,D10*%
X217355000Y-32517500D03*
D25*
X214127500Y-32517500D03*
%TD*%
D13*
%TO.C,R4*%
X180975000Y-64452500D03*
X180975000Y-53657500D03*
%TD*%
%TO.C,R7*%
X190500000Y-39052500D03*
X190500000Y-29527500D03*
%TD*%
%TO.C,R3*%
X189871902Y-68897500D03*
X189871902Y-58102500D03*
%TD*%
D14*
%TO.C,R1*%
X173037500Y-39370000D03*
X162242500Y-39370000D03*
%TD*%
D22*
%TO.C,C6*%
X226060000Y-31032500D03*
D23*
X226060000Y-27975000D03*
%TD*%
D14*
%TO.C,R2*%
X172402500Y-69215000D03*
X161607500Y-69215000D03*
%TD*%
D24*
%TO.C,D7*%
X180525000Y-32517500D03*
D25*
X177297500Y-32517500D03*
%TD*%
D13*
%TO.C,R6*%
X219710000Y-68897500D03*
X219710000Y-58102500D03*
%TD*%
M02*
