%TF.GenerationSoftware,KiCad,Pcbnew,(6.0.2)*%
%TF.CreationDate,2022-03-15T12:48:44+01:00*%
%TF.ProjectId,ruetueta-pcb,72756574-7565-4746-912d-7063622e6b69,rev?*%
%TF.SameCoordinates,Original*%
%TF.FileFunction,Copper,L1,Top*%
%TF.FilePolarity,Positive*%
%FSLAX46Y46*%
G04 Gerber Fmt 4.6, Leading zero omitted, Abs format (unit mm)*
G04 Created by KiCad (PCBNEW (6.0.2)) date 2022-03-15 12:48:44*
%MOMM*%
%LPD*%
G01*
G04 APERTURE LIST*
%TA.AperFunction,EtchedComponent*%
%ADD10C,0.264582*%
%TD*%
%TA.AperFunction,EtchedComponent*%
%ADD11C,0.132291*%
%TD*%
%TA.AperFunction,ComponentPad*%
%ADD12R,2.805000X1.800000*%
%TD*%
%TA.AperFunction,ComponentPad*%
%ADD13O,1.600000X3.175000*%
%TD*%
%TA.AperFunction,ComponentPad*%
%ADD14O,3.175000X1.600000*%
%TD*%
%TA.AperFunction,ComponentPad*%
%ADD15O,3.175000X2.120000*%
%TD*%
%TA.AperFunction,ComponentPad*%
%ADD16R,3.175000X2.120000*%
%TD*%
%TA.AperFunction,ComponentPad*%
%ADD17R,2.705000X1.600000*%
%TD*%
%TA.AperFunction,ComponentPad*%
%ADD18O,2.610000X1.600000*%
%TD*%
%TA.AperFunction,ComponentPad*%
%ADD19R,2.020000X1.270000*%
%TD*%
%TA.AperFunction,ComponentPad*%
%ADD20O,2.655000X1.270000*%
%TD*%
%TA.AperFunction,ComponentPad*%
%ADD21O,2.020000X1.270000*%
%TD*%
%TA.AperFunction,ComponentPad*%
%ADD22R,1.600000X2.705000*%
%TD*%
%TA.AperFunction,ComponentPad*%
%ADD23O,1.600000X2.610000*%
%TD*%
%TA.AperFunction,ComponentPad*%
%ADD24R,2.170000X2.805000*%
%TD*%
%TA.AperFunction,ComponentPad*%
%ADD25O,2.805000X2.805000*%
%TD*%
%TA.AperFunction,ViaPad*%
%ADD26C,0.800000*%
%TD*%
%TA.AperFunction,Conductor*%
%ADD27C,0.500000*%
%TD*%
G04 APERTURE END LIST*
D10*
%TO.C,REF\u002A\u002A*%
X233759375Y-68695475D02*
X233759375Y-69356933D01*
X233759375Y-69356933D02*
X234420833Y-69356933D01*
X234420833Y-69356933D02*
X234420833Y-68695475D01*
X234420833Y-68695475D02*
X233759375Y-68695475D01*
X233759375Y-68695475D02*
X233759375Y-68695475D01*
G36*
X234420833Y-69356933D02*
G01*
X233759375Y-69356933D01*
X233759375Y-68695475D01*
X234420833Y-68695475D01*
X234420833Y-69356933D01*
G37*
X234420833Y-69356933D02*
X233759375Y-69356933D01*
X233759375Y-68695475D01*
X234420833Y-68695475D01*
X234420833Y-69356933D01*
X233759375Y-68034016D02*
X234420833Y-68034016D01*
X234420833Y-68034016D02*
X234420833Y-67372558D01*
X234420833Y-67372558D02*
X233759375Y-67372558D01*
X233759375Y-67372558D02*
X233759375Y-68034016D01*
X233759375Y-68034016D02*
X233759375Y-68034016D01*
G36*
X234420833Y-68034016D02*
G01*
X233759375Y-68034016D01*
X233759375Y-67372558D01*
X234420833Y-67372558D01*
X234420833Y-68034016D01*
G37*
X234420833Y-68034016D02*
X233759375Y-68034016D01*
X233759375Y-67372558D01*
X234420833Y-67372558D01*
X234420833Y-68034016D01*
X232436458Y-68034016D02*
X232436458Y-69356933D01*
X232436458Y-69356933D02*
X232436458Y-70018391D01*
X232436458Y-70018391D02*
X233097917Y-70018391D01*
X233097917Y-70018391D02*
X233097917Y-69356933D01*
X233097917Y-69356933D02*
X233759375Y-69356933D01*
X233759375Y-69356933D02*
X233759375Y-68695475D01*
X233759375Y-68695475D02*
X233759375Y-68034016D01*
X233759375Y-68034016D02*
X232436458Y-68034016D01*
X232436458Y-68034016D02*
X232436458Y-68034016D01*
G36*
X233759375Y-69356933D02*
G01*
X233097917Y-69356933D01*
X233097917Y-70018391D01*
X232436458Y-70018391D01*
X232436458Y-68034016D01*
X233759375Y-68034016D01*
X233759375Y-69356933D01*
G37*
X233759375Y-69356933D02*
X233097917Y-69356933D01*
X233097917Y-70018391D01*
X232436458Y-70018391D01*
X232436458Y-68034016D01*
X233759375Y-68034016D01*
X233759375Y-69356933D01*
X232436458Y-70018391D02*
X231775000Y-70018391D01*
X231775000Y-70018391D02*
X231775000Y-70679850D01*
X231775000Y-70679850D02*
X232436458Y-70679850D01*
X232436458Y-70679850D02*
X232436458Y-70018391D01*
X232436458Y-70018391D02*
X232436458Y-70018391D01*
G36*
X232436458Y-70679850D02*
G01*
X231775000Y-70679850D01*
X231775000Y-70018391D01*
X232436458Y-70018391D01*
X232436458Y-70679850D01*
G37*
X232436458Y-70679850D02*
X231775000Y-70679850D01*
X231775000Y-70018391D01*
X232436458Y-70018391D01*
X232436458Y-70679850D01*
X231775000Y-67372558D02*
X231775000Y-68034016D01*
X231775000Y-68034016D02*
X232436458Y-68034016D01*
X232436458Y-68034016D02*
X232436458Y-67372558D01*
X232436458Y-67372558D02*
X231775000Y-67372558D01*
X231775000Y-67372558D02*
X231775000Y-67372558D01*
G36*
X232436458Y-68034016D02*
G01*
X231775000Y-68034016D01*
X231775000Y-67372558D01*
X232436458Y-67372558D01*
X232436458Y-68034016D01*
G37*
X232436458Y-68034016D02*
X231775000Y-68034016D01*
X231775000Y-67372558D01*
X232436458Y-67372558D01*
X232436458Y-68034016D01*
X231113542Y-68034016D02*
X231113542Y-68695475D01*
X231113542Y-68695475D02*
X231775000Y-68695475D01*
X231775000Y-68695475D02*
X231775000Y-68034016D01*
X231775000Y-68034016D02*
X231113542Y-68034016D01*
X231113542Y-68034016D02*
X231113542Y-68034016D01*
G36*
X231775000Y-68695475D02*
G01*
X231113542Y-68695475D01*
X231113542Y-68034016D01*
X231775000Y-68034016D01*
X231775000Y-68695475D01*
G37*
X231775000Y-68695475D02*
X231113542Y-68695475D01*
X231113542Y-68034016D01*
X231775000Y-68034016D01*
X231775000Y-68695475D01*
X233097917Y-70018391D02*
X233097917Y-70679850D01*
X233097917Y-70679850D02*
X233759375Y-70679850D01*
X233759375Y-70679850D02*
X233759375Y-70018391D01*
X233759375Y-70018391D02*
X233097917Y-70018391D01*
X233097917Y-70018391D02*
X233097917Y-70018391D01*
G36*
X233759375Y-70679850D02*
G01*
X233097917Y-70679850D01*
X233097917Y-70018391D01*
X233759375Y-70018391D01*
X233759375Y-70679850D01*
G37*
X233759375Y-70679850D02*
X233097917Y-70679850D01*
X233097917Y-70018391D01*
X233759375Y-70018391D01*
X233759375Y-70679850D01*
X233097917Y-68695475D02*
X233759375Y-68695475D01*
X233759375Y-68695475D02*
X233759375Y-68034016D01*
X233759375Y-68034016D02*
X233097917Y-68034016D01*
X233097917Y-68034016D02*
X233097917Y-68695475D01*
X233097917Y-68695475D02*
X233097917Y-68695475D01*
G36*
X233759375Y-68695475D02*
G01*
X233097917Y-68695475D01*
X233097917Y-68034016D01*
X233759375Y-68034016D01*
X233759375Y-68695475D01*
G37*
X233759375Y-68695475D02*
X233097917Y-68695475D01*
X233097917Y-68034016D01*
X233759375Y-68034016D01*
X233759375Y-68695475D01*
X234420833Y-68034016D02*
X234420833Y-68695475D01*
X234420833Y-68695475D02*
X235082292Y-68695475D01*
X235082292Y-68695475D02*
X235082292Y-68034016D01*
X235082292Y-68034016D02*
X234420833Y-68034016D01*
X234420833Y-68034016D02*
X234420833Y-68034016D01*
G36*
X235082292Y-68695475D02*
G01*
X234420833Y-68695475D01*
X234420833Y-68034016D01*
X235082292Y-68034016D01*
X235082292Y-68695475D01*
G37*
X235082292Y-68695475D02*
X234420833Y-68695475D01*
X234420833Y-68034016D01*
X235082292Y-68034016D01*
X235082292Y-68695475D01*
X231775000Y-70679850D02*
X231113542Y-70679850D01*
X231113542Y-70679850D02*
X231113542Y-71341308D01*
X231113542Y-71341308D02*
X231775000Y-71341308D01*
X231775000Y-71341308D02*
X231775000Y-70679850D01*
X231775000Y-70679850D02*
X231775000Y-70679850D01*
G36*
X231775000Y-71341308D02*
G01*
X231113542Y-71341308D01*
X231113542Y-70679850D01*
X231775000Y-70679850D01*
X231775000Y-71341308D01*
G37*
X231775000Y-71341308D02*
X231113542Y-71341308D01*
X231113542Y-70679850D01*
X231775000Y-70679850D01*
X231775000Y-71341308D01*
X233759375Y-69356933D02*
X233759375Y-70018391D01*
X233759375Y-70018391D02*
X234420833Y-70018391D01*
X234420833Y-70018391D02*
X234420833Y-69356933D01*
X234420833Y-69356933D02*
X233759375Y-69356933D01*
X233759375Y-69356933D02*
X233759375Y-69356933D01*
G36*
X234420833Y-70018391D02*
G01*
X233759375Y-70018391D01*
X233759375Y-69356933D01*
X234420833Y-69356933D01*
X234420833Y-70018391D01*
G37*
X234420833Y-70018391D02*
X233759375Y-70018391D01*
X233759375Y-69356933D01*
X234420833Y-69356933D01*
X234420833Y-70018391D01*
X231775000Y-68695475D02*
X231775000Y-70018391D01*
X231775000Y-70018391D02*
X231775000Y-70679850D01*
X231775000Y-70679850D02*
X232436458Y-70679850D01*
X232436458Y-70679850D02*
X232436458Y-70018391D01*
X232436458Y-70018391D02*
X233097917Y-70018391D01*
X233097917Y-70018391D02*
X233097917Y-69356933D01*
X233097917Y-69356933D02*
X233097917Y-68695475D01*
X233097917Y-68695475D02*
X231775000Y-68695475D01*
X231775000Y-68695475D02*
X231775000Y-68695475D01*
G36*
X233097917Y-70018391D02*
G01*
X232436458Y-70018391D01*
X232436458Y-70679850D01*
X231775000Y-70679850D01*
X231775000Y-68695475D01*
X233097917Y-68695475D01*
X233097917Y-70018391D01*
G37*
X233097917Y-70018391D02*
X232436458Y-70018391D01*
X232436458Y-70679850D01*
X231775000Y-70679850D01*
X231775000Y-68695475D01*
X233097917Y-68695475D01*
X233097917Y-70018391D01*
D11*
X238997290Y-31646064D02*
X240320207Y-31646064D01*
X240320207Y-31646064D02*
X240320207Y-32307522D01*
X240320207Y-32307522D02*
X238997290Y-32307522D01*
X238997290Y-32307522D02*
X238997290Y-31646064D01*
X238997290Y-31646064D02*
X238997290Y-31646064D01*
G36*
X240320207Y-32307522D02*
G01*
X238997290Y-32307522D01*
X238997290Y-31646064D01*
X240320207Y-31646064D01*
X240320207Y-32307522D01*
G37*
X240320207Y-32307522D02*
X238997290Y-32307522D01*
X238997290Y-31646064D01*
X240320207Y-31646064D01*
X240320207Y-32307522D01*
X240981665Y-31646064D02*
X241643124Y-31646064D01*
X241643124Y-31646064D02*
X241643124Y-32307522D01*
X241643124Y-32307522D02*
X240981665Y-32307522D01*
X240981665Y-32307522D02*
X240981665Y-31646064D01*
X240981665Y-31646064D02*
X240981665Y-31646064D01*
G36*
X241643124Y-32307522D02*
G01*
X240981665Y-32307522D01*
X240981665Y-31646064D01*
X241643124Y-31646064D01*
X241643124Y-32307522D01*
G37*
X241643124Y-32307522D02*
X240981665Y-32307522D01*
X240981665Y-31646064D01*
X241643124Y-31646064D01*
X241643124Y-32307522D01*
X238335832Y-33630439D02*
X238997291Y-33630439D01*
X238997291Y-33630439D02*
X238997291Y-34291897D01*
X238997291Y-34291897D02*
X238335832Y-34291897D01*
X238335832Y-34291897D02*
X238335832Y-33630439D01*
X238335832Y-33630439D02*
X238335832Y-33630439D01*
G36*
X238997291Y-34291897D02*
G01*
X238335832Y-34291897D01*
X238335832Y-33630439D01*
X238997291Y-33630439D01*
X238997291Y-34291897D01*
G37*
X238997291Y-34291897D02*
X238335832Y-34291897D01*
X238335832Y-33630439D01*
X238997291Y-33630439D01*
X238997291Y-34291897D01*
X240320207Y-32307522D02*
X240981665Y-32307522D01*
X240981665Y-32307522D02*
X240981665Y-32968981D01*
X240981665Y-32968981D02*
X240320207Y-32968981D01*
X240320207Y-32968981D02*
X240320207Y-32307522D01*
X240320207Y-32307522D02*
X240320207Y-32307522D01*
G36*
X240981665Y-32968981D02*
G01*
X240320207Y-32968981D01*
X240320207Y-32307522D01*
X240981665Y-32307522D01*
X240981665Y-32968981D01*
G37*
X240981665Y-32968981D02*
X240320207Y-32968981D01*
X240320207Y-32307522D01*
X240981665Y-32307522D01*
X240981665Y-32968981D01*
X238997291Y-32968981D02*
X240320207Y-32968981D01*
X240320207Y-32968981D02*
X240320207Y-34291897D01*
X240320207Y-34291897D02*
X238997291Y-34291897D01*
X238997291Y-34291897D02*
X238997291Y-32968981D01*
X238997291Y-32968981D02*
X238997291Y-32968981D01*
G36*
X240320207Y-34291897D02*
G01*
X238997291Y-34291897D01*
X238997291Y-32968981D01*
X240320207Y-32968981D01*
X240320207Y-34291897D01*
G37*
X240320207Y-34291897D02*
X238997291Y-34291897D01*
X238997291Y-32968981D01*
X240320207Y-32968981D01*
X240320207Y-34291897D01*
X239658749Y-32307522D02*
X240981665Y-32307522D01*
X240981665Y-32307522D02*
X240981665Y-33630439D01*
X240981665Y-33630439D02*
X239658749Y-33630439D01*
X239658749Y-33630439D02*
X239658749Y-32307522D01*
X239658749Y-32307522D02*
X239658749Y-32307522D01*
G36*
X240981665Y-33630439D02*
G01*
X239658749Y-33630439D01*
X239658749Y-32307522D01*
X240981665Y-32307522D01*
X240981665Y-33630439D01*
G37*
X240981665Y-33630439D02*
X239658749Y-33630439D01*
X239658749Y-32307522D01*
X240981665Y-32307522D01*
X240981665Y-33630439D01*
X240320207Y-33630439D02*
X240981665Y-33630439D01*
X240981665Y-33630439D02*
X240981665Y-34953356D01*
X240981665Y-34953356D02*
X240320207Y-34953356D01*
X240320207Y-34953356D02*
X240320207Y-33630439D01*
X240320207Y-33630439D02*
X240320207Y-33630439D01*
G36*
X240981665Y-34953356D02*
G01*
X240320207Y-34953356D01*
X240320207Y-33630439D01*
X240981665Y-33630439D01*
X240981665Y-34953356D01*
G37*
X240981665Y-34953356D02*
X240320207Y-34953356D01*
X240320207Y-33630439D01*
X240981665Y-33630439D01*
X240981665Y-34953356D01*
X238997290Y-32968981D02*
X239658749Y-32968981D01*
X239658749Y-32968981D02*
X239658749Y-33630439D01*
X239658749Y-33630439D02*
X238997290Y-33630439D01*
X238997290Y-33630439D02*
X238997290Y-32968981D01*
X238997290Y-32968981D02*
X238997290Y-32968981D01*
G36*
X239658749Y-33630439D02*
G01*
X238997290Y-33630439D01*
X238997290Y-32968981D01*
X239658749Y-32968981D01*
X239658749Y-33630439D01*
G37*
X239658749Y-33630439D02*
X238997290Y-33630439D01*
X238997290Y-32968981D01*
X239658749Y-32968981D01*
X239658749Y-33630439D01*
X238335832Y-32307522D02*
X239658749Y-32307522D01*
X239658749Y-32307522D02*
X239658749Y-32968981D01*
X239658749Y-32968981D02*
X238335832Y-32968981D01*
X238335832Y-32968981D02*
X238335832Y-32307522D01*
X238335832Y-32307522D02*
X238335832Y-32307522D01*
G36*
X239658749Y-32968981D02*
G01*
X238335832Y-32968981D01*
X238335832Y-32307522D01*
X239658749Y-32307522D01*
X239658749Y-32968981D01*
G37*
X239658749Y-32968981D02*
X238335832Y-32968981D01*
X238335832Y-32307522D01*
X239658749Y-32307522D01*
X239658749Y-32968981D01*
X238997291Y-34291897D02*
X239658749Y-34291897D01*
X239658749Y-34291897D02*
X239658749Y-34953356D01*
X239658749Y-34953356D02*
X238997291Y-34953356D01*
X238997291Y-34953356D02*
X238997291Y-34291897D01*
X238997291Y-34291897D02*
X238997291Y-34291897D01*
G36*
X239658749Y-34953356D02*
G01*
X238997291Y-34953356D01*
X238997291Y-34291897D01*
X239658749Y-34291897D01*
X239658749Y-34953356D01*
G37*
X239658749Y-34953356D02*
X238997291Y-34953356D01*
X238997291Y-34291897D01*
X239658749Y-34291897D01*
X239658749Y-34953356D01*
X239658749Y-34291897D02*
X240320207Y-34291897D01*
X240320207Y-34291897D02*
X240320207Y-35614814D01*
X240320207Y-35614814D02*
X239658749Y-35614814D01*
X239658749Y-35614814D02*
X239658749Y-34291897D01*
X239658749Y-34291897D02*
X239658749Y-34291897D01*
G36*
X240320207Y-35614814D02*
G01*
X239658749Y-35614814D01*
X239658749Y-34291897D01*
X240320207Y-34291897D01*
X240320207Y-35614814D01*
G37*
X240320207Y-35614814D02*
X239658749Y-35614814D01*
X239658749Y-34291897D01*
X240320207Y-34291897D01*
X240320207Y-35614814D01*
X239658749Y-33630439D02*
X240320207Y-33630439D01*
X240320207Y-33630439D02*
X240320207Y-34291897D01*
X240320207Y-34291897D02*
X239658749Y-34291897D01*
X239658749Y-34291897D02*
X239658749Y-33630439D01*
X239658749Y-33630439D02*
X239658749Y-33630439D01*
G36*
X240320207Y-34291897D02*
G01*
X239658749Y-34291897D01*
X239658749Y-33630439D01*
X240320207Y-33630439D01*
X240320207Y-34291897D01*
G37*
X240320207Y-34291897D02*
X239658749Y-34291897D01*
X239658749Y-33630439D01*
X240320207Y-33630439D01*
X240320207Y-34291897D01*
X180043386Y-68177035D02*
X180043386Y-68838493D01*
X180043386Y-68838493D02*
X179381928Y-68838493D01*
X179381928Y-68838493D02*
X179381928Y-69499951D01*
X179381928Y-69499951D02*
X180043386Y-69499951D01*
X180043386Y-69499951D02*
X180043386Y-70161410D01*
X180043386Y-70161410D02*
X180704845Y-70161410D01*
X180704845Y-70161410D02*
X180704845Y-69499951D01*
X180704845Y-69499951D02*
X181366303Y-69499951D01*
X181366303Y-69499951D02*
X181366303Y-68838493D01*
X181366303Y-68838493D02*
X180704845Y-68838493D01*
X180704845Y-68838493D02*
X180704845Y-68177035D01*
X180704845Y-68177035D02*
X180043386Y-68177035D01*
X180043386Y-68177035D02*
X180043386Y-68177035D01*
G36*
X180704845Y-68838493D02*
G01*
X181366303Y-68838493D01*
X181366303Y-69499951D01*
X180704845Y-69499951D01*
X180704845Y-70161410D01*
X180043386Y-70161410D01*
X180043386Y-69499951D01*
X179381928Y-69499951D01*
X179381928Y-68838493D01*
X180043386Y-68838493D01*
X180043386Y-68177035D01*
X180704845Y-68177035D01*
X180704845Y-68838493D01*
G37*
X180704845Y-68838493D02*
X181366303Y-68838493D01*
X181366303Y-69499951D01*
X180704845Y-69499951D01*
X180704845Y-70161410D01*
X180043386Y-70161410D01*
X180043386Y-69499951D01*
X179381928Y-69499951D01*
X179381928Y-68838493D01*
X180043386Y-68838493D01*
X180043386Y-68177035D01*
X180704845Y-68177035D01*
X180704845Y-68838493D01*
X180704845Y-67515576D02*
X180704845Y-68177035D01*
X180704845Y-68177035D02*
X180043386Y-68177035D01*
X180043386Y-68177035D02*
X180043386Y-68838493D01*
X180043386Y-68838493D02*
X180704845Y-68838493D01*
X180704845Y-68838493D02*
X180704845Y-69499951D01*
X180704845Y-69499951D02*
X181366303Y-69499951D01*
X181366303Y-69499951D02*
X181366303Y-68838493D01*
X181366303Y-68838493D02*
X182027761Y-68838493D01*
X182027761Y-68838493D02*
X182027761Y-68177035D01*
X182027761Y-68177035D02*
X181366303Y-68177035D01*
X181366303Y-68177035D02*
X181366303Y-67515576D01*
X181366303Y-67515576D02*
X180704845Y-67515576D01*
X180704845Y-67515576D02*
X180704845Y-67515576D01*
G36*
X181366303Y-68177035D02*
G01*
X182027761Y-68177035D01*
X182027761Y-68838493D01*
X181366303Y-68838493D01*
X181366303Y-69499951D01*
X180704845Y-69499951D01*
X180704845Y-68838493D01*
X180043386Y-68838493D01*
X180043386Y-68177035D01*
X180704845Y-68177035D01*
X180704845Y-67515576D01*
X181366303Y-67515576D01*
X181366303Y-68177035D01*
G37*
X181366303Y-68177035D02*
X182027761Y-68177035D01*
X182027761Y-68838493D01*
X181366303Y-68838493D01*
X181366303Y-69499951D01*
X180704845Y-69499951D01*
X180704845Y-68838493D01*
X180043386Y-68838493D01*
X180043386Y-68177035D01*
X180704845Y-68177035D01*
X180704845Y-67515576D01*
X181366303Y-67515576D01*
X181366303Y-68177035D01*
D10*
X172111458Y-32914166D02*
X172111458Y-34237083D01*
X172111458Y-34237083D02*
X172111458Y-34898541D01*
X172111458Y-34898541D02*
X172772917Y-34898541D01*
X172772917Y-34898541D02*
X172772917Y-34237083D01*
X172772917Y-34237083D02*
X173434375Y-34237083D01*
X173434375Y-34237083D02*
X173434375Y-33575625D01*
X173434375Y-33575625D02*
X173434375Y-32914166D01*
X173434375Y-32914166D02*
X172111458Y-32914166D01*
X172111458Y-32914166D02*
X172111458Y-32914166D01*
G36*
X173434375Y-34237083D02*
G01*
X172772917Y-34237083D01*
X172772917Y-34898541D01*
X172111458Y-34898541D01*
X172111458Y-32914166D01*
X173434375Y-32914166D01*
X173434375Y-34237083D01*
G37*
X173434375Y-34237083D02*
X172772917Y-34237083D01*
X172772917Y-34898541D01*
X172111458Y-34898541D01*
X172111458Y-32914166D01*
X173434375Y-32914166D01*
X173434375Y-34237083D01*
X171450000Y-33575625D02*
X171450000Y-34898541D01*
X171450000Y-34898541D02*
X171450000Y-35560000D01*
X171450000Y-35560000D02*
X172111458Y-35560000D01*
X172111458Y-35560000D02*
X172111458Y-34898541D01*
X172111458Y-34898541D02*
X172772917Y-34898541D01*
X172772917Y-34898541D02*
X172772917Y-34237083D01*
X172772917Y-34237083D02*
X172772917Y-33575625D01*
X172772917Y-33575625D02*
X171450000Y-33575625D01*
X171450000Y-33575625D02*
X171450000Y-33575625D01*
G36*
X172772917Y-34898541D02*
G01*
X172111458Y-34898541D01*
X172111458Y-35560000D01*
X171450000Y-35560000D01*
X171450000Y-33575625D01*
X172772917Y-33575625D01*
X172772917Y-34898541D01*
G37*
X172772917Y-34898541D02*
X172111458Y-34898541D01*
X172111458Y-35560000D01*
X171450000Y-35560000D01*
X171450000Y-33575625D01*
X172772917Y-33575625D01*
X172772917Y-34898541D01*
X170788542Y-32914166D02*
X170788542Y-33575625D01*
X170788542Y-33575625D02*
X171450000Y-33575625D01*
X171450000Y-33575625D02*
X171450000Y-32914166D01*
X171450000Y-32914166D02*
X170788542Y-32914166D01*
X170788542Y-32914166D02*
X170788542Y-32914166D01*
G36*
X171450000Y-33575625D02*
G01*
X170788542Y-33575625D01*
X170788542Y-32914166D01*
X171450000Y-32914166D01*
X171450000Y-33575625D01*
G37*
X171450000Y-33575625D02*
X170788542Y-33575625D01*
X170788542Y-32914166D01*
X171450000Y-32914166D01*
X171450000Y-33575625D01*
X173434375Y-33575625D02*
X173434375Y-34237083D01*
X173434375Y-34237083D02*
X174095833Y-34237083D01*
X174095833Y-34237083D02*
X174095833Y-33575625D01*
X174095833Y-33575625D02*
X173434375Y-33575625D01*
X173434375Y-33575625D02*
X173434375Y-33575625D01*
G36*
X174095833Y-34237083D02*
G01*
X173434375Y-34237083D01*
X173434375Y-33575625D01*
X174095833Y-33575625D01*
X174095833Y-34237083D01*
G37*
X174095833Y-34237083D02*
X173434375Y-34237083D01*
X173434375Y-33575625D01*
X174095833Y-33575625D01*
X174095833Y-34237083D01*
X172772917Y-34898541D02*
X172772917Y-35560000D01*
X172772917Y-35560000D02*
X173434375Y-35560000D01*
X173434375Y-35560000D02*
X173434375Y-34898541D01*
X173434375Y-34898541D02*
X172772917Y-34898541D01*
X172772917Y-34898541D02*
X172772917Y-34898541D01*
G36*
X173434375Y-35560000D02*
G01*
X172772917Y-35560000D01*
X172772917Y-34898541D01*
X173434375Y-34898541D01*
X173434375Y-35560000D01*
G37*
X173434375Y-35560000D02*
X172772917Y-35560000D01*
X172772917Y-34898541D01*
X173434375Y-34898541D01*
X173434375Y-35560000D01*
X172772917Y-33575625D02*
X173434375Y-33575625D01*
X173434375Y-33575625D02*
X173434375Y-32914166D01*
X173434375Y-32914166D02*
X172772917Y-32914166D01*
X172772917Y-32914166D02*
X172772917Y-33575625D01*
X172772917Y-33575625D02*
X172772917Y-33575625D01*
G36*
X173434375Y-33575625D02*
G01*
X172772917Y-33575625D01*
X172772917Y-32914166D01*
X173434375Y-32914166D01*
X173434375Y-33575625D01*
G37*
X173434375Y-33575625D02*
X172772917Y-33575625D01*
X172772917Y-32914166D01*
X173434375Y-32914166D01*
X173434375Y-33575625D01*
X173434375Y-34237083D02*
X173434375Y-34898541D01*
X173434375Y-34898541D02*
X174095833Y-34898541D01*
X174095833Y-34898541D02*
X174095833Y-34237083D01*
X174095833Y-34237083D02*
X173434375Y-34237083D01*
X173434375Y-34237083D02*
X173434375Y-34237083D01*
G36*
X174095833Y-34898541D02*
G01*
X173434375Y-34898541D01*
X173434375Y-34237083D01*
X174095833Y-34237083D01*
X174095833Y-34898541D01*
G37*
X174095833Y-34898541D02*
X173434375Y-34898541D01*
X173434375Y-34237083D01*
X174095833Y-34237083D01*
X174095833Y-34898541D01*
X172111458Y-34898541D02*
X171450000Y-34898541D01*
X171450000Y-34898541D02*
X171450000Y-35560000D01*
X171450000Y-35560000D02*
X172111458Y-35560000D01*
X172111458Y-35560000D02*
X172111458Y-34898541D01*
X172111458Y-34898541D02*
X172111458Y-34898541D01*
G36*
X172111458Y-35560000D02*
G01*
X171450000Y-35560000D01*
X171450000Y-34898541D01*
X172111458Y-34898541D01*
X172111458Y-35560000D01*
G37*
X172111458Y-35560000D02*
X171450000Y-35560000D01*
X171450000Y-34898541D01*
X172111458Y-34898541D01*
X172111458Y-35560000D01*
X171450000Y-35560000D02*
X170788542Y-35560000D01*
X170788542Y-35560000D02*
X170788542Y-36221458D01*
X170788542Y-36221458D02*
X171450000Y-36221458D01*
X171450000Y-36221458D02*
X171450000Y-35560000D01*
X171450000Y-35560000D02*
X171450000Y-35560000D01*
G36*
X171450000Y-36221458D02*
G01*
X170788542Y-36221458D01*
X170788542Y-35560000D01*
X171450000Y-35560000D01*
X171450000Y-36221458D01*
G37*
X171450000Y-36221458D02*
X170788542Y-36221458D01*
X170788542Y-35560000D01*
X171450000Y-35560000D01*
X171450000Y-36221458D01*
X174095833Y-32914166D02*
X174095833Y-33575625D01*
X174095833Y-33575625D02*
X174757292Y-33575625D01*
X174757292Y-33575625D02*
X174757292Y-32914166D01*
X174757292Y-32914166D02*
X174095833Y-32914166D01*
X174095833Y-32914166D02*
X174095833Y-32914166D01*
G36*
X174757292Y-33575625D02*
G01*
X174095833Y-33575625D01*
X174095833Y-32914166D01*
X174757292Y-32914166D01*
X174757292Y-33575625D01*
G37*
X174757292Y-33575625D02*
X174095833Y-33575625D01*
X174095833Y-32914166D01*
X174757292Y-32914166D01*
X174757292Y-33575625D01*
X173434375Y-32914166D02*
X174095833Y-32914166D01*
X174095833Y-32914166D02*
X174095833Y-32252708D01*
X174095833Y-32252708D02*
X173434375Y-32252708D01*
X173434375Y-32252708D02*
X173434375Y-32914166D01*
X173434375Y-32914166D02*
X173434375Y-32914166D01*
G36*
X174095833Y-32914166D02*
G01*
X173434375Y-32914166D01*
X173434375Y-32252708D01*
X174095833Y-32252708D01*
X174095833Y-32914166D01*
G37*
X174095833Y-32914166D02*
X173434375Y-32914166D01*
X173434375Y-32252708D01*
X174095833Y-32252708D01*
X174095833Y-32914166D01*
X171450000Y-32252708D02*
X171450000Y-32914166D01*
X171450000Y-32914166D02*
X172111458Y-32914166D01*
X172111458Y-32914166D02*
X172111458Y-32252708D01*
X172111458Y-32252708D02*
X171450000Y-32252708D01*
X171450000Y-32252708D02*
X171450000Y-32252708D01*
G36*
X172111458Y-32914166D02*
G01*
X171450000Y-32914166D01*
X171450000Y-32252708D01*
X172111458Y-32252708D01*
X172111458Y-32914166D01*
G37*
X172111458Y-32914166D02*
X171450000Y-32914166D01*
X171450000Y-32252708D01*
X172111458Y-32252708D01*
X172111458Y-32914166D01*
D11*
X158479845Y-47830576D02*
X158479845Y-48492035D01*
X158479845Y-48492035D02*
X157818386Y-48492035D01*
X157818386Y-48492035D02*
X157818386Y-49153493D01*
X157818386Y-49153493D02*
X158479845Y-49153493D01*
X158479845Y-49153493D02*
X158479845Y-49814951D01*
X158479845Y-49814951D02*
X159141303Y-49814951D01*
X159141303Y-49814951D02*
X159141303Y-49153493D01*
X159141303Y-49153493D02*
X159802761Y-49153493D01*
X159802761Y-49153493D02*
X159802761Y-48492035D01*
X159802761Y-48492035D02*
X159141303Y-48492035D01*
X159141303Y-48492035D02*
X159141303Y-47830576D01*
X159141303Y-47830576D02*
X158479845Y-47830576D01*
X158479845Y-47830576D02*
X158479845Y-47830576D01*
G36*
X159141303Y-48492035D02*
G01*
X159802761Y-48492035D01*
X159802761Y-49153493D01*
X159141303Y-49153493D01*
X159141303Y-49814951D01*
X158479845Y-49814951D01*
X158479845Y-49153493D01*
X157818386Y-49153493D01*
X157818386Y-48492035D01*
X158479845Y-48492035D01*
X158479845Y-47830576D01*
X159141303Y-47830576D01*
X159141303Y-48492035D01*
G37*
X159141303Y-48492035D02*
X159802761Y-48492035D01*
X159802761Y-49153493D01*
X159141303Y-49153493D01*
X159141303Y-49814951D01*
X158479845Y-49814951D01*
X158479845Y-49153493D01*
X157818386Y-49153493D01*
X157818386Y-48492035D01*
X158479845Y-48492035D01*
X158479845Y-47830576D01*
X159141303Y-47830576D01*
X159141303Y-48492035D01*
X157818386Y-48492035D02*
X157818386Y-49153493D01*
X157818386Y-49153493D02*
X157156928Y-49153493D01*
X157156928Y-49153493D02*
X157156928Y-49814951D01*
X157156928Y-49814951D02*
X157818386Y-49814951D01*
X157818386Y-49814951D02*
X157818386Y-50476410D01*
X157818386Y-50476410D02*
X158479845Y-50476410D01*
X158479845Y-50476410D02*
X158479845Y-49814951D01*
X158479845Y-49814951D02*
X159141303Y-49814951D01*
X159141303Y-49814951D02*
X159141303Y-49153493D01*
X159141303Y-49153493D02*
X158479845Y-49153493D01*
X158479845Y-49153493D02*
X158479845Y-48492035D01*
X158479845Y-48492035D02*
X157818386Y-48492035D01*
X157818386Y-48492035D02*
X157818386Y-48492035D01*
G36*
X158479845Y-49153493D02*
G01*
X159141303Y-49153493D01*
X159141303Y-49814951D01*
X158479845Y-49814951D01*
X158479845Y-50476410D01*
X157818386Y-50476410D01*
X157818386Y-49814951D01*
X157156928Y-49814951D01*
X157156928Y-49153493D01*
X157818386Y-49153493D01*
X157818386Y-48492035D01*
X158479845Y-48492035D01*
X158479845Y-49153493D01*
G37*
X158479845Y-49153493D02*
X159141303Y-49153493D01*
X159141303Y-49814951D01*
X158479845Y-49814951D01*
X158479845Y-50476410D01*
X157818386Y-50476410D01*
X157818386Y-49814951D01*
X157156928Y-49814951D01*
X157156928Y-49153493D01*
X157818386Y-49153493D01*
X157818386Y-48492035D01*
X158479845Y-48492035D01*
X158479845Y-49153493D01*
D10*
X204505580Y-71664863D02*
X205828497Y-71664863D01*
X205828497Y-71664863D02*
X205828497Y-72987779D01*
X205828497Y-72987779D02*
X204505580Y-72987779D01*
X204505580Y-72987779D02*
X204505580Y-71664863D01*
X204505580Y-71664863D02*
X204505580Y-71664863D01*
G36*
X205828497Y-72987779D02*
G01*
X204505580Y-72987779D01*
X204505580Y-71664863D01*
X205828497Y-71664863D01*
X205828497Y-72987779D01*
G37*
X205828497Y-72987779D02*
X204505580Y-72987779D01*
X204505580Y-71664863D01*
X205828497Y-71664863D01*
X205828497Y-72987779D01*
D11*
X188933386Y-63732035D02*
X188933386Y-64393493D01*
X188933386Y-64393493D02*
X188271928Y-64393493D01*
X188271928Y-64393493D02*
X188271928Y-65054951D01*
X188271928Y-65054951D02*
X188933386Y-65054951D01*
X188933386Y-65054951D02*
X188933386Y-65716410D01*
X188933386Y-65716410D02*
X189594845Y-65716410D01*
X189594845Y-65716410D02*
X189594845Y-65054951D01*
X189594845Y-65054951D02*
X190256303Y-65054951D01*
X190256303Y-65054951D02*
X190256303Y-64393493D01*
X190256303Y-64393493D02*
X189594845Y-64393493D01*
X189594845Y-64393493D02*
X189594845Y-63732035D01*
X189594845Y-63732035D02*
X188933386Y-63732035D01*
X188933386Y-63732035D02*
X188933386Y-63732035D01*
G36*
X189594845Y-64393493D02*
G01*
X190256303Y-64393493D01*
X190256303Y-65054951D01*
X189594845Y-65054951D01*
X189594845Y-65716410D01*
X188933386Y-65716410D01*
X188933386Y-65054951D01*
X188271928Y-65054951D01*
X188271928Y-64393493D01*
X188933386Y-64393493D01*
X188933386Y-63732035D01*
X189594845Y-63732035D01*
X189594845Y-64393493D01*
G37*
X189594845Y-64393493D02*
X190256303Y-64393493D01*
X190256303Y-65054951D01*
X189594845Y-65054951D01*
X189594845Y-65716410D01*
X188933386Y-65716410D01*
X188933386Y-65054951D01*
X188271928Y-65054951D01*
X188271928Y-64393493D01*
X188933386Y-64393493D01*
X188933386Y-63732035D01*
X189594845Y-63732035D01*
X189594845Y-64393493D01*
X189594845Y-63070576D02*
X189594845Y-63732035D01*
X189594845Y-63732035D02*
X188933386Y-63732035D01*
X188933386Y-63732035D02*
X188933386Y-64393493D01*
X188933386Y-64393493D02*
X189594845Y-64393493D01*
X189594845Y-64393493D02*
X189594845Y-65054951D01*
X189594845Y-65054951D02*
X190256303Y-65054951D01*
X190256303Y-65054951D02*
X190256303Y-64393493D01*
X190256303Y-64393493D02*
X190917761Y-64393493D01*
X190917761Y-64393493D02*
X190917761Y-63732035D01*
X190917761Y-63732035D02*
X190256303Y-63732035D01*
X190256303Y-63732035D02*
X190256303Y-63070576D01*
X190256303Y-63070576D02*
X189594845Y-63070576D01*
X189594845Y-63070576D02*
X189594845Y-63070576D01*
G36*
X190256303Y-63732035D02*
G01*
X190917761Y-63732035D01*
X190917761Y-64393493D01*
X190256303Y-64393493D01*
X190256303Y-65054951D01*
X189594845Y-65054951D01*
X189594845Y-64393493D01*
X188933386Y-64393493D01*
X188933386Y-63732035D01*
X189594845Y-63732035D01*
X189594845Y-63070576D01*
X190256303Y-63070576D01*
X190256303Y-63732035D01*
G37*
X190256303Y-63732035D02*
X190917761Y-63732035D01*
X190917761Y-64393493D01*
X190256303Y-64393493D01*
X190256303Y-65054951D01*
X189594845Y-65054951D01*
X189594845Y-64393493D01*
X188933386Y-64393493D01*
X188933386Y-63732035D01*
X189594845Y-63732035D01*
X189594845Y-63070576D01*
X190256303Y-63070576D01*
X190256303Y-63732035D01*
X166099845Y-68785576D02*
X166099845Y-69447035D01*
X166099845Y-69447035D02*
X165438386Y-69447035D01*
X165438386Y-69447035D02*
X165438386Y-70108493D01*
X165438386Y-70108493D02*
X166099845Y-70108493D01*
X166099845Y-70108493D02*
X166099845Y-70769951D01*
X166099845Y-70769951D02*
X166761303Y-70769951D01*
X166761303Y-70769951D02*
X166761303Y-70108493D01*
X166761303Y-70108493D02*
X167422761Y-70108493D01*
X167422761Y-70108493D02*
X167422761Y-69447035D01*
X167422761Y-69447035D02*
X166761303Y-69447035D01*
X166761303Y-69447035D02*
X166761303Y-68785576D01*
X166761303Y-68785576D02*
X166099845Y-68785576D01*
X166099845Y-68785576D02*
X166099845Y-68785576D01*
G36*
X166761303Y-69447035D02*
G01*
X167422761Y-69447035D01*
X167422761Y-70108493D01*
X166761303Y-70108493D01*
X166761303Y-70769951D01*
X166099845Y-70769951D01*
X166099845Y-70108493D01*
X165438386Y-70108493D01*
X165438386Y-69447035D01*
X166099845Y-69447035D01*
X166099845Y-68785576D01*
X166761303Y-68785576D01*
X166761303Y-69447035D01*
G37*
X166761303Y-69447035D02*
X167422761Y-69447035D01*
X167422761Y-70108493D01*
X166761303Y-70108493D01*
X166761303Y-70769951D01*
X166099845Y-70769951D01*
X166099845Y-70108493D01*
X165438386Y-70108493D01*
X165438386Y-69447035D01*
X166099845Y-69447035D01*
X166099845Y-68785576D01*
X166761303Y-68785576D01*
X166761303Y-69447035D01*
X165438386Y-69447035D02*
X165438386Y-70108493D01*
X165438386Y-70108493D02*
X164776928Y-70108493D01*
X164776928Y-70108493D02*
X164776928Y-70769951D01*
X164776928Y-70769951D02*
X165438386Y-70769951D01*
X165438386Y-70769951D02*
X165438386Y-71431410D01*
X165438386Y-71431410D02*
X166099845Y-71431410D01*
X166099845Y-71431410D02*
X166099845Y-70769951D01*
X166099845Y-70769951D02*
X166761303Y-70769951D01*
X166761303Y-70769951D02*
X166761303Y-70108493D01*
X166761303Y-70108493D02*
X166099845Y-70108493D01*
X166099845Y-70108493D02*
X166099845Y-69447035D01*
X166099845Y-69447035D02*
X165438386Y-69447035D01*
X165438386Y-69447035D02*
X165438386Y-69447035D01*
G36*
X166099845Y-70108493D02*
G01*
X166761303Y-70108493D01*
X166761303Y-70769951D01*
X166099845Y-70769951D01*
X166099845Y-71431410D01*
X165438386Y-71431410D01*
X165438386Y-70769951D01*
X164776928Y-70769951D01*
X164776928Y-70108493D01*
X165438386Y-70108493D01*
X165438386Y-69447035D01*
X166099845Y-69447035D01*
X166099845Y-70108493D01*
G37*
X166099845Y-70108493D02*
X166761303Y-70108493D01*
X166761303Y-70769951D01*
X166099845Y-70769951D01*
X166099845Y-71431410D01*
X165438386Y-71431410D01*
X165438386Y-70769951D01*
X164776928Y-70769951D01*
X164776928Y-70108493D01*
X165438386Y-70108493D01*
X165438386Y-69447035D01*
X166099845Y-69447035D01*
X166099845Y-70108493D01*
X196519271Y-29157083D02*
X197842187Y-29157083D01*
X197842187Y-29157083D02*
X197842187Y-30480000D01*
X197842187Y-30480000D02*
X196519271Y-30480000D01*
X196519271Y-30480000D02*
X196519271Y-29157083D01*
X196519271Y-29157083D02*
X196519271Y-29157083D01*
G36*
X197842187Y-30480000D02*
G01*
X196519271Y-30480000D01*
X196519271Y-29157083D01*
X197842187Y-29157083D01*
X197842187Y-30480000D01*
G37*
X197842187Y-30480000D02*
X196519271Y-30480000D01*
X196519271Y-29157083D01*
X197842187Y-29157083D01*
X197842187Y-30480000D01*
X195857812Y-28495625D02*
X197180729Y-28495625D01*
X197180729Y-28495625D02*
X197180729Y-29157083D01*
X197180729Y-29157083D02*
X195857812Y-29157083D01*
X195857812Y-29157083D02*
X195857812Y-28495625D01*
X195857812Y-28495625D02*
X195857812Y-28495625D01*
G36*
X197180729Y-29157083D02*
G01*
X195857812Y-29157083D01*
X195857812Y-28495625D01*
X197180729Y-28495625D01*
X197180729Y-29157083D01*
G37*
X197180729Y-29157083D02*
X195857812Y-29157083D01*
X195857812Y-28495625D01*
X197180729Y-28495625D01*
X197180729Y-29157083D01*
X195196354Y-30480000D02*
X195857813Y-30480000D01*
X195857813Y-30480000D02*
X195857813Y-31141458D01*
X195857813Y-31141458D02*
X195196354Y-31141458D01*
X195196354Y-31141458D02*
X195196354Y-30480000D01*
X195196354Y-30480000D02*
X195196354Y-30480000D01*
G36*
X195857813Y-31141458D02*
G01*
X195196354Y-31141458D01*
X195196354Y-30480000D01*
X195857813Y-30480000D01*
X195857813Y-31141458D01*
G37*
X195857813Y-31141458D02*
X195196354Y-31141458D01*
X195196354Y-30480000D01*
X195857813Y-30480000D01*
X195857813Y-31141458D01*
X195857813Y-29818542D02*
X197180729Y-29818542D01*
X197180729Y-29818542D02*
X197180729Y-31141458D01*
X197180729Y-31141458D02*
X195857813Y-31141458D01*
X195857813Y-31141458D02*
X195857813Y-29818542D01*
X195857813Y-29818542D02*
X195857813Y-29818542D01*
G36*
X197180729Y-31141458D02*
G01*
X195857813Y-31141458D01*
X195857813Y-29818542D01*
X197180729Y-29818542D01*
X197180729Y-31141458D01*
G37*
X197180729Y-31141458D02*
X195857813Y-31141458D01*
X195857813Y-29818542D01*
X197180729Y-29818542D01*
X197180729Y-31141458D01*
X195196354Y-29157083D02*
X196519271Y-29157083D01*
X196519271Y-29157083D02*
X196519271Y-29818542D01*
X196519271Y-29818542D02*
X195196354Y-29818542D01*
X195196354Y-29818542D02*
X195196354Y-29157083D01*
X195196354Y-29157083D02*
X195196354Y-29157083D01*
G36*
X196519271Y-29818542D02*
G01*
X195196354Y-29818542D01*
X195196354Y-29157083D01*
X196519271Y-29157083D01*
X196519271Y-29818542D01*
G37*
X196519271Y-29818542D02*
X195196354Y-29818542D01*
X195196354Y-29157083D01*
X196519271Y-29157083D01*
X196519271Y-29818542D01*
X195857812Y-29818542D02*
X196519271Y-29818542D01*
X196519271Y-29818542D02*
X196519271Y-30480000D01*
X196519271Y-30480000D02*
X195857812Y-30480000D01*
X195857812Y-30480000D02*
X195857812Y-29818542D01*
X195857812Y-29818542D02*
X195857812Y-29818542D01*
G36*
X196519271Y-30480000D02*
G01*
X195857812Y-30480000D01*
X195857812Y-29818542D01*
X196519271Y-29818542D01*
X196519271Y-30480000D01*
G37*
X196519271Y-30480000D02*
X195857812Y-30480000D01*
X195857812Y-29818542D01*
X196519271Y-29818542D01*
X196519271Y-30480000D01*
X197180729Y-29157083D02*
X197842187Y-29157083D01*
X197842187Y-29157083D02*
X197842187Y-29818542D01*
X197842187Y-29818542D02*
X197180729Y-29818542D01*
X197180729Y-29818542D02*
X197180729Y-29157083D01*
X197180729Y-29157083D02*
X197180729Y-29157083D01*
G36*
X197842187Y-29818542D02*
G01*
X197180729Y-29818542D01*
X197180729Y-29157083D01*
X197842187Y-29157083D01*
X197842187Y-29818542D01*
G37*
X197842187Y-29818542D02*
X197180729Y-29818542D01*
X197180729Y-29157083D01*
X197842187Y-29157083D01*
X197842187Y-29818542D01*
X195857813Y-31141458D02*
X196519271Y-31141458D01*
X196519271Y-31141458D02*
X196519271Y-31802917D01*
X196519271Y-31802917D02*
X195857813Y-31802917D01*
X195857813Y-31802917D02*
X195857813Y-31141458D01*
X195857813Y-31141458D02*
X195857813Y-31141458D01*
G36*
X196519271Y-31802917D02*
G01*
X195857813Y-31802917D01*
X195857813Y-31141458D01*
X196519271Y-31141458D01*
X196519271Y-31802917D01*
G37*
X196519271Y-31802917D02*
X195857813Y-31802917D01*
X195857813Y-31141458D01*
X196519271Y-31141458D01*
X196519271Y-31802917D01*
X196519271Y-31141458D02*
X197180729Y-31141458D01*
X197180729Y-31141458D02*
X197180729Y-32464375D01*
X197180729Y-32464375D02*
X196519271Y-32464375D01*
X196519271Y-32464375D02*
X196519271Y-31141458D01*
X196519271Y-31141458D02*
X196519271Y-31141458D01*
G36*
X197180729Y-32464375D02*
G01*
X196519271Y-32464375D01*
X196519271Y-31141458D01*
X197180729Y-31141458D01*
X197180729Y-32464375D01*
G37*
X197180729Y-32464375D02*
X196519271Y-32464375D01*
X196519271Y-31141458D01*
X197180729Y-31141458D01*
X197180729Y-32464375D01*
X197842187Y-28495625D02*
X198503646Y-28495625D01*
X198503646Y-28495625D02*
X198503646Y-29157083D01*
X198503646Y-29157083D02*
X197842187Y-29157083D01*
X197842187Y-29157083D02*
X197842187Y-28495625D01*
X197842187Y-28495625D02*
X197842187Y-28495625D01*
G36*
X198503646Y-29157083D02*
G01*
X197842187Y-29157083D01*
X197842187Y-28495625D01*
X198503646Y-28495625D01*
X198503646Y-29157083D01*
G37*
X198503646Y-29157083D02*
X197842187Y-29157083D01*
X197842187Y-28495625D01*
X198503646Y-28495625D01*
X198503646Y-29157083D01*
X197180729Y-30480000D02*
X197842187Y-30480000D01*
X197842187Y-30480000D02*
X197842187Y-31802917D01*
X197842187Y-31802917D02*
X197180729Y-31802917D01*
X197180729Y-31802917D02*
X197180729Y-30480000D01*
X197180729Y-30480000D02*
X197180729Y-30480000D01*
G36*
X197842187Y-31802917D02*
G01*
X197180729Y-31802917D01*
X197180729Y-30480000D01*
X197842187Y-30480000D01*
X197842187Y-31802917D01*
G37*
X197842187Y-31802917D02*
X197180729Y-31802917D01*
X197180729Y-30480000D01*
X197842187Y-30480000D01*
X197842187Y-31802917D01*
X196519271Y-30480000D02*
X197180729Y-30480000D01*
X197180729Y-30480000D02*
X197180729Y-31141458D01*
X197180729Y-31141458D02*
X196519271Y-31141458D01*
X196519271Y-31141458D02*
X196519271Y-30480000D01*
X196519271Y-30480000D02*
X196519271Y-30480000D01*
G36*
X197180729Y-31141458D02*
G01*
X196519271Y-31141458D01*
X196519271Y-30480000D01*
X197180729Y-30480000D01*
X197180729Y-31141458D01*
G37*
X197180729Y-31141458D02*
X196519271Y-31141458D01*
X196519271Y-30480000D01*
X197180729Y-30480000D01*
X197180729Y-31141458D01*
D10*
X230540580Y-47534863D02*
X231863497Y-47534863D01*
X231863497Y-47534863D02*
X231863497Y-48857779D01*
X231863497Y-48857779D02*
X230540580Y-48857779D01*
X230540580Y-48857779D02*
X230540580Y-47534863D01*
X230540580Y-47534863D02*
X230540580Y-47534863D01*
G36*
X231863497Y-48857779D02*
G01*
X230540580Y-48857779D01*
X230540580Y-47534863D01*
X231863497Y-47534863D01*
X231863497Y-48857779D01*
G37*
X231863497Y-48857779D02*
X230540580Y-48857779D01*
X230540580Y-47534863D01*
X231863497Y-47534863D01*
X231863497Y-48857779D01*
X222920580Y-69124863D02*
X224243497Y-69124863D01*
X224243497Y-69124863D02*
X224243497Y-70447779D01*
X224243497Y-70447779D02*
X222920580Y-70447779D01*
X222920580Y-70447779D02*
X222920580Y-69124863D01*
X222920580Y-69124863D02*
X222920580Y-69124863D01*
G36*
X224243497Y-70447779D02*
G01*
X222920580Y-70447779D01*
X222920580Y-69124863D01*
X224243497Y-69124863D01*
X224243497Y-70447779D01*
G37*
X224243497Y-70447779D02*
X222920580Y-70447779D01*
X222920580Y-69124863D01*
X224243497Y-69124863D01*
X224243497Y-70447779D01*
D11*
X176259845Y-38940576D02*
X176259845Y-39602035D01*
X176259845Y-39602035D02*
X175598386Y-39602035D01*
X175598386Y-39602035D02*
X175598386Y-40263493D01*
X175598386Y-40263493D02*
X176259845Y-40263493D01*
X176259845Y-40263493D02*
X176259845Y-40924951D01*
X176259845Y-40924951D02*
X176921303Y-40924951D01*
X176921303Y-40924951D02*
X176921303Y-40263493D01*
X176921303Y-40263493D02*
X177582761Y-40263493D01*
X177582761Y-40263493D02*
X177582761Y-39602035D01*
X177582761Y-39602035D02*
X176921303Y-39602035D01*
X176921303Y-39602035D02*
X176921303Y-38940576D01*
X176921303Y-38940576D02*
X176259845Y-38940576D01*
X176259845Y-38940576D02*
X176259845Y-38940576D01*
G36*
X176921303Y-39602035D02*
G01*
X177582761Y-39602035D01*
X177582761Y-40263493D01*
X176921303Y-40263493D01*
X176921303Y-40924951D01*
X176259845Y-40924951D01*
X176259845Y-40263493D01*
X175598386Y-40263493D01*
X175598386Y-39602035D01*
X176259845Y-39602035D01*
X176259845Y-38940576D01*
X176921303Y-38940576D01*
X176921303Y-39602035D01*
G37*
X176921303Y-39602035D02*
X177582761Y-39602035D01*
X177582761Y-40263493D01*
X176921303Y-40263493D01*
X176921303Y-40924951D01*
X176259845Y-40924951D01*
X176259845Y-40263493D01*
X175598386Y-40263493D01*
X175598386Y-39602035D01*
X176259845Y-39602035D01*
X176259845Y-38940576D01*
X176921303Y-38940576D01*
X176921303Y-39602035D01*
X175598386Y-39602035D02*
X175598386Y-40263493D01*
X175598386Y-40263493D02*
X174936928Y-40263493D01*
X174936928Y-40263493D02*
X174936928Y-40924951D01*
X174936928Y-40924951D02*
X175598386Y-40924951D01*
X175598386Y-40924951D02*
X175598386Y-41586410D01*
X175598386Y-41586410D02*
X176259845Y-41586410D01*
X176259845Y-41586410D02*
X176259845Y-40924951D01*
X176259845Y-40924951D02*
X176921303Y-40924951D01*
X176921303Y-40924951D02*
X176921303Y-40263493D01*
X176921303Y-40263493D02*
X176259845Y-40263493D01*
X176259845Y-40263493D02*
X176259845Y-39602035D01*
X176259845Y-39602035D02*
X175598386Y-39602035D01*
X175598386Y-39602035D02*
X175598386Y-39602035D01*
G36*
X176259845Y-40263493D02*
G01*
X176921303Y-40263493D01*
X176921303Y-40924951D01*
X176259845Y-40924951D01*
X176259845Y-41586410D01*
X175598386Y-41586410D01*
X175598386Y-40924951D01*
X174936928Y-40924951D01*
X174936928Y-40263493D01*
X175598386Y-40263493D01*
X175598386Y-39602035D01*
X176259845Y-39602035D01*
X176259845Y-40263493D01*
G37*
X176259845Y-40263493D02*
X176921303Y-40263493D01*
X176921303Y-40924951D01*
X176259845Y-40924951D01*
X176259845Y-41586410D01*
X175598386Y-41586410D01*
X175598386Y-40924951D01*
X174936928Y-40924951D01*
X174936928Y-40263493D01*
X175598386Y-40263493D01*
X175598386Y-39602035D01*
X176259845Y-39602035D01*
X176259845Y-40263493D01*
D10*
X245780580Y-42454863D02*
X247103497Y-42454863D01*
X247103497Y-42454863D02*
X247103497Y-43777779D01*
X247103497Y-43777779D02*
X245780580Y-43777779D01*
X245780580Y-43777779D02*
X245780580Y-42454863D01*
X245780580Y-42454863D02*
X245780580Y-42454863D01*
G36*
X247103497Y-43777779D02*
G01*
X245780580Y-43777779D01*
X245780580Y-42454863D01*
X247103497Y-42454863D01*
X247103497Y-43777779D01*
G37*
X247103497Y-43777779D02*
X245780580Y-43777779D01*
X245780580Y-42454863D01*
X247103497Y-42454863D01*
X247103497Y-43777779D01*
X212125580Y-27849863D02*
X213448497Y-27849863D01*
X213448497Y-27849863D02*
X213448497Y-29172779D01*
X213448497Y-29172779D02*
X212125580Y-29172779D01*
X212125580Y-29172779D02*
X212125580Y-27849863D01*
X212125580Y-27849863D02*
X212125580Y-27849863D01*
G36*
X213448497Y-29172779D02*
G01*
X212125580Y-29172779D01*
X212125580Y-27849863D01*
X213448497Y-27849863D01*
X213448497Y-29172779D01*
G37*
X213448497Y-29172779D02*
X212125580Y-29172779D01*
X212125580Y-27849863D01*
X213448497Y-27849863D01*
X213448497Y-29172779D01*
G36*
X183744682Y-36748937D02*
G01*
X183744682Y-36028369D01*
X184465249Y-36028369D01*
X184465249Y-35307802D01*
X185185816Y-35307802D01*
X185185816Y-34587235D01*
X185906384Y-34587235D01*
X185906384Y-35307802D01*
X185185816Y-35307802D01*
X185185816Y-36028369D01*
X184465249Y-36028369D01*
X184465249Y-36748937D01*
X183744682Y-36748937D01*
X183744682Y-38190071D01*
X184465249Y-38190071D01*
X184465249Y-38910639D01*
X185185816Y-38910639D01*
X185185816Y-38190071D01*
X185906384Y-38190071D01*
X185906384Y-37469504D01*
X186626951Y-37469504D01*
X186626951Y-36028369D01*
X185906384Y-36028369D01*
X185906384Y-35307802D01*
X186626951Y-35307802D01*
X186626951Y-36028369D01*
X187347519Y-36028369D01*
X187347519Y-38190071D01*
X186626951Y-38190071D01*
X186626951Y-38910639D01*
X185906384Y-38910639D01*
X185906384Y-39631206D01*
X183744682Y-39631206D01*
X183744682Y-38910639D01*
X183024114Y-38910639D01*
X183024114Y-36748937D01*
X183744682Y-36748937D01*
G37*
G36*
X177980143Y-36028369D02*
G01*
X177980143Y-35307802D01*
X178700710Y-35307802D01*
X178700710Y-34587235D01*
X180862412Y-34587235D01*
X180862412Y-35307802D01*
X178700710Y-35307802D01*
X178700710Y-36028369D01*
X177980143Y-36028369D01*
X177980143Y-37469504D01*
X178700710Y-37469504D01*
X178700710Y-38190071D01*
X179421277Y-38190071D01*
X179421277Y-38910639D01*
X180141845Y-38910639D01*
X180141845Y-38190071D01*
X180862412Y-38190071D01*
X180862412Y-37469504D01*
X181582980Y-37469504D01*
X181582980Y-36028369D01*
X180862412Y-36028369D01*
X180862412Y-35307802D01*
X181582980Y-35307802D01*
X181582980Y-36028369D01*
X182303547Y-36028369D01*
X182303547Y-38190071D01*
X181582980Y-38190071D01*
X181582980Y-38910639D01*
X180862412Y-38910639D01*
X180862412Y-39631206D01*
X178700710Y-39631206D01*
X178700710Y-38910639D01*
X177980143Y-38910639D01*
X177980143Y-38190071D01*
X177259575Y-38190071D01*
X177259575Y-36028369D01*
X177980143Y-36028369D01*
G37*
G36*
X207523405Y-36748937D02*
G01*
X207523405Y-36028369D01*
X208964540Y-36028369D01*
X208964540Y-35307802D01*
X211126242Y-35307802D01*
X211126242Y-36028369D01*
X208964540Y-36028369D01*
X208964540Y-36748937D01*
X207523405Y-36748937D01*
X207523405Y-38190071D01*
X208243972Y-38190071D01*
X208243972Y-38910639D01*
X208964540Y-38910639D01*
X208964540Y-39631206D01*
X209685107Y-39631206D01*
X209685107Y-38910639D01*
X210405675Y-38910639D01*
X210405675Y-37469504D01*
X211126242Y-37469504D01*
X211126242Y-36028369D01*
X211846809Y-36028369D01*
X211846809Y-38190071D01*
X211126242Y-38190071D01*
X211126242Y-39631206D01*
X210405675Y-39631206D01*
X210405675Y-40351774D01*
X208243972Y-40351774D01*
X208243972Y-39631206D01*
X207523405Y-39631206D01*
X207523405Y-38910639D01*
X206802838Y-38910639D01*
X206802838Y-36748937D01*
X207523405Y-36748937D01*
G37*
G36*
X213287944Y-37469504D02*
G01*
X213287944Y-36748937D01*
X214008511Y-36748937D01*
X214008511Y-36028369D01*
X215449646Y-36028369D01*
X215449646Y-35307802D01*
X216170214Y-35307802D01*
X216170214Y-36028369D01*
X215449646Y-36028369D01*
X215449646Y-36748937D01*
X214008511Y-36748937D01*
X214008511Y-37469504D01*
X213287944Y-37469504D01*
X213287944Y-38190071D01*
X214008511Y-38190071D01*
X214008511Y-39631206D01*
X215449646Y-39631206D01*
X215449646Y-38910639D01*
X216170214Y-38910639D01*
X216170214Y-38190071D01*
X216890781Y-38190071D01*
X216890781Y-36748937D01*
X216170214Y-36748937D01*
X216170214Y-36028369D01*
X216890781Y-36028369D01*
X216890781Y-36748937D01*
X217611348Y-36748937D01*
X217611348Y-38910639D01*
X216890781Y-38910639D01*
X216890781Y-39631206D01*
X216170214Y-39631206D01*
X216170214Y-40351774D01*
X215449646Y-40351774D01*
X215449646Y-41072341D01*
X214008511Y-41072341D01*
X214008511Y-40351774D01*
X213287944Y-40351774D01*
X213287944Y-39631206D01*
X212567377Y-39631206D01*
X212567377Y-37469504D01*
X213287944Y-37469504D01*
G37*
X222846804Y-39026833D02*
X224169721Y-39026833D01*
X224169721Y-39026833D02*
X224169721Y-40349749D01*
X224169721Y-40349749D02*
X222846804Y-40349749D01*
X222846804Y-40349749D02*
X222846804Y-39026833D01*
X222846804Y-39026833D02*
X222846804Y-39026833D01*
G36*
X224169721Y-40349749D02*
G01*
X222846804Y-40349749D01*
X222846804Y-39026833D01*
X224169721Y-39026833D01*
X224169721Y-40349749D01*
G37*
X224169721Y-40349749D02*
X222846804Y-40349749D01*
X222846804Y-39026833D01*
X224169721Y-39026833D01*
X224169721Y-40349749D01*
D11*
X194013386Y-37697035D02*
X194013386Y-38358493D01*
X194013386Y-38358493D02*
X193351928Y-38358493D01*
X193351928Y-38358493D02*
X193351928Y-39019951D01*
X193351928Y-39019951D02*
X194013386Y-39019951D01*
X194013386Y-39019951D02*
X194013386Y-39681410D01*
X194013386Y-39681410D02*
X194674845Y-39681410D01*
X194674845Y-39681410D02*
X194674845Y-39019951D01*
X194674845Y-39019951D02*
X195336303Y-39019951D01*
X195336303Y-39019951D02*
X195336303Y-38358493D01*
X195336303Y-38358493D02*
X194674845Y-38358493D01*
X194674845Y-38358493D02*
X194674845Y-37697035D01*
X194674845Y-37697035D02*
X194013386Y-37697035D01*
X194013386Y-37697035D02*
X194013386Y-37697035D01*
G36*
X194674845Y-38358493D02*
G01*
X195336303Y-38358493D01*
X195336303Y-39019951D01*
X194674845Y-39019951D01*
X194674845Y-39681410D01*
X194013386Y-39681410D01*
X194013386Y-39019951D01*
X193351928Y-39019951D01*
X193351928Y-38358493D01*
X194013386Y-38358493D01*
X194013386Y-37697035D01*
X194674845Y-37697035D01*
X194674845Y-38358493D01*
G37*
X194674845Y-38358493D02*
X195336303Y-38358493D01*
X195336303Y-39019951D01*
X194674845Y-39019951D01*
X194674845Y-39681410D01*
X194013386Y-39681410D01*
X194013386Y-39019951D01*
X193351928Y-39019951D01*
X193351928Y-38358493D01*
X194013386Y-38358493D01*
X194013386Y-37697035D01*
X194674845Y-37697035D01*
X194674845Y-38358493D01*
X194674845Y-37035576D02*
X194674845Y-37697035D01*
X194674845Y-37697035D02*
X194013386Y-37697035D01*
X194013386Y-37697035D02*
X194013386Y-38358493D01*
X194013386Y-38358493D02*
X194674845Y-38358493D01*
X194674845Y-38358493D02*
X194674845Y-39019951D01*
X194674845Y-39019951D02*
X195336303Y-39019951D01*
X195336303Y-39019951D02*
X195336303Y-38358493D01*
X195336303Y-38358493D02*
X195997761Y-38358493D01*
X195997761Y-38358493D02*
X195997761Y-37697035D01*
X195997761Y-37697035D02*
X195336303Y-37697035D01*
X195336303Y-37697035D02*
X195336303Y-37035576D01*
X195336303Y-37035576D02*
X194674845Y-37035576D01*
X194674845Y-37035576D02*
X194674845Y-37035576D01*
G36*
X195336303Y-37697035D02*
G01*
X195997761Y-37697035D01*
X195997761Y-38358493D01*
X195336303Y-38358493D01*
X195336303Y-39019951D01*
X194674845Y-39019951D01*
X194674845Y-38358493D01*
X194013386Y-38358493D01*
X194013386Y-37697035D01*
X194674845Y-37697035D01*
X194674845Y-37035576D01*
X195336303Y-37035576D01*
X195336303Y-37697035D01*
G37*
X195336303Y-37697035D02*
X195997761Y-37697035D01*
X195997761Y-38358493D01*
X195336303Y-38358493D01*
X195336303Y-39019951D01*
X194674845Y-39019951D01*
X194674845Y-38358493D01*
X194013386Y-38358493D01*
X194013386Y-37697035D01*
X194674845Y-37697035D01*
X194674845Y-37035576D01*
X195336303Y-37035576D01*
X195336303Y-37697035D01*
D10*
X198155580Y-55154863D02*
X199478497Y-55154863D01*
X199478497Y-55154863D02*
X199478497Y-56477779D01*
X199478497Y-56477779D02*
X198155580Y-56477779D01*
X198155580Y-56477779D02*
X198155580Y-55154863D01*
X198155580Y-55154863D02*
X198155580Y-55154863D01*
G36*
X199478497Y-56477779D02*
G01*
X198155580Y-56477779D01*
X198155580Y-55154863D01*
X199478497Y-55154863D01*
X199478497Y-56477779D01*
G37*
X199478497Y-56477779D02*
X198155580Y-56477779D01*
X198155580Y-55154863D01*
X199478497Y-55154863D01*
X199478497Y-56477779D01*
X200060580Y-34834863D02*
X201383497Y-34834863D01*
X201383497Y-34834863D02*
X201383497Y-36157779D01*
X201383497Y-36157779D02*
X200060580Y-36157779D01*
X200060580Y-36157779D02*
X200060580Y-34834863D01*
X200060580Y-34834863D02*
X200060580Y-34834863D01*
G36*
X201383497Y-36157779D02*
G01*
X200060580Y-36157779D01*
X200060580Y-34834863D01*
X201383497Y-34834863D01*
X201383497Y-36157779D01*
G37*
X201383497Y-36157779D02*
X200060580Y-36157779D01*
X200060580Y-34834863D01*
X201383497Y-34834863D01*
X201383497Y-36157779D01*
D11*
X200276354Y-63447083D02*
X201599271Y-63447083D01*
X201599271Y-63447083D02*
X201599271Y-64108542D01*
X201599271Y-64108542D02*
X200276354Y-64108542D01*
X200276354Y-64108542D02*
X200276354Y-63447083D01*
X200276354Y-63447083D02*
X200276354Y-63447083D01*
G36*
X201599271Y-64108542D02*
G01*
X200276354Y-64108542D01*
X200276354Y-63447083D01*
X201599271Y-63447083D01*
X201599271Y-64108542D01*
G37*
X201599271Y-64108542D02*
X200276354Y-64108542D01*
X200276354Y-63447083D01*
X201599271Y-63447083D01*
X201599271Y-64108542D01*
X202260729Y-64770000D02*
X202922187Y-64770000D01*
X202922187Y-64770000D02*
X202922187Y-66092917D01*
X202922187Y-66092917D02*
X202260729Y-66092917D01*
X202260729Y-66092917D02*
X202260729Y-64770000D01*
X202260729Y-64770000D02*
X202260729Y-64770000D01*
G36*
X202922187Y-66092917D02*
G01*
X202260729Y-66092917D01*
X202260729Y-64770000D01*
X202922187Y-64770000D01*
X202922187Y-66092917D01*
G37*
X202922187Y-66092917D02*
X202260729Y-66092917D01*
X202260729Y-64770000D01*
X202922187Y-64770000D01*
X202922187Y-66092917D01*
X201599271Y-64770000D02*
X202260729Y-64770000D01*
X202260729Y-64770000D02*
X202260729Y-65431458D01*
X202260729Y-65431458D02*
X201599271Y-65431458D01*
X201599271Y-65431458D02*
X201599271Y-64770000D01*
X201599271Y-64770000D02*
X201599271Y-64770000D01*
G36*
X202260729Y-65431458D02*
G01*
X201599271Y-65431458D01*
X201599271Y-64770000D01*
X202260729Y-64770000D01*
X202260729Y-65431458D01*
G37*
X202260729Y-65431458D02*
X201599271Y-65431458D01*
X201599271Y-64770000D01*
X202260729Y-64770000D01*
X202260729Y-65431458D01*
X200276354Y-64770000D02*
X200937813Y-64770000D01*
X200937813Y-64770000D02*
X200937813Y-65431458D01*
X200937813Y-65431458D02*
X200276354Y-65431458D01*
X200276354Y-65431458D02*
X200276354Y-64770000D01*
X200276354Y-64770000D02*
X200276354Y-64770000D01*
G36*
X200937813Y-65431458D02*
G01*
X200276354Y-65431458D01*
X200276354Y-64770000D01*
X200937813Y-64770000D01*
X200937813Y-65431458D01*
G37*
X200937813Y-65431458D02*
X200276354Y-65431458D01*
X200276354Y-64770000D01*
X200937813Y-64770000D01*
X200937813Y-65431458D01*
X202922187Y-62785625D02*
X203583646Y-62785625D01*
X203583646Y-62785625D02*
X203583646Y-63447083D01*
X203583646Y-63447083D02*
X202922187Y-63447083D01*
X202922187Y-63447083D02*
X202922187Y-62785625D01*
X202922187Y-62785625D02*
X202922187Y-62785625D01*
G36*
X203583646Y-63447083D02*
G01*
X202922187Y-63447083D01*
X202922187Y-62785625D01*
X203583646Y-62785625D01*
X203583646Y-63447083D01*
G37*
X203583646Y-63447083D02*
X202922187Y-63447083D01*
X202922187Y-62785625D01*
X203583646Y-62785625D01*
X203583646Y-63447083D01*
X201599271Y-65431458D02*
X202260729Y-65431458D01*
X202260729Y-65431458D02*
X202260729Y-66754375D01*
X202260729Y-66754375D02*
X201599271Y-66754375D01*
X201599271Y-66754375D02*
X201599271Y-65431458D01*
X201599271Y-65431458D02*
X201599271Y-65431458D01*
G36*
X202260729Y-66754375D02*
G01*
X201599271Y-66754375D01*
X201599271Y-65431458D01*
X202260729Y-65431458D01*
X202260729Y-66754375D01*
G37*
X202260729Y-66754375D02*
X201599271Y-66754375D01*
X201599271Y-65431458D01*
X202260729Y-65431458D01*
X202260729Y-66754375D01*
X202260729Y-63447083D02*
X202922187Y-63447083D01*
X202922187Y-63447083D02*
X202922187Y-64108542D01*
X202922187Y-64108542D02*
X202260729Y-64108542D01*
X202260729Y-64108542D02*
X202260729Y-63447083D01*
X202260729Y-63447083D02*
X202260729Y-63447083D01*
G36*
X202922187Y-64108542D02*
G01*
X202260729Y-64108542D01*
X202260729Y-63447083D01*
X202922187Y-63447083D01*
X202922187Y-64108542D01*
G37*
X202922187Y-64108542D02*
X202260729Y-64108542D01*
X202260729Y-63447083D01*
X202922187Y-63447083D01*
X202922187Y-64108542D01*
X200937813Y-64108542D02*
X202260729Y-64108542D01*
X202260729Y-64108542D02*
X202260729Y-65431458D01*
X202260729Y-65431458D02*
X200937813Y-65431458D01*
X200937813Y-65431458D02*
X200937813Y-64108542D01*
X200937813Y-64108542D02*
X200937813Y-64108542D01*
G36*
X202260729Y-65431458D02*
G01*
X200937813Y-65431458D01*
X200937813Y-64108542D01*
X202260729Y-64108542D01*
X202260729Y-65431458D01*
G37*
X202260729Y-65431458D02*
X200937813Y-65431458D01*
X200937813Y-64108542D01*
X202260729Y-64108542D01*
X202260729Y-65431458D01*
X201599271Y-63447083D02*
X202922187Y-63447083D01*
X202922187Y-63447083D02*
X202922187Y-64770000D01*
X202922187Y-64770000D02*
X201599271Y-64770000D01*
X201599271Y-64770000D02*
X201599271Y-63447083D01*
X201599271Y-63447083D02*
X201599271Y-63447083D01*
G36*
X202922187Y-64770000D02*
G01*
X201599271Y-64770000D01*
X201599271Y-63447083D01*
X202922187Y-63447083D01*
X202922187Y-64770000D01*
G37*
X202922187Y-64770000D02*
X201599271Y-64770000D01*
X201599271Y-63447083D01*
X202922187Y-63447083D01*
X202922187Y-64770000D01*
X200937813Y-65431458D02*
X201599271Y-65431458D01*
X201599271Y-65431458D02*
X201599271Y-66092917D01*
X201599271Y-66092917D02*
X200937813Y-66092917D01*
X200937813Y-66092917D02*
X200937813Y-65431458D01*
X200937813Y-65431458D02*
X200937813Y-65431458D01*
G36*
X201599271Y-66092917D02*
G01*
X200937813Y-66092917D01*
X200937813Y-65431458D01*
X201599271Y-65431458D01*
X201599271Y-66092917D01*
G37*
X201599271Y-66092917D02*
X200937813Y-66092917D01*
X200937813Y-65431458D01*
X201599271Y-65431458D01*
X201599271Y-66092917D01*
X200937812Y-62785625D02*
X202260729Y-62785625D01*
X202260729Y-62785625D02*
X202260729Y-63447083D01*
X202260729Y-63447083D02*
X200937812Y-63447083D01*
X200937812Y-63447083D02*
X200937812Y-62785625D01*
X200937812Y-62785625D02*
X200937812Y-62785625D01*
G36*
X202260729Y-63447083D02*
G01*
X200937812Y-63447083D01*
X200937812Y-62785625D01*
X202260729Y-62785625D01*
X202260729Y-63447083D01*
G37*
X202260729Y-63447083D02*
X200937812Y-63447083D01*
X200937812Y-62785625D01*
X202260729Y-62785625D01*
X202260729Y-63447083D01*
X200937812Y-64108542D02*
X201599271Y-64108542D01*
X201599271Y-64108542D02*
X201599271Y-64770000D01*
X201599271Y-64770000D02*
X200937812Y-64770000D01*
X200937812Y-64770000D02*
X200937812Y-64108542D01*
X200937812Y-64108542D02*
X200937812Y-64108542D01*
G36*
X201599271Y-64770000D02*
G01*
X200937812Y-64770000D01*
X200937812Y-64108542D01*
X201599271Y-64108542D01*
X201599271Y-64770000D01*
G37*
X201599271Y-64770000D02*
X200937812Y-64770000D01*
X200937812Y-64108542D01*
X201599271Y-64108542D01*
X201599271Y-64770000D01*
D10*
X173390580Y-28484863D02*
X174713497Y-28484863D01*
X174713497Y-28484863D02*
X174713497Y-29807779D01*
X174713497Y-29807779D02*
X173390580Y-29807779D01*
X173390580Y-29807779D02*
X173390580Y-28484863D01*
X173390580Y-28484863D02*
X173390580Y-28484863D01*
G36*
X174713497Y-29807779D02*
G01*
X173390580Y-29807779D01*
X173390580Y-28484863D01*
X174713497Y-28484863D01*
X174713497Y-29807779D01*
G37*
X174713497Y-29807779D02*
X173390580Y-29807779D01*
X173390580Y-28484863D01*
X174713497Y-28484863D01*
X174713497Y-29807779D01*
D11*
X228938386Y-38332035D02*
X228938386Y-38993493D01*
X228938386Y-38993493D02*
X228276928Y-38993493D01*
X228276928Y-38993493D02*
X228276928Y-39654951D01*
X228276928Y-39654951D02*
X228938386Y-39654951D01*
X228938386Y-39654951D02*
X228938386Y-40316410D01*
X228938386Y-40316410D02*
X229599845Y-40316410D01*
X229599845Y-40316410D02*
X229599845Y-39654951D01*
X229599845Y-39654951D02*
X230261303Y-39654951D01*
X230261303Y-39654951D02*
X230261303Y-38993493D01*
X230261303Y-38993493D02*
X229599845Y-38993493D01*
X229599845Y-38993493D02*
X229599845Y-38332035D01*
X229599845Y-38332035D02*
X228938386Y-38332035D01*
X228938386Y-38332035D02*
X228938386Y-38332035D01*
G36*
X229599845Y-38993493D02*
G01*
X230261303Y-38993493D01*
X230261303Y-39654951D01*
X229599845Y-39654951D01*
X229599845Y-40316410D01*
X228938386Y-40316410D01*
X228938386Y-39654951D01*
X228276928Y-39654951D01*
X228276928Y-38993493D01*
X228938386Y-38993493D01*
X228938386Y-38332035D01*
X229599845Y-38332035D01*
X229599845Y-38993493D01*
G37*
X229599845Y-38993493D02*
X230261303Y-38993493D01*
X230261303Y-39654951D01*
X229599845Y-39654951D01*
X229599845Y-40316410D01*
X228938386Y-40316410D01*
X228938386Y-39654951D01*
X228276928Y-39654951D01*
X228276928Y-38993493D01*
X228938386Y-38993493D01*
X228938386Y-38332035D01*
X229599845Y-38332035D01*
X229599845Y-38993493D01*
X229599845Y-37670576D02*
X229599845Y-38332035D01*
X229599845Y-38332035D02*
X228938386Y-38332035D01*
X228938386Y-38332035D02*
X228938386Y-38993493D01*
X228938386Y-38993493D02*
X229599845Y-38993493D01*
X229599845Y-38993493D02*
X229599845Y-39654951D01*
X229599845Y-39654951D02*
X230261303Y-39654951D01*
X230261303Y-39654951D02*
X230261303Y-38993493D01*
X230261303Y-38993493D02*
X230922761Y-38993493D01*
X230922761Y-38993493D02*
X230922761Y-38332035D01*
X230922761Y-38332035D02*
X230261303Y-38332035D01*
X230261303Y-38332035D02*
X230261303Y-37670576D01*
X230261303Y-37670576D02*
X229599845Y-37670576D01*
X229599845Y-37670576D02*
X229599845Y-37670576D01*
G36*
X230261303Y-38332035D02*
G01*
X230922761Y-38332035D01*
X230922761Y-38993493D01*
X230261303Y-38993493D01*
X230261303Y-39654951D01*
X229599845Y-39654951D01*
X229599845Y-38993493D01*
X228938386Y-38993493D01*
X228938386Y-38332035D01*
X229599845Y-38332035D01*
X229599845Y-37670576D01*
X230261303Y-37670576D01*
X230261303Y-38332035D01*
G37*
X230261303Y-38332035D02*
X230922761Y-38332035D01*
X230922761Y-38993493D01*
X230261303Y-38993493D01*
X230261303Y-39654951D01*
X229599845Y-39654951D01*
X229599845Y-38993493D01*
X228938386Y-38993493D01*
X228938386Y-38332035D01*
X229599845Y-38332035D01*
X229599845Y-37670576D01*
X230261303Y-37670576D01*
X230261303Y-38332035D01*
D10*
X180375580Y-50074863D02*
X181698497Y-50074863D01*
X181698497Y-50074863D02*
X181698497Y-51397779D01*
X181698497Y-51397779D02*
X180375580Y-51397779D01*
X180375580Y-51397779D02*
X180375580Y-50074863D01*
X180375580Y-50074863D02*
X180375580Y-50074863D01*
G36*
X181698497Y-51397779D02*
G01*
X180375580Y-51397779D01*
X180375580Y-50074863D01*
X181698497Y-50074863D01*
X181698497Y-51397779D01*
G37*
X181698497Y-51397779D02*
X180375580Y-51397779D01*
X180375580Y-50074863D01*
X181698497Y-50074863D01*
X181698497Y-51397779D01*
X161093446Y-65546933D02*
X161093446Y-66208391D01*
X161093446Y-66208391D02*
X161754904Y-66208391D01*
X161754904Y-66208391D02*
X161754904Y-65546933D01*
X161754904Y-65546933D02*
X161093446Y-65546933D01*
X161093446Y-65546933D02*
X161093446Y-65546933D01*
G36*
X161754904Y-66208391D02*
G01*
X161093446Y-66208391D01*
X161093446Y-65546933D01*
X161754904Y-65546933D01*
X161754904Y-66208391D01*
G37*
X161754904Y-66208391D02*
X161093446Y-66208391D01*
X161093446Y-65546933D01*
X161754904Y-65546933D01*
X161754904Y-66208391D01*
X159109071Y-64885475D02*
X159109071Y-66208391D01*
X159109071Y-66208391D02*
X159109071Y-66869850D01*
X159109071Y-66869850D02*
X159770529Y-66869850D01*
X159770529Y-66869850D02*
X159770529Y-66208391D01*
X159770529Y-66208391D02*
X160431988Y-66208391D01*
X160431988Y-66208391D02*
X160431988Y-65546933D01*
X160431988Y-65546933D02*
X160431988Y-64885475D01*
X160431988Y-64885475D02*
X159109071Y-64885475D01*
X159109071Y-64885475D02*
X159109071Y-64885475D01*
G36*
X160431988Y-66208391D02*
G01*
X159770529Y-66208391D01*
X159770529Y-66869850D01*
X159109071Y-66869850D01*
X159109071Y-64885475D01*
X160431988Y-64885475D01*
X160431988Y-66208391D01*
G37*
X160431988Y-66208391D02*
X159770529Y-66208391D01*
X159770529Y-66869850D01*
X159109071Y-66869850D01*
X159109071Y-64885475D01*
X160431988Y-64885475D01*
X160431988Y-66208391D01*
X160431988Y-66208391D02*
X160431988Y-66869850D01*
X160431988Y-66869850D02*
X161093446Y-66869850D01*
X161093446Y-66869850D02*
X161093446Y-66208391D01*
X161093446Y-66208391D02*
X160431988Y-66208391D01*
X160431988Y-66208391D02*
X160431988Y-66208391D01*
G36*
X161093446Y-66869850D02*
G01*
X160431988Y-66869850D01*
X160431988Y-66208391D01*
X161093446Y-66208391D01*
X161093446Y-66869850D01*
G37*
X161093446Y-66869850D02*
X160431988Y-66869850D01*
X160431988Y-66208391D01*
X161093446Y-66208391D01*
X161093446Y-66869850D01*
X159770529Y-66208391D02*
X159109071Y-66208391D01*
X159109071Y-66208391D02*
X159109071Y-66869850D01*
X159109071Y-66869850D02*
X159770529Y-66869850D01*
X159770529Y-66869850D02*
X159770529Y-66208391D01*
X159770529Y-66208391D02*
X159770529Y-66208391D01*
G36*
X159770529Y-66869850D02*
G01*
X159109071Y-66869850D01*
X159109071Y-66208391D01*
X159770529Y-66208391D01*
X159770529Y-66869850D01*
G37*
X159770529Y-66869850D02*
X159109071Y-66869850D01*
X159109071Y-66208391D01*
X159770529Y-66208391D01*
X159770529Y-66869850D01*
X159770529Y-64224016D02*
X159770529Y-65546933D01*
X159770529Y-65546933D02*
X159770529Y-66208391D01*
X159770529Y-66208391D02*
X160431988Y-66208391D01*
X160431988Y-66208391D02*
X160431988Y-65546933D01*
X160431988Y-65546933D02*
X161093446Y-65546933D01*
X161093446Y-65546933D02*
X161093446Y-64885475D01*
X161093446Y-64885475D02*
X161093446Y-64224016D01*
X161093446Y-64224016D02*
X159770529Y-64224016D01*
X159770529Y-64224016D02*
X159770529Y-64224016D01*
G36*
X161093446Y-65546933D02*
G01*
X160431988Y-65546933D01*
X160431988Y-66208391D01*
X159770529Y-66208391D01*
X159770529Y-64224016D01*
X161093446Y-64224016D01*
X161093446Y-65546933D01*
G37*
X161093446Y-65546933D02*
X160431988Y-65546933D01*
X160431988Y-66208391D01*
X159770529Y-66208391D01*
X159770529Y-64224016D01*
X161093446Y-64224016D01*
X161093446Y-65546933D01*
X158447613Y-64224016D02*
X158447613Y-64885475D01*
X158447613Y-64885475D02*
X159109071Y-64885475D01*
X159109071Y-64885475D02*
X159109071Y-64224016D01*
X159109071Y-64224016D02*
X158447613Y-64224016D01*
X158447613Y-64224016D02*
X158447613Y-64224016D01*
G36*
X159109071Y-64885475D02*
G01*
X158447613Y-64885475D01*
X158447613Y-64224016D01*
X159109071Y-64224016D01*
X159109071Y-64885475D01*
G37*
X159109071Y-64885475D02*
X158447613Y-64885475D01*
X158447613Y-64224016D01*
X159109071Y-64224016D01*
X159109071Y-64885475D01*
X160431988Y-64885475D02*
X161093446Y-64885475D01*
X161093446Y-64885475D02*
X161093446Y-64224016D01*
X161093446Y-64224016D02*
X160431988Y-64224016D01*
X160431988Y-64224016D02*
X160431988Y-64885475D01*
X160431988Y-64885475D02*
X160431988Y-64885475D01*
G36*
X161093446Y-64885475D02*
G01*
X160431988Y-64885475D01*
X160431988Y-64224016D01*
X161093446Y-64224016D01*
X161093446Y-64885475D01*
G37*
X161093446Y-64885475D02*
X160431988Y-64885475D01*
X160431988Y-64224016D01*
X161093446Y-64224016D01*
X161093446Y-64885475D01*
X159109071Y-66869850D02*
X158447613Y-66869850D01*
X158447613Y-66869850D02*
X158447613Y-67531308D01*
X158447613Y-67531308D02*
X159109071Y-67531308D01*
X159109071Y-67531308D02*
X159109071Y-66869850D01*
X159109071Y-66869850D02*
X159109071Y-66869850D01*
G36*
X159109071Y-67531308D02*
G01*
X158447613Y-67531308D01*
X158447613Y-66869850D01*
X159109071Y-66869850D01*
X159109071Y-67531308D01*
G37*
X159109071Y-67531308D02*
X158447613Y-67531308D01*
X158447613Y-66869850D01*
X159109071Y-66869850D01*
X159109071Y-67531308D01*
X161754904Y-64224016D02*
X161754904Y-64885475D01*
X161754904Y-64885475D02*
X162416363Y-64885475D01*
X162416363Y-64885475D02*
X162416363Y-64224016D01*
X162416363Y-64224016D02*
X161754904Y-64224016D01*
X161754904Y-64224016D02*
X161754904Y-64224016D01*
G36*
X162416363Y-64885475D02*
G01*
X161754904Y-64885475D01*
X161754904Y-64224016D01*
X162416363Y-64224016D01*
X162416363Y-64885475D01*
G37*
X162416363Y-64885475D02*
X161754904Y-64885475D01*
X161754904Y-64224016D01*
X162416363Y-64224016D01*
X162416363Y-64885475D01*
X161093446Y-64224016D02*
X161754904Y-64224016D01*
X161754904Y-64224016D02*
X161754904Y-63562558D01*
X161754904Y-63562558D02*
X161093446Y-63562558D01*
X161093446Y-63562558D02*
X161093446Y-64224016D01*
X161093446Y-64224016D02*
X161093446Y-64224016D01*
G36*
X161754904Y-64224016D02*
G01*
X161093446Y-64224016D01*
X161093446Y-63562558D01*
X161754904Y-63562558D01*
X161754904Y-64224016D01*
G37*
X161754904Y-64224016D02*
X161093446Y-64224016D01*
X161093446Y-63562558D01*
X161754904Y-63562558D01*
X161754904Y-64224016D01*
X159109071Y-63562558D02*
X159109071Y-64224016D01*
X159109071Y-64224016D02*
X159770529Y-64224016D01*
X159770529Y-64224016D02*
X159770529Y-63562558D01*
X159770529Y-63562558D02*
X159109071Y-63562558D01*
X159109071Y-63562558D02*
X159109071Y-63562558D01*
G36*
X159770529Y-64224016D02*
G01*
X159109071Y-64224016D01*
X159109071Y-63562558D01*
X159770529Y-63562558D01*
X159770529Y-64224016D01*
G37*
X159770529Y-64224016D02*
X159109071Y-64224016D01*
X159109071Y-63562558D01*
X159770529Y-63562558D01*
X159770529Y-64224016D01*
X161093446Y-64885475D02*
X161093446Y-65546933D01*
X161093446Y-65546933D02*
X161754904Y-65546933D01*
X161754904Y-65546933D02*
X161754904Y-64885475D01*
X161754904Y-64885475D02*
X161093446Y-64885475D01*
X161093446Y-64885475D02*
X161093446Y-64885475D01*
G36*
X161754904Y-65546933D02*
G01*
X161093446Y-65546933D01*
X161093446Y-64885475D01*
X161754904Y-64885475D01*
X161754904Y-65546933D01*
G37*
X161754904Y-65546933D02*
X161093446Y-65546933D01*
X161093446Y-64885475D01*
X161754904Y-64885475D01*
X161754904Y-65546933D01*
X248320580Y-60869863D02*
X249643497Y-60869863D01*
X249643497Y-60869863D02*
X249643497Y-62192779D01*
X249643497Y-62192779D02*
X248320580Y-62192779D01*
X248320580Y-62192779D02*
X248320580Y-60869863D01*
X248320580Y-60869863D02*
X248320580Y-60869863D01*
G36*
X249643497Y-62192779D02*
G01*
X248320580Y-62192779D01*
X248320580Y-60869863D01*
X249643497Y-60869863D01*
X249643497Y-62192779D01*
G37*
X249643497Y-62192779D02*
X248320580Y-62192779D01*
X248320580Y-60869863D01*
X249643497Y-60869863D01*
X249643497Y-62192779D01*
D11*
X237828386Y-65637035D02*
X237828386Y-66298493D01*
X237828386Y-66298493D02*
X237166928Y-66298493D01*
X237166928Y-66298493D02*
X237166928Y-66959951D01*
X237166928Y-66959951D02*
X237828386Y-66959951D01*
X237828386Y-66959951D02*
X237828386Y-67621410D01*
X237828386Y-67621410D02*
X238489845Y-67621410D01*
X238489845Y-67621410D02*
X238489845Y-66959951D01*
X238489845Y-66959951D02*
X239151303Y-66959951D01*
X239151303Y-66959951D02*
X239151303Y-66298493D01*
X239151303Y-66298493D02*
X238489845Y-66298493D01*
X238489845Y-66298493D02*
X238489845Y-65637035D01*
X238489845Y-65637035D02*
X237828386Y-65637035D01*
X237828386Y-65637035D02*
X237828386Y-65637035D01*
G36*
X238489845Y-66298493D02*
G01*
X239151303Y-66298493D01*
X239151303Y-66959951D01*
X238489845Y-66959951D01*
X238489845Y-67621410D01*
X237828386Y-67621410D01*
X237828386Y-66959951D01*
X237166928Y-66959951D01*
X237166928Y-66298493D01*
X237828386Y-66298493D01*
X237828386Y-65637035D01*
X238489845Y-65637035D01*
X238489845Y-66298493D01*
G37*
X238489845Y-66298493D02*
X239151303Y-66298493D01*
X239151303Y-66959951D01*
X238489845Y-66959951D01*
X238489845Y-67621410D01*
X237828386Y-67621410D01*
X237828386Y-66959951D01*
X237166928Y-66959951D01*
X237166928Y-66298493D01*
X237828386Y-66298493D01*
X237828386Y-65637035D01*
X238489845Y-65637035D01*
X238489845Y-66298493D01*
X238489845Y-64975576D02*
X238489845Y-65637035D01*
X238489845Y-65637035D02*
X237828386Y-65637035D01*
X237828386Y-65637035D02*
X237828386Y-66298493D01*
X237828386Y-66298493D02*
X238489845Y-66298493D01*
X238489845Y-66298493D02*
X238489845Y-66959951D01*
X238489845Y-66959951D02*
X239151303Y-66959951D01*
X239151303Y-66959951D02*
X239151303Y-66298493D01*
X239151303Y-66298493D02*
X239812761Y-66298493D01*
X239812761Y-66298493D02*
X239812761Y-65637035D01*
X239812761Y-65637035D02*
X239151303Y-65637035D01*
X239151303Y-65637035D02*
X239151303Y-64975576D01*
X239151303Y-64975576D02*
X238489845Y-64975576D01*
X238489845Y-64975576D02*
X238489845Y-64975576D01*
G36*
X239151303Y-65637035D02*
G01*
X239812761Y-65637035D01*
X239812761Y-66298493D01*
X239151303Y-66298493D01*
X239151303Y-66959951D01*
X238489845Y-66959951D01*
X238489845Y-66298493D01*
X237828386Y-66298493D01*
X237828386Y-65637035D01*
X238489845Y-65637035D01*
X238489845Y-64975576D01*
X239151303Y-64975576D01*
X239151303Y-65637035D01*
G37*
X239151303Y-65637035D02*
X239812761Y-65637035D01*
X239812761Y-66298493D01*
X239151303Y-66298493D01*
X239151303Y-66959951D01*
X238489845Y-66959951D01*
X238489845Y-66298493D01*
X237828386Y-66298493D01*
X237828386Y-65637035D01*
X238489845Y-65637035D01*
X238489845Y-64975576D01*
X239151303Y-64975576D01*
X239151303Y-65637035D01*
X219413386Y-64367035D02*
X219413386Y-65028493D01*
X219413386Y-65028493D02*
X218751928Y-65028493D01*
X218751928Y-65028493D02*
X218751928Y-65689951D01*
X218751928Y-65689951D02*
X219413386Y-65689951D01*
X219413386Y-65689951D02*
X219413386Y-66351410D01*
X219413386Y-66351410D02*
X220074845Y-66351410D01*
X220074845Y-66351410D02*
X220074845Y-65689951D01*
X220074845Y-65689951D02*
X220736303Y-65689951D01*
X220736303Y-65689951D02*
X220736303Y-65028493D01*
X220736303Y-65028493D02*
X220074845Y-65028493D01*
X220074845Y-65028493D02*
X220074845Y-64367035D01*
X220074845Y-64367035D02*
X219413386Y-64367035D01*
X219413386Y-64367035D02*
X219413386Y-64367035D01*
G36*
X220074845Y-65028493D02*
G01*
X220736303Y-65028493D01*
X220736303Y-65689951D01*
X220074845Y-65689951D01*
X220074845Y-66351410D01*
X219413386Y-66351410D01*
X219413386Y-65689951D01*
X218751928Y-65689951D01*
X218751928Y-65028493D01*
X219413386Y-65028493D01*
X219413386Y-64367035D01*
X220074845Y-64367035D01*
X220074845Y-65028493D01*
G37*
X220074845Y-65028493D02*
X220736303Y-65028493D01*
X220736303Y-65689951D01*
X220074845Y-65689951D01*
X220074845Y-66351410D01*
X219413386Y-66351410D01*
X219413386Y-65689951D01*
X218751928Y-65689951D01*
X218751928Y-65028493D01*
X219413386Y-65028493D01*
X219413386Y-64367035D01*
X220074845Y-64367035D01*
X220074845Y-65028493D01*
X220074845Y-63705576D02*
X220074845Y-64367035D01*
X220074845Y-64367035D02*
X219413386Y-64367035D01*
X219413386Y-64367035D02*
X219413386Y-65028493D01*
X219413386Y-65028493D02*
X220074845Y-65028493D01*
X220074845Y-65028493D02*
X220074845Y-65689951D01*
X220074845Y-65689951D02*
X220736303Y-65689951D01*
X220736303Y-65689951D02*
X220736303Y-65028493D01*
X220736303Y-65028493D02*
X221397761Y-65028493D01*
X221397761Y-65028493D02*
X221397761Y-64367035D01*
X221397761Y-64367035D02*
X220736303Y-64367035D01*
X220736303Y-64367035D02*
X220736303Y-63705576D01*
X220736303Y-63705576D02*
X220074845Y-63705576D01*
X220074845Y-63705576D02*
X220074845Y-63705576D01*
G36*
X220736303Y-64367035D02*
G01*
X221397761Y-64367035D01*
X221397761Y-65028493D01*
X220736303Y-65028493D01*
X220736303Y-65689951D01*
X220074845Y-65689951D01*
X220074845Y-65028493D01*
X219413386Y-65028493D01*
X219413386Y-64367035D01*
X220074845Y-64367035D01*
X220074845Y-63705576D01*
X220736303Y-63705576D01*
X220736303Y-64367035D01*
G37*
X220736303Y-64367035D02*
X221397761Y-64367035D01*
X221397761Y-65028493D01*
X220736303Y-65028493D01*
X220736303Y-65689951D01*
X220074845Y-65689951D01*
X220074845Y-65028493D01*
X219413386Y-65028493D01*
X219413386Y-64367035D01*
X220074845Y-64367035D01*
X220074845Y-63705576D01*
X220736303Y-63705576D01*
X220736303Y-64367035D01*
D10*
X210220580Y-50074863D02*
X211543497Y-50074863D01*
X211543497Y-50074863D02*
X211543497Y-51397779D01*
X211543497Y-51397779D02*
X210220580Y-51397779D01*
X210220580Y-51397779D02*
X210220580Y-50074863D01*
X210220580Y-50074863D02*
X210220580Y-50074863D01*
G36*
X211543497Y-51397779D02*
G01*
X210220580Y-51397779D01*
X210220580Y-50074863D01*
X211543497Y-50074863D01*
X211543497Y-51397779D01*
G37*
X211543497Y-51397779D02*
X210220580Y-51397779D01*
X210220580Y-50074863D01*
X211543497Y-50074863D01*
X211543497Y-51397779D01*
X231578446Y-29325475D02*
X231578446Y-29986933D01*
X231578446Y-29986933D02*
X232239904Y-29986933D01*
X232239904Y-29986933D02*
X232239904Y-29325475D01*
X232239904Y-29325475D02*
X231578446Y-29325475D01*
X231578446Y-29325475D02*
X231578446Y-29325475D01*
G36*
X232239904Y-29986933D02*
G01*
X231578446Y-29986933D01*
X231578446Y-29325475D01*
X232239904Y-29325475D01*
X232239904Y-29986933D01*
G37*
X232239904Y-29986933D02*
X231578446Y-29986933D01*
X231578446Y-29325475D01*
X232239904Y-29325475D01*
X232239904Y-29986933D01*
X232239904Y-28664016D02*
X232239904Y-29325475D01*
X232239904Y-29325475D02*
X232901363Y-29325475D01*
X232901363Y-29325475D02*
X232901363Y-28664016D01*
X232901363Y-28664016D02*
X232239904Y-28664016D01*
X232239904Y-28664016D02*
X232239904Y-28664016D01*
G36*
X232901363Y-29325475D02*
G01*
X232239904Y-29325475D01*
X232239904Y-28664016D01*
X232901363Y-28664016D01*
X232901363Y-29325475D01*
G37*
X232901363Y-29325475D02*
X232239904Y-29325475D01*
X232239904Y-28664016D01*
X232901363Y-28664016D01*
X232901363Y-29325475D01*
X230916988Y-30648391D02*
X230916988Y-31309850D01*
X230916988Y-31309850D02*
X231578446Y-31309850D01*
X231578446Y-31309850D02*
X231578446Y-30648391D01*
X231578446Y-30648391D02*
X230916988Y-30648391D01*
X230916988Y-30648391D02*
X230916988Y-30648391D01*
G36*
X231578446Y-31309850D02*
G01*
X230916988Y-31309850D01*
X230916988Y-30648391D01*
X231578446Y-30648391D01*
X231578446Y-31309850D01*
G37*
X231578446Y-31309850D02*
X230916988Y-31309850D01*
X230916988Y-30648391D01*
X231578446Y-30648391D01*
X231578446Y-31309850D01*
X231578446Y-29986933D02*
X231578446Y-30648391D01*
X231578446Y-30648391D02*
X232239904Y-30648391D01*
X232239904Y-30648391D02*
X232239904Y-29986933D01*
X232239904Y-29986933D02*
X231578446Y-29986933D01*
X231578446Y-29986933D02*
X231578446Y-29986933D01*
G36*
X232239904Y-30648391D02*
G01*
X231578446Y-30648391D01*
X231578446Y-29986933D01*
X232239904Y-29986933D01*
X232239904Y-30648391D01*
G37*
X232239904Y-30648391D02*
X231578446Y-30648391D01*
X231578446Y-29986933D01*
X232239904Y-29986933D01*
X232239904Y-30648391D01*
X229594071Y-28002558D02*
X229594071Y-28664016D01*
X229594071Y-28664016D02*
X230255529Y-28664016D01*
X230255529Y-28664016D02*
X230255529Y-28002558D01*
X230255529Y-28002558D02*
X229594071Y-28002558D01*
X229594071Y-28002558D02*
X229594071Y-28002558D01*
G36*
X230255529Y-28664016D02*
G01*
X229594071Y-28664016D01*
X229594071Y-28002558D01*
X230255529Y-28002558D01*
X230255529Y-28664016D01*
G37*
X230255529Y-28664016D02*
X229594071Y-28664016D01*
X229594071Y-28002558D01*
X230255529Y-28002558D01*
X230255529Y-28664016D01*
X230255529Y-28664016D02*
X230255529Y-29986933D01*
X230255529Y-29986933D02*
X230255529Y-30648391D01*
X230255529Y-30648391D02*
X230916988Y-30648391D01*
X230916988Y-30648391D02*
X230916988Y-29986933D01*
X230916988Y-29986933D02*
X231578446Y-29986933D01*
X231578446Y-29986933D02*
X231578446Y-29325475D01*
X231578446Y-29325475D02*
X231578446Y-28664016D01*
X231578446Y-28664016D02*
X230255529Y-28664016D01*
X230255529Y-28664016D02*
X230255529Y-28664016D01*
G36*
X231578446Y-29986933D02*
G01*
X230916988Y-29986933D01*
X230916988Y-30648391D01*
X230255529Y-30648391D01*
X230255529Y-28664016D01*
X231578446Y-28664016D01*
X231578446Y-29986933D01*
G37*
X231578446Y-29986933D02*
X230916988Y-29986933D01*
X230916988Y-30648391D01*
X230255529Y-30648391D01*
X230255529Y-28664016D01*
X231578446Y-28664016D01*
X231578446Y-29986933D01*
X229594071Y-31309850D02*
X228932613Y-31309850D01*
X228932613Y-31309850D02*
X228932613Y-31971308D01*
X228932613Y-31971308D02*
X229594071Y-31971308D01*
X229594071Y-31971308D02*
X229594071Y-31309850D01*
X229594071Y-31309850D02*
X229594071Y-31309850D01*
G36*
X229594071Y-31971308D02*
G01*
X228932613Y-31971308D01*
X228932613Y-31309850D01*
X229594071Y-31309850D01*
X229594071Y-31971308D01*
G37*
X229594071Y-31971308D02*
X228932613Y-31971308D01*
X228932613Y-31309850D01*
X229594071Y-31309850D01*
X229594071Y-31971308D01*
X231578446Y-28664016D02*
X232239904Y-28664016D01*
X232239904Y-28664016D02*
X232239904Y-28002558D01*
X232239904Y-28002558D02*
X231578446Y-28002558D01*
X231578446Y-28002558D02*
X231578446Y-28664016D01*
X231578446Y-28664016D02*
X231578446Y-28664016D01*
G36*
X232239904Y-28664016D02*
G01*
X231578446Y-28664016D01*
X231578446Y-28002558D01*
X232239904Y-28002558D01*
X232239904Y-28664016D01*
G37*
X232239904Y-28664016D02*
X231578446Y-28664016D01*
X231578446Y-28002558D01*
X232239904Y-28002558D01*
X232239904Y-28664016D01*
X230916988Y-29325475D02*
X231578446Y-29325475D01*
X231578446Y-29325475D02*
X231578446Y-28664016D01*
X231578446Y-28664016D02*
X230916988Y-28664016D01*
X230916988Y-28664016D02*
X230916988Y-29325475D01*
X230916988Y-29325475D02*
X230916988Y-29325475D01*
G36*
X231578446Y-29325475D02*
G01*
X230916988Y-29325475D01*
X230916988Y-28664016D01*
X231578446Y-28664016D01*
X231578446Y-29325475D01*
G37*
X231578446Y-29325475D02*
X230916988Y-29325475D01*
X230916988Y-28664016D01*
X231578446Y-28664016D01*
X231578446Y-29325475D01*
X229594071Y-29325475D02*
X229594071Y-30648391D01*
X229594071Y-30648391D02*
X229594071Y-31309850D01*
X229594071Y-31309850D02*
X230255529Y-31309850D01*
X230255529Y-31309850D02*
X230255529Y-30648391D01*
X230255529Y-30648391D02*
X230916988Y-30648391D01*
X230916988Y-30648391D02*
X230916988Y-29986933D01*
X230916988Y-29986933D02*
X230916988Y-29325475D01*
X230916988Y-29325475D02*
X229594071Y-29325475D01*
X229594071Y-29325475D02*
X229594071Y-29325475D01*
G36*
X230916988Y-30648391D02*
G01*
X230255529Y-30648391D01*
X230255529Y-31309850D01*
X229594071Y-31309850D01*
X229594071Y-29325475D01*
X230916988Y-29325475D01*
X230916988Y-30648391D01*
G37*
X230916988Y-30648391D02*
X230255529Y-30648391D01*
X230255529Y-31309850D01*
X229594071Y-31309850D01*
X229594071Y-29325475D01*
X230916988Y-29325475D01*
X230916988Y-30648391D01*
X228932613Y-28664016D02*
X228932613Y-29325475D01*
X228932613Y-29325475D02*
X229594071Y-29325475D01*
X229594071Y-29325475D02*
X229594071Y-28664016D01*
X229594071Y-28664016D02*
X228932613Y-28664016D01*
X228932613Y-28664016D02*
X228932613Y-28664016D01*
G36*
X229594071Y-29325475D02*
G01*
X228932613Y-29325475D01*
X228932613Y-28664016D01*
X229594071Y-28664016D01*
X229594071Y-29325475D01*
G37*
X229594071Y-29325475D02*
X228932613Y-29325475D01*
X228932613Y-28664016D01*
X229594071Y-28664016D01*
X229594071Y-29325475D01*
X230255529Y-30648391D02*
X229594071Y-30648391D01*
X229594071Y-30648391D02*
X229594071Y-31309850D01*
X229594071Y-31309850D02*
X230255529Y-31309850D01*
X230255529Y-31309850D02*
X230255529Y-30648391D01*
X230255529Y-30648391D02*
X230255529Y-30648391D01*
G36*
X230255529Y-31309850D02*
G01*
X229594071Y-31309850D01*
X229594071Y-30648391D01*
X230255529Y-30648391D01*
X230255529Y-31309850D01*
G37*
X230255529Y-31309850D02*
X229594071Y-31309850D01*
X229594071Y-30648391D01*
X230255529Y-30648391D01*
X230255529Y-31309850D01*
X190535580Y-48804863D02*
X191858497Y-48804863D01*
X191858497Y-48804863D02*
X191858497Y-50127779D01*
X191858497Y-50127779D02*
X190535580Y-50127779D01*
X190535580Y-50127779D02*
X190535580Y-48804863D01*
X190535580Y-48804863D02*
X190535580Y-48804863D01*
G36*
X191858497Y-50127779D02*
G01*
X190535580Y-50127779D01*
X190535580Y-48804863D01*
X191858497Y-48804863D01*
X191858497Y-50127779D01*
G37*
X191858497Y-50127779D02*
X190535580Y-50127779D01*
X190535580Y-48804863D01*
X191858497Y-48804863D01*
X191858497Y-50127779D01*
%TD*%
D12*
%TO.P,D2,1,K*%
%TO.N,GND*%
X216402500Y-58420000D03*
%TD*%
%TO.P,D4,1,K*%
%TO.N,GND*%
X227832500Y-44450000D03*
%TD*%
%TO.P,D6,1,K*%
%TO.N,GND*%
X244342500Y-53340000D03*
%TD*%
D13*
%TO.P,R5,1*%
%TO.N,Net-(C4-Pad2)*%
X199880464Y-68718086D03*
%TO.P,R5,2*%
%TO.N,Net-(D5-Pad2)*%
X199880464Y-57923086D03*
%TD*%
D14*
%TO.P,R8,1*%
%TO.N,Net-(C5-Pad1)*%
X233362500Y-38100000D03*
%TO.P,R8,2*%
%TO.N,GND*%
X244157500Y-38100000D03*
%TD*%
D15*
%TO.P,J1,1,Pin_1*%
%TO.N,+9V*%
X162242500Y-32175000D03*
D16*
%TO.P,J1,2,Pin_2*%
%TO.N,GND*%
X162242500Y-35135000D03*
%TD*%
D17*
%TO.P,C3,1*%
%TO.N,Net-(C3-Pad1)*%
X186607500Y-68580000D03*
D18*
%TO.P,C3,2*%
%TO.N,Net-(C3-Pad2)*%
X183550000Y-68580000D03*
%TD*%
D17*
%TO.P,C5,1*%
%TO.N,Net-(C5-Pad1)*%
X239632613Y-61595000D03*
D18*
%TO.P,C5,2*%
%TO.N,Net-(C5-Pad2)*%
X236575113Y-61595000D03*
%TD*%
D13*
%TO.P,R9,1*%
%TO.N,Net-(C6-Pad2)*%
X204470000Y-39052500D03*
%TO.P,R9,2*%
%TO.N,Net-(D9-Pad2)*%
X204470000Y-29527500D03*
%TD*%
D19*
%TO.P,Q4,1,C*%
%TO.N,Net-(C5-Pad2)*%
X229495000Y-65405000D03*
D20*
%TO.P,Q4,2,B*%
%TO.N,Net-(C4-Pad1)*%
X227387500Y-67310000D03*
D21*
%TO.P,Q4,3,E*%
%TO.N,+9V*%
X229495000Y-69215000D03*
%TD*%
D14*
%TO.P,R10,1*%
%TO.N,Net-(C6-Pad1)*%
X233362500Y-33020000D03*
%TO.P,R10,2*%
%TO.N,GND*%
X244157500Y-33020000D03*
%TD*%
D22*
%TO.P,C1,1*%
%TO.N,+9V*%
X167005000Y-32147388D03*
D23*
%TO.P,C1,2*%
%TO.N,GND*%
X167005000Y-35204888D03*
%TD*%
D17*
%TO.P,C2,1*%
%TO.N,Net-(C2-Pad1)*%
X165209142Y-63909325D03*
D18*
%TO.P,C2,2*%
%TO.N,Net-(C2-Pad2)*%
X168266642Y-63909325D03*
%TD*%
D19*
%TO.P,Q3,1,C*%
%TO.N,Net-(C4-Pad2)*%
X214255000Y-67310000D03*
D20*
%TO.P,Q3,2,B*%
%TO.N,Net-(C3-Pad1)*%
X212147500Y-69215000D03*
D21*
%TO.P,Q3,3,E*%
%TO.N,+9V*%
X214255000Y-71120000D03*
%TD*%
D24*
%TO.P,D9,1,K*%
%TO.N,Net-(D10-Pad2)*%
X211005000Y-32517500D03*
D25*
%TO.P,D9,2,A*%
%TO.N,Net-(D9-Pad2)*%
X207777500Y-32517500D03*
%TD*%
D19*
%TO.P,Q2,1,C*%
%TO.N,Net-(C3-Pad2)*%
X195897341Y-67310000D03*
D20*
%TO.P,Q2,2,B*%
%TO.N,Net-(C2-Pad1)*%
X193789841Y-69215000D03*
D21*
%TO.P,Q2,3,E*%
%TO.N,+9V*%
X195897341Y-71120000D03*
%TD*%
D19*
%TO.P,Q1,1,C*%
%TO.N,Net-(C2-Pad2)*%
X178695000Y-67310000D03*
D20*
%TO.P,Q1,2,B*%
%TO.N,Net-(C6-Pad1)*%
X176587500Y-69215000D03*
D21*
%TO.P,Q1,3,E*%
%TO.N,+9V*%
X178695000Y-71120000D03*
%TD*%
D19*
%TO.P,Q5,1,C*%
%TO.N,Net-(C6-Pad2)*%
X226955000Y-34290000D03*
D20*
%TO.P,Q5,2,B*%
%TO.N,Net-(C5-Pad1)*%
X224847500Y-36195000D03*
D21*
%TO.P,Q5,3,E*%
%TO.N,+9V*%
X226955000Y-38100000D03*
%TD*%
D17*
%TO.P,C4,1*%
%TO.N,Net-(C4-Pad1)*%
X207882613Y-68580000D03*
D18*
%TO.P,C4,2*%
%TO.N,Net-(C4-Pad2)*%
X204825113Y-68580000D03*
%TD*%
D24*
%TO.P,D8,1,K*%
%TO.N,GND*%
X186875000Y-32517500D03*
D25*
%TO.P,D8,2,A*%
%TO.N,Net-(D7-Pad1)*%
X183647500Y-32517500D03*
%TD*%
D24*
%TO.P,D10,1,K*%
%TO.N,GND*%
X217355000Y-32517500D03*
D25*
%TO.P,D10,2,A*%
%TO.N,Net-(D10-Pad2)*%
X214127500Y-32517500D03*
%TD*%
D13*
%TO.P,R4,1*%
%TO.N,Net-(C3-Pad1)*%
X180975000Y-64452500D03*
%TO.P,R4,2*%
%TO.N,GND*%
X180975000Y-53657500D03*
%TD*%
%TO.P,R7,1*%
%TO.N,Net-(C5-Pad2)*%
X190500000Y-39052500D03*
%TO.P,R7,2*%
%TO.N,Net-(D7-Pad2)*%
X190500000Y-29527500D03*
%TD*%
%TO.P,R3,1*%
%TO.N,Net-(C3-Pad2)*%
X189871902Y-68897500D03*
%TO.P,R3,2*%
%TO.N,Net-(D3-Pad2)*%
X189871902Y-58102500D03*
%TD*%
D14*
%TO.P,R1,1*%
%TO.N,Net-(C2-Pad2)*%
X173037500Y-39370000D03*
%TO.P,R1,2*%
%TO.N,Net-(D1-Pad2)*%
X162242500Y-39370000D03*
%TD*%
D22*
%TO.P,C6,1*%
%TO.N,Net-(C6-Pad1)*%
X226060000Y-31032500D03*
D23*
%TO.P,C6,2*%
%TO.N,Net-(C6-Pad2)*%
X226060000Y-27975000D03*
%TD*%
D14*
%TO.P,R2,1*%
%TO.N,Net-(C2-Pad1)*%
X172402500Y-69215000D03*
%TO.P,R2,2*%
%TO.N,GND*%
X161607500Y-69215000D03*
%TD*%
D24*
%TO.P,D7,1,K*%
%TO.N,Net-(D7-Pad1)*%
X180525000Y-32517500D03*
D25*
%TO.P,D7,2,A*%
%TO.N,Net-(D7-Pad2)*%
X177297500Y-32517500D03*
%TD*%
D13*
%TO.P,R6,1*%
%TO.N,Net-(C4-Pad1)*%
X219710000Y-68897500D03*
%TO.P,R6,2*%
%TO.N,GND*%
X219710000Y-58102500D03*
%TD*%
D26*
%TO.N,GND*%
X242570000Y-41910000D03*
X162560000Y-57785000D03*
X175895000Y-58420000D03*
X204470000Y-42545000D03*
X167005000Y-42545000D03*
X194310000Y-64770000D03*
X194310000Y-60960000D03*
X173990000Y-64770000D03*
X185420000Y-43815000D03*
X196850000Y-42545000D03*
%TD*%
D27*
%TO.N,+9V*%
X229235000Y-69215000D02*
X227330000Y-71120000D01*
X227330000Y-71120000D02*
X213995000Y-71120000D01*
%TO.N,Net-(C2-Pad1)*%
X172085000Y-69215000D02*
X173196250Y-69215000D01*
X173196250Y-69215000D02*
X175101250Y-71120000D01*
X177614520Y-72204520D02*
X190685480Y-72204520D01*
X175101250Y-71120000D02*
X176530000Y-71120000D01*
X190685480Y-72204520D02*
X193675000Y-69215000D01*
X193675000Y-69215000D02*
X194367341Y-69215000D01*
X176530000Y-71120000D02*
X177614520Y-72204520D01*
X172085000Y-69215000D02*
X171067317Y-69215000D01*
X171067317Y-69215000D02*
X165761642Y-63909325D01*
%TO.N,Net-(C2-Pad2)*%
X167761642Y-63909325D02*
X171162317Y-67310000D01*
X171162317Y-67310000D02*
X177765721Y-67310000D01*
X177765721Y-67310000D02*
X177950551Y-67494830D01*
%TO.N,Net-(C3-Pad1)*%
X186055000Y-68580000D02*
X181610000Y-64135000D01*
X181610000Y-64135000D02*
X180975000Y-64135000D01*
%TO.N,Net-(C4-Pad1)*%
X220980000Y-67310000D02*
X219710000Y-68580000D01*
X227965000Y-67310000D02*
X220980000Y-67310000D01*
%TO.N,Net-(C4-Pad2)*%
X205330113Y-68580000D02*
X200059878Y-68580000D01*
X213360000Y-66675000D02*
X206555546Y-66675000D01*
X206555546Y-66675000D02*
X205330113Y-67900433D01*
X213995000Y-67310000D02*
X213360000Y-66675000D01*
X200059878Y-68580000D02*
X199880464Y-68400586D01*
X205330113Y-67900433D02*
X205330113Y-68580000D01*
%TO.N,Net-(C5-Pad2)*%
X236220000Y-61595000D02*
X237080113Y-61595000D01*
X232410000Y-65405000D02*
X236220000Y-61595000D01*
X229235000Y-65405000D02*
X232410000Y-65405000D01*
X237080113Y-61595000D02*
X237080113Y-61274887D01*
%TO.N,Net-(C6-Pad2)*%
X226309022Y-28480000D02*
X226060000Y-28480000D01*
%TO.N,Net-(D7-Pad2)*%
X177800000Y-33020000D02*
X177800000Y-31750000D01*
X177800000Y-31750000D02*
X180975000Y-28575000D01*
X180975000Y-28575000D02*
X190500000Y-28575000D01*
%TO.N,Net-(D9-Pad2)*%
X204470000Y-29210000D02*
X204470000Y-28575000D01*
X208280000Y-33020000D02*
X204470000Y-29210000D01*
%TD*%
%TA.AperFunction,Conductor*%
%TO.N,GND*%
G36*
X242021234Y-40403300D02*
G01*
X242067727Y-40456956D01*
X242079113Y-40509298D01*
X242079113Y-41103865D01*
X243394248Y-41103865D01*
X243462369Y-41123867D01*
X243508862Y-41177523D01*
X243520248Y-41229865D01*
X243520248Y-42545000D01*
X244114815Y-42545000D01*
X244182936Y-42565002D01*
X244229429Y-42618658D01*
X244240815Y-42671000D01*
X244240815Y-45427269D01*
X244835383Y-45427269D01*
X244903504Y-45447271D01*
X244949997Y-45500927D01*
X244961383Y-45553269D01*
X244961383Y-48309539D01*
X245555950Y-48309539D01*
X245624071Y-48329541D01*
X245670564Y-48383197D01*
X245681950Y-48435539D01*
X245681950Y-50471241D01*
X246276517Y-50471241D01*
X246344638Y-50491243D01*
X246391131Y-50544899D01*
X246402517Y-50597241D01*
X246402517Y-51191808D01*
X247717652Y-51191808D01*
X247785773Y-51211810D01*
X247832266Y-51265466D01*
X247843652Y-51317808D01*
X247843652Y-51912376D01*
X248438219Y-51912376D01*
X248506340Y-51932378D01*
X248552833Y-51986034D01*
X248564219Y-52038376D01*
X248564219Y-53227510D01*
X248544217Y-53295631D01*
X248490561Y-53342124D01*
X248438219Y-53353510D01*
X247843652Y-53353510D01*
X247843652Y-53948078D01*
X247823650Y-54016199D01*
X247769994Y-54062692D01*
X247717652Y-54074078D01*
X246402517Y-54074078D01*
X246402517Y-54075879D01*
X246343501Y-54075879D01*
X246283775Y-54037495D01*
X246254282Y-53972914D01*
X246253000Y-53954983D01*
X246253000Y-53612115D01*
X246248525Y-53596876D01*
X246247135Y-53595671D01*
X246239452Y-53594000D01*
X244614615Y-53594000D01*
X244599376Y-53598475D01*
X244598171Y-53599865D01*
X244596500Y-53607548D01*
X244596500Y-54729884D01*
X244600975Y-54745123D01*
X244602365Y-54746328D01*
X244610048Y-54747999D01*
X245789669Y-54747999D01*
X245796490Y-54747629D01*
X245847352Y-54742105D01*
X245862604Y-54738479D01*
X245983054Y-54693324D01*
X245998649Y-54684786D01*
X246100724Y-54608285D01*
X246113285Y-54595724D01*
X246175691Y-54512456D01*
X246232550Y-54469941D01*
X246303369Y-54464915D01*
X246365662Y-54498975D01*
X246399652Y-54561306D01*
X246402517Y-54588021D01*
X246402517Y-62000319D01*
X246997085Y-62000319D01*
X247065206Y-62020321D01*
X247111699Y-62073977D01*
X247123085Y-62126319D01*
X247123085Y-66918290D01*
X247103083Y-66986411D01*
X247049427Y-67032904D01*
X246997085Y-67044290D01*
X244366815Y-67044290D01*
X244298694Y-67024288D01*
X244252201Y-66970632D01*
X244240815Y-66918290D01*
X244240815Y-66323723D01*
X243646248Y-66323723D01*
X243578127Y-66303721D01*
X243531634Y-66250065D01*
X243520248Y-66197723D01*
X243520248Y-64882588D01*
X242925680Y-64882588D01*
X242857559Y-64862586D01*
X242811066Y-64808930D01*
X242799680Y-64756588D01*
X242799680Y-63441454D01*
X242205113Y-63441454D01*
X242136992Y-63421452D01*
X242090499Y-63367796D01*
X242079113Y-63315454D01*
X242079113Y-62000319D01*
X241619613Y-62000319D01*
X241551492Y-61980317D01*
X241504999Y-61926661D01*
X241493613Y-61874319D01*
X241493613Y-60746866D01*
X241486858Y-60684684D01*
X241435728Y-60548295D01*
X241383720Y-60478901D01*
X241358872Y-60412395D01*
X241358546Y-60403336D01*
X241358546Y-57676915D01*
X240763978Y-57676915D01*
X240695857Y-57656913D01*
X240649364Y-57603257D01*
X240637978Y-57550915D01*
X240637978Y-56235780D01*
X238476276Y-56235780D01*
X238476276Y-56830347D01*
X238456274Y-56898468D01*
X238402618Y-56944961D01*
X238350276Y-56956347D01*
X237035141Y-56956347D01*
X237035141Y-57550915D01*
X237015139Y-57619036D01*
X236961483Y-57665529D01*
X236909141Y-57676915D01*
X236314574Y-57676915D01*
X236314574Y-58992049D01*
X236294572Y-59060170D01*
X236240916Y-59106663D01*
X236188574Y-59118049D01*
X235594007Y-59118049D01*
X235594007Y-60292971D01*
X235574005Y-60361092D01*
X235521257Y-60407166D01*
X235418351Y-60455151D01*
X235418346Y-60455154D01*
X235413364Y-60457477D01*
X235338658Y-60509787D01*
X235300655Y-60536397D01*
X235228384Y-60559184D01*
X234873439Y-60559184D01*
X234873439Y-61037168D01*
X234861634Y-61090417D01*
X234835829Y-61145757D01*
X234776570Y-61366913D01*
X234756615Y-61595000D01*
X234776570Y-61823087D01*
X234777994Y-61828403D01*
X234777996Y-61828412D01*
X234781559Y-61841711D01*
X234779868Y-61912687D01*
X234740073Y-61971482D01*
X234674808Y-61999428D01*
X234659852Y-62000319D01*
X234152872Y-62000319D01*
X234152872Y-62537257D01*
X234132870Y-62605378D01*
X234115967Y-62626352D01*
X234058338Y-62683981D01*
X233996026Y-62718007D01*
X233969243Y-62720886D01*
X233432305Y-62720886D01*
X233432305Y-63257824D01*
X233412303Y-63325945D01*
X233395400Y-63346919D01*
X233337770Y-63404549D01*
X233275458Y-63438575D01*
X233248675Y-63441454D01*
X232117170Y-63441454D01*
X232049049Y-63421452D01*
X232002556Y-63367796D01*
X231991170Y-63315454D01*
X231991170Y-62720886D01*
X231396602Y-62720886D01*
X231328481Y-62700884D01*
X231281988Y-62647228D01*
X231270602Y-62594886D01*
X231270602Y-62000319D01*
X230676035Y-62000319D01*
X230607914Y-61980317D01*
X230561421Y-61926661D01*
X230550035Y-61874319D01*
X230550035Y-61279751D01*
X229955468Y-61279751D01*
X229887347Y-61259749D01*
X229840854Y-61206093D01*
X229829468Y-61153751D01*
X229829468Y-59838617D01*
X229234900Y-59838617D01*
X229166779Y-59818615D01*
X229120286Y-59764959D01*
X229108900Y-59712617D01*
X229108900Y-58523482D01*
X229128902Y-58455361D01*
X229182558Y-58408868D01*
X229234900Y-58397482D01*
X229829468Y-58397482D01*
X229829468Y-57082347D01*
X229849470Y-57014226D01*
X229903126Y-56967733D01*
X229955468Y-56956347D01*
X230550035Y-56956347D01*
X230550035Y-55641212D01*
X230570037Y-55573091D01*
X230623693Y-55526598D01*
X230676035Y-55515212D01*
X231270602Y-55515212D01*
X231270602Y-53479510D01*
X231290604Y-53411389D01*
X231317543Y-53388046D01*
X240317628Y-53388046D01*
X240347354Y-53584598D01*
X240415995Y-53771158D01*
X240419353Y-53776574D01*
X240419355Y-53776578D01*
X240517384Y-53934683D01*
X240517387Y-53934687D01*
X240520747Y-53940106D01*
X240525133Y-53944744D01*
X240649142Y-54075879D01*
X240657331Y-54084539D01*
X240820168Y-54198559D01*
X241002605Y-54277507D01*
X241197191Y-54318158D01*
X241203717Y-54318500D01*
X241349676Y-54318500D01*
X241458036Y-54307493D01*
X241491420Y-54304102D01*
X241491421Y-54304102D01*
X241497769Y-54303457D01*
X241687460Y-54244012D01*
X241861323Y-54147638D01*
X242012256Y-54018273D01*
X242069291Y-53944744D01*
X242130182Y-53866244D01*
X242130184Y-53866241D01*
X242134094Y-53861200D01*
X242165574Y-53797226D01*
X242192947Y-53741596D01*
X242240970Y-53689305D01*
X242309639Y-53671279D01*
X242377154Y-53693239D01*
X242422078Y-53748215D01*
X242432001Y-53797226D01*
X242432001Y-54284669D01*
X242432371Y-54291490D01*
X242437895Y-54342352D01*
X242441521Y-54357604D01*
X242486676Y-54478054D01*
X242495214Y-54493649D01*
X242571715Y-54595724D01*
X242584276Y-54608285D01*
X242686351Y-54684786D01*
X242701946Y-54693324D01*
X242822394Y-54738478D01*
X242837649Y-54742105D01*
X242888514Y-54747631D01*
X242895328Y-54748000D01*
X244070385Y-54748000D01*
X244085624Y-54743525D01*
X244086829Y-54742135D01*
X244088500Y-54734452D01*
X244088500Y-53067885D01*
X244596500Y-53067885D01*
X244600975Y-53083124D01*
X244602365Y-53084329D01*
X244610048Y-53086000D01*
X246234884Y-53086000D01*
X246250123Y-53081525D01*
X246251328Y-53080135D01*
X246252999Y-53072452D01*
X246252999Y-52395331D01*
X246252629Y-52388510D01*
X246247105Y-52337648D01*
X246243479Y-52322396D01*
X246198324Y-52201946D01*
X246189786Y-52186351D01*
X246113285Y-52084276D01*
X246100724Y-52071715D01*
X245998649Y-51995214D01*
X245983054Y-51986676D01*
X245862606Y-51941522D01*
X245847351Y-51937895D01*
X245796486Y-51932369D01*
X245789672Y-51932000D01*
X244614615Y-51932000D01*
X244599376Y-51936475D01*
X244598171Y-51937865D01*
X244596500Y-51945548D01*
X244596500Y-53067885D01*
X244088500Y-53067885D01*
X244088500Y-51950116D01*
X244084025Y-51934877D01*
X244082635Y-51933672D01*
X244074952Y-51932001D01*
X242895331Y-51932001D01*
X242888510Y-51932371D01*
X242837648Y-51937895D01*
X242822396Y-51941521D01*
X242701946Y-51986676D01*
X242686351Y-51995214D01*
X242584276Y-52071715D01*
X242571715Y-52084276D01*
X242495214Y-52186351D01*
X242486676Y-52201946D01*
X242441522Y-52322394D01*
X242437895Y-52337649D01*
X242432369Y-52388514D01*
X242432000Y-52395328D01*
X242432000Y-52875513D01*
X242411998Y-52943634D01*
X242358342Y-52990127D01*
X242288068Y-53000231D01*
X242223488Y-52970737D01*
X242187749Y-52919019D01*
X242186206Y-52914825D01*
X242184005Y-52908842D01*
X242180647Y-52903426D01*
X242180645Y-52903422D01*
X242082616Y-52745317D01*
X242082613Y-52745313D01*
X242079253Y-52739894D01*
X241942669Y-52595461D01*
X241779832Y-52481441D01*
X241597395Y-52402493D01*
X241402809Y-52361842D01*
X241397967Y-52361588D01*
X241397962Y-52361588D01*
X241396283Y-52361500D01*
X241250324Y-52361500D01*
X241176826Y-52368966D01*
X241108580Y-52375898D01*
X241108579Y-52375898D01*
X241102231Y-52376543D01*
X240912540Y-52435988D01*
X240738677Y-52532362D01*
X240587744Y-52661727D01*
X240583837Y-52666764D01*
X240583835Y-52666766D01*
X240469818Y-52813756D01*
X240469816Y-52813759D01*
X240465906Y-52818800D01*
X240463088Y-52824526D01*
X240463086Y-52824530D01*
X240416592Y-52919019D01*
X240378140Y-52997163D01*
X240328032Y-53189531D01*
X240327698Y-53195911D01*
X240320035Y-53342124D01*
X240317628Y-53388046D01*
X231317543Y-53388046D01*
X231344260Y-53364896D01*
X231396602Y-53353510D01*
X231991170Y-53353510D01*
X231991170Y-52038376D01*
X232011172Y-51970255D01*
X232064828Y-51923762D01*
X232117170Y-51912376D01*
X232711737Y-51912376D01*
X232711737Y-51191808D01*
X239196844Y-51191808D01*
X239917411Y-51191808D01*
X239917411Y-49030106D01*
X239196844Y-49030106D01*
X239196844Y-51191808D01*
X232711737Y-51191808D01*
X232711737Y-49876673D01*
X232731739Y-49808552D01*
X232785395Y-49762059D01*
X232837737Y-49750673D01*
X233432305Y-49750673D01*
X233432305Y-47714971D01*
X233452307Y-47646850D01*
X233505963Y-47600357D01*
X233558305Y-47588971D01*
X234152872Y-47588971D01*
X234152872Y-46273837D01*
X234172874Y-46205716D01*
X234226530Y-46159223D01*
X234278872Y-46147837D01*
X234873439Y-46147837D01*
X234873439Y-44706702D01*
X234152872Y-44706702D01*
X234152872Y-45301269D01*
X234132870Y-45369390D01*
X234079214Y-45415883D01*
X234026872Y-45427269D01*
X229869000Y-45427269D01*
X229800879Y-45407267D01*
X229754386Y-45353611D01*
X229743000Y-45301269D01*
X229743000Y-44722115D01*
X229738525Y-44706876D01*
X229737135Y-44705671D01*
X229729452Y-44704000D01*
X228104615Y-44704000D01*
X228089376Y-44708475D01*
X228088171Y-44709865D01*
X228086500Y-44717548D01*
X228086500Y-45839884D01*
X228090975Y-45855123D01*
X228092365Y-45856328D01*
X228100048Y-45857999D01*
X228982900Y-45857999D01*
X229051021Y-45878001D01*
X229097514Y-45931657D01*
X229108900Y-45983999D01*
X229108900Y-46742404D01*
X229088898Y-46810525D01*
X229035242Y-46857018D01*
X228982900Y-46868404D01*
X228388333Y-46868404D01*
X228388333Y-50345241D01*
X228368331Y-50413362D01*
X228314675Y-50459855D01*
X228262333Y-50471241D01*
X227667766Y-50471241D01*
X227667766Y-56830347D01*
X227647764Y-56898468D01*
X227594108Y-56944961D01*
X227541766Y-56956347D01*
X226947198Y-56956347D01*
X226947198Y-60433184D01*
X226927196Y-60501305D01*
X226873540Y-60547798D01*
X226821198Y-60559184D01*
X226226631Y-60559184D01*
X226226631Y-63315454D01*
X226206629Y-63383575D01*
X226152973Y-63430068D01*
X226100631Y-63441454D01*
X225506063Y-63441454D01*
X225506063Y-66197723D01*
X225486061Y-66265844D01*
X225432405Y-66312337D01*
X225380063Y-66323723D01*
X223470361Y-66323723D01*
X223402240Y-66303721D01*
X223355747Y-66250065D01*
X223344361Y-66197723D01*
X223344361Y-65603156D01*
X222749794Y-65603156D01*
X222681673Y-65583154D01*
X222635180Y-65529498D01*
X222623794Y-65477156D01*
X222623794Y-64882588D01*
X222097906Y-64882588D01*
X222029785Y-64862586D01*
X221983292Y-64808930D01*
X221971906Y-64756588D01*
X221971906Y-64412923D01*
X221972984Y-64396477D01*
X221975782Y-64375223D01*
X221976860Y-64367035D01*
X221957128Y-64217153D01*
X221912819Y-64110183D01*
X221903227Y-64061965D01*
X221903227Y-63441454D01*
X221319464Y-63441454D01*
X221251343Y-63421452D01*
X221219500Y-63392156D01*
X221208695Y-63378074D01*
X221183096Y-63311853D01*
X221182659Y-63301372D01*
X221182659Y-55641212D01*
X221202661Y-55573091D01*
X221256317Y-55526598D01*
X221308659Y-55515212D01*
X221903227Y-55515212D01*
X221903227Y-51317808D01*
X221923229Y-51249687D01*
X221976885Y-51203194D01*
X222029227Y-51191808D01*
X222623794Y-51191808D01*
X222623794Y-46994404D01*
X222643796Y-46926283D01*
X222697452Y-46879790D01*
X222749794Y-46868404D01*
X223344361Y-46868404D01*
X223344361Y-46147837D01*
X220462092Y-46147837D01*
X220462092Y-46742404D01*
X220442090Y-46810525D01*
X220388434Y-46857018D01*
X220336092Y-46868404D01*
X219020957Y-46868404D01*
X219020957Y-51786376D01*
X219000955Y-51854497D01*
X218947299Y-51900990D01*
X218894957Y-51912376D01*
X218300390Y-51912376D01*
X218300390Y-57004498D01*
X218280388Y-57072619D01*
X218226732Y-57119112D01*
X218156458Y-57129216D01*
X218098826Y-57105325D01*
X218058648Y-57075214D01*
X218043054Y-57066676D01*
X217922606Y-57021522D01*
X217907351Y-57017895D01*
X217856486Y-57012369D01*
X217849672Y-57012000D01*
X216674615Y-57012000D01*
X216659376Y-57016475D01*
X216658171Y-57017865D01*
X216656500Y-57025548D01*
X216656500Y-59809884D01*
X216660975Y-59825123D01*
X216662365Y-59826328D01*
X216670048Y-59827999D01*
X217453822Y-59827999D01*
X217521943Y-59848001D01*
X217568436Y-59901657D01*
X217579822Y-59953999D01*
X217579822Y-63315454D01*
X217559820Y-63383575D01*
X217506164Y-63430068D01*
X217453822Y-63441454D01*
X216859255Y-63441454D01*
X216859255Y-64036021D01*
X216839253Y-64104142D01*
X216785597Y-64150635D01*
X216733255Y-64162021D01*
X216138688Y-64162021D01*
X216138688Y-64756588D01*
X216118686Y-64824709D01*
X216065030Y-64871202D01*
X216012688Y-64882588D01*
X214102985Y-64882588D01*
X214034864Y-64862586D01*
X213988371Y-64808930D01*
X213976985Y-64756588D01*
X213976985Y-64162021D01*
X213382418Y-64162021D01*
X213314297Y-64142019D01*
X213267804Y-64088363D01*
X213256418Y-64036021D01*
X213256418Y-63441454D01*
X212661851Y-63441454D01*
X212593730Y-63421452D01*
X212547237Y-63367796D01*
X212535851Y-63315454D01*
X212535851Y-61279751D01*
X211815283Y-61279751D01*
X211815283Y-61874319D01*
X211795281Y-61942440D01*
X211741625Y-61988933D01*
X211689283Y-62000319D01*
X210374149Y-62000319D01*
X210374149Y-62594886D01*
X210354147Y-62663007D01*
X210300491Y-62709500D01*
X210248149Y-62720886D01*
X206176744Y-62720886D01*
X206108623Y-62700884D01*
X206062130Y-62647228D01*
X206050744Y-62594886D01*
X206050744Y-62000319D01*
X204735610Y-62000319D01*
X204667489Y-61980317D01*
X204620996Y-61926661D01*
X204609610Y-61874319D01*
X204609610Y-61279751D01*
X204015042Y-61279751D01*
X203946921Y-61259749D01*
X203900428Y-61206093D01*
X203889042Y-61153751D01*
X203889042Y-60559184D01*
X203294475Y-60559184D01*
X203226354Y-60539182D01*
X203179861Y-60485526D01*
X203168475Y-60433184D01*
X203168475Y-59838617D01*
X202573907Y-59838617D01*
X202505786Y-59818615D01*
X202459293Y-59764959D01*
X202447907Y-59712617D01*
X202447907Y-58468046D01*
X212377628Y-58468046D01*
X212407354Y-58664598D01*
X212475995Y-58851158D01*
X212479353Y-58856574D01*
X212479355Y-58856578D01*
X212577384Y-59014683D01*
X212577387Y-59014687D01*
X212580747Y-59020106D01*
X212585133Y-59024744D01*
X212642357Y-59085256D01*
X212717331Y-59164539D01*
X212722561Y-59168201D01*
X212722562Y-59168202D01*
X212756131Y-59191707D01*
X212880168Y-59278559D01*
X213062605Y-59357507D01*
X213257191Y-59398158D01*
X213263717Y-59398500D01*
X213409676Y-59398500D01*
X213483174Y-59391034D01*
X213551420Y-59384102D01*
X213551421Y-59384102D01*
X213557769Y-59383457D01*
X213747460Y-59324012D01*
X213921323Y-59227638D01*
X214072256Y-59098273D01*
X214076165Y-59093234D01*
X214190182Y-58946244D01*
X214190184Y-58946241D01*
X214194094Y-58941200D01*
X214225574Y-58877226D01*
X214252947Y-58821596D01*
X214300970Y-58769305D01*
X214369639Y-58751279D01*
X214437154Y-58773239D01*
X214482078Y-58828215D01*
X214492001Y-58877226D01*
X214492001Y-59364669D01*
X214492371Y-59371490D01*
X214497895Y-59422352D01*
X214501521Y-59437604D01*
X214546676Y-59558054D01*
X214555214Y-59573649D01*
X214631715Y-59675724D01*
X214644276Y-59688285D01*
X214746351Y-59764786D01*
X214761946Y-59773324D01*
X214882394Y-59818478D01*
X214897649Y-59822105D01*
X214948514Y-59827631D01*
X214955328Y-59828000D01*
X216130385Y-59828000D01*
X216145624Y-59823525D01*
X216146829Y-59822135D01*
X216148500Y-59814452D01*
X216148500Y-57030116D01*
X216144025Y-57014877D01*
X216142635Y-57013672D01*
X216134952Y-57012001D01*
X214955331Y-57012001D01*
X214948510Y-57012371D01*
X214897648Y-57017895D01*
X214882396Y-57021521D01*
X214761946Y-57066676D01*
X214746351Y-57075214D01*
X214644276Y-57151715D01*
X214631715Y-57164276D01*
X214555214Y-57266351D01*
X214546676Y-57281946D01*
X214501522Y-57402394D01*
X214497895Y-57417649D01*
X214492369Y-57468514D01*
X214492000Y-57475328D01*
X214492000Y-57955513D01*
X214471998Y-58023634D01*
X214418342Y-58070127D01*
X214348068Y-58080231D01*
X214283488Y-58050737D01*
X214247749Y-57999019D01*
X214246206Y-57994825D01*
X214244005Y-57988842D01*
X214240647Y-57983426D01*
X214240645Y-57983422D01*
X214142616Y-57825317D01*
X214142613Y-57825313D01*
X214139253Y-57819894D01*
X214112032Y-57791109D01*
X214007058Y-57680102D01*
X214007057Y-57680101D01*
X214002669Y-57675461D01*
X213988401Y-57665470D01*
X213918490Y-57616518D01*
X213839832Y-57561441D01*
X213657395Y-57482493D01*
X213462809Y-57441842D01*
X213457967Y-57441588D01*
X213457962Y-57441588D01*
X213456283Y-57441500D01*
X213310324Y-57441500D01*
X213236826Y-57448966D01*
X213168580Y-57455898D01*
X213168579Y-57455898D01*
X213162231Y-57456543D01*
X212972540Y-57515988D01*
X212798677Y-57612362D01*
X212647744Y-57741727D01*
X212643837Y-57746764D01*
X212643835Y-57746766D01*
X212529818Y-57893756D01*
X212529816Y-57893759D01*
X212525906Y-57898800D01*
X212523088Y-57904526D01*
X212523086Y-57904530D01*
X212470650Y-58011094D01*
X212438140Y-58077163D01*
X212388032Y-58269531D01*
X212387698Y-58275911D01*
X212378293Y-58455361D01*
X212377628Y-58468046D01*
X202447907Y-58468046D01*
X202447907Y-58397482D01*
X201853340Y-58397482D01*
X201785219Y-58377480D01*
X201738726Y-58323824D01*
X201727340Y-58271482D01*
X201727340Y-54920645D01*
X201747342Y-54852524D01*
X201800998Y-54806031D01*
X201853340Y-54794645D01*
X202447907Y-54794645D01*
X202447907Y-48435539D01*
X202467909Y-48367418D01*
X202521565Y-48320925D01*
X202573907Y-48309539D01*
X203168475Y-48309539D01*
X203168475Y-45427269D01*
X199565638Y-45427269D01*
X199565638Y-46742404D01*
X199545636Y-46810525D01*
X199491980Y-46857018D01*
X199439638Y-46868404D01*
X198845071Y-46868404D01*
X198845071Y-50345241D01*
X198825069Y-50413362D01*
X198771413Y-50459855D01*
X198719071Y-50471241D01*
X198124503Y-50471241D01*
X198124503Y-53948078D01*
X198104501Y-54016199D01*
X198050845Y-54062692D01*
X197998503Y-54074078D01*
X197403936Y-54074078D01*
X197403936Y-61153751D01*
X197383934Y-61221872D01*
X197330278Y-61268365D01*
X197277936Y-61279751D01*
X196683368Y-61279751D01*
X196683368Y-64036021D01*
X196663366Y-64104142D01*
X196609710Y-64150635D01*
X196557368Y-64162021D01*
X195962801Y-64162021D01*
X195962801Y-64756588D01*
X195942799Y-64824709D01*
X195889143Y-64871202D01*
X195836801Y-64882588D01*
X195242234Y-64882588D01*
X195242234Y-65477156D01*
X195222232Y-65545277D01*
X195168576Y-65591770D01*
X195116234Y-65603156D01*
X193206532Y-65603156D01*
X193138411Y-65583154D01*
X193091918Y-65529498D01*
X193080532Y-65477156D01*
X193080532Y-64882588D01*
X192485964Y-64882588D01*
X192417843Y-64862586D01*
X192371350Y-64808930D01*
X192359964Y-64756588D01*
X192359964Y-63441454D01*
X191765397Y-63441454D01*
X191697276Y-63421452D01*
X191650783Y-63367796D01*
X191639397Y-63315454D01*
X191639397Y-55641212D01*
X191659399Y-55573091D01*
X191713055Y-55526598D01*
X191765397Y-55515212D01*
X192359964Y-55515212D01*
X192359964Y-51317808D01*
X192379966Y-51249687D01*
X192433622Y-51203194D01*
X192485964Y-51191808D01*
X193080532Y-51191808D01*
X193080532Y-46994404D01*
X193100534Y-46926283D01*
X193154190Y-46879790D01*
X193206532Y-46868404D01*
X193801099Y-46868404D01*
X193801099Y-46147837D01*
X188757127Y-46147837D01*
X188757127Y-53227510D01*
X188737125Y-53295631D01*
X188683469Y-53342124D01*
X188631127Y-53353510D01*
X188036560Y-53353510D01*
X188036560Y-59712617D01*
X188016558Y-59780738D01*
X187962902Y-59827231D01*
X187910560Y-59838617D01*
X187315993Y-59838617D01*
X187315993Y-64036021D01*
X187295991Y-64104142D01*
X187242335Y-64150635D01*
X187189993Y-64162021D01*
X186595425Y-64162021D01*
X186595425Y-64756588D01*
X186575423Y-64824709D01*
X186521767Y-64871202D01*
X186469425Y-64882588D01*
X184559723Y-64882588D01*
X184491602Y-64862586D01*
X184445109Y-64808930D01*
X184433723Y-64756588D01*
X184433723Y-64162021D01*
X183839156Y-64162021D01*
X183771035Y-64142019D01*
X183724542Y-64088363D01*
X183713156Y-64036021D01*
X183713156Y-63441454D01*
X183118588Y-63441454D01*
X183050467Y-63421452D01*
X183003974Y-63367796D01*
X182992588Y-63315454D01*
X182992588Y-61279751D01*
X182272021Y-61279751D01*
X182272021Y-61874319D01*
X182252019Y-61942440D01*
X182198363Y-61988933D01*
X182146021Y-62000319D01*
X180830886Y-62000319D01*
X180830886Y-62252273D01*
X180810884Y-62320394D01*
X180757228Y-62366887D01*
X180737497Y-62373980D01*
X180531067Y-62429293D01*
X180531065Y-62429294D01*
X180525757Y-62430716D01*
X180520776Y-62433039D01*
X180520775Y-62433039D01*
X180323238Y-62525151D01*
X180323233Y-62525154D01*
X180318251Y-62527477D01*
X180213389Y-62600902D01*
X180135211Y-62655643D01*
X180135208Y-62655645D01*
X180130700Y-62658802D01*
X180105521Y-62683981D01*
X180043209Y-62718007D01*
X180016426Y-62720886D01*
X179389751Y-62720886D01*
X179389751Y-63315454D01*
X179369749Y-63383575D01*
X179316093Y-63430068D01*
X179263751Y-63441454D01*
X177354049Y-63441454D01*
X177285928Y-63421452D01*
X177239435Y-63367796D01*
X177228049Y-63315454D01*
X177228049Y-62720886D01*
X175912915Y-62720886D01*
X175844794Y-62700884D01*
X175798301Y-62647228D01*
X175786915Y-62594886D01*
X175786915Y-62000319D01*
X175192347Y-62000319D01*
X175124226Y-61980317D01*
X175077733Y-61926661D01*
X175066347Y-61874319D01*
X175066347Y-61279751D01*
X174345780Y-61279751D01*
X174345780Y-62000319D01*
X174940347Y-62000319D01*
X175008468Y-62020321D01*
X175054961Y-62073977D01*
X175066347Y-62126319D01*
X175066347Y-62720886D01*
X175660915Y-62720886D01*
X175729036Y-62740888D01*
X175775529Y-62794544D01*
X175786915Y-62846886D01*
X175786915Y-64036021D01*
X175766913Y-64104142D01*
X175713257Y-64150635D01*
X175660915Y-64162021D01*
X175066347Y-64162021D01*
X175066347Y-65477156D01*
X175046345Y-65545277D01*
X174992689Y-65591770D01*
X174940347Y-65603156D01*
X173030645Y-65603156D01*
X172962524Y-65583154D01*
X172916031Y-65529498D01*
X172904645Y-65477156D01*
X172904645Y-64882588D01*
X172310078Y-64882588D01*
X172241957Y-64862586D01*
X172195464Y-64808930D01*
X172184078Y-64756588D01*
X172184078Y-64162021D01*
X170868943Y-64162021D01*
X170800822Y-64142019D01*
X170754329Y-64088363D01*
X170742943Y-64036021D01*
X170742943Y-63441454D01*
X170148376Y-63441454D01*
X170080255Y-63421452D01*
X170033762Y-63367796D01*
X170022376Y-63315454D01*
X170022376Y-62720886D01*
X169427808Y-62720886D01*
X169359687Y-62700884D01*
X169313194Y-62647228D01*
X169301808Y-62594886D01*
X169301808Y-62000319D01*
X168707241Y-62000319D01*
X168639120Y-61980317D01*
X168592627Y-61926661D01*
X168581241Y-61874319D01*
X168581241Y-61279751D01*
X167986673Y-61279751D01*
X167918552Y-61259749D01*
X167872059Y-61206093D01*
X167860673Y-61153751D01*
X167860673Y-60559184D01*
X167266106Y-60559184D01*
X167197985Y-60539182D01*
X167151492Y-60485526D01*
X167140106Y-60433184D01*
X167140106Y-59838617D01*
X166545539Y-59838617D01*
X166477418Y-59818615D01*
X166430925Y-59764959D01*
X166419539Y-59712617D01*
X166419539Y-59118049D01*
X165824971Y-59118049D01*
X165756850Y-59098047D01*
X165710357Y-59044391D01*
X165698971Y-58992049D01*
X165698971Y-58397482D01*
X165104404Y-58397482D01*
X165036283Y-58377480D01*
X164989790Y-58323824D01*
X164978404Y-58271482D01*
X164978404Y-56956347D01*
X164257837Y-56956347D01*
X164257837Y-57550915D01*
X164237835Y-57619036D01*
X164184179Y-57665529D01*
X164131837Y-57676915D01*
X163537269Y-57676915D01*
X163537269Y-62594886D01*
X163517267Y-62663007D01*
X163463611Y-62709500D01*
X163411269Y-62720886D01*
X161501567Y-62720886D01*
X161433446Y-62700884D01*
X161386953Y-62647228D01*
X161375567Y-62594886D01*
X161375567Y-62000319D01*
X160060432Y-62000319D01*
X159992311Y-61980317D01*
X159945818Y-61926661D01*
X159934432Y-61874319D01*
X159934432Y-61279751D01*
X159339865Y-61279751D01*
X159271744Y-61259749D01*
X159225251Y-61206093D01*
X159213865Y-61153751D01*
X159213865Y-60559184D01*
X158619298Y-60559184D01*
X158551177Y-60539182D01*
X158504684Y-60485526D01*
X158493298Y-60433184D01*
X158493298Y-57802915D01*
X158513300Y-57734794D01*
X158566956Y-57688301D01*
X158619298Y-57676915D01*
X159213865Y-57676915D01*
X159213865Y-55293046D01*
X160942628Y-55293046D01*
X160972354Y-55489598D01*
X161040995Y-55676158D01*
X161044353Y-55681574D01*
X161044355Y-55681578D01*
X161142384Y-55839683D01*
X161142387Y-55839687D01*
X161145747Y-55845106D01*
X161282331Y-55989539D01*
X161287561Y-55993201D01*
X161287562Y-55993202D01*
X161299416Y-56001502D01*
X161445168Y-56103559D01*
X161627605Y-56182507D01*
X161822191Y-56223158D01*
X161828717Y-56223500D01*
X161974676Y-56223500D01*
X162083036Y-56212493D01*
X162116420Y-56209102D01*
X162116421Y-56209102D01*
X162122769Y-56208457D01*
X162312460Y-56149012D01*
X162486323Y-56052638D01*
X162637256Y-55923273D01*
X162641165Y-55918234D01*
X162755182Y-55771244D01*
X162755184Y-55771241D01*
X162759094Y-55766200D01*
X162800734Y-55681578D01*
X162844041Y-55593566D01*
X162846860Y-55587837D01*
X162896968Y-55395469D01*
X162902336Y-55293046D01*
X163482628Y-55293046D01*
X163512354Y-55489598D01*
X163580995Y-55676158D01*
X163584353Y-55681574D01*
X163584355Y-55681578D01*
X163682384Y-55839683D01*
X163682387Y-55839687D01*
X163685747Y-55845106D01*
X163822331Y-55989539D01*
X163827561Y-55993201D01*
X163827562Y-55993202D01*
X163839416Y-56001502D01*
X163985168Y-56103559D01*
X164167605Y-56182507D01*
X164362191Y-56223158D01*
X164368717Y-56223500D01*
X164514676Y-56223500D01*
X164623036Y-56212493D01*
X164656420Y-56209102D01*
X164656421Y-56209102D01*
X164662769Y-56208457D01*
X164852460Y-56149012D01*
X165026323Y-56052638D01*
X165177256Y-55923273D01*
X165181165Y-55918234D01*
X165295182Y-55771244D01*
X165295184Y-55771241D01*
X165299094Y-55766200D01*
X165340734Y-55681578D01*
X165384041Y-55593566D01*
X165386860Y-55587837D01*
X165436968Y-55395469D01*
X165447372Y-55196954D01*
X165417646Y-55000402D01*
X165349005Y-54813842D01*
X165345647Y-54808426D01*
X165345645Y-54808422D01*
X165247616Y-54650317D01*
X165247613Y-54650313D01*
X165244253Y-54644894D01*
X165166408Y-54562575D01*
X165112058Y-54505102D01*
X165112057Y-54505101D01*
X165107669Y-54500461D01*
X165097941Y-54493649D01*
X165023490Y-54441518D01*
X164944832Y-54386441D01*
X164762395Y-54307493D01*
X164567809Y-54266842D01*
X164562967Y-54266588D01*
X164562962Y-54266588D01*
X164561283Y-54266500D01*
X164415324Y-54266500D01*
X164341826Y-54273966D01*
X164273580Y-54280898D01*
X164273579Y-54280898D01*
X164267231Y-54281543D01*
X164077540Y-54340988D01*
X163903677Y-54437362D01*
X163752744Y-54566727D01*
X163748837Y-54571764D01*
X163748835Y-54571766D01*
X163634818Y-54718756D01*
X163634816Y-54718759D01*
X163630906Y-54723800D01*
X163628088Y-54729526D01*
X163628086Y-54729530D01*
X163562468Y-54862883D01*
X163543140Y-54902163D01*
X163493032Y-55094531D01*
X163482628Y-55293046D01*
X162902336Y-55293046D01*
X162907372Y-55196954D01*
X162877646Y-55000402D01*
X162809005Y-54813842D01*
X162805647Y-54808426D01*
X162805645Y-54808422D01*
X162707616Y-54650317D01*
X162707613Y-54650313D01*
X162704253Y-54644894D01*
X162626408Y-54562575D01*
X162572058Y-54505102D01*
X162572057Y-54505101D01*
X162567669Y-54500461D01*
X162557941Y-54493649D01*
X162483490Y-54441518D01*
X162404832Y-54386441D01*
X162222395Y-54307493D01*
X162027809Y-54266842D01*
X162022967Y-54266588D01*
X162022962Y-54266588D01*
X162021283Y-54266500D01*
X161875324Y-54266500D01*
X161801826Y-54273966D01*
X161733580Y-54280898D01*
X161733579Y-54280898D01*
X161727231Y-54281543D01*
X161537540Y-54340988D01*
X161363677Y-54437362D01*
X161212744Y-54566727D01*
X161208837Y-54571764D01*
X161208835Y-54571766D01*
X161094818Y-54718756D01*
X161094816Y-54718759D01*
X161090906Y-54723800D01*
X161088088Y-54729526D01*
X161088086Y-54729530D01*
X161022468Y-54862883D01*
X161003140Y-54902163D01*
X160953032Y-55094531D01*
X160942628Y-55293046D01*
X159213865Y-55293046D01*
X159213865Y-52758943D01*
X159233867Y-52690822D01*
X159287523Y-52644329D01*
X159339865Y-52632943D01*
X159934432Y-52632943D01*
X159934432Y-49876673D01*
X159954434Y-49808552D01*
X160008090Y-49762059D01*
X160060432Y-49750673D01*
X160655000Y-49750673D01*
X160655000Y-49030106D01*
X164978404Y-49030106D01*
X165698971Y-49030106D01*
X165698971Y-48435539D01*
X165718973Y-48367418D01*
X165772629Y-48320925D01*
X165824971Y-48309539D01*
X167140106Y-48309539D01*
X167140106Y-47714971D01*
X167160108Y-47646850D01*
X167213764Y-47600357D01*
X167266106Y-47588971D01*
X167860673Y-47588971D01*
X167860673Y-46994404D01*
X167880675Y-46926283D01*
X167934331Y-46879790D01*
X167986673Y-46868404D01*
X168581241Y-46868404D01*
X168581241Y-45427269D01*
X165698971Y-45427269D01*
X165698971Y-46742404D01*
X165678969Y-46810525D01*
X165625313Y-46857018D01*
X165572971Y-46868404D01*
X164978404Y-46868404D01*
X164978404Y-49030106D01*
X160655000Y-49030106D01*
X160655000Y-47714971D01*
X160675002Y-47646850D01*
X160728658Y-47600357D01*
X160781000Y-47588971D01*
X161375567Y-47588971D01*
X161375567Y-46147837D01*
X160060432Y-46147837D01*
X159992311Y-46127835D01*
X159945818Y-46074179D01*
X159934432Y-46021837D01*
X159934432Y-44706702D01*
X159339865Y-44706702D01*
X159271744Y-44686700D01*
X159225251Y-44633044D01*
X159213865Y-44580702D01*
X159213865Y-42671000D01*
X159233867Y-42602879D01*
X159287523Y-42556386D01*
X159339865Y-42545000D01*
X160655000Y-42545000D01*
X160655000Y-41950432D01*
X160675002Y-41882311D01*
X160728658Y-41835818D01*
X160781000Y-41824432D01*
X163537269Y-41824432D01*
X163537269Y-41229865D01*
X163557271Y-41161744D01*
X163610927Y-41115251D01*
X163663269Y-41103865D01*
X169175808Y-41103865D01*
X169243929Y-41123867D01*
X169290422Y-41177523D01*
X169301808Y-41229865D01*
X169301808Y-41824432D01*
X170616943Y-41824432D01*
X170685064Y-41844434D01*
X170731557Y-41898090D01*
X170742943Y-41950432D01*
X170742943Y-42545000D01*
X171337510Y-42545000D01*
X171405631Y-42565002D01*
X171452124Y-42618658D01*
X171463510Y-42671000D01*
X171463510Y-43265567D01*
X172058078Y-43265567D01*
X172126199Y-43285569D01*
X172172692Y-43339225D01*
X172184078Y-43391567D01*
X172184078Y-43986134D01*
X172778645Y-43986134D01*
X172846766Y-44006136D01*
X172893259Y-44059792D01*
X172904645Y-44112134D01*
X172904645Y-48183539D01*
X172884643Y-48251660D01*
X172830987Y-48298153D01*
X172778645Y-48309539D01*
X172184078Y-48309539D01*
X172184078Y-48904106D01*
X172164076Y-48972227D01*
X172110420Y-49018720D01*
X172058078Y-49030106D01*
X171463510Y-49030106D01*
X171463510Y-50345241D01*
X171443508Y-50413362D01*
X171389852Y-50459855D01*
X171337510Y-50471241D01*
X170742943Y-50471241D01*
X170742943Y-51065808D01*
X170722941Y-51133929D01*
X170669285Y-51180422D01*
X170616943Y-51191808D01*
X170022376Y-51191808D01*
X170022376Y-51786376D01*
X170002374Y-51854497D01*
X169948718Y-51900990D01*
X169896376Y-51912376D01*
X169301808Y-51912376D01*
X169301808Y-53227510D01*
X169281806Y-53295631D01*
X169228150Y-53342124D01*
X169175808Y-53353510D01*
X168581241Y-53353510D01*
X168581241Y-54074078D01*
X169175808Y-54074078D01*
X169243929Y-54094080D01*
X169290422Y-54147736D01*
X169301808Y-54200078D01*
X169301808Y-54794645D01*
X169896376Y-54794645D01*
X169964497Y-54814647D01*
X170010990Y-54868303D01*
X170022376Y-54920645D01*
X170022376Y-56235780D01*
X170616943Y-56235780D01*
X170685064Y-56255782D01*
X170731557Y-56309438D01*
X170742943Y-56361780D01*
X170742943Y-56956347D01*
X171337510Y-56956347D01*
X171405631Y-56976349D01*
X171452124Y-57030005D01*
X171463510Y-57082347D01*
X171463510Y-57676915D01*
X172058078Y-57676915D01*
X172126199Y-57696917D01*
X172172692Y-57750573D01*
X172184078Y-57802915D01*
X172184078Y-59118049D01*
X172778645Y-59118049D01*
X172846766Y-59138051D01*
X172893259Y-59191707D01*
X172904645Y-59244049D01*
X172904645Y-59838617D01*
X173499212Y-59838617D01*
X173567333Y-59858619D01*
X173613826Y-59912275D01*
X173625212Y-59964617D01*
X173625212Y-60559184D01*
X174345780Y-60559184D01*
X174345780Y-59838617D01*
X173751212Y-59838617D01*
X173683091Y-59818615D01*
X173636598Y-59764959D01*
X173630744Y-59738046D01*
X183167628Y-59738046D01*
X183197354Y-59934598D01*
X183265995Y-60121158D01*
X183269353Y-60126574D01*
X183269355Y-60126578D01*
X183367384Y-60284683D01*
X183367387Y-60284687D01*
X183370747Y-60290106D01*
X183375133Y-60294744D01*
X183501214Y-60428070D01*
X183507331Y-60434539D01*
X183670168Y-60548559D01*
X183852605Y-60627507D01*
X184047191Y-60668158D01*
X184053717Y-60668500D01*
X184199676Y-60668500D01*
X184273174Y-60661034D01*
X184341420Y-60654102D01*
X184341421Y-60654102D01*
X184347769Y-60653457D01*
X184537460Y-60594012D01*
X184711323Y-60497638D01*
X184862256Y-60368273D01*
X184866165Y-60363234D01*
X184980182Y-60216244D01*
X184980184Y-60216241D01*
X184984094Y-60211200D01*
X185025734Y-60126578D01*
X185069041Y-60038566D01*
X185071860Y-60032837D01*
X185121968Y-59840469D01*
X185132372Y-59641954D01*
X185102646Y-59445402D01*
X185034005Y-59258842D01*
X185030647Y-59253426D01*
X185030645Y-59253422D01*
X184932616Y-59095317D01*
X184932613Y-59095313D01*
X184929253Y-59089894D01*
X184886223Y-59044391D01*
X184797058Y-58950102D01*
X184797057Y-58950101D01*
X184792669Y-58945461D01*
X184778401Y-58935470D01*
X184708490Y-58886518D01*
X184629832Y-58831441D01*
X184447395Y-58752493D01*
X184252809Y-58711842D01*
X184247967Y-58711588D01*
X184247962Y-58711588D01*
X184246283Y-58711500D01*
X184100324Y-58711500D01*
X184026826Y-58718966D01*
X183958580Y-58725898D01*
X183958579Y-58725898D01*
X183952231Y-58726543D01*
X183762540Y-58785988D01*
X183588677Y-58882362D01*
X183437744Y-59011727D01*
X183433837Y-59016764D01*
X183433835Y-59016766D01*
X183319818Y-59163756D01*
X183319816Y-59163759D01*
X183315906Y-59168800D01*
X183313088Y-59174526D01*
X183313086Y-59174530D01*
X183260650Y-59281094D01*
X183228140Y-59347163D01*
X183178032Y-59539531D01*
X183176244Y-59573649D01*
X183168961Y-59712617D01*
X183167628Y-59738046D01*
X173630744Y-59738046D01*
X173625212Y-59712617D01*
X173625212Y-59118049D01*
X173030645Y-59118049D01*
X172962524Y-59098047D01*
X172916031Y-59044391D01*
X172904645Y-58992049D01*
X172904645Y-57676915D01*
X172310078Y-57676915D01*
X172241957Y-57656913D01*
X172195464Y-57603257D01*
X172184078Y-57550915D01*
X172184078Y-57198046D01*
X183167628Y-57198046D01*
X183197354Y-57394598D01*
X183265995Y-57581158D01*
X183269353Y-57586574D01*
X183269355Y-57586578D01*
X183367384Y-57744683D01*
X183367387Y-57744687D01*
X183370747Y-57750106D01*
X183375133Y-57754744D01*
X183432357Y-57815256D01*
X183507331Y-57894539D01*
X183512561Y-57898201D01*
X183512562Y-57898202D01*
X183551066Y-57925163D01*
X183670168Y-58008559D01*
X183852605Y-58087507D01*
X184047191Y-58128158D01*
X184053717Y-58128500D01*
X184199676Y-58128500D01*
X184273174Y-58121034D01*
X184341420Y-58114102D01*
X184341421Y-58114102D01*
X184347769Y-58113457D01*
X184537460Y-58054012D01*
X184711323Y-57957638D01*
X184862256Y-57828273D01*
X184866165Y-57823234D01*
X184980182Y-57676244D01*
X184980184Y-57676241D01*
X184984094Y-57671200D01*
X184991125Y-57656913D01*
X185069041Y-57498566D01*
X185071860Y-57492837D01*
X185121968Y-57300469D01*
X185129764Y-57151715D01*
X185132038Y-57108336D01*
X185132038Y-57108331D01*
X185132372Y-57101954D01*
X185102646Y-56905402D01*
X185034005Y-56718842D01*
X185030647Y-56713426D01*
X185030645Y-56713422D01*
X184932616Y-56555317D01*
X184932613Y-56555313D01*
X184929253Y-56549894D01*
X184880083Y-56497898D01*
X184797058Y-56410102D01*
X184797057Y-56410101D01*
X184792669Y-56405461D01*
X184629832Y-56291441D01*
X184447395Y-56212493D01*
X184252809Y-56171842D01*
X184247967Y-56171588D01*
X184247962Y-56171588D01*
X184246283Y-56171500D01*
X184100324Y-56171500D01*
X184041483Y-56177477D01*
X183958580Y-56185898D01*
X183958579Y-56185898D01*
X183952231Y-56186543D01*
X183762540Y-56245988D01*
X183588677Y-56342362D01*
X183437744Y-56471727D01*
X183433837Y-56476764D01*
X183433835Y-56476766D01*
X183319818Y-56623756D01*
X183319816Y-56623759D01*
X183315906Y-56628800D01*
X183313088Y-56634526D01*
X183313086Y-56634530D01*
X183268654Y-56724828D01*
X183228140Y-56807163D01*
X183178032Y-56999531D01*
X183176435Y-57030005D01*
X183171620Y-57121885D01*
X183167628Y-57198046D01*
X172184078Y-57198046D01*
X172184078Y-52038376D01*
X172204080Y-51970255D01*
X172257736Y-51923762D01*
X172310078Y-51912376D01*
X172904645Y-51912376D01*
X172904645Y-48435539D01*
X172924647Y-48367418D01*
X172978303Y-48320925D01*
X173030645Y-48309539D01*
X173625212Y-48309539D01*
X173625212Y-45553269D01*
X173645214Y-45485148D01*
X173698870Y-45438655D01*
X173751212Y-45427269D01*
X174345780Y-45427269D01*
X174345780Y-43391567D01*
X174365782Y-43323446D01*
X174419438Y-43276953D01*
X174471780Y-43265567D01*
X175066347Y-43265567D01*
X175066347Y-42671000D01*
X175086349Y-42602879D01*
X175140005Y-42556386D01*
X175192347Y-42545000D01*
X176507482Y-42545000D01*
X176507482Y-42182220D01*
X176527484Y-42114099D01*
X176556779Y-42082257D01*
X176607313Y-42043482D01*
X176669330Y-41995895D01*
X176723707Y-41925030D01*
X176761359Y-41875960D01*
X176763664Y-41877729D01*
X176804888Y-41838432D01*
X176862611Y-41824432D01*
X178543184Y-41824432D01*
X178611305Y-41844434D01*
X178657798Y-41898090D01*
X178669184Y-41950432D01*
X178669184Y-42545000D01*
X179263751Y-42545000D01*
X179331872Y-42565002D01*
X179378365Y-42618658D01*
X179389751Y-42671000D01*
X179389751Y-46021837D01*
X179369749Y-46089958D01*
X179316093Y-46136451D01*
X179263751Y-46147837D01*
X178669184Y-46147837D01*
X178669184Y-50345241D01*
X178649182Y-50413362D01*
X178595526Y-50459855D01*
X178543184Y-50471241D01*
X177948617Y-50471241D01*
X177948617Y-54668645D01*
X177928615Y-54736766D01*
X177874959Y-54783259D01*
X177822617Y-54794645D01*
X177228049Y-54794645D01*
X177228049Y-56235780D01*
X177822617Y-56235780D01*
X177890738Y-56255782D01*
X177937231Y-56309438D01*
X177948617Y-56361780D01*
X177948617Y-56956347D01*
X179389751Y-56956347D01*
X179389751Y-56361780D01*
X179409753Y-56293659D01*
X179463409Y-56247166D01*
X179515751Y-56235780D01*
X181551454Y-56235780D01*
X181551454Y-55699684D01*
X181571456Y-55631563D01*
X181621928Y-55587478D01*
X181621747Y-55587164D01*
X181623343Y-55586242D01*
X181624207Y-55585488D01*
X181626509Y-55584415D01*
X181636012Y-55578928D01*
X181694465Y-55537999D01*
X181766735Y-55515212D01*
X182272021Y-55515212D01*
X182272021Y-54633104D01*
X182272500Y-54622123D01*
X182282762Y-54504830D01*
X182283000Y-54499365D01*
X182283000Y-54200078D01*
X182303002Y-54131957D01*
X182356658Y-54085464D01*
X182409000Y-54074078D01*
X182992588Y-54074078D01*
X182992588Y-51317808D01*
X183012590Y-51249687D01*
X183066246Y-51203194D01*
X183118588Y-51191808D01*
X183713156Y-51191808D01*
X183713156Y-44498046D01*
X194597628Y-44498046D01*
X194627354Y-44694598D01*
X194695995Y-44881158D01*
X194699353Y-44886574D01*
X194699355Y-44886578D01*
X194797384Y-45044683D01*
X194797387Y-45044687D01*
X194800747Y-45050106D01*
X194937331Y-45194539D01*
X195100168Y-45308559D01*
X195282605Y-45387507D01*
X195477191Y-45428158D01*
X195483717Y-45428500D01*
X195629676Y-45428500D01*
X195753886Y-45415883D01*
X195771420Y-45414102D01*
X195771421Y-45414102D01*
X195777769Y-45413457D01*
X195967460Y-45354012D01*
X196141323Y-45257638D01*
X196292256Y-45128273D01*
X196321718Y-45090291D01*
X196410182Y-44976244D01*
X196410184Y-44976241D01*
X196414094Y-44971200D01*
X196441787Y-44914922D01*
X196499041Y-44798566D01*
X196501860Y-44792837D01*
X196551968Y-44600469D01*
X196557336Y-44498046D01*
X197137628Y-44498046D01*
X197167354Y-44694598D01*
X197235995Y-44881158D01*
X197239353Y-44886574D01*
X197239355Y-44886578D01*
X197337384Y-45044683D01*
X197337387Y-45044687D01*
X197340747Y-45050106D01*
X197477331Y-45194539D01*
X197640168Y-45308559D01*
X197822605Y-45387507D01*
X198017191Y-45428158D01*
X198023717Y-45428500D01*
X198169676Y-45428500D01*
X198293886Y-45415883D01*
X198311420Y-45414102D01*
X198311421Y-45414102D01*
X198317769Y-45413457D01*
X198507460Y-45354012D01*
X198681323Y-45257638D01*
X198832256Y-45128273D01*
X198861718Y-45090291D01*
X198950182Y-44976244D01*
X198950184Y-44976241D01*
X198954094Y-44971200D01*
X198981787Y-44914922D01*
X199039041Y-44798566D01*
X199041860Y-44792837D01*
X199091968Y-44600469D01*
X199097670Y-44491664D01*
X199102038Y-44408336D01*
X199102038Y-44408331D01*
X199102372Y-44401954D01*
X199072646Y-44205402D01*
X199004005Y-44018842D01*
X199000647Y-44013426D01*
X199000645Y-44013422D01*
X198902616Y-43855317D01*
X198902613Y-43855313D01*
X198899253Y-43849894D01*
X198762669Y-43705461D01*
X198599832Y-43591441D01*
X198417395Y-43512493D01*
X198222809Y-43471842D01*
X198217967Y-43471588D01*
X198217962Y-43471588D01*
X198216283Y-43471500D01*
X198070324Y-43471500D01*
X197996826Y-43478966D01*
X197928580Y-43485898D01*
X197928579Y-43485898D01*
X197922231Y-43486543D01*
X197732540Y-43545988D01*
X197558677Y-43642362D01*
X197407744Y-43771727D01*
X197403837Y-43776764D01*
X197403835Y-43776766D01*
X197289818Y-43923756D01*
X197289816Y-43923759D01*
X197285906Y-43928800D01*
X197283088Y-43934526D01*
X197283086Y-43934530D01*
X197216545Y-44069759D01*
X197198140Y-44107163D01*
X197148032Y-44299531D01*
X197146818Y-44322691D01*
X197141620Y-44421885D01*
X197137628Y-44498046D01*
X196557336Y-44498046D01*
X196557670Y-44491664D01*
X196562038Y-44408336D01*
X196562038Y-44408331D01*
X196562372Y-44401954D01*
X196532646Y-44205402D01*
X196464005Y-44018842D01*
X196460647Y-44013426D01*
X196460645Y-44013422D01*
X196362616Y-43855317D01*
X196362613Y-43855313D01*
X196359253Y-43849894D01*
X196222669Y-43705461D01*
X196059832Y-43591441D01*
X195877395Y-43512493D01*
X195682809Y-43471842D01*
X195677967Y-43471588D01*
X195677962Y-43471588D01*
X195676283Y-43471500D01*
X195530324Y-43471500D01*
X195456826Y-43478966D01*
X195388580Y-43485898D01*
X195388579Y-43485898D01*
X195382231Y-43486543D01*
X195192540Y-43545988D01*
X195018677Y-43642362D01*
X194867744Y-43771727D01*
X194863837Y-43776764D01*
X194863835Y-43776766D01*
X194749818Y-43923756D01*
X194749816Y-43923759D01*
X194745906Y-43928800D01*
X194743088Y-43934526D01*
X194743086Y-43934530D01*
X194676545Y-44069759D01*
X194658140Y-44107163D01*
X194608032Y-44299531D01*
X194606818Y-44322691D01*
X194601620Y-44421885D01*
X194597628Y-44498046D01*
X183713156Y-44498046D01*
X183713156Y-42671000D01*
X183733158Y-42602879D01*
X183786814Y-42556386D01*
X183839156Y-42545000D01*
X185154290Y-42545000D01*
X185154290Y-41950432D01*
X185174292Y-41882311D01*
X185227948Y-41835818D01*
X185280290Y-41824432D01*
X187189993Y-41824432D01*
X187258114Y-41844434D01*
X187304607Y-41898090D01*
X187315993Y-41950432D01*
X187315993Y-42545000D01*
X189477695Y-42545000D01*
X189477695Y-41950432D01*
X189497697Y-41882311D01*
X189551353Y-41835818D01*
X189603695Y-41824432D01*
X193080532Y-41824432D01*
X193080532Y-41229865D01*
X193100534Y-41161744D01*
X193154190Y-41115251D01*
X193206532Y-41103865D01*
X204114565Y-41103865D01*
X204147174Y-41108158D01*
X204241913Y-41133543D01*
X204470000Y-41153498D01*
X204698087Y-41133543D01*
X204792826Y-41108158D01*
X204825435Y-41103865D01*
X206645312Y-41103865D01*
X206713433Y-41123867D01*
X206759926Y-41177523D01*
X206771312Y-41229865D01*
X206771312Y-41824432D01*
X207365879Y-41824432D01*
X207434000Y-41844434D01*
X207480493Y-41898090D01*
X207491879Y-41950432D01*
X207491879Y-42545000D01*
X208086446Y-42545000D01*
X208154567Y-42565002D01*
X208201060Y-42618658D01*
X208212446Y-42671000D01*
X208212446Y-43265567D01*
X208807014Y-43265567D01*
X208875135Y-43285569D01*
X208921628Y-43339225D01*
X208933014Y-43391567D01*
X208933014Y-47462971D01*
X208913012Y-47531092D01*
X208859356Y-47577585D01*
X208807014Y-47588971D01*
X208212446Y-47588971D01*
X208212446Y-51065808D01*
X208192444Y-51133929D01*
X208138788Y-51180422D01*
X208086446Y-51191808D01*
X207491879Y-51191808D01*
X207491879Y-56956347D01*
X208086446Y-56956347D01*
X208154567Y-56976349D01*
X208201060Y-57030005D01*
X208212446Y-57082347D01*
X208212446Y-57676915D01*
X208933014Y-57676915D01*
X208933014Y-57082347D01*
X208953016Y-57014226D01*
X209006672Y-56967733D01*
X209059014Y-56956347D01*
X209653581Y-56956347D01*
X209653581Y-56361780D01*
X209673583Y-56293659D01*
X209727239Y-56247166D01*
X209779581Y-56235780D01*
X211094716Y-56235780D01*
X211094716Y-55641212D01*
X211114718Y-55573091D01*
X211168374Y-55526598D01*
X211220716Y-55515212D01*
X211815283Y-55515212D01*
X211815283Y-54200078D01*
X211835285Y-54131957D01*
X211888941Y-54085464D01*
X211941283Y-54074078D01*
X212535851Y-54074078D01*
X212535851Y-52038376D01*
X212555853Y-51970255D01*
X212609509Y-51923762D01*
X212661851Y-51912376D01*
X213256418Y-51912376D01*
X213256418Y-44498046D01*
X223807628Y-44498046D01*
X223837354Y-44694598D01*
X223905995Y-44881158D01*
X223909353Y-44886574D01*
X223909355Y-44886578D01*
X224007384Y-45044683D01*
X224007387Y-45044687D01*
X224010747Y-45050106D01*
X224147331Y-45194539D01*
X224310168Y-45308559D01*
X224492605Y-45387507D01*
X224687191Y-45428158D01*
X224693717Y-45428500D01*
X224839676Y-45428500D01*
X224963886Y-45415883D01*
X224981420Y-45414102D01*
X224981421Y-45414102D01*
X224987769Y-45413457D01*
X225177460Y-45354012D01*
X225351323Y-45257638D01*
X225502256Y-45128273D01*
X225531718Y-45090291D01*
X225620182Y-44976244D01*
X225620184Y-44976241D01*
X225624094Y-44971200D01*
X225651787Y-44914922D01*
X225682947Y-44851596D01*
X225730970Y-44799305D01*
X225799639Y-44781279D01*
X225867154Y-44803239D01*
X225912078Y-44858215D01*
X225922001Y-44907226D01*
X225922001Y-45394669D01*
X225922371Y-45401490D01*
X225927895Y-45452352D01*
X225931521Y-45467604D01*
X225976676Y-45588054D01*
X225985214Y-45603649D01*
X226061715Y-45705724D01*
X226074276Y-45718285D01*
X226176351Y-45794786D01*
X226191946Y-45803324D01*
X226312394Y-45848478D01*
X226327649Y-45852105D01*
X226378514Y-45857631D01*
X226385328Y-45858000D01*
X227560385Y-45858000D01*
X227575624Y-45853525D01*
X227576829Y-45852135D01*
X227578500Y-45844452D01*
X227578500Y-44177885D01*
X228086500Y-44177885D01*
X228090975Y-44193124D01*
X228092365Y-44194329D01*
X228100048Y-44196000D01*
X229724884Y-44196000D01*
X229740123Y-44191525D01*
X229741328Y-44190135D01*
X229742999Y-44182452D01*
X229742999Y-43505331D01*
X229742629Y-43498510D01*
X229737105Y-43447648D01*
X229733479Y-43432396D01*
X229688324Y-43311946D01*
X229679786Y-43296351D01*
X229603285Y-43194276D01*
X229590724Y-43181715D01*
X229488649Y-43105214D01*
X229473054Y-43096676D01*
X229352606Y-43051522D01*
X229337351Y-43047895D01*
X229286486Y-43042369D01*
X229279672Y-43042000D01*
X228104615Y-43042000D01*
X228089376Y-43046475D01*
X228088171Y-43047865D01*
X228086500Y-43055548D01*
X228086500Y-44177885D01*
X227578500Y-44177885D01*
X227578500Y-43060116D01*
X227574025Y-43044877D01*
X227572635Y-43043672D01*
X227564952Y-43042001D01*
X226385331Y-43042001D01*
X226378510Y-43042371D01*
X226327648Y-43047895D01*
X226312396Y-43051521D01*
X226191946Y-43096676D01*
X226176351Y-43105214D01*
X226074276Y-43181715D01*
X226061715Y-43194276D01*
X225985214Y-43296351D01*
X225976676Y-43311946D01*
X225931522Y-43432394D01*
X225927895Y-43447649D01*
X225922369Y-43498514D01*
X225922000Y-43505328D01*
X225922000Y-43985513D01*
X225901998Y-44053634D01*
X225848342Y-44100127D01*
X225778068Y-44110231D01*
X225713488Y-44080737D01*
X225677749Y-44029019D01*
X225676206Y-44024825D01*
X225674005Y-44018842D01*
X225670647Y-44013426D01*
X225670645Y-44013422D01*
X225572616Y-43855317D01*
X225572613Y-43855313D01*
X225569253Y-43849894D01*
X225432669Y-43705461D01*
X225269832Y-43591441D01*
X225087395Y-43512493D01*
X224892809Y-43471842D01*
X224887967Y-43471588D01*
X224887962Y-43471588D01*
X224886283Y-43471500D01*
X224740324Y-43471500D01*
X224666826Y-43478966D01*
X224598580Y-43485898D01*
X224598579Y-43485898D01*
X224592231Y-43486543D01*
X224402540Y-43545988D01*
X224228677Y-43642362D01*
X224077744Y-43771727D01*
X224073837Y-43776764D01*
X224073835Y-43776766D01*
X223959818Y-43923756D01*
X223959816Y-43923759D01*
X223955906Y-43928800D01*
X223953088Y-43934526D01*
X223953086Y-43934530D01*
X223886545Y-44069759D01*
X223868140Y-44107163D01*
X223818032Y-44299531D01*
X223816818Y-44322691D01*
X223811620Y-44421885D01*
X223807628Y-44498046D01*
X213256418Y-44498046D01*
X213256418Y-43391567D01*
X213276420Y-43323446D01*
X213330076Y-43276953D01*
X213382418Y-43265567D01*
X213976985Y-43265567D01*
X213976985Y-42671000D01*
X213996987Y-42602879D01*
X214050643Y-42556386D01*
X214102985Y-42545000D01*
X216733255Y-42545000D01*
X216801376Y-42565002D01*
X216847869Y-42618658D01*
X216859255Y-42671000D01*
X216859255Y-43265567D01*
X217579822Y-43265567D01*
X217579822Y-42671000D01*
X217599824Y-42602879D01*
X217653480Y-42556386D01*
X217705822Y-42545000D01*
X219020957Y-42545000D01*
X219020957Y-41950432D01*
X219040959Y-41882311D01*
X219094615Y-41835818D01*
X219146957Y-41824432D01*
X221182659Y-41824432D01*
X221182659Y-41229865D01*
X221202661Y-41161744D01*
X221256317Y-41115251D01*
X221308659Y-41103865D01*
X234026872Y-41103865D01*
X234094993Y-41123867D01*
X234141486Y-41177523D01*
X234152872Y-41229865D01*
X234152872Y-42545000D01*
X234747439Y-42545000D01*
X234815560Y-42565002D01*
X234862053Y-42618658D01*
X234873439Y-42671000D01*
X234873439Y-43986134D01*
X235594007Y-43986134D01*
X235594007Y-42671000D01*
X235614009Y-42602879D01*
X235667665Y-42556386D01*
X235720007Y-42545000D01*
X236314574Y-42545000D01*
X236314574Y-41229865D01*
X236334576Y-41161744D01*
X236388232Y-41115251D01*
X236440574Y-41103865D01*
X237755709Y-41103865D01*
X237755709Y-40509298D01*
X237775711Y-40441177D01*
X237829367Y-40394684D01*
X237881709Y-40383298D01*
X241953113Y-40383298D01*
X242021234Y-40403300D01*
G37*
%TD.AperFunction*%
%TD*%
M02*
