%TF.GenerationSoftware,KiCad,Pcbnew,(6.0.1)*%
%TF.CreationDate,2022-02-03T11:52:19+01:00*%
%TF.ProjectId,ruetueta-pcb,72756574-7565-4746-912d-7063622e6b69,rev?*%
%TF.SameCoordinates,Original*%
%TF.FileFunction,Copper,L1,Top*%
%TF.FilePolarity,Positive*%
%FSLAX46Y46*%
G04 Gerber Fmt 4.6, Leading zero omitted, Abs format (unit mm)*
G04 Created by KiCad (PCBNEW (6.0.1)) date 2022-02-03 11:52:19*
%MOMM*%
%LPD*%
G01*
G04 APERTURE LIST*
%TA.AperFunction,EtchedComponent*%
%ADD10C,0.264582*%
%TD*%
%TA.AperFunction,EtchedComponent*%
%ADD11C,0.132291*%
%TD*%
%TA.AperFunction,ComponentPad*%
%ADD12R,1.800000X1.800000*%
%TD*%
%TA.AperFunction,ComponentPad*%
%ADD13C,1.800000*%
%TD*%
%TA.AperFunction,ComponentPad*%
%ADD14C,1.600000*%
%TD*%
%TA.AperFunction,ComponentPad*%
%ADD15O,1.600000X1.600000*%
%TD*%
%TA.AperFunction,ComponentPad*%
%ADD16R,1.700000X1.700000*%
%TD*%
%TA.AperFunction,ComponentPad*%
%ADD17O,1.700000X1.700000*%
%TD*%
%TA.AperFunction,ComponentPad*%
%ADD18R,1.600000X1.600000*%
%TD*%
%TA.AperFunction,ComponentPad*%
%ADD19R,1.500000X1.050000*%
%TD*%
%TA.AperFunction,ComponentPad*%
%ADD20O,1.500000X1.050000*%
%TD*%
%TA.AperFunction,ViaPad*%
%ADD21C,0.800000*%
%TD*%
%TA.AperFunction,Conductor*%
%ADD22C,0.250000*%
%TD*%
G04 APERTURE END LIST*
%TO.C,REF\u002A\u002A*%
G36*
X183744682Y-36748937D02*
G01*
X183744682Y-36028369D01*
X184465249Y-36028369D01*
X184465249Y-35307802D01*
X185185816Y-35307802D01*
X185185816Y-34587235D01*
X185906384Y-34587235D01*
X185906384Y-35307802D01*
X185185816Y-35307802D01*
X185185816Y-36028369D01*
X184465249Y-36028369D01*
X184465249Y-36748937D01*
X183744682Y-36748937D01*
X183744682Y-38190071D01*
X184465249Y-38190071D01*
X184465249Y-38910639D01*
X185185816Y-38910639D01*
X185185816Y-38190071D01*
X185906384Y-38190071D01*
X185906384Y-37469504D01*
X186626951Y-37469504D01*
X186626951Y-36028369D01*
X185906384Y-36028369D01*
X185906384Y-35307802D01*
X186626951Y-35307802D01*
X186626951Y-36028369D01*
X187347519Y-36028369D01*
X187347519Y-38190071D01*
X186626951Y-38190071D01*
X186626951Y-38910639D01*
X185906384Y-38910639D01*
X185906384Y-39631206D01*
X183744682Y-39631206D01*
X183744682Y-38910639D01*
X183024114Y-38910639D01*
X183024114Y-36748937D01*
X183744682Y-36748937D01*
G37*
G36*
X213287944Y-37469504D02*
G01*
X213287944Y-36748937D01*
X214008511Y-36748937D01*
X214008511Y-36028369D01*
X215449646Y-36028369D01*
X215449646Y-35307802D01*
X216170214Y-35307802D01*
X216170214Y-36028369D01*
X215449646Y-36028369D01*
X215449646Y-36748937D01*
X214008511Y-36748937D01*
X214008511Y-37469504D01*
X213287944Y-37469504D01*
X213287944Y-38190071D01*
X214008511Y-38190071D01*
X214008511Y-39631206D01*
X215449646Y-39631206D01*
X215449646Y-38910639D01*
X216170214Y-38910639D01*
X216170214Y-38190071D01*
X216890781Y-38190071D01*
X216890781Y-36748937D01*
X216170214Y-36748937D01*
X216170214Y-36028369D01*
X216890781Y-36028369D01*
X216890781Y-36748937D01*
X217611348Y-36748937D01*
X217611348Y-38910639D01*
X216890781Y-38910639D01*
X216890781Y-39631206D01*
X216170214Y-39631206D01*
X216170214Y-40351774D01*
X215449646Y-40351774D01*
X215449646Y-41072341D01*
X214008511Y-41072341D01*
X214008511Y-40351774D01*
X213287944Y-40351774D01*
X213287944Y-39631206D01*
X212567377Y-39631206D01*
X212567377Y-37469504D01*
X213287944Y-37469504D01*
G37*
G36*
X177980143Y-36028369D02*
G01*
X177980143Y-35307802D01*
X178700710Y-35307802D01*
X178700710Y-34587235D01*
X180862412Y-34587235D01*
X180862412Y-35307802D01*
X178700710Y-35307802D01*
X178700710Y-36028369D01*
X177980143Y-36028369D01*
X177980143Y-37469504D01*
X178700710Y-37469504D01*
X178700710Y-38190071D01*
X179421277Y-38190071D01*
X179421277Y-38910639D01*
X180141845Y-38910639D01*
X180141845Y-38190071D01*
X180862412Y-38190071D01*
X180862412Y-37469504D01*
X181582980Y-37469504D01*
X181582980Y-36028369D01*
X180862412Y-36028369D01*
X180862412Y-35307802D01*
X181582980Y-35307802D01*
X181582980Y-36028369D01*
X182303547Y-36028369D01*
X182303547Y-38190071D01*
X181582980Y-38190071D01*
X181582980Y-38910639D01*
X180862412Y-38910639D01*
X180862412Y-39631206D01*
X178700710Y-39631206D01*
X178700710Y-38910639D01*
X177980143Y-38910639D01*
X177980143Y-38190071D01*
X177259575Y-38190071D01*
X177259575Y-36028369D01*
X177980143Y-36028369D01*
G37*
G36*
X207523405Y-36748937D02*
G01*
X207523405Y-36028369D01*
X208964540Y-36028369D01*
X208964540Y-35307802D01*
X211126242Y-35307802D01*
X211126242Y-36028369D01*
X208964540Y-36028369D01*
X208964540Y-36748937D01*
X207523405Y-36748937D01*
X207523405Y-38190071D01*
X208243972Y-38190071D01*
X208243972Y-38910639D01*
X208964540Y-38910639D01*
X208964540Y-39631206D01*
X209685107Y-39631206D01*
X209685107Y-38910639D01*
X210405675Y-38910639D01*
X210405675Y-37469504D01*
X211126242Y-37469504D01*
X211126242Y-36028369D01*
X211846809Y-36028369D01*
X211846809Y-38190071D01*
X211126242Y-38190071D01*
X211126242Y-39631206D01*
X210405675Y-39631206D01*
X210405675Y-40351774D01*
X208243972Y-40351774D01*
X208243972Y-39631206D01*
X207523405Y-39631206D01*
X207523405Y-38910639D01*
X206802838Y-38910639D01*
X206802838Y-36748937D01*
X207523405Y-36748937D01*
G37*
D10*
X233018542Y-65934166D02*
X233018542Y-66595625D01*
X233018542Y-66595625D02*
X233680000Y-66595625D01*
X233680000Y-66595625D02*
X233680000Y-65934166D01*
X233680000Y-65934166D02*
X233018542Y-65934166D01*
X233018542Y-65934166D02*
X233018542Y-65934166D01*
G36*
X233680000Y-66595625D02*
G01*
X233018542Y-66595625D01*
X233018542Y-65934166D01*
X233680000Y-65934166D01*
X233680000Y-66595625D01*
G37*
X233680000Y-66595625D02*
X233018542Y-66595625D01*
X233018542Y-65934166D01*
X233680000Y-65934166D01*
X233680000Y-66595625D01*
X235664375Y-67257083D02*
X235664375Y-67918541D01*
X235664375Y-67918541D02*
X236325833Y-67918541D01*
X236325833Y-67918541D02*
X236325833Y-67257083D01*
X236325833Y-67257083D02*
X235664375Y-67257083D01*
X235664375Y-67257083D02*
X235664375Y-67257083D01*
G36*
X236325833Y-67918541D02*
G01*
X235664375Y-67918541D01*
X235664375Y-67257083D01*
X236325833Y-67257083D01*
X236325833Y-67918541D01*
G37*
X236325833Y-67918541D02*
X235664375Y-67918541D01*
X235664375Y-67257083D01*
X236325833Y-67257083D01*
X236325833Y-67918541D01*
X234341458Y-65934166D02*
X234341458Y-67257083D01*
X234341458Y-67257083D02*
X234341458Y-67918541D01*
X234341458Y-67918541D02*
X235002917Y-67918541D01*
X235002917Y-67918541D02*
X235002917Y-67257083D01*
X235002917Y-67257083D02*
X235664375Y-67257083D01*
X235664375Y-67257083D02*
X235664375Y-66595625D01*
X235664375Y-66595625D02*
X235664375Y-65934166D01*
X235664375Y-65934166D02*
X234341458Y-65934166D01*
X234341458Y-65934166D02*
X234341458Y-65934166D01*
G36*
X235664375Y-67257083D02*
G01*
X235002917Y-67257083D01*
X235002917Y-67918541D01*
X234341458Y-67918541D01*
X234341458Y-65934166D01*
X235664375Y-65934166D01*
X235664375Y-67257083D01*
G37*
X235664375Y-67257083D02*
X235002917Y-67257083D01*
X235002917Y-67918541D01*
X234341458Y-67918541D01*
X234341458Y-65934166D01*
X235664375Y-65934166D01*
X235664375Y-67257083D01*
X235664375Y-65934166D02*
X236325833Y-65934166D01*
X236325833Y-65934166D02*
X236325833Y-65272708D01*
X236325833Y-65272708D02*
X235664375Y-65272708D01*
X235664375Y-65272708D02*
X235664375Y-65934166D01*
X235664375Y-65934166D02*
X235664375Y-65934166D01*
G36*
X236325833Y-65934166D02*
G01*
X235664375Y-65934166D01*
X235664375Y-65272708D01*
X236325833Y-65272708D01*
X236325833Y-65934166D01*
G37*
X236325833Y-65934166D02*
X235664375Y-65934166D01*
X235664375Y-65272708D01*
X236325833Y-65272708D01*
X236325833Y-65934166D01*
X235002917Y-66595625D02*
X235664375Y-66595625D01*
X235664375Y-66595625D02*
X235664375Y-65934166D01*
X235664375Y-65934166D02*
X235002917Y-65934166D01*
X235002917Y-65934166D02*
X235002917Y-66595625D01*
X235002917Y-66595625D02*
X235002917Y-66595625D01*
G36*
X235664375Y-66595625D02*
G01*
X235002917Y-66595625D01*
X235002917Y-65934166D01*
X235664375Y-65934166D01*
X235664375Y-66595625D01*
G37*
X235664375Y-66595625D02*
X235002917Y-66595625D01*
X235002917Y-65934166D01*
X235664375Y-65934166D01*
X235664375Y-66595625D01*
X233680000Y-65272708D02*
X233680000Y-65934166D01*
X233680000Y-65934166D02*
X234341458Y-65934166D01*
X234341458Y-65934166D02*
X234341458Y-65272708D01*
X234341458Y-65272708D02*
X233680000Y-65272708D01*
X233680000Y-65272708D02*
X233680000Y-65272708D01*
G36*
X234341458Y-65934166D02*
G01*
X233680000Y-65934166D01*
X233680000Y-65272708D01*
X234341458Y-65272708D01*
X234341458Y-65934166D01*
G37*
X234341458Y-65934166D02*
X233680000Y-65934166D01*
X233680000Y-65272708D01*
X234341458Y-65272708D01*
X234341458Y-65934166D01*
X234341458Y-67918541D02*
X233680000Y-67918541D01*
X233680000Y-67918541D02*
X233680000Y-68580000D01*
X233680000Y-68580000D02*
X234341458Y-68580000D01*
X234341458Y-68580000D02*
X234341458Y-67918541D01*
X234341458Y-67918541D02*
X234341458Y-67918541D01*
G36*
X234341458Y-68580000D02*
G01*
X233680000Y-68580000D01*
X233680000Y-67918541D01*
X234341458Y-67918541D01*
X234341458Y-68580000D01*
G37*
X234341458Y-68580000D02*
X233680000Y-68580000D01*
X233680000Y-67918541D01*
X234341458Y-67918541D01*
X234341458Y-68580000D01*
X235664375Y-66595625D02*
X235664375Y-67257083D01*
X235664375Y-67257083D02*
X236325833Y-67257083D01*
X236325833Y-67257083D02*
X236325833Y-66595625D01*
X236325833Y-66595625D02*
X235664375Y-66595625D01*
X235664375Y-66595625D02*
X235664375Y-66595625D01*
G36*
X236325833Y-67257083D02*
G01*
X235664375Y-67257083D01*
X235664375Y-66595625D01*
X236325833Y-66595625D01*
X236325833Y-67257083D01*
G37*
X236325833Y-67257083D02*
X235664375Y-67257083D01*
X235664375Y-66595625D01*
X236325833Y-66595625D01*
X236325833Y-67257083D01*
X236325833Y-65934166D02*
X236325833Y-66595625D01*
X236325833Y-66595625D02*
X236987292Y-66595625D01*
X236987292Y-66595625D02*
X236987292Y-65934166D01*
X236987292Y-65934166D02*
X236325833Y-65934166D01*
X236325833Y-65934166D02*
X236325833Y-65934166D01*
G36*
X236987292Y-66595625D02*
G01*
X236325833Y-66595625D01*
X236325833Y-65934166D01*
X236987292Y-65934166D01*
X236987292Y-66595625D01*
G37*
X236987292Y-66595625D02*
X236325833Y-66595625D01*
X236325833Y-65934166D01*
X236987292Y-65934166D01*
X236987292Y-66595625D01*
X233680000Y-66595625D02*
X233680000Y-67918541D01*
X233680000Y-67918541D02*
X233680000Y-68580000D01*
X233680000Y-68580000D02*
X234341458Y-68580000D01*
X234341458Y-68580000D02*
X234341458Y-67918541D01*
X234341458Y-67918541D02*
X235002917Y-67918541D01*
X235002917Y-67918541D02*
X235002917Y-67257083D01*
X235002917Y-67257083D02*
X235002917Y-66595625D01*
X235002917Y-66595625D02*
X233680000Y-66595625D01*
X233680000Y-66595625D02*
X233680000Y-66595625D01*
G36*
X235002917Y-67918541D02*
G01*
X234341458Y-67918541D01*
X234341458Y-68580000D01*
X233680000Y-68580000D01*
X233680000Y-66595625D01*
X235002917Y-66595625D01*
X235002917Y-67918541D01*
G37*
X235002917Y-67918541D02*
X234341458Y-67918541D01*
X234341458Y-68580000D01*
X233680000Y-68580000D01*
X233680000Y-66595625D01*
X235002917Y-66595625D01*
X235002917Y-67918541D01*
X233680000Y-68580000D02*
X233018542Y-68580000D01*
X233018542Y-68580000D02*
X233018542Y-69241458D01*
X233018542Y-69241458D02*
X233680000Y-69241458D01*
X233680000Y-69241458D02*
X233680000Y-68580000D01*
X233680000Y-68580000D02*
X233680000Y-68580000D01*
G36*
X233680000Y-69241458D02*
G01*
X233018542Y-69241458D01*
X233018542Y-68580000D01*
X233680000Y-68580000D01*
X233680000Y-69241458D01*
G37*
X233680000Y-69241458D02*
X233018542Y-69241458D01*
X233018542Y-68580000D01*
X233680000Y-68580000D01*
X233680000Y-69241458D01*
X235002917Y-67918541D02*
X235002917Y-68580000D01*
X235002917Y-68580000D02*
X235664375Y-68580000D01*
X235664375Y-68580000D02*
X235664375Y-67918541D01*
X235664375Y-67918541D02*
X235002917Y-67918541D01*
X235002917Y-67918541D02*
X235002917Y-67918541D01*
G36*
X235664375Y-68580000D02*
G01*
X235002917Y-68580000D01*
X235002917Y-67918541D01*
X235664375Y-67918541D01*
X235664375Y-68580000D01*
G37*
X235664375Y-68580000D02*
X235002917Y-68580000D01*
X235002917Y-67918541D01*
X235664375Y-67918541D01*
X235664375Y-68580000D01*
X164438542Y-37994166D02*
X164438542Y-38655625D01*
X164438542Y-38655625D02*
X165100000Y-38655625D01*
X165100000Y-38655625D02*
X165100000Y-37994166D01*
X165100000Y-37994166D02*
X164438542Y-37994166D01*
X164438542Y-37994166D02*
X164438542Y-37994166D01*
G36*
X165100000Y-38655625D02*
G01*
X164438542Y-38655625D01*
X164438542Y-37994166D01*
X165100000Y-37994166D01*
X165100000Y-38655625D01*
G37*
X165100000Y-38655625D02*
X164438542Y-38655625D01*
X164438542Y-37994166D01*
X165100000Y-37994166D01*
X165100000Y-38655625D01*
X167084375Y-39317083D02*
X167084375Y-39978541D01*
X167084375Y-39978541D02*
X167745833Y-39978541D01*
X167745833Y-39978541D02*
X167745833Y-39317083D01*
X167745833Y-39317083D02*
X167084375Y-39317083D01*
X167084375Y-39317083D02*
X167084375Y-39317083D01*
G36*
X167745833Y-39978541D02*
G01*
X167084375Y-39978541D01*
X167084375Y-39317083D01*
X167745833Y-39317083D01*
X167745833Y-39978541D01*
G37*
X167745833Y-39978541D02*
X167084375Y-39978541D01*
X167084375Y-39317083D01*
X167745833Y-39317083D01*
X167745833Y-39978541D01*
X165761458Y-37994166D02*
X165761458Y-39317083D01*
X165761458Y-39317083D02*
X165761458Y-39978541D01*
X165761458Y-39978541D02*
X166422917Y-39978541D01*
X166422917Y-39978541D02*
X166422917Y-39317083D01*
X166422917Y-39317083D02*
X167084375Y-39317083D01*
X167084375Y-39317083D02*
X167084375Y-38655625D01*
X167084375Y-38655625D02*
X167084375Y-37994166D01*
X167084375Y-37994166D02*
X165761458Y-37994166D01*
X165761458Y-37994166D02*
X165761458Y-37994166D01*
G36*
X167084375Y-39317083D02*
G01*
X166422917Y-39317083D01*
X166422917Y-39978541D01*
X165761458Y-39978541D01*
X165761458Y-37994166D01*
X167084375Y-37994166D01*
X167084375Y-39317083D01*
G37*
X167084375Y-39317083D02*
X166422917Y-39317083D01*
X166422917Y-39978541D01*
X165761458Y-39978541D01*
X165761458Y-37994166D01*
X167084375Y-37994166D01*
X167084375Y-39317083D01*
X167084375Y-37994166D02*
X167745833Y-37994166D01*
X167745833Y-37994166D02*
X167745833Y-37332708D01*
X167745833Y-37332708D02*
X167084375Y-37332708D01*
X167084375Y-37332708D02*
X167084375Y-37994166D01*
X167084375Y-37994166D02*
X167084375Y-37994166D01*
G36*
X167745833Y-37994166D02*
G01*
X167084375Y-37994166D01*
X167084375Y-37332708D01*
X167745833Y-37332708D01*
X167745833Y-37994166D01*
G37*
X167745833Y-37994166D02*
X167084375Y-37994166D01*
X167084375Y-37332708D01*
X167745833Y-37332708D01*
X167745833Y-37994166D01*
X166422917Y-38655625D02*
X167084375Y-38655625D01*
X167084375Y-38655625D02*
X167084375Y-37994166D01*
X167084375Y-37994166D02*
X166422917Y-37994166D01*
X166422917Y-37994166D02*
X166422917Y-38655625D01*
X166422917Y-38655625D02*
X166422917Y-38655625D01*
G36*
X167084375Y-38655625D02*
G01*
X166422917Y-38655625D01*
X166422917Y-37994166D01*
X167084375Y-37994166D01*
X167084375Y-38655625D01*
G37*
X167084375Y-38655625D02*
X166422917Y-38655625D01*
X166422917Y-37994166D01*
X167084375Y-37994166D01*
X167084375Y-38655625D01*
X165100000Y-37332708D02*
X165100000Y-37994166D01*
X165100000Y-37994166D02*
X165761458Y-37994166D01*
X165761458Y-37994166D02*
X165761458Y-37332708D01*
X165761458Y-37332708D02*
X165100000Y-37332708D01*
X165100000Y-37332708D02*
X165100000Y-37332708D01*
G36*
X165761458Y-37994166D02*
G01*
X165100000Y-37994166D01*
X165100000Y-37332708D01*
X165761458Y-37332708D01*
X165761458Y-37994166D01*
G37*
X165761458Y-37994166D02*
X165100000Y-37994166D01*
X165100000Y-37332708D01*
X165761458Y-37332708D01*
X165761458Y-37994166D01*
X165761458Y-39978541D02*
X165100000Y-39978541D01*
X165100000Y-39978541D02*
X165100000Y-40640000D01*
X165100000Y-40640000D02*
X165761458Y-40640000D01*
X165761458Y-40640000D02*
X165761458Y-39978541D01*
X165761458Y-39978541D02*
X165761458Y-39978541D01*
G36*
X165761458Y-40640000D02*
G01*
X165100000Y-40640000D01*
X165100000Y-39978541D01*
X165761458Y-39978541D01*
X165761458Y-40640000D01*
G37*
X165761458Y-40640000D02*
X165100000Y-40640000D01*
X165100000Y-39978541D01*
X165761458Y-39978541D01*
X165761458Y-40640000D01*
X167084375Y-38655625D02*
X167084375Y-39317083D01*
X167084375Y-39317083D02*
X167745833Y-39317083D01*
X167745833Y-39317083D02*
X167745833Y-38655625D01*
X167745833Y-38655625D02*
X167084375Y-38655625D01*
X167084375Y-38655625D02*
X167084375Y-38655625D01*
G36*
X167745833Y-39317083D02*
G01*
X167084375Y-39317083D01*
X167084375Y-38655625D01*
X167745833Y-38655625D01*
X167745833Y-39317083D01*
G37*
X167745833Y-39317083D02*
X167084375Y-39317083D01*
X167084375Y-38655625D01*
X167745833Y-38655625D01*
X167745833Y-39317083D01*
X167745833Y-37994166D02*
X167745833Y-38655625D01*
X167745833Y-38655625D02*
X168407292Y-38655625D01*
X168407292Y-38655625D02*
X168407292Y-37994166D01*
X168407292Y-37994166D02*
X167745833Y-37994166D01*
X167745833Y-37994166D02*
X167745833Y-37994166D01*
G36*
X168407292Y-38655625D02*
G01*
X167745833Y-38655625D01*
X167745833Y-37994166D01*
X168407292Y-37994166D01*
X168407292Y-38655625D01*
G37*
X168407292Y-38655625D02*
X167745833Y-38655625D01*
X167745833Y-37994166D01*
X168407292Y-37994166D01*
X168407292Y-38655625D01*
X165100000Y-38655625D02*
X165100000Y-39978541D01*
X165100000Y-39978541D02*
X165100000Y-40640000D01*
X165100000Y-40640000D02*
X165761458Y-40640000D01*
X165761458Y-40640000D02*
X165761458Y-39978541D01*
X165761458Y-39978541D02*
X166422917Y-39978541D01*
X166422917Y-39978541D02*
X166422917Y-39317083D01*
X166422917Y-39317083D02*
X166422917Y-38655625D01*
X166422917Y-38655625D02*
X165100000Y-38655625D01*
X165100000Y-38655625D02*
X165100000Y-38655625D01*
G36*
X166422917Y-39978541D02*
G01*
X165761458Y-39978541D01*
X165761458Y-40640000D01*
X165100000Y-40640000D01*
X165100000Y-38655625D01*
X166422917Y-38655625D01*
X166422917Y-39978541D01*
G37*
X166422917Y-39978541D02*
X165761458Y-39978541D01*
X165761458Y-40640000D01*
X165100000Y-40640000D01*
X165100000Y-38655625D01*
X166422917Y-38655625D01*
X166422917Y-39978541D01*
X165100000Y-40640000D02*
X164438542Y-40640000D01*
X164438542Y-40640000D02*
X164438542Y-41301458D01*
X164438542Y-41301458D02*
X165100000Y-41301458D01*
X165100000Y-41301458D02*
X165100000Y-40640000D01*
X165100000Y-40640000D02*
X165100000Y-40640000D01*
G36*
X165100000Y-41301458D02*
G01*
X164438542Y-41301458D01*
X164438542Y-40640000D01*
X165100000Y-40640000D01*
X165100000Y-41301458D01*
G37*
X165100000Y-41301458D02*
X164438542Y-41301458D01*
X164438542Y-40640000D01*
X165100000Y-40640000D01*
X165100000Y-41301458D01*
X166422917Y-39978541D02*
X166422917Y-40640000D01*
X166422917Y-40640000D02*
X167084375Y-40640000D01*
X167084375Y-40640000D02*
X167084375Y-39978541D01*
X167084375Y-39978541D02*
X166422917Y-39978541D01*
X166422917Y-39978541D02*
X166422917Y-39978541D01*
G36*
X167084375Y-40640000D02*
G01*
X166422917Y-40640000D01*
X166422917Y-39978541D01*
X167084375Y-39978541D01*
X167084375Y-40640000D01*
G37*
X167084375Y-40640000D02*
X166422917Y-40640000D01*
X166422917Y-39978541D01*
X167084375Y-39978541D01*
X167084375Y-40640000D01*
X230540580Y-47534863D02*
X231863497Y-47534863D01*
X231863497Y-47534863D02*
X231863497Y-48857779D01*
X231863497Y-48857779D02*
X230540580Y-48857779D01*
X230540580Y-48857779D02*
X230540580Y-47534863D01*
X230540580Y-47534863D02*
X230540580Y-47534863D01*
G36*
X231863497Y-48857779D02*
G01*
X230540580Y-48857779D01*
X230540580Y-47534863D01*
X231863497Y-47534863D01*
X231863497Y-48857779D01*
G37*
X231863497Y-48857779D02*
X230540580Y-48857779D01*
X230540580Y-47534863D01*
X231863497Y-47534863D01*
X231863497Y-48857779D01*
X240638542Y-32914166D02*
X240638542Y-33575625D01*
X240638542Y-33575625D02*
X241300000Y-33575625D01*
X241300000Y-33575625D02*
X241300000Y-32914166D01*
X241300000Y-32914166D02*
X240638542Y-32914166D01*
X240638542Y-32914166D02*
X240638542Y-32914166D01*
G36*
X241300000Y-33575625D02*
G01*
X240638542Y-33575625D01*
X240638542Y-32914166D01*
X241300000Y-32914166D01*
X241300000Y-33575625D01*
G37*
X241300000Y-33575625D02*
X240638542Y-33575625D01*
X240638542Y-32914166D01*
X241300000Y-32914166D01*
X241300000Y-33575625D01*
X243284375Y-34237083D02*
X243284375Y-34898541D01*
X243284375Y-34898541D02*
X243945833Y-34898541D01*
X243945833Y-34898541D02*
X243945833Y-34237083D01*
X243945833Y-34237083D02*
X243284375Y-34237083D01*
X243284375Y-34237083D02*
X243284375Y-34237083D01*
G36*
X243945833Y-34898541D02*
G01*
X243284375Y-34898541D01*
X243284375Y-34237083D01*
X243945833Y-34237083D01*
X243945833Y-34898541D01*
G37*
X243945833Y-34898541D02*
X243284375Y-34898541D01*
X243284375Y-34237083D01*
X243945833Y-34237083D01*
X243945833Y-34898541D01*
X241961458Y-32914166D02*
X241961458Y-34237083D01*
X241961458Y-34237083D02*
X241961458Y-34898541D01*
X241961458Y-34898541D02*
X242622917Y-34898541D01*
X242622917Y-34898541D02*
X242622917Y-34237083D01*
X242622917Y-34237083D02*
X243284375Y-34237083D01*
X243284375Y-34237083D02*
X243284375Y-33575625D01*
X243284375Y-33575625D02*
X243284375Y-32914166D01*
X243284375Y-32914166D02*
X241961458Y-32914166D01*
X241961458Y-32914166D02*
X241961458Y-32914166D01*
G36*
X243284375Y-34237083D02*
G01*
X242622917Y-34237083D01*
X242622917Y-34898541D01*
X241961458Y-34898541D01*
X241961458Y-32914166D01*
X243284375Y-32914166D01*
X243284375Y-34237083D01*
G37*
X243284375Y-34237083D02*
X242622917Y-34237083D01*
X242622917Y-34898541D01*
X241961458Y-34898541D01*
X241961458Y-32914166D01*
X243284375Y-32914166D01*
X243284375Y-34237083D01*
X243284375Y-32914166D02*
X243945833Y-32914166D01*
X243945833Y-32914166D02*
X243945833Y-32252708D01*
X243945833Y-32252708D02*
X243284375Y-32252708D01*
X243284375Y-32252708D02*
X243284375Y-32914166D01*
X243284375Y-32914166D02*
X243284375Y-32914166D01*
G36*
X243945833Y-32914166D02*
G01*
X243284375Y-32914166D01*
X243284375Y-32252708D01*
X243945833Y-32252708D01*
X243945833Y-32914166D01*
G37*
X243945833Y-32914166D02*
X243284375Y-32914166D01*
X243284375Y-32252708D01*
X243945833Y-32252708D01*
X243945833Y-32914166D01*
X242622917Y-33575625D02*
X243284375Y-33575625D01*
X243284375Y-33575625D02*
X243284375Y-32914166D01*
X243284375Y-32914166D02*
X242622917Y-32914166D01*
X242622917Y-32914166D02*
X242622917Y-33575625D01*
X242622917Y-33575625D02*
X242622917Y-33575625D01*
G36*
X243284375Y-33575625D02*
G01*
X242622917Y-33575625D01*
X242622917Y-32914166D01*
X243284375Y-32914166D01*
X243284375Y-33575625D01*
G37*
X243284375Y-33575625D02*
X242622917Y-33575625D01*
X242622917Y-32914166D01*
X243284375Y-32914166D01*
X243284375Y-33575625D01*
X241300000Y-32252708D02*
X241300000Y-32914166D01*
X241300000Y-32914166D02*
X241961458Y-32914166D01*
X241961458Y-32914166D02*
X241961458Y-32252708D01*
X241961458Y-32252708D02*
X241300000Y-32252708D01*
X241300000Y-32252708D02*
X241300000Y-32252708D01*
G36*
X241961458Y-32914166D02*
G01*
X241300000Y-32914166D01*
X241300000Y-32252708D01*
X241961458Y-32252708D01*
X241961458Y-32914166D01*
G37*
X241961458Y-32914166D02*
X241300000Y-32914166D01*
X241300000Y-32252708D01*
X241961458Y-32252708D01*
X241961458Y-32914166D01*
X241961458Y-34898541D02*
X241300000Y-34898541D01*
X241300000Y-34898541D02*
X241300000Y-35560000D01*
X241300000Y-35560000D02*
X241961458Y-35560000D01*
X241961458Y-35560000D02*
X241961458Y-34898541D01*
X241961458Y-34898541D02*
X241961458Y-34898541D01*
G36*
X241961458Y-35560000D02*
G01*
X241300000Y-35560000D01*
X241300000Y-34898541D01*
X241961458Y-34898541D01*
X241961458Y-35560000D01*
G37*
X241961458Y-35560000D02*
X241300000Y-35560000D01*
X241300000Y-34898541D01*
X241961458Y-34898541D01*
X241961458Y-35560000D01*
X243284375Y-33575625D02*
X243284375Y-34237083D01*
X243284375Y-34237083D02*
X243945833Y-34237083D01*
X243945833Y-34237083D02*
X243945833Y-33575625D01*
X243945833Y-33575625D02*
X243284375Y-33575625D01*
X243284375Y-33575625D02*
X243284375Y-33575625D01*
G36*
X243945833Y-34237083D02*
G01*
X243284375Y-34237083D01*
X243284375Y-33575625D01*
X243945833Y-33575625D01*
X243945833Y-34237083D01*
G37*
X243945833Y-34237083D02*
X243284375Y-34237083D01*
X243284375Y-33575625D01*
X243945833Y-33575625D01*
X243945833Y-34237083D01*
X243945833Y-32914166D02*
X243945833Y-33575625D01*
X243945833Y-33575625D02*
X244607292Y-33575625D01*
X244607292Y-33575625D02*
X244607292Y-32914166D01*
X244607292Y-32914166D02*
X243945833Y-32914166D01*
X243945833Y-32914166D02*
X243945833Y-32914166D01*
G36*
X244607292Y-33575625D02*
G01*
X243945833Y-33575625D01*
X243945833Y-32914166D01*
X244607292Y-32914166D01*
X244607292Y-33575625D01*
G37*
X244607292Y-33575625D02*
X243945833Y-33575625D01*
X243945833Y-32914166D01*
X244607292Y-32914166D01*
X244607292Y-33575625D01*
X241300000Y-33575625D02*
X241300000Y-34898541D01*
X241300000Y-34898541D02*
X241300000Y-35560000D01*
X241300000Y-35560000D02*
X241961458Y-35560000D01*
X241961458Y-35560000D02*
X241961458Y-34898541D01*
X241961458Y-34898541D02*
X242622917Y-34898541D01*
X242622917Y-34898541D02*
X242622917Y-34237083D01*
X242622917Y-34237083D02*
X242622917Y-33575625D01*
X242622917Y-33575625D02*
X241300000Y-33575625D01*
X241300000Y-33575625D02*
X241300000Y-33575625D01*
G36*
X242622917Y-34898541D02*
G01*
X241961458Y-34898541D01*
X241961458Y-35560000D01*
X241300000Y-35560000D01*
X241300000Y-33575625D01*
X242622917Y-33575625D01*
X242622917Y-34898541D01*
G37*
X242622917Y-34898541D02*
X241961458Y-34898541D01*
X241961458Y-35560000D01*
X241300000Y-35560000D01*
X241300000Y-33575625D01*
X242622917Y-33575625D01*
X242622917Y-34898541D01*
X241300000Y-35560000D02*
X240638542Y-35560000D01*
X240638542Y-35560000D02*
X240638542Y-36221458D01*
X240638542Y-36221458D02*
X241300000Y-36221458D01*
X241300000Y-36221458D02*
X241300000Y-35560000D01*
X241300000Y-35560000D02*
X241300000Y-35560000D01*
G36*
X241300000Y-36221458D02*
G01*
X240638542Y-36221458D01*
X240638542Y-35560000D01*
X241300000Y-35560000D01*
X241300000Y-36221458D01*
G37*
X241300000Y-36221458D02*
X240638542Y-36221458D01*
X240638542Y-35560000D01*
X241300000Y-35560000D01*
X241300000Y-36221458D01*
X242622917Y-34898541D02*
X242622917Y-35560000D01*
X242622917Y-35560000D02*
X243284375Y-35560000D01*
X243284375Y-35560000D02*
X243284375Y-34898541D01*
X243284375Y-34898541D02*
X242622917Y-34898541D01*
X242622917Y-34898541D02*
X242622917Y-34898541D01*
G36*
X243284375Y-35560000D02*
G01*
X242622917Y-35560000D01*
X242622917Y-34898541D01*
X243284375Y-34898541D01*
X243284375Y-35560000D01*
G37*
X243284375Y-35560000D02*
X242622917Y-35560000D01*
X242622917Y-34898541D01*
X243284375Y-34898541D01*
X243284375Y-35560000D01*
X194918542Y-30374166D02*
X194918542Y-31035625D01*
X194918542Y-31035625D02*
X195580000Y-31035625D01*
X195580000Y-31035625D02*
X195580000Y-30374166D01*
X195580000Y-30374166D02*
X194918542Y-30374166D01*
X194918542Y-30374166D02*
X194918542Y-30374166D01*
G36*
X195580000Y-31035625D02*
G01*
X194918542Y-31035625D01*
X194918542Y-30374166D01*
X195580000Y-30374166D01*
X195580000Y-31035625D01*
G37*
X195580000Y-31035625D02*
X194918542Y-31035625D01*
X194918542Y-30374166D01*
X195580000Y-30374166D01*
X195580000Y-31035625D01*
X197564375Y-31697083D02*
X197564375Y-32358541D01*
X197564375Y-32358541D02*
X198225833Y-32358541D01*
X198225833Y-32358541D02*
X198225833Y-31697083D01*
X198225833Y-31697083D02*
X197564375Y-31697083D01*
X197564375Y-31697083D02*
X197564375Y-31697083D01*
G36*
X198225833Y-32358541D02*
G01*
X197564375Y-32358541D01*
X197564375Y-31697083D01*
X198225833Y-31697083D01*
X198225833Y-32358541D01*
G37*
X198225833Y-32358541D02*
X197564375Y-32358541D01*
X197564375Y-31697083D01*
X198225833Y-31697083D01*
X198225833Y-32358541D01*
X196241458Y-30374166D02*
X196241458Y-31697083D01*
X196241458Y-31697083D02*
X196241458Y-32358541D01*
X196241458Y-32358541D02*
X196902917Y-32358541D01*
X196902917Y-32358541D02*
X196902917Y-31697083D01*
X196902917Y-31697083D02*
X197564375Y-31697083D01*
X197564375Y-31697083D02*
X197564375Y-31035625D01*
X197564375Y-31035625D02*
X197564375Y-30374166D01*
X197564375Y-30374166D02*
X196241458Y-30374166D01*
X196241458Y-30374166D02*
X196241458Y-30374166D01*
G36*
X197564375Y-31697083D02*
G01*
X196902917Y-31697083D01*
X196902917Y-32358541D01*
X196241458Y-32358541D01*
X196241458Y-30374166D01*
X197564375Y-30374166D01*
X197564375Y-31697083D01*
G37*
X197564375Y-31697083D02*
X196902917Y-31697083D01*
X196902917Y-32358541D01*
X196241458Y-32358541D01*
X196241458Y-30374166D01*
X197564375Y-30374166D01*
X197564375Y-31697083D01*
X197564375Y-30374166D02*
X198225833Y-30374166D01*
X198225833Y-30374166D02*
X198225833Y-29712708D01*
X198225833Y-29712708D02*
X197564375Y-29712708D01*
X197564375Y-29712708D02*
X197564375Y-30374166D01*
X197564375Y-30374166D02*
X197564375Y-30374166D01*
G36*
X198225833Y-30374166D02*
G01*
X197564375Y-30374166D01*
X197564375Y-29712708D01*
X198225833Y-29712708D01*
X198225833Y-30374166D01*
G37*
X198225833Y-30374166D02*
X197564375Y-30374166D01*
X197564375Y-29712708D01*
X198225833Y-29712708D01*
X198225833Y-30374166D01*
X196902917Y-31035625D02*
X197564375Y-31035625D01*
X197564375Y-31035625D02*
X197564375Y-30374166D01*
X197564375Y-30374166D02*
X196902917Y-30374166D01*
X196902917Y-30374166D02*
X196902917Y-31035625D01*
X196902917Y-31035625D02*
X196902917Y-31035625D01*
G36*
X197564375Y-31035625D02*
G01*
X196902917Y-31035625D01*
X196902917Y-30374166D01*
X197564375Y-30374166D01*
X197564375Y-31035625D01*
G37*
X197564375Y-31035625D02*
X196902917Y-31035625D01*
X196902917Y-30374166D01*
X197564375Y-30374166D01*
X197564375Y-31035625D01*
X195580000Y-29712708D02*
X195580000Y-30374166D01*
X195580000Y-30374166D02*
X196241458Y-30374166D01*
X196241458Y-30374166D02*
X196241458Y-29712708D01*
X196241458Y-29712708D02*
X195580000Y-29712708D01*
X195580000Y-29712708D02*
X195580000Y-29712708D01*
G36*
X196241458Y-30374166D02*
G01*
X195580000Y-30374166D01*
X195580000Y-29712708D01*
X196241458Y-29712708D01*
X196241458Y-30374166D01*
G37*
X196241458Y-30374166D02*
X195580000Y-30374166D01*
X195580000Y-29712708D01*
X196241458Y-29712708D01*
X196241458Y-30374166D01*
X196241458Y-32358541D02*
X195580000Y-32358541D01*
X195580000Y-32358541D02*
X195580000Y-33020000D01*
X195580000Y-33020000D02*
X196241458Y-33020000D01*
X196241458Y-33020000D02*
X196241458Y-32358541D01*
X196241458Y-32358541D02*
X196241458Y-32358541D01*
G36*
X196241458Y-33020000D02*
G01*
X195580000Y-33020000D01*
X195580000Y-32358541D01*
X196241458Y-32358541D01*
X196241458Y-33020000D01*
G37*
X196241458Y-33020000D02*
X195580000Y-33020000D01*
X195580000Y-32358541D01*
X196241458Y-32358541D01*
X196241458Y-33020000D01*
X197564375Y-31035625D02*
X197564375Y-31697083D01*
X197564375Y-31697083D02*
X198225833Y-31697083D01*
X198225833Y-31697083D02*
X198225833Y-31035625D01*
X198225833Y-31035625D02*
X197564375Y-31035625D01*
X197564375Y-31035625D02*
X197564375Y-31035625D01*
G36*
X198225833Y-31697083D02*
G01*
X197564375Y-31697083D01*
X197564375Y-31035625D01*
X198225833Y-31035625D01*
X198225833Y-31697083D01*
G37*
X198225833Y-31697083D02*
X197564375Y-31697083D01*
X197564375Y-31035625D01*
X198225833Y-31035625D01*
X198225833Y-31697083D01*
X198225833Y-30374166D02*
X198225833Y-31035625D01*
X198225833Y-31035625D02*
X198887292Y-31035625D01*
X198887292Y-31035625D02*
X198887292Y-30374166D01*
X198887292Y-30374166D02*
X198225833Y-30374166D01*
X198225833Y-30374166D02*
X198225833Y-30374166D01*
G36*
X198887292Y-31035625D02*
G01*
X198225833Y-31035625D01*
X198225833Y-30374166D01*
X198887292Y-30374166D01*
X198887292Y-31035625D01*
G37*
X198887292Y-31035625D02*
X198225833Y-31035625D01*
X198225833Y-30374166D01*
X198887292Y-30374166D01*
X198887292Y-31035625D01*
X195580000Y-31035625D02*
X195580000Y-32358541D01*
X195580000Y-32358541D02*
X195580000Y-33020000D01*
X195580000Y-33020000D02*
X196241458Y-33020000D01*
X196241458Y-33020000D02*
X196241458Y-32358541D01*
X196241458Y-32358541D02*
X196902917Y-32358541D01*
X196902917Y-32358541D02*
X196902917Y-31697083D01*
X196902917Y-31697083D02*
X196902917Y-31035625D01*
X196902917Y-31035625D02*
X195580000Y-31035625D01*
X195580000Y-31035625D02*
X195580000Y-31035625D01*
G36*
X196902917Y-32358541D02*
G01*
X196241458Y-32358541D01*
X196241458Y-33020000D01*
X195580000Y-33020000D01*
X195580000Y-31035625D01*
X196902917Y-31035625D01*
X196902917Y-32358541D01*
G37*
X196902917Y-32358541D02*
X196241458Y-32358541D01*
X196241458Y-33020000D01*
X195580000Y-33020000D01*
X195580000Y-31035625D01*
X196902917Y-31035625D01*
X196902917Y-32358541D01*
X195580000Y-33020000D02*
X194918542Y-33020000D01*
X194918542Y-33020000D02*
X194918542Y-33681458D01*
X194918542Y-33681458D02*
X195580000Y-33681458D01*
X195580000Y-33681458D02*
X195580000Y-33020000D01*
X195580000Y-33020000D02*
X195580000Y-33020000D01*
G36*
X195580000Y-33681458D02*
G01*
X194918542Y-33681458D01*
X194918542Y-33020000D01*
X195580000Y-33020000D01*
X195580000Y-33681458D01*
G37*
X195580000Y-33681458D02*
X194918542Y-33681458D01*
X194918542Y-33020000D01*
X195580000Y-33020000D01*
X195580000Y-33681458D01*
X196902917Y-32358541D02*
X196902917Y-33020000D01*
X196902917Y-33020000D02*
X197564375Y-33020000D01*
X197564375Y-33020000D02*
X197564375Y-32358541D01*
X197564375Y-32358541D02*
X196902917Y-32358541D01*
X196902917Y-32358541D02*
X196902917Y-32358541D01*
G36*
X197564375Y-33020000D02*
G01*
X196902917Y-33020000D01*
X196902917Y-32358541D01*
X197564375Y-32358541D01*
X197564375Y-33020000D01*
G37*
X197564375Y-33020000D02*
X196902917Y-33020000D01*
X196902917Y-32358541D01*
X197564375Y-32358541D01*
X197564375Y-33020000D01*
X245780580Y-42454863D02*
X247103497Y-42454863D01*
X247103497Y-42454863D02*
X247103497Y-43777779D01*
X247103497Y-43777779D02*
X245780580Y-43777779D01*
X245780580Y-43777779D02*
X245780580Y-42454863D01*
X245780580Y-42454863D02*
X245780580Y-42454863D01*
G36*
X247103497Y-43777779D02*
G01*
X245780580Y-43777779D01*
X245780580Y-42454863D01*
X247103497Y-42454863D01*
X247103497Y-43777779D01*
G37*
X247103497Y-43777779D02*
X245780580Y-43777779D01*
X245780580Y-42454863D01*
X247103497Y-42454863D01*
X247103497Y-43777779D01*
X222920580Y-34834863D02*
X224243497Y-34834863D01*
X224243497Y-34834863D02*
X224243497Y-36157779D01*
X224243497Y-36157779D02*
X222920580Y-36157779D01*
X222920580Y-36157779D02*
X222920580Y-34834863D01*
X222920580Y-34834863D02*
X222920580Y-34834863D01*
G36*
X224243497Y-36157779D02*
G01*
X222920580Y-36157779D01*
X222920580Y-34834863D01*
X224243497Y-34834863D01*
X224243497Y-36157779D01*
G37*
X224243497Y-36157779D02*
X222920580Y-36157779D01*
X222920580Y-34834863D01*
X224243497Y-34834863D01*
X224243497Y-36157779D01*
X197520580Y-60234863D02*
X198843497Y-60234863D01*
X198843497Y-60234863D02*
X198843497Y-61557779D01*
X198843497Y-61557779D02*
X197520580Y-61557779D01*
X197520580Y-61557779D02*
X197520580Y-60234863D01*
X197520580Y-60234863D02*
X197520580Y-60234863D01*
G36*
X198843497Y-61557779D02*
G01*
X197520580Y-61557779D01*
X197520580Y-60234863D01*
X198843497Y-60234863D01*
X198843497Y-61557779D01*
G37*
X198843497Y-61557779D02*
X197520580Y-61557779D01*
X197520580Y-60234863D01*
X198843497Y-60234863D01*
X198843497Y-61557779D01*
X200060580Y-34834863D02*
X201383497Y-34834863D01*
X201383497Y-34834863D02*
X201383497Y-36157779D01*
X201383497Y-36157779D02*
X200060580Y-36157779D01*
X200060580Y-36157779D02*
X200060580Y-34834863D01*
X200060580Y-34834863D02*
X200060580Y-34834863D01*
G36*
X201383497Y-36157779D02*
G01*
X200060580Y-36157779D01*
X200060580Y-34834863D01*
X201383497Y-34834863D01*
X201383497Y-36157779D01*
G37*
X201383497Y-36157779D02*
X200060580Y-36157779D01*
X200060580Y-34834863D01*
X201383497Y-34834863D01*
X201383497Y-36157779D01*
D11*
X180340000Y-67362917D02*
X181001458Y-67362917D01*
X181001458Y-67362917D02*
X181001458Y-68685834D01*
X181001458Y-68685834D02*
X180340000Y-68685834D01*
X180340000Y-68685834D02*
X180340000Y-67362917D01*
X180340000Y-67362917D02*
X180340000Y-67362917D01*
G36*
X181001458Y-68685834D02*
G01*
X180340000Y-68685834D01*
X180340000Y-67362917D01*
X181001458Y-67362917D01*
X181001458Y-68685834D01*
G37*
X181001458Y-68685834D02*
X180340000Y-68685834D01*
X180340000Y-67362917D01*
X181001458Y-67362917D01*
X181001458Y-68685834D01*
X178355625Y-67362917D02*
X179017084Y-67362917D01*
X179017084Y-67362917D02*
X179017084Y-68024375D01*
X179017084Y-68024375D02*
X178355625Y-68024375D01*
X178355625Y-68024375D02*
X178355625Y-67362917D01*
X178355625Y-67362917D02*
X178355625Y-67362917D01*
G36*
X179017084Y-68024375D02*
G01*
X178355625Y-68024375D01*
X178355625Y-67362917D01*
X179017084Y-67362917D01*
X179017084Y-68024375D01*
G37*
X179017084Y-68024375D02*
X178355625Y-68024375D01*
X178355625Y-67362917D01*
X179017084Y-67362917D01*
X179017084Y-68024375D01*
X179678542Y-68024375D02*
X180340000Y-68024375D01*
X180340000Y-68024375D02*
X180340000Y-69347292D01*
X180340000Y-69347292D02*
X179678542Y-69347292D01*
X179678542Y-69347292D02*
X179678542Y-68024375D01*
X179678542Y-68024375D02*
X179678542Y-68024375D01*
G36*
X180340000Y-69347292D02*
G01*
X179678542Y-69347292D01*
X179678542Y-68024375D01*
X180340000Y-68024375D01*
X180340000Y-69347292D01*
G37*
X180340000Y-69347292D02*
X179678542Y-69347292D01*
X179678542Y-68024375D01*
X180340000Y-68024375D01*
X180340000Y-69347292D01*
X178355625Y-66040000D02*
X179678542Y-66040000D01*
X179678542Y-66040000D02*
X179678542Y-66701459D01*
X179678542Y-66701459D02*
X178355625Y-66701459D01*
X178355625Y-66701459D02*
X178355625Y-66040000D01*
X178355625Y-66040000D02*
X178355625Y-66040000D01*
G36*
X179678542Y-66701459D02*
G01*
X178355625Y-66701459D01*
X178355625Y-66040000D01*
X179678542Y-66040000D01*
X179678542Y-66701459D01*
G37*
X179678542Y-66701459D02*
X178355625Y-66701459D01*
X178355625Y-66040000D01*
X179678542Y-66040000D01*
X179678542Y-66701459D01*
X179017083Y-66701459D02*
X179678542Y-66701459D01*
X179678542Y-66701459D02*
X179678542Y-67362917D01*
X179678542Y-67362917D02*
X179017083Y-67362917D01*
X179017083Y-67362917D02*
X179017083Y-66701459D01*
X179017083Y-66701459D02*
X179017083Y-66701459D01*
G36*
X179678542Y-67362917D02*
G01*
X179017083Y-67362917D01*
X179017083Y-66701459D01*
X179678542Y-66701459D01*
X179678542Y-67362917D01*
G37*
X179678542Y-67362917D02*
X179017083Y-67362917D01*
X179017083Y-66701459D01*
X179678542Y-66701459D01*
X179678542Y-67362917D01*
X179017084Y-66701459D02*
X180340000Y-66701459D01*
X180340000Y-66701459D02*
X180340000Y-68024375D01*
X180340000Y-68024375D02*
X179017084Y-68024375D01*
X179017084Y-68024375D02*
X179017084Y-66701459D01*
X179017084Y-66701459D02*
X179017084Y-66701459D01*
G36*
X180340000Y-68024375D02*
G01*
X179017084Y-68024375D01*
X179017084Y-66701459D01*
X180340000Y-66701459D01*
X180340000Y-68024375D01*
G37*
X180340000Y-68024375D02*
X179017084Y-68024375D01*
X179017084Y-66701459D01*
X180340000Y-66701459D01*
X180340000Y-68024375D01*
X179678542Y-66040000D02*
X181001458Y-66040000D01*
X181001458Y-66040000D02*
X181001458Y-67362917D01*
X181001458Y-67362917D02*
X179678542Y-67362917D01*
X179678542Y-67362917D02*
X179678542Y-66040000D01*
X179678542Y-66040000D02*
X179678542Y-66040000D01*
G36*
X181001458Y-67362917D02*
G01*
X179678542Y-67362917D01*
X179678542Y-66040000D01*
X181001458Y-66040000D01*
X181001458Y-67362917D01*
G37*
X181001458Y-67362917D02*
X179678542Y-67362917D01*
X179678542Y-66040000D01*
X181001458Y-66040000D01*
X181001458Y-67362917D01*
X181001458Y-65378542D02*
X181662917Y-65378542D01*
X181662917Y-65378542D02*
X181662917Y-66040000D01*
X181662917Y-66040000D02*
X181001458Y-66040000D01*
X181001458Y-66040000D02*
X181001458Y-65378542D01*
X181001458Y-65378542D02*
X181001458Y-65378542D01*
G36*
X181662917Y-66040000D02*
G01*
X181001458Y-66040000D01*
X181001458Y-65378542D01*
X181662917Y-65378542D01*
X181662917Y-66040000D01*
G37*
X181662917Y-66040000D02*
X181001458Y-66040000D01*
X181001458Y-65378542D01*
X181662917Y-65378542D01*
X181662917Y-66040000D01*
X180340000Y-66040000D02*
X181001458Y-66040000D01*
X181001458Y-66040000D02*
X181001458Y-66701459D01*
X181001458Y-66701459D02*
X180340000Y-66701459D01*
X180340000Y-66701459D02*
X180340000Y-66040000D01*
X180340000Y-66040000D02*
X180340000Y-66040000D01*
G36*
X181001458Y-66701459D02*
G01*
X180340000Y-66701459D01*
X180340000Y-66040000D01*
X181001458Y-66040000D01*
X181001458Y-66701459D01*
G37*
X181001458Y-66701459D02*
X180340000Y-66701459D01*
X180340000Y-66040000D01*
X181001458Y-66040000D01*
X181001458Y-66701459D01*
X179017084Y-68024375D02*
X179678542Y-68024375D01*
X179678542Y-68024375D02*
X179678542Y-68685834D01*
X179678542Y-68685834D02*
X179017084Y-68685834D01*
X179017084Y-68685834D02*
X179017084Y-68024375D01*
X179017084Y-68024375D02*
X179017084Y-68024375D01*
G36*
X179678542Y-68685834D02*
G01*
X179017084Y-68685834D01*
X179017084Y-68024375D01*
X179678542Y-68024375D01*
X179678542Y-68685834D01*
G37*
X179678542Y-68685834D02*
X179017084Y-68685834D01*
X179017084Y-68024375D01*
X179678542Y-68024375D01*
X179678542Y-68685834D01*
X179678542Y-67362917D02*
X180340000Y-67362917D01*
X180340000Y-67362917D02*
X180340000Y-68024375D01*
X180340000Y-68024375D02*
X179678542Y-68024375D01*
X179678542Y-68024375D02*
X179678542Y-67362917D01*
X179678542Y-67362917D02*
X179678542Y-67362917D01*
G36*
X180340000Y-68024375D02*
G01*
X179678542Y-68024375D01*
X179678542Y-67362917D01*
X180340000Y-67362917D01*
X180340000Y-68024375D01*
G37*
X180340000Y-68024375D02*
X179678542Y-68024375D01*
X179678542Y-67362917D01*
X180340000Y-67362917D01*
X180340000Y-68024375D01*
X179017083Y-65378542D02*
X180340000Y-65378542D01*
X180340000Y-65378542D02*
X180340000Y-66040000D01*
X180340000Y-66040000D02*
X179017083Y-66040000D01*
X179017083Y-66040000D02*
X179017083Y-65378542D01*
X179017083Y-65378542D02*
X179017083Y-65378542D01*
G36*
X180340000Y-66040000D02*
G01*
X179017083Y-66040000D01*
X179017083Y-65378542D01*
X180340000Y-65378542D01*
X180340000Y-66040000D01*
G37*
X180340000Y-66040000D02*
X179017083Y-66040000D01*
X179017083Y-65378542D01*
X180340000Y-65378542D01*
X180340000Y-66040000D01*
D10*
X172120580Y-29754863D02*
X173443497Y-29754863D01*
X173443497Y-29754863D02*
X173443497Y-31077779D01*
X173443497Y-31077779D02*
X172120580Y-31077779D01*
X172120580Y-31077779D02*
X172120580Y-29754863D01*
X172120580Y-29754863D02*
X172120580Y-29754863D01*
G36*
X173443497Y-31077779D02*
G01*
X172120580Y-31077779D01*
X172120580Y-29754863D01*
X173443497Y-29754863D01*
X173443497Y-31077779D01*
G37*
X173443497Y-31077779D02*
X172120580Y-31077779D01*
X172120580Y-29754863D01*
X173443497Y-29754863D01*
X173443497Y-31077779D01*
X179740580Y-47534863D02*
X181063497Y-47534863D01*
X181063497Y-47534863D02*
X181063497Y-48857779D01*
X181063497Y-48857779D02*
X179740580Y-48857779D01*
X179740580Y-48857779D02*
X179740580Y-47534863D01*
X179740580Y-47534863D02*
X179740580Y-47534863D01*
G36*
X181063497Y-48857779D02*
G01*
X179740580Y-48857779D01*
X179740580Y-47534863D01*
X181063497Y-47534863D01*
X181063497Y-48857779D01*
G37*
X181063497Y-48857779D02*
X179740580Y-48857779D01*
X179740580Y-47534863D01*
X181063497Y-47534863D01*
X181063497Y-48857779D01*
X210158542Y-68474166D02*
X210158542Y-69135625D01*
X210158542Y-69135625D02*
X210820000Y-69135625D01*
X210820000Y-69135625D02*
X210820000Y-68474166D01*
X210820000Y-68474166D02*
X210158542Y-68474166D01*
X210158542Y-68474166D02*
X210158542Y-68474166D01*
G36*
X210820000Y-69135625D02*
G01*
X210158542Y-69135625D01*
X210158542Y-68474166D01*
X210820000Y-68474166D01*
X210820000Y-69135625D01*
G37*
X210820000Y-69135625D02*
X210158542Y-69135625D01*
X210158542Y-68474166D01*
X210820000Y-68474166D01*
X210820000Y-69135625D01*
X212804375Y-69797083D02*
X212804375Y-70458541D01*
X212804375Y-70458541D02*
X213465833Y-70458541D01*
X213465833Y-70458541D02*
X213465833Y-69797083D01*
X213465833Y-69797083D02*
X212804375Y-69797083D01*
X212804375Y-69797083D02*
X212804375Y-69797083D01*
G36*
X213465833Y-70458541D02*
G01*
X212804375Y-70458541D01*
X212804375Y-69797083D01*
X213465833Y-69797083D01*
X213465833Y-70458541D01*
G37*
X213465833Y-70458541D02*
X212804375Y-70458541D01*
X212804375Y-69797083D01*
X213465833Y-69797083D01*
X213465833Y-70458541D01*
X211481458Y-68474166D02*
X211481458Y-69797083D01*
X211481458Y-69797083D02*
X211481458Y-70458541D01*
X211481458Y-70458541D02*
X212142917Y-70458541D01*
X212142917Y-70458541D02*
X212142917Y-69797083D01*
X212142917Y-69797083D02*
X212804375Y-69797083D01*
X212804375Y-69797083D02*
X212804375Y-69135625D01*
X212804375Y-69135625D02*
X212804375Y-68474166D01*
X212804375Y-68474166D02*
X211481458Y-68474166D01*
X211481458Y-68474166D02*
X211481458Y-68474166D01*
G36*
X212804375Y-69797083D02*
G01*
X212142917Y-69797083D01*
X212142917Y-70458541D01*
X211481458Y-70458541D01*
X211481458Y-68474166D01*
X212804375Y-68474166D01*
X212804375Y-69797083D01*
G37*
X212804375Y-69797083D02*
X212142917Y-69797083D01*
X212142917Y-70458541D01*
X211481458Y-70458541D01*
X211481458Y-68474166D01*
X212804375Y-68474166D01*
X212804375Y-69797083D01*
X212804375Y-68474166D02*
X213465833Y-68474166D01*
X213465833Y-68474166D02*
X213465833Y-67812708D01*
X213465833Y-67812708D02*
X212804375Y-67812708D01*
X212804375Y-67812708D02*
X212804375Y-68474166D01*
X212804375Y-68474166D02*
X212804375Y-68474166D01*
G36*
X213465833Y-68474166D02*
G01*
X212804375Y-68474166D01*
X212804375Y-67812708D01*
X213465833Y-67812708D01*
X213465833Y-68474166D01*
G37*
X213465833Y-68474166D02*
X212804375Y-68474166D01*
X212804375Y-67812708D01*
X213465833Y-67812708D01*
X213465833Y-68474166D01*
X212142917Y-69135625D02*
X212804375Y-69135625D01*
X212804375Y-69135625D02*
X212804375Y-68474166D01*
X212804375Y-68474166D02*
X212142917Y-68474166D01*
X212142917Y-68474166D02*
X212142917Y-69135625D01*
X212142917Y-69135625D02*
X212142917Y-69135625D01*
G36*
X212804375Y-69135625D02*
G01*
X212142917Y-69135625D01*
X212142917Y-68474166D01*
X212804375Y-68474166D01*
X212804375Y-69135625D01*
G37*
X212804375Y-69135625D02*
X212142917Y-69135625D01*
X212142917Y-68474166D01*
X212804375Y-68474166D01*
X212804375Y-69135625D01*
X210820000Y-67812708D02*
X210820000Y-68474166D01*
X210820000Y-68474166D02*
X211481458Y-68474166D01*
X211481458Y-68474166D02*
X211481458Y-67812708D01*
X211481458Y-67812708D02*
X210820000Y-67812708D01*
X210820000Y-67812708D02*
X210820000Y-67812708D01*
G36*
X211481458Y-68474166D02*
G01*
X210820000Y-68474166D01*
X210820000Y-67812708D01*
X211481458Y-67812708D01*
X211481458Y-68474166D01*
G37*
X211481458Y-68474166D02*
X210820000Y-68474166D01*
X210820000Y-67812708D01*
X211481458Y-67812708D01*
X211481458Y-68474166D01*
X211481458Y-70458541D02*
X210820000Y-70458541D01*
X210820000Y-70458541D02*
X210820000Y-71120000D01*
X210820000Y-71120000D02*
X211481458Y-71120000D01*
X211481458Y-71120000D02*
X211481458Y-70458541D01*
X211481458Y-70458541D02*
X211481458Y-70458541D01*
G36*
X211481458Y-71120000D02*
G01*
X210820000Y-71120000D01*
X210820000Y-70458541D01*
X211481458Y-70458541D01*
X211481458Y-71120000D01*
G37*
X211481458Y-71120000D02*
X210820000Y-71120000D01*
X210820000Y-70458541D01*
X211481458Y-70458541D01*
X211481458Y-71120000D01*
X212804375Y-69135625D02*
X212804375Y-69797083D01*
X212804375Y-69797083D02*
X213465833Y-69797083D01*
X213465833Y-69797083D02*
X213465833Y-69135625D01*
X213465833Y-69135625D02*
X212804375Y-69135625D01*
X212804375Y-69135625D02*
X212804375Y-69135625D01*
G36*
X213465833Y-69797083D02*
G01*
X212804375Y-69797083D01*
X212804375Y-69135625D01*
X213465833Y-69135625D01*
X213465833Y-69797083D01*
G37*
X213465833Y-69797083D02*
X212804375Y-69797083D01*
X212804375Y-69135625D01*
X213465833Y-69135625D01*
X213465833Y-69797083D01*
X213465833Y-68474166D02*
X213465833Y-69135625D01*
X213465833Y-69135625D02*
X214127292Y-69135625D01*
X214127292Y-69135625D02*
X214127292Y-68474166D01*
X214127292Y-68474166D02*
X213465833Y-68474166D01*
X213465833Y-68474166D02*
X213465833Y-68474166D01*
G36*
X214127292Y-69135625D02*
G01*
X213465833Y-69135625D01*
X213465833Y-68474166D01*
X214127292Y-68474166D01*
X214127292Y-69135625D01*
G37*
X214127292Y-69135625D02*
X213465833Y-69135625D01*
X213465833Y-68474166D01*
X214127292Y-68474166D01*
X214127292Y-69135625D01*
X210820000Y-69135625D02*
X210820000Y-70458541D01*
X210820000Y-70458541D02*
X210820000Y-71120000D01*
X210820000Y-71120000D02*
X211481458Y-71120000D01*
X211481458Y-71120000D02*
X211481458Y-70458541D01*
X211481458Y-70458541D02*
X212142917Y-70458541D01*
X212142917Y-70458541D02*
X212142917Y-69797083D01*
X212142917Y-69797083D02*
X212142917Y-69135625D01*
X212142917Y-69135625D02*
X210820000Y-69135625D01*
X210820000Y-69135625D02*
X210820000Y-69135625D01*
G36*
X212142917Y-70458541D02*
G01*
X211481458Y-70458541D01*
X211481458Y-71120000D01*
X210820000Y-71120000D01*
X210820000Y-69135625D01*
X212142917Y-69135625D01*
X212142917Y-70458541D01*
G37*
X212142917Y-70458541D02*
X211481458Y-70458541D01*
X211481458Y-71120000D01*
X210820000Y-71120000D01*
X210820000Y-69135625D01*
X212142917Y-69135625D01*
X212142917Y-70458541D01*
X210820000Y-71120000D02*
X210158542Y-71120000D01*
X210158542Y-71120000D02*
X210158542Y-71781458D01*
X210158542Y-71781458D02*
X210820000Y-71781458D01*
X210820000Y-71781458D02*
X210820000Y-71120000D01*
X210820000Y-71120000D02*
X210820000Y-71120000D01*
G36*
X210820000Y-71781458D02*
G01*
X210158542Y-71781458D01*
X210158542Y-71120000D01*
X210820000Y-71120000D01*
X210820000Y-71781458D01*
G37*
X210820000Y-71781458D02*
X210158542Y-71781458D01*
X210158542Y-71120000D01*
X210820000Y-71120000D01*
X210820000Y-71781458D01*
X212142917Y-70458541D02*
X212142917Y-71120000D01*
X212142917Y-71120000D02*
X212804375Y-71120000D01*
X212804375Y-71120000D02*
X212804375Y-70458541D01*
X212804375Y-70458541D02*
X212142917Y-70458541D01*
X212142917Y-70458541D02*
X212142917Y-70458541D01*
G36*
X212804375Y-71120000D02*
G01*
X212142917Y-71120000D01*
X212142917Y-70458541D01*
X212804375Y-70458541D01*
X212804375Y-71120000D01*
G37*
X212804375Y-71120000D02*
X212142917Y-71120000D01*
X212142917Y-70458541D01*
X212804375Y-70458541D01*
X212804375Y-71120000D01*
X169580580Y-67854863D02*
X170903497Y-67854863D01*
X170903497Y-67854863D02*
X170903497Y-69177779D01*
X170903497Y-69177779D02*
X169580580Y-69177779D01*
X169580580Y-69177779D02*
X169580580Y-67854863D01*
X169580580Y-67854863D02*
X169580580Y-67854863D01*
G36*
X170903497Y-69177779D02*
G01*
X169580580Y-69177779D01*
X169580580Y-67854863D01*
X170903497Y-67854863D01*
X170903497Y-69177779D01*
G37*
X170903497Y-69177779D02*
X169580580Y-69177779D01*
X169580580Y-67854863D01*
X170903497Y-67854863D01*
X170903497Y-69177779D01*
X210220580Y-50074863D02*
X211543497Y-50074863D01*
X211543497Y-50074863D02*
X211543497Y-51397779D01*
X211543497Y-51397779D02*
X210220580Y-51397779D01*
X210220580Y-51397779D02*
X210220580Y-50074863D01*
X210220580Y-50074863D02*
X210220580Y-50074863D01*
G36*
X211543497Y-51397779D02*
G01*
X210220580Y-51397779D01*
X210220580Y-50074863D01*
X211543497Y-50074863D01*
X211543497Y-51397779D01*
G37*
X211543497Y-51397779D02*
X210220580Y-51397779D01*
X210220580Y-50074863D01*
X211543497Y-50074863D01*
X211543497Y-51397779D01*
X159358542Y-68474166D02*
X159358542Y-69135625D01*
X159358542Y-69135625D02*
X160020000Y-69135625D01*
X160020000Y-69135625D02*
X160020000Y-68474166D01*
X160020000Y-68474166D02*
X159358542Y-68474166D01*
X159358542Y-68474166D02*
X159358542Y-68474166D01*
G36*
X160020000Y-69135625D02*
G01*
X159358542Y-69135625D01*
X159358542Y-68474166D01*
X160020000Y-68474166D01*
X160020000Y-69135625D01*
G37*
X160020000Y-69135625D02*
X159358542Y-69135625D01*
X159358542Y-68474166D01*
X160020000Y-68474166D01*
X160020000Y-69135625D01*
X162004375Y-69797083D02*
X162004375Y-70458541D01*
X162004375Y-70458541D02*
X162665833Y-70458541D01*
X162665833Y-70458541D02*
X162665833Y-69797083D01*
X162665833Y-69797083D02*
X162004375Y-69797083D01*
X162004375Y-69797083D02*
X162004375Y-69797083D01*
G36*
X162665833Y-70458541D02*
G01*
X162004375Y-70458541D01*
X162004375Y-69797083D01*
X162665833Y-69797083D01*
X162665833Y-70458541D01*
G37*
X162665833Y-70458541D02*
X162004375Y-70458541D01*
X162004375Y-69797083D01*
X162665833Y-69797083D01*
X162665833Y-70458541D01*
X160681458Y-68474166D02*
X160681458Y-69797083D01*
X160681458Y-69797083D02*
X160681458Y-70458541D01*
X160681458Y-70458541D02*
X161342917Y-70458541D01*
X161342917Y-70458541D02*
X161342917Y-69797083D01*
X161342917Y-69797083D02*
X162004375Y-69797083D01*
X162004375Y-69797083D02*
X162004375Y-69135625D01*
X162004375Y-69135625D02*
X162004375Y-68474166D01*
X162004375Y-68474166D02*
X160681458Y-68474166D01*
X160681458Y-68474166D02*
X160681458Y-68474166D01*
G36*
X162004375Y-69797083D02*
G01*
X161342917Y-69797083D01*
X161342917Y-70458541D01*
X160681458Y-70458541D01*
X160681458Y-68474166D01*
X162004375Y-68474166D01*
X162004375Y-69797083D01*
G37*
X162004375Y-69797083D02*
X161342917Y-69797083D01*
X161342917Y-70458541D01*
X160681458Y-70458541D01*
X160681458Y-68474166D01*
X162004375Y-68474166D01*
X162004375Y-69797083D01*
X162004375Y-68474166D02*
X162665833Y-68474166D01*
X162665833Y-68474166D02*
X162665833Y-67812708D01*
X162665833Y-67812708D02*
X162004375Y-67812708D01*
X162004375Y-67812708D02*
X162004375Y-68474166D01*
X162004375Y-68474166D02*
X162004375Y-68474166D01*
G36*
X162665833Y-68474166D02*
G01*
X162004375Y-68474166D01*
X162004375Y-67812708D01*
X162665833Y-67812708D01*
X162665833Y-68474166D01*
G37*
X162665833Y-68474166D02*
X162004375Y-68474166D01*
X162004375Y-67812708D01*
X162665833Y-67812708D01*
X162665833Y-68474166D01*
X161342917Y-69135625D02*
X162004375Y-69135625D01*
X162004375Y-69135625D02*
X162004375Y-68474166D01*
X162004375Y-68474166D02*
X161342917Y-68474166D01*
X161342917Y-68474166D02*
X161342917Y-69135625D01*
X161342917Y-69135625D02*
X161342917Y-69135625D01*
G36*
X162004375Y-69135625D02*
G01*
X161342917Y-69135625D01*
X161342917Y-68474166D01*
X162004375Y-68474166D01*
X162004375Y-69135625D01*
G37*
X162004375Y-69135625D02*
X161342917Y-69135625D01*
X161342917Y-68474166D01*
X162004375Y-68474166D01*
X162004375Y-69135625D01*
X160020000Y-67812708D02*
X160020000Y-68474166D01*
X160020000Y-68474166D02*
X160681458Y-68474166D01*
X160681458Y-68474166D02*
X160681458Y-67812708D01*
X160681458Y-67812708D02*
X160020000Y-67812708D01*
X160020000Y-67812708D02*
X160020000Y-67812708D01*
G36*
X160681458Y-68474166D02*
G01*
X160020000Y-68474166D01*
X160020000Y-67812708D01*
X160681458Y-67812708D01*
X160681458Y-68474166D01*
G37*
X160681458Y-68474166D02*
X160020000Y-68474166D01*
X160020000Y-67812708D01*
X160681458Y-67812708D01*
X160681458Y-68474166D01*
X160681458Y-70458541D02*
X160020000Y-70458541D01*
X160020000Y-70458541D02*
X160020000Y-71120000D01*
X160020000Y-71120000D02*
X160681458Y-71120000D01*
X160681458Y-71120000D02*
X160681458Y-70458541D01*
X160681458Y-70458541D02*
X160681458Y-70458541D01*
G36*
X160681458Y-71120000D02*
G01*
X160020000Y-71120000D01*
X160020000Y-70458541D01*
X160681458Y-70458541D01*
X160681458Y-71120000D01*
G37*
X160681458Y-71120000D02*
X160020000Y-71120000D01*
X160020000Y-70458541D01*
X160681458Y-70458541D01*
X160681458Y-71120000D01*
X162004375Y-69135625D02*
X162004375Y-69797083D01*
X162004375Y-69797083D02*
X162665833Y-69797083D01*
X162665833Y-69797083D02*
X162665833Y-69135625D01*
X162665833Y-69135625D02*
X162004375Y-69135625D01*
X162004375Y-69135625D02*
X162004375Y-69135625D01*
G36*
X162665833Y-69797083D02*
G01*
X162004375Y-69797083D01*
X162004375Y-69135625D01*
X162665833Y-69135625D01*
X162665833Y-69797083D01*
G37*
X162665833Y-69797083D02*
X162004375Y-69797083D01*
X162004375Y-69135625D01*
X162665833Y-69135625D01*
X162665833Y-69797083D01*
X162665833Y-68474166D02*
X162665833Y-69135625D01*
X162665833Y-69135625D02*
X163327292Y-69135625D01*
X163327292Y-69135625D02*
X163327292Y-68474166D01*
X163327292Y-68474166D02*
X162665833Y-68474166D01*
X162665833Y-68474166D02*
X162665833Y-68474166D01*
G36*
X163327292Y-69135625D02*
G01*
X162665833Y-69135625D01*
X162665833Y-68474166D01*
X163327292Y-68474166D01*
X163327292Y-69135625D01*
G37*
X163327292Y-69135625D02*
X162665833Y-69135625D01*
X162665833Y-68474166D01*
X163327292Y-68474166D01*
X163327292Y-69135625D01*
X160020000Y-69135625D02*
X160020000Y-70458541D01*
X160020000Y-70458541D02*
X160020000Y-71120000D01*
X160020000Y-71120000D02*
X160681458Y-71120000D01*
X160681458Y-71120000D02*
X160681458Y-70458541D01*
X160681458Y-70458541D02*
X161342917Y-70458541D01*
X161342917Y-70458541D02*
X161342917Y-69797083D01*
X161342917Y-69797083D02*
X161342917Y-69135625D01*
X161342917Y-69135625D02*
X160020000Y-69135625D01*
X160020000Y-69135625D02*
X160020000Y-69135625D01*
G36*
X161342917Y-70458541D02*
G01*
X160681458Y-70458541D01*
X160681458Y-71120000D01*
X160020000Y-71120000D01*
X160020000Y-69135625D01*
X161342917Y-69135625D01*
X161342917Y-70458541D01*
G37*
X161342917Y-70458541D02*
X160681458Y-70458541D01*
X160681458Y-71120000D01*
X160020000Y-71120000D01*
X160020000Y-69135625D01*
X161342917Y-69135625D01*
X161342917Y-70458541D01*
X160020000Y-71120000D02*
X159358542Y-71120000D01*
X159358542Y-71120000D02*
X159358542Y-71781458D01*
X159358542Y-71781458D02*
X160020000Y-71781458D01*
X160020000Y-71781458D02*
X160020000Y-71120000D01*
X160020000Y-71120000D02*
X160020000Y-71120000D01*
G36*
X160020000Y-71781458D02*
G01*
X159358542Y-71781458D01*
X159358542Y-71120000D01*
X160020000Y-71120000D01*
X160020000Y-71781458D01*
G37*
X160020000Y-71781458D02*
X159358542Y-71781458D01*
X159358542Y-71120000D01*
X160020000Y-71120000D01*
X160020000Y-71781458D01*
X161342917Y-70458541D02*
X161342917Y-71120000D01*
X161342917Y-71120000D02*
X162004375Y-71120000D01*
X162004375Y-71120000D02*
X162004375Y-70458541D01*
X162004375Y-70458541D02*
X161342917Y-70458541D01*
X161342917Y-70458541D02*
X161342917Y-70458541D01*
G36*
X162004375Y-71120000D02*
G01*
X161342917Y-71120000D01*
X161342917Y-70458541D01*
X162004375Y-70458541D01*
X162004375Y-71120000D01*
G37*
X162004375Y-71120000D02*
X161342917Y-71120000D01*
X161342917Y-70458541D01*
X162004375Y-70458541D01*
X162004375Y-71120000D01*
X187360580Y-67854863D02*
X188683497Y-67854863D01*
X188683497Y-67854863D02*
X188683497Y-69177779D01*
X188683497Y-69177779D02*
X187360580Y-69177779D01*
X187360580Y-69177779D02*
X187360580Y-67854863D01*
X187360580Y-67854863D02*
X187360580Y-67854863D01*
G36*
X188683497Y-69177779D02*
G01*
X187360580Y-69177779D01*
X187360580Y-67854863D01*
X188683497Y-67854863D01*
X188683497Y-69177779D01*
G37*
X188683497Y-69177779D02*
X187360580Y-69177779D01*
X187360580Y-67854863D01*
X188683497Y-67854863D01*
X188683497Y-69177779D01*
D11*
X227668386Y-30077035D02*
X227668386Y-30738493D01*
X227668386Y-30738493D02*
X227006928Y-30738493D01*
X227006928Y-30738493D02*
X227006928Y-31399951D01*
X227006928Y-31399951D02*
X227668386Y-31399951D01*
X227668386Y-31399951D02*
X227668386Y-32061410D01*
X227668386Y-32061410D02*
X228329845Y-32061410D01*
X228329845Y-32061410D02*
X228329845Y-31399951D01*
X228329845Y-31399951D02*
X228991303Y-31399951D01*
X228991303Y-31399951D02*
X228991303Y-30738493D01*
X228991303Y-30738493D02*
X228329845Y-30738493D01*
X228329845Y-30738493D02*
X228329845Y-30077035D01*
X228329845Y-30077035D02*
X227668386Y-30077035D01*
X227668386Y-30077035D02*
X227668386Y-30077035D01*
G36*
X228329845Y-30738493D02*
G01*
X228991303Y-30738493D01*
X228991303Y-31399951D01*
X228329845Y-31399951D01*
X228329845Y-32061410D01*
X227668386Y-32061410D01*
X227668386Y-31399951D01*
X227006928Y-31399951D01*
X227006928Y-30738493D01*
X227668386Y-30738493D01*
X227668386Y-30077035D01*
X228329845Y-30077035D01*
X228329845Y-30738493D01*
G37*
X228329845Y-30738493D02*
X228991303Y-30738493D01*
X228991303Y-31399951D01*
X228329845Y-31399951D01*
X228329845Y-32061410D01*
X227668386Y-32061410D01*
X227668386Y-31399951D01*
X227006928Y-31399951D01*
X227006928Y-30738493D01*
X227668386Y-30738493D01*
X227668386Y-30077035D01*
X228329845Y-30077035D01*
X228329845Y-30738493D01*
X228329845Y-29415576D02*
X228329845Y-30077035D01*
X228329845Y-30077035D02*
X227668386Y-30077035D01*
X227668386Y-30077035D02*
X227668386Y-30738493D01*
X227668386Y-30738493D02*
X228329845Y-30738493D01*
X228329845Y-30738493D02*
X228329845Y-31399951D01*
X228329845Y-31399951D02*
X228991303Y-31399951D01*
X228991303Y-31399951D02*
X228991303Y-30738493D01*
X228991303Y-30738493D02*
X229652761Y-30738493D01*
X229652761Y-30738493D02*
X229652761Y-30077035D01*
X229652761Y-30077035D02*
X228991303Y-30077035D01*
X228991303Y-30077035D02*
X228991303Y-29415576D01*
X228991303Y-29415576D02*
X228329845Y-29415576D01*
X228329845Y-29415576D02*
X228329845Y-29415576D01*
G36*
X228991303Y-30077035D02*
G01*
X229652761Y-30077035D01*
X229652761Y-30738493D01*
X228991303Y-30738493D01*
X228991303Y-31399951D01*
X228329845Y-31399951D01*
X228329845Y-30738493D01*
X227668386Y-30738493D01*
X227668386Y-30077035D01*
X228329845Y-30077035D01*
X228329845Y-29415576D01*
X228991303Y-29415576D01*
X228991303Y-30077035D01*
G37*
X228991303Y-30077035D02*
X229652761Y-30077035D01*
X229652761Y-30738493D01*
X228991303Y-30738493D01*
X228991303Y-31399951D01*
X228329845Y-31399951D01*
X228329845Y-30738493D01*
X227668386Y-30738493D01*
X227668386Y-30077035D01*
X228329845Y-30077035D01*
X228329845Y-29415576D01*
X228991303Y-29415576D01*
X228991303Y-30077035D01*
X228329845Y-64975576D02*
X228329845Y-65637035D01*
X228329845Y-65637035D02*
X227668386Y-65637035D01*
X227668386Y-65637035D02*
X227668386Y-66298493D01*
X227668386Y-66298493D02*
X228329845Y-66298493D01*
X228329845Y-66298493D02*
X228329845Y-66959951D01*
X228329845Y-66959951D02*
X228991303Y-66959951D01*
X228991303Y-66959951D02*
X228991303Y-66298493D01*
X228991303Y-66298493D02*
X229652761Y-66298493D01*
X229652761Y-66298493D02*
X229652761Y-65637035D01*
X229652761Y-65637035D02*
X228991303Y-65637035D01*
X228991303Y-65637035D02*
X228991303Y-64975576D01*
X228991303Y-64975576D02*
X228329845Y-64975576D01*
X228329845Y-64975576D02*
X228329845Y-64975576D01*
G36*
X228991303Y-65637035D02*
G01*
X229652761Y-65637035D01*
X229652761Y-66298493D01*
X228991303Y-66298493D01*
X228991303Y-66959951D01*
X228329845Y-66959951D01*
X228329845Y-66298493D01*
X227668386Y-66298493D01*
X227668386Y-65637035D01*
X228329845Y-65637035D01*
X228329845Y-64975576D01*
X228991303Y-64975576D01*
X228991303Y-65637035D01*
G37*
X228991303Y-65637035D02*
X229652761Y-65637035D01*
X229652761Y-66298493D01*
X228991303Y-66298493D01*
X228991303Y-66959951D01*
X228329845Y-66959951D01*
X228329845Y-66298493D01*
X227668386Y-66298493D01*
X227668386Y-65637035D01*
X228329845Y-65637035D01*
X228329845Y-64975576D01*
X228991303Y-64975576D01*
X228991303Y-65637035D01*
X227668386Y-65637035D02*
X227668386Y-66298493D01*
X227668386Y-66298493D02*
X227006928Y-66298493D01*
X227006928Y-66298493D02*
X227006928Y-66959951D01*
X227006928Y-66959951D02*
X227668386Y-66959951D01*
X227668386Y-66959951D02*
X227668386Y-67621410D01*
X227668386Y-67621410D02*
X228329845Y-67621410D01*
X228329845Y-67621410D02*
X228329845Y-66959951D01*
X228329845Y-66959951D02*
X228991303Y-66959951D01*
X228991303Y-66959951D02*
X228991303Y-66298493D01*
X228991303Y-66298493D02*
X228329845Y-66298493D01*
X228329845Y-66298493D02*
X228329845Y-65637035D01*
X228329845Y-65637035D02*
X227668386Y-65637035D01*
X227668386Y-65637035D02*
X227668386Y-65637035D01*
G36*
X228329845Y-66298493D02*
G01*
X228991303Y-66298493D01*
X228991303Y-66959951D01*
X228329845Y-66959951D01*
X228329845Y-67621410D01*
X227668386Y-67621410D01*
X227668386Y-66959951D01*
X227006928Y-66959951D01*
X227006928Y-66298493D01*
X227668386Y-66298493D01*
X227668386Y-65637035D01*
X228329845Y-65637035D01*
X228329845Y-66298493D01*
G37*
X228329845Y-66298493D02*
X228991303Y-66298493D01*
X228991303Y-66959951D01*
X228329845Y-66959951D01*
X228329845Y-67621410D01*
X227668386Y-67621410D01*
X227668386Y-66959951D01*
X227006928Y-66959951D01*
X227006928Y-66298493D01*
X227668386Y-66298493D01*
X227668386Y-65637035D01*
X228329845Y-65637035D01*
X228329845Y-66298493D01*
X164829845Y-62435576D02*
X164829845Y-63097035D01*
X164829845Y-63097035D02*
X164168386Y-63097035D01*
X164168386Y-63097035D02*
X164168386Y-63758493D01*
X164168386Y-63758493D02*
X164829845Y-63758493D01*
X164829845Y-63758493D02*
X164829845Y-64419951D01*
X164829845Y-64419951D02*
X165491303Y-64419951D01*
X165491303Y-64419951D02*
X165491303Y-63758493D01*
X165491303Y-63758493D02*
X166152761Y-63758493D01*
X166152761Y-63758493D02*
X166152761Y-63097035D01*
X166152761Y-63097035D02*
X165491303Y-63097035D01*
X165491303Y-63097035D02*
X165491303Y-62435576D01*
X165491303Y-62435576D02*
X164829845Y-62435576D01*
X164829845Y-62435576D02*
X164829845Y-62435576D01*
G36*
X165491303Y-63097035D02*
G01*
X166152761Y-63097035D01*
X166152761Y-63758493D01*
X165491303Y-63758493D01*
X165491303Y-64419951D01*
X164829845Y-64419951D01*
X164829845Y-63758493D01*
X164168386Y-63758493D01*
X164168386Y-63097035D01*
X164829845Y-63097035D01*
X164829845Y-62435576D01*
X165491303Y-62435576D01*
X165491303Y-63097035D01*
G37*
X165491303Y-63097035D02*
X166152761Y-63097035D01*
X166152761Y-63758493D01*
X165491303Y-63758493D01*
X165491303Y-64419951D01*
X164829845Y-64419951D01*
X164829845Y-63758493D01*
X164168386Y-63758493D01*
X164168386Y-63097035D01*
X164829845Y-63097035D01*
X164829845Y-62435576D01*
X165491303Y-62435576D01*
X165491303Y-63097035D01*
X164168386Y-63097035D02*
X164168386Y-63758493D01*
X164168386Y-63758493D02*
X163506928Y-63758493D01*
X163506928Y-63758493D02*
X163506928Y-64419951D01*
X163506928Y-64419951D02*
X164168386Y-64419951D01*
X164168386Y-64419951D02*
X164168386Y-65081410D01*
X164168386Y-65081410D02*
X164829845Y-65081410D01*
X164829845Y-65081410D02*
X164829845Y-64419951D01*
X164829845Y-64419951D02*
X165491303Y-64419951D01*
X165491303Y-64419951D02*
X165491303Y-63758493D01*
X165491303Y-63758493D02*
X164829845Y-63758493D01*
X164829845Y-63758493D02*
X164829845Y-63097035D01*
X164829845Y-63097035D02*
X164168386Y-63097035D01*
X164168386Y-63097035D02*
X164168386Y-63097035D01*
G36*
X164829845Y-63758493D02*
G01*
X165491303Y-63758493D01*
X165491303Y-64419951D01*
X164829845Y-64419951D01*
X164829845Y-65081410D01*
X164168386Y-65081410D01*
X164168386Y-64419951D01*
X163506928Y-64419951D01*
X163506928Y-63758493D01*
X164168386Y-63758493D01*
X164168386Y-63097035D01*
X164829845Y-63097035D01*
X164829845Y-63758493D01*
G37*
X164829845Y-63758493D02*
X165491303Y-63758493D01*
X165491303Y-64419951D01*
X164829845Y-64419951D01*
X164829845Y-65081410D01*
X164168386Y-65081410D01*
X164168386Y-64419951D01*
X163506928Y-64419951D01*
X163506928Y-63758493D01*
X164168386Y-63758493D01*
X164168386Y-63097035D01*
X164829845Y-63097035D01*
X164829845Y-63758493D01*
X162289845Y-31955576D02*
X162289845Y-32617035D01*
X162289845Y-32617035D02*
X161628386Y-32617035D01*
X161628386Y-32617035D02*
X161628386Y-33278493D01*
X161628386Y-33278493D02*
X162289845Y-33278493D01*
X162289845Y-33278493D02*
X162289845Y-33939951D01*
X162289845Y-33939951D02*
X162951303Y-33939951D01*
X162951303Y-33939951D02*
X162951303Y-33278493D01*
X162951303Y-33278493D02*
X163612761Y-33278493D01*
X163612761Y-33278493D02*
X163612761Y-32617035D01*
X163612761Y-32617035D02*
X162951303Y-32617035D01*
X162951303Y-32617035D02*
X162951303Y-31955576D01*
X162951303Y-31955576D02*
X162289845Y-31955576D01*
X162289845Y-31955576D02*
X162289845Y-31955576D01*
G36*
X162951303Y-32617035D02*
G01*
X163612761Y-32617035D01*
X163612761Y-33278493D01*
X162951303Y-33278493D01*
X162951303Y-33939951D01*
X162289845Y-33939951D01*
X162289845Y-33278493D01*
X161628386Y-33278493D01*
X161628386Y-32617035D01*
X162289845Y-32617035D01*
X162289845Y-31955576D01*
X162951303Y-31955576D01*
X162951303Y-32617035D01*
G37*
X162951303Y-32617035D02*
X163612761Y-32617035D01*
X163612761Y-33278493D01*
X162951303Y-33278493D01*
X162951303Y-33939951D01*
X162289845Y-33939951D01*
X162289845Y-33278493D01*
X161628386Y-33278493D01*
X161628386Y-32617035D01*
X162289845Y-32617035D01*
X162289845Y-31955576D01*
X162951303Y-31955576D01*
X162951303Y-32617035D01*
X161628386Y-32617035D02*
X161628386Y-33278493D01*
X161628386Y-33278493D02*
X160966928Y-33278493D01*
X160966928Y-33278493D02*
X160966928Y-33939951D01*
X160966928Y-33939951D02*
X161628386Y-33939951D01*
X161628386Y-33939951D02*
X161628386Y-34601410D01*
X161628386Y-34601410D02*
X162289845Y-34601410D01*
X162289845Y-34601410D02*
X162289845Y-33939951D01*
X162289845Y-33939951D02*
X162951303Y-33939951D01*
X162951303Y-33939951D02*
X162951303Y-33278493D01*
X162951303Y-33278493D02*
X162289845Y-33278493D01*
X162289845Y-33278493D02*
X162289845Y-32617035D01*
X162289845Y-32617035D02*
X161628386Y-32617035D01*
X161628386Y-32617035D02*
X161628386Y-32617035D01*
G36*
X162289845Y-33278493D02*
G01*
X162951303Y-33278493D01*
X162951303Y-33939951D01*
X162289845Y-33939951D01*
X162289845Y-34601410D01*
X161628386Y-34601410D01*
X161628386Y-33939951D01*
X160966928Y-33939951D01*
X160966928Y-33278493D01*
X161628386Y-33278493D01*
X161628386Y-32617035D01*
X162289845Y-32617035D01*
X162289845Y-33278493D01*
G37*
X162289845Y-33278493D02*
X162951303Y-33278493D01*
X162951303Y-33939951D01*
X162289845Y-33939951D01*
X162289845Y-34601410D01*
X161628386Y-34601410D01*
X161628386Y-33939951D01*
X160966928Y-33939951D01*
X160966928Y-33278493D01*
X161628386Y-33278493D01*
X161628386Y-32617035D01*
X162289845Y-32617035D01*
X162289845Y-33278493D01*
X192108386Y-37697035D02*
X192108386Y-38358493D01*
X192108386Y-38358493D02*
X191446928Y-38358493D01*
X191446928Y-38358493D02*
X191446928Y-39019951D01*
X191446928Y-39019951D02*
X192108386Y-39019951D01*
X192108386Y-39019951D02*
X192108386Y-39681410D01*
X192108386Y-39681410D02*
X192769845Y-39681410D01*
X192769845Y-39681410D02*
X192769845Y-39019951D01*
X192769845Y-39019951D02*
X193431303Y-39019951D01*
X193431303Y-39019951D02*
X193431303Y-38358493D01*
X193431303Y-38358493D02*
X192769845Y-38358493D01*
X192769845Y-38358493D02*
X192769845Y-37697035D01*
X192769845Y-37697035D02*
X192108386Y-37697035D01*
X192108386Y-37697035D02*
X192108386Y-37697035D01*
G36*
X192769845Y-38358493D02*
G01*
X193431303Y-38358493D01*
X193431303Y-39019951D01*
X192769845Y-39019951D01*
X192769845Y-39681410D01*
X192108386Y-39681410D01*
X192108386Y-39019951D01*
X191446928Y-39019951D01*
X191446928Y-38358493D01*
X192108386Y-38358493D01*
X192108386Y-37697035D01*
X192769845Y-37697035D01*
X192769845Y-38358493D01*
G37*
X192769845Y-38358493D02*
X193431303Y-38358493D01*
X193431303Y-39019951D01*
X192769845Y-39019951D01*
X192769845Y-39681410D01*
X192108386Y-39681410D01*
X192108386Y-39019951D01*
X191446928Y-39019951D01*
X191446928Y-38358493D01*
X192108386Y-38358493D01*
X192108386Y-37697035D01*
X192769845Y-37697035D01*
X192769845Y-38358493D01*
X192769845Y-37035576D02*
X192769845Y-37697035D01*
X192769845Y-37697035D02*
X192108386Y-37697035D01*
X192108386Y-37697035D02*
X192108386Y-38358493D01*
X192108386Y-38358493D02*
X192769845Y-38358493D01*
X192769845Y-38358493D02*
X192769845Y-39019951D01*
X192769845Y-39019951D02*
X193431303Y-39019951D01*
X193431303Y-39019951D02*
X193431303Y-38358493D01*
X193431303Y-38358493D02*
X194092761Y-38358493D01*
X194092761Y-38358493D02*
X194092761Y-37697035D01*
X194092761Y-37697035D02*
X193431303Y-37697035D01*
X193431303Y-37697035D02*
X193431303Y-37035576D01*
X193431303Y-37035576D02*
X192769845Y-37035576D01*
X192769845Y-37035576D02*
X192769845Y-37035576D01*
G36*
X193431303Y-37697035D02*
G01*
X194092761Y-37697035D01*
X194092761Y-38358493D01*
X193431303Y-38358493D01*
X193431303Y-39019951D01*
X192769845Y-39019951D01*
X192769845Y-38358493D01*
X192108386Y-38358493D01*
X192108386Y-37697035D01*
X192769845Y-37697035D01*
X192769845Y-37035576D01*
X193431303Y-37035576D01*
X193431303Y-37697035D01*
G37*
X193431303Y-37697035D02*
X194092761Y-37697035D01*
X194092761Y-38358493D01*
X193431303Y-38358493D01*
X193431303Y-39019951D01*
X192769845Y-39019951D01*
X192769845Y-38358493D01*
X192108386Y-38358493D01*
X192108386Y-37697035D01*
X192769845Y-37697035D01*
X192769845Y-37035576D01*
X193431303Y-37035576D01*
X193431303Y-37697035D01*
X232748386Y-35157035D02*
X232748386Y-35818493D01*
X232748386Y-35818493D02*
X232086928Y-35818493D01*
X232086928Y-35818493D02*
X232086928Y-36479951D01*
X232086928Y-36479951D02*
X232748386Y-36479951D01*
X232748386Y-36479951D02*
X232748386Y-37141410D01*
X232748386Y-37141410D02*
X233409845Y-37141410D01*
X233409845Y-37141410D02*
X233409845Y-36479951D01*
X233409845Y-36479951D02*
X234071303Y-36479951D01*
X234071303Y-36479951D02*
X234071303Y-35818493D01*
X234071303Y-35818493D02*
X233409845Y-35818493D01*
X233409845Y-35818493D02*
X233409845Y-35157035D01*
X233409845Y-35157035D02*
X232748386Y-35157035D01*
X232748386Y-35157035D02*
X232748386Y-35157035D01*
G36*
X233409845Y-35818493D02*
G01*
X234071303Y-35818493D01*
X234071303Y-36479951D01*
X233409845Y-36479951D01*
X233409845Y-37141410D01*
X232748386Y-37141410D01*
X232748386Y-36479951D01*
X232086928Y-36479951D01*
X232086928Y-35818493D01*
X232748386Y-35818493D01*
X232748386Y-35157035D01*
X233409845Y-35157035D01*
X233409845Y-35818493D01*
G37*
X233409845Y-35818493D02*
X234071303Y-35818493D01*
X234071303Y-36479951D01*
X233409845Y-36479951D01*
X233409845Y-37141410D01*
X232748386Y-37141410D01*
X232748386Y-36479951D01*
X232086928Y-36479951D01*
X232086928Y-35818493D01*
X232748386Y-35818493D01*
X232748386Y-35157035D01*
X233409845Y-35157035D01*
X233409845Y-35818493D01*
X233409845Y-34495576D02*
X233409845Y-35157035D01*
X233409845Y-35157035D02*
X232748386Y-35157035D01*
X232748386Y-35157035D02*
X232748386Y-35818493D01*
X232748386Y-35818493D02*
X233409845Y-35818493D01*
X233409845Y-35818493D02*
X233409845Y-36479951D01*
X233409845Y-36479951D02*
X234071303Y-36479951D01*
X234071303Y-36479951D02*
X234071303Y-35818493D01*
X234071303Y-35818493D02*
X234732761Y-35818493D01*
X234732761Y-35818493D02*
X234732761Y-35157035D01*
X234732761Y-35157035D02*
X234071303Y-35157035D01*
X234071303Y-35157035D02*
X234071303Y-34495576D01*
X234071303Y-34495576D02*
X233409845Y-34495576D01*
X233409845Y-34495576D02*
X233409845Y-34495576D01*
G36*
X234071303Y-35157035D02*
G01*
X234732761Y-35157035D01*
X234732761Y-35818493D01*
X234071303Y-35818493D01*
X234071303Y-36479951D01*
X233409845Y-36479951D01*
X233409845Y-35818493D01*
X232748386Y-35818493D01*
X232748386Y-35157035D01*
X233409845Y-35157035D01*
X233409845Y-34495576D01*
X234071303Y-34495576D01*
X234071303Y-35157035D01*
G37*
X234071303Y-35157035D02*
X234732761Y-35157035D01*
X234732761Y-35818493D01*
X234071303Y-35818493D01*
X234071303Y-36479951D01*
X233409845Y-36479951D01*
X233409845Y-35818493D01*
X232748386Y-35818493D01*
X232748386Y-35157035D01*
X233409845Y-35157035D01*
X233409845Y-34495576D01*
X234071303Y-34495576D01*
X234071303Y-35157035D01*
X237828386Y-60557035D02*
X237828386Y-61218493D01*
X237828386Y-61218493D02*
X237166928Y-61218493D01*
X237166928Y-61218493D02*
X237166928Y-61879951D01*
X237166928Y-61879951D02*
X237828386Y-61879951D01*
X237828386Y-61879951D02*
X237828386Y-62541410D01*
X237828386Y-62541410D02*
X238489845Y-62541410D01*
X238489845Y-62541410D02*
X238489845Y-61879951D01*
X238489845Y-61879951D02*
X239151303Y-61879951D01*
X239151303Y-61879951D02*
X239151303Y-61218493D01*
X239151303Y-61218493D02*
X238489845Y-61218493D01*
X238489845Y-61218493D02*
X238489845Y-60557035D01*
X238489845Y-60557035D02*
X237828386Y-60557035D01*
X237828386Y-60557035D02*
X237828386Y-60557035D01*
G36*
X238489845Y-61218493D02*
G01*
X239151303Y-61218493D01*
X239151303Y-61879951D01*
X238489845Y-61879951D01*
X238489845Y-62541410D01*
X237828386Y-62541410D01*
X237828386Y-61879951D01*
X237166928Y-61879951D01*
X237166928Y-61218493D01*
X237828386Y-61218493D01*
X237828386Y-60557035D01*
X238489845Y-60557035D01*
X238489845Y-61218493D01*
G37*
X238489845Y-61218493D02*
X239151303Y-61218493D01*
X239151303Y-61879951D01*
X238489845Y-61879951D01*
X238489845Y-62541410D01*
X237828386Y-62541410D01*
X237828386Y-61879951D01*
X237166928Y-61879951D01*
X237166928Y-61218493D01*
X237828386Y-61218493D01*
X237828386Y-60557035D01*
X238489845Y-60557035D01*
X238489845Y-61218493D01*
X238489845Y-59895576D02*
X238489845Y-60557035D01*
X238489845Y-60557035D02*
X237828386Y-60557035D01*
X237828386Y-60557035D02*
X237828386Y-61218493D01*
X237828386Y-61218493D02*
X238489845Y-61218493D01*
X238489845Y-61218493D02*
X238489845Y-61879951D01*
X238489845Y-61879951D02*
X239151303Y-61879951D01*
X239151303Y-61879951D02*
X239151303Y-61218493D01*
X239151303Y-61218493D02*
X239812761Y-61218493D01*
X239812761Y-61218493D02*
X239812761Y-60557035D01*
X239812761Y-60557035D02*
X239151303Y-60557035D01*
X239151303Y-60557035D02*
X239151303Y-59895576D01*
X239151303Y-59895576D02*
X238489845Y-59895576D01*
X238489845Y-59895576D02*
X238489845Y-59895576D01*
G36*
X239151303Y-60557035D02*
G01*
X239812761Y-60557035D01*
X239812761Y-61218493D01*
X239151303Y-61218493D01*
X239151303Y-61879951D01*
X238489845Y-61879951D01*
X238489845Y-61218493D01*
X237828386Y-61218493D01*
X237828386Y-60557035D01*
X238489845Y-60557035D01*
X238489845Y-59895576D01*
X239151303Y-59895576D01*
X239151303Y-60557035D01*
G37*
X239151303Y-60557035D02*
X239812761Y-60557035D01*
X239812761Y-61218493D01*
X239151303Y-61218493D01*
X239151303Y-61879951D01*
X238489845Y-61879951D01*
X238489845Y-61218493D01*
X237828386Y-61218493D01*
X237828386Y-60557035D01*
X238489845Y-60557035D01*
X238489845Y-59895576D01*
X239151303Y-59895576D01*
X239151303Y-60557035D01*
X199728386Y-65637035D02*
X199728386Y-66298493D01*
X199728386Y-66298493D02*
X199066928Y-66298493D01*
X199066928Y-66298493D02*
X199066928Y-66959951D01*
X199066928Y-66959951D02*
X199728386Y-66959951D01*
X199728386Y-66959951D02*
X199728386Y-67621410D01*
X199728386Y-67621410D02*
X200389845Y-67621410D01*
X200389845Y-67621410D02*
X200389845Y-66959951D01*
X200389845Y-66959951D02*
X201051303Y-66959951D01*
X201051303Y-66959951D02*
X201051303Y-66298493D01*
X201051303Y-66298493D02*
X200389845Y-66298493D01*
X200389845Y-66298493D02*
X200389845Y-65637035D01*
X200389845Y-65637035D02*
X199728386Y-65637035D01*
X199728386Y-65637035D02*
X199728386Y-65637035D01*
G36*
X200389845Y-66298493D02*
G01*
X201051303Y-66298493D01*
X201051303Y-66959951D01*
X200389845Y-66959951D01*
X200389845Y-67621410D01*
X199728386Y-67621410D01*
X199728386Y-66959951D01*
X199066928Y-66959951D01*
X199066928Y-66298493D01*
X199728386Y-66298493D01*
X199728386Y-65637035D01*
X200389845Y-65637035D01*
X200389845Y-66298493D01*
G37*
X200389845Y-66298493D02*
X201051303Y-66298493D01*
X201051303Y-66959951D01*
X200389845Y-66959951D01*
X200389845Y-67621410D01*
X199728386Y-67621410D01*
X199728386Y-66959951D01*
X199066928Y-66959951D01*
X199066928Y-66298493D01*
X199728386Y-66298493D01*
X199728386Y-65637035D01*
X200389845Y-65637035D01*
X200389845Y-66298493D01*
X200389845Y-64975576D02*
X200389845Y-65637035D01*
X200389845Y-65637035D02*
X199728386Y-65637035D01*
X199728386Y-65637035D02*
X199728386Y-66298493D01*
X199728386Y-66298493D02*
X200389845Y-66298493D01*
X200389845Y-66298493D02*
X200389845Y-66959951D01*
X200389845Y-66959951D02*
X201051303Y-66959951D01*
X201051303Y-66959951D02*
X201051303Y-66298493D01*
X201051303Y-66298493D02*
X201712761Y-66298493D01*
X201712761Y-66298493D02*
X201712761Y-65637035D01*
X201712761Y-65637035D02*
X201051303Y-65637035D01*
X201051303Y-65637035D02*
X201051303Y-64975576D01*
X201051303Y-64975576D02*
X200389845Y-64975576D01*
X200389845Y-64975576D02*
X200389845Y-64975576D01*
G36*
X201051303Y-65637035D02*
G01*
X201712761Y-65637035D01*
X201712761Y-66298493D01*
X201051303Y-66298493D01*
X201051303Y-66959951D01*
X200389845Y-66959951D01*
X200389845Y-66298493D01*
X199728386Y-66298493D01*
X199728386Y-65637035D01*
X200389845Y-65637035D01*
X200389845Y-64975576D01*
X201051303Y-64975576D01*
X201051303Y-65637035D01*
G37*
X201051303Y-65637035D02*
X201712761Y-65637035D01*
X201712761Y-66298493D01*
X201051303Y-66298493D01*
X201051303Y-66959951D01*
X200389845Y-66959951D01*
X200389845Y-66298493D01*
X199728386Y-66298493D01*
X199728386Y-65637035D01*
X200389845Y-65637035D01*
X200389845Y-64975576D01*
X201051303Y-64975576D01*
X201051303Y-65637035D01*
%TD*%
D12*
%TO.P,D2,1,K*%
%TO.N,GND*%
X215900000Y-58420000D03*
D13*
%TO.P,D2,2,A*%
%TO.N,Net-(D1-Pad1)*%
X213360000Y-58420000D03*
%TD*%
D12*
%TO.P,D5,1,K*%
%TO.N,Net-(D5-Pad1)*%
X198120000Y-44450000D03*
D13*
%TO.P,D5,2,A*%
%TO.N,Net-(D5-Pad2)*%
X195580000Y-44450000D03*
%TD*%
D12*
%TO.P,D1,1,K*%
%TO.N,Net-(D1-Pad1)*%
X165100000Y-53340000D03*
D13*
%TO.P,D1,2,A*%
%TO.N,Net-(D1-Pad2)*%
X162560000Y-53340000D03*
%TD*%
D12*
%TO.P,D3,1,K*%
%TO.N,Net-(D3-Pad1)*%
X185420000Y-58420000D03*
D13*
%TO.P,D3,2,A*%
%TO.N,Net-(D3-Pad2)*%
X182880000Y-58420000D03*
%TD*%
D12*
%TO.P,D4,1,K*%
%TO.N,GND*%
X227330000Y-44450000D03*
D13*
%TO.P,D4,2,A*%
%TO.N,Net-(D3-Pad1)*%
X224790000Y-44450000D03*
%TD*%
D12*
%TO.P,D6,1,K*%
%TO.N,GND*%
X243840000Y-53340000D03*
D13*
%TO.P,D6,2,A*%
%TO.N,Net-(D5-Pad1)*%
X241300000Y-53340000D03*
%TD*%
D14*
%TO.P,R5,1*%
%TO.N,Net-(C4-Pad2)*%
X200660000Y-59690000D03*
D15*
%TO.P,R5,2*%
%TO.N,Net-(D5-Pad2)*%
X190500000Y-59690000D03*
%TD*%
D14*
%TO.P,R8,1*%
%TO.N,Net-(C5-Pad1)*%
X233680000Y-39370000D03*
D15*
%TO.P,R8,2*%
%TO.N,GND*%
X243840000Y-39370000D03*
%TD*%
D16*
%TO.P,J1,1,Pin_1*%
%TO.N,+9V*%
X160020000Y-35560000D03*
D17*
%TO.P,J1,2,Pin_2*%
%TO.N,GND*%
X160020000Y-33020000D03*
%TD*%
D18*
%TO.P,C3,1*%
%TO.N,Net-(C3-Pad1)*%
X176530000Y-66040000D03*
D14*
%TO.P,C3,2*%
%TO.N,Net-(C3-Pad2)*%
X176530000Y-64040000D03*
%TD*%
D18*
%TO.P,C5,1*%
%TO.N,Net-(C5-Pad1)*%
X228600000Y-63500000D03*
D14*
%TO.P,C5,2*%
%TO.N,Net-(C5-Pad2)*%
X228600000Y-61500000D03*
%TD*%
%TO.P,R9,1*%
%TO.N,Net-(C6-Pad2)*%
X218440000Y-29210000D03*
D15*
%TO.P,R9,2*%
%TO.N,Net-(D9-Pad2)*%
X208280000Y-29210000D03*
%TD*%
D19*
%TO.P,Q4,1,C*%
%TO.N,Net-(C5-Pad2)*%
X224790000Y-67310000D03*
D20*
%TO.P,Q4,2,B*%
%TO.N,Net-(C4-Pad1)*%
X224790000Y-68580000D03*
%TO.P,Q4,3,E*%
%TO.N,+9V*%
X224790000Y-69850000D03*
%TD*%
D14*
%TO.P,R10,1*%
%TO.N,Net-(C6-Pad1)*%
X236220000Y-33020000D03*
D15*
%TO.P,R10,2*%
%TO.N,GND*%
X246380000Y-33020000D03*
%TD*%
D18*
%TO.P,C1,1*%
%TO.N,+9V*%
X172720000Y-35560000D03*
D14*
%TO.P,C1,2*%
%TO.N,GND*%
X172720000Y-33560000D03*
%TD*%
D18*
%TO.P,C2,1*%
%TO.N,Net-(C2-Pad1)*%
X160020000Y-64770000D03*
D14*
%TO.P,C2,2*%
%TO.N,Net-(C2-Pad2)*%
X160020000Y-62770000D03*
%TD*%
D19*
%TO.P,Q3,1,C*%
%TO.N,Net-(C4-Pad2)*%
X203200000Y-68580000D03*
D20*
%TO.P,Q3,2,B*%
%TO.N,Net-(C3-Pad1)*%
X203200000Y-69850000D03*
%TO.P,Q3,3,E*%
%TO.N,+9V*%
X203200000Y-71120000D03*
%TD*%
D12*
%TO.P,D9,1,K*%
%TO.N,Net-(D10-Pad2)*%
X210820000Y-33020000D03*
D13*
%TO.P,D9,2,A*%
%TO.N,Net-(D9-Pad2)*%
X208280000Y-33020000D03*
%TD*%
D19*
%TO.P,Q2,1,C*%
%TO.N,Net-(C3-Pad2)*%
X177800000Y-69850000D03*
D20*
%TO.P,Q2,2,B*%
%TO.N,Net-(C2-Pad1)*%
X177800000Y-71120000D03*
%TO.P,Q2,3,E*%
%TO.N,+9V*%
X177800000Y-72390000D03*
%TD*%
D19*
%TO.P,Q1,1,C*%
%TO.N,Net-(C2-Pad2)*%
X165100000Y-68580000D03*
D20*
%TO.P,Q1,2,B*%
%TO.N,Net-(C6-Pad1)*%
X165100000Y-69850000D03*
%TO.P,Q1,3,E*%
%TO.N,+9V*%
X165100000Y-71120000D03*
%TD*%
D19*
%TO.P,Q5,1,C*%
%TO.N,Net-(C6-Pad2)*%
X223520000Y-34290000D03*
D20*
%TO.P,Q5,2,B*%
%TO.N,Net-(C5-Pad1)*%
X223520000Y-35560000D03*
%TO.P,Q5,3,E*%
%TO.N,+9V*%
X223520000Y-36830000D03*
%TD*%
D18*
%TO.P,C4,1*%
%TO.N,Net-(C4-Pad1)*%
X203200000Y-64770000D03*
D14*
%TO.P,C4,2*%
%TO.N,Net-(C4-Pad2)*%
X203200000Y-62770000D03*
%TD*%
D12*
%TO.P,D8,1,K*%
%TO.N,GND*%
X186690000Y-33020000D03*
D13*
%TO.P,D8,2,A*%
%TO.N,Net-(D7-Pad1)*%
X184150000Y-33020000D03*
%TD*%
D12*
%TO.P,D10,1,K*%
%TO.N,GND*%
X217170000Y-33020000D03*
D13*
%TO.P,D10,2,A*%
%TO.N,Net-(D10-Pad2)*%
X214630000Y-33020000D03*
%TD*%
D14*
%TO.P,R4,1*%
%TO.N,Net-(C3-Pad1)*%
X170180000Y-59690000D03*
D15*
%TO.P,R4,2*%
%TO.N,GND*%
X170180000Y-49530000D03*
%TD*%
D14*
%TO.P,R7,1*%
%TO.N,Net-(C5-Pad2)*%
X187960000Y-29210000D03*
D15*
%TO.P,R7,2*%
%TO.N,Net-(D7-Pad2)*%
X177800000Y-29210000D03*
%TD*%
D14*
%TO.P,R3,1*%
%TO.N,Net-(C3-Pad2)*%
X172720000Y-53340000D03*
D15*
%TO.P,R3,2*%
%TO.N,Net-(D3-Pad2)*%
X182880000Y-53340000D03*
%TD*%
D14*
%TO.P,R1,1*%
%TO.N,Net-(C2-Pad2)*%
X160020000Y-39370000D03*
D15*
%TO.P,R1,2*%
%TO.N,Net-(D1-Pad2)*%
X170180000Y-39370000D03*
%TD*%
D18*
%TO.P,C6,1*%
%TO.N,Net-(C6-Pad1)*%
X223520000Y-30480000D03*
D14*
%TO.P,C6,2*%
%TO.N,Net-(C6-Pad2)*%
X223520000Y-28480000D03*
%TD*%
%TO.P,R2,1*%
%TO.N,Net-(C2-Pad1)*%
X157480000Y-59690000D03*
D15*
%TO.P,R2,2*%
%TO.N,GND*%
X167640000Y-59690000D03*
%TD*%
D12*
%TO.P,D7,1,K*%
%TO.N,Net-(D7-Pad1)*%
X180340000Y-33020000D03*
D13*
%TO.P,D7,2,A*%
%TO.N,Net-(D7-Pad2)*%
X177800000Y-33020000D03*
%TD*%
D14*
%TO.P,R6,1*%
%TO.N,Net-(C4-Pad1)*%
X219710000Y-67310000D03*
D15*
%TO.P,R6,2*%
%TO.N,GND*%
X219710000Y-57150000D03*
%TD*%
D21*
%TO.N,Net-(C5-Pad1)*%
X232410000Y-46990000D03*
%TO.N,Net-(C5-Pad2)*%
X209550000Y-54610000D03*
%TO.N,Net-(C6-Pad1)*%
X213360000Y-44450000D03*
X191770000Y-57150000D03*
X168910000Y-63500000D03*
X168910000Y-66040000D03*
%TD*%
D22*
%TO.N,+9V*%
X225340000Y-69850000D02*
X234950000Y-60240000D01*
X234950000Y-45720000D02*
X226060000Y-36830000D01*
X172720000Y-35560000D02*
X171670000Y-35560000D01*
X226060000Y-36830000D02*
X223520000Y-36830000D01*
X171670000Y-35560000D02*
X158750000Y-48480000D01*
X224790000Y-69850000D02*
X225340000Y-69850000D01*
X158750000Y-48480000D02*
X158750000Y-66040000D01*
X234950000Y-60240000D02*
X234950000Y-45720000D01*
X163830000Y-71120000D02*
X165100000Y-71120000D01*
X158750000Y-66040000D02*
X163830000Y-71120000D01*
%TO.N,Net-(C2-Pad1)*%
X170795978Y-64770000D02*
X177145978Y-71120000D01*
X177145978Y-71120000D02*
X177800000Y-71120000D01*
X160020000Y-64770000D02*
X170795978Y-64770000D01*
%TO.N,Net-(C3-Pad1)*%
X194310000Y-69850000D02*
X203200000Y-69850000D01*
X190500000Y-66040000D02*
X194310000Y-69850000D01*
X176530000Y-66040000D02*
X190500000Y-66040000D01*
%TO.N,Net-(C4-Pad2)*%
X202068630Y-62770000D02*
X203200000Y-62770000D01*
X200660000Y-64178630D02*
X202068630Y-62770000D01*
X200660000Y-67310000D02*
X200660000Y-64178630D01*
X203200000Y-68580000D02*
X201930000Y-68580000D01*
X201930000Y-68580000D02*
X200660000Y-67310000D01*
%TO.N,Net-(C5-Pad1)*%
X228600000Y-63500000D02*
X232410000Y-59690000D01*
X232410000Y-59690000D02*
X232410000Y-46990000D01*
%TO.N,Net-(C5-Pad2)*%
X209550000Y-54610000D02*
X209550000Y-43180000D01*
X209550000Y-43180000D02*
X195580000Y-29210000D01*
X195580000Y-29210000D02*
X187960000Y-29210000D01*
%TO.N,Net-(C6-Pad1)*%
X218440000Y-35560000D02*
X218440000Y-41910000D01*
X191770000Y-57150000D02*
X175260000Y-57150000D01*
X215900000Y-44450000D02*
X213360000Y-44450000D01*
X175260000Y-57150000D02*
X168910000Y-63500000D01*
X218440000Y-41910000D02*
X215900000Y-44450000D01*
X223520000Y-30480000D02*
X218440000Y-35560000D01*
X168910000Y-66040000D02*
X168910000Y-66694022D01*
X168910000Y-66694022D02*
X165754022Y-69850000D01*
X165754022Y-69850000D02*
X165100000Y-69850000D01*
%TD*%
M02*
