%TF.GenerationSoftware,KiCad,Pcbnew,(6.0.1)*%
%TF.CreationDate,2022-02-03T11:52:22+01:00*%
%TF.ProjectId,ruetueta-pcb,72756574-7565-4746-912d-7063622e6b69,rev?*%
%TF.SameCoordinates,Original*%
%TF.FileFunction,Soldermask,Bot*%
%TF.FilePolarity,Negative*%
%FSLAX46Y46*%
G04 Gerber Fmt 4.6, Leading zero omitted, Abs format (unit mm)*
G04 Created by KiCad (PCBNEW (6.0.1)) date 2022-02-03 11:52:22*
%MOMM*%
%LPD*%
G01*
G04 APERTURE LIST*
%ADD10R,1.800000X1.800000*%
%ADD11C,1.800000*%
%ADD12C,1.600000*%
%ADD13O,1.600000X1.600000*%
%ADD14R,1.700000X1.700000*%
%ADD15O,1.700000X1.700000*%
%ADD16R,1.600000X1.600000*%
%ADD17R,1.500000X1.050000*%
%ADD18O,1.500000X1.050000*%
G04 APERTURE END LIST*
%TO.C,REF\u002A\u002A*%
G36*
X185906384Y-36028369D02*
G01*
X186626951Y-36028369D01*
X186626951Y-37469504D01*
X185906384Y-37469504D01*
X185906384Y-38190071D01*
X185185816Y-38190071D01*
X185185816Y-38910639D01*
X184465249Y-38910639D01*
X184465249Y-38190071D01*
X183744682Y-38190071D01*
X183744682Y-36748937D01*
X184465249Y-36748937D01*
X184465249Y-36028369D01*
X185185816Y-36028369D01*
X185185816Y-35307802D01*
X185906384Y-35307802D01*
X185906384Y-36028369D01*
G37*
G36*
X180862412Y-36028369D02*
G01*
X181582980Y-36028369D01*
X181582980Y-37469504D01*
X180862412Y-37469504D01*
X180862412Y-38190071D01*
X180141845Y-38190071D01*
X180141845Y-38910639D01*
X179421277Y-38910639D01*
X179421277Y-38190071D01*
X178700710Y-38190071D01*
X178700710Y-37469504D01*
X177980143Y-37469504D01*
X177980143Y-36028369D01*
X178700710Y-36028369D01*
X178700710Y-35307802D01*
X180862412Y-35307802D01*
X180862412Y-36028369D01*
G37*
G36*
X216170214Y-36748937D02*
G01*
X216890781Y-36748937D01*
X216890781Y-38190071D01*
X216170214Y-38190071D01*
X216170214Y-38910639D01*
X215449646Y-38910639D01*
X215449646Y-39631206D01*
X214008511Y-39631206D01*
X214008511Y-38190071D01*
X213287944Y-38190071D01*
X213287944Y-37469504D01*
X214008511Y-37469504D01*
X214008511Y-36748937D01*
X215449646Y-36748937D01*
X215449646Y-36028369D01*
X216170214Y-36028369D01*
X216170214Y-36748937D01*
G37*
G36*
X211126242Y-37469504D02*
G01*
X210405675Y-37469504D01*
X210405675Y-38910639D01*
X209685107Y-38910639D01*
X209685107Y-39631206D01*
X208964540Y-39631206D01*
X208964540Y-38910639D01*
X208243972Y-38910639D01*
X208243972Y-38190071D01*
X207523405Y-38190071D01*
X207523405Y-36748937D01*
X208964540Y-36748937D01*
X208964540Y-36028369D01*
X211126242Y-36028369D01*
X211126242Y-37469504D01*
G37*
%TD*%
D10*
%TO.C,D2*%
X215900000Y-58420000D03*
D11*
X213360000Y-58420000D03*
%TD*%
D10*
%TO.C,D5*%
X198120000Y-44450000D03*
D11*
X195580000Y-44450000D03*
%TD*%
D10*
%TO.C,D1*%
X165100000Y-53340000D03*
D11*
X162560000Y-53340000D03*
%TD*%
D10*
%TO.C,D3*%
X185420000Y-58420000D03*
D11*
X182880000Y-58420000D03*
%TD*%
D10*
%TO.C,D4*%
X227330000Y-44450000D03*
D11*
X224790000Y-44450000D03*
%TD*%
D10*
%TO.C,D6*%
X243840000Y-53340000D03*
D11*
X241300000Y-53340000D03*
%TD*%
D12*
%TO.C,R5*%
X200660000Y-59690000D03*
D13*
X190500000Y-59690000D03*
%TD*%
D12*
%TO.C,R8*%
X233680000Y-39370000D03*
D13*
X243840000Y-39370000D03*
%TD*%
D14*
%TO.C,J1*%
X160020000Y-35560000D03*
D15*
X160020000Y-33020000D03*
%TD*%
D16*
%TO.C,C3*%
X176530000Y-66040000D03*
D12*
X176530000Y-64040000D03*
%TD*%
D16*
%TO.C,C5*%
X228600000Y-63500000D03*
D12*
X228600000Y-61500000D03*
%TD*%
%TO.C,R9*%
X218440000Y-29210000D03*
D13*
X208280000Y-29210000D03*
%TD*%
D17*
%TO.C,Q4*%
X224790000Y-67310000D03*
D18*
X224790000Y-68580000D03*
X224790000Y-69850000D03*
%TD*%
D12*
%TO.C,R10*%
X236220000Y-33020000D03*
D13*
X246380000Y-33020000D03*
%TD*%
D16*
%TO.C,C1*%
X172720000Y-35560000D03*
D12*
X172720000Y-33560000D03*
%TD*%
D16*
%TO.C,C2*%
X160020000Y-64770000D03*
D12*
X160020000Y-62770000D03*
%TD*%
D17*
%TO.C,Q3*%
X203200000Y-68580000D03*
D18*
X203200000Y-69850000D03*
X203200000Y-71120000D03*
%TD*%
D10*
%TO.C,D9*%
X210820000Y-33020000D03*
D11*
X208280000Y-33020000D03*
%TD*%
D17*
%TO.C,Q2*%
X177800000Y-69850000D03*
D18*
X177800000Y-71120000D03*
X177800000Y-72390000D03*
%TD*%
D17*
%TO.C,Q1*%
X165100000Y-68580000D03*
D18*
X165100000Y-69850000D03*
X165100000Y-71120000D03*
%TD*%
D17*
%TO.C,Q5*%
X223520000Y-34290000D03*
D18*
X223520000Y-35560000D03*
X223520000Y-36830000D03*
%TD*%
D16*
%TO.C,C4*%
X203200000Y-64770000D03*
D12*
X203200000Y-62770000D03*
%TD*%
D10*
%TO.C,D8*%
X186690000Y-33020000D03*
D11*
X184150000Y-33020000D03*
%TD*%
D10*
%TO.C,D10*%
X217170000Y-33020000D03*
D11*
X214630000Y-33020000D03*
%TD*%
D12*
%TO.C,R4*%
X170180000Y-59690000D03*
D13*
X170180000Y-49530000D03*
%TD*%
D12*
%TO.C,R7*%
X187960000Y-29210000D03*
D13*
X177800000Y-29210000D03*
%TD*%
D12*
%TO.C,R3*%
X172720000Y-53340000D03*
D13*
X182880000Y-53340000D03*
%TD*%
D12*
%TO.C,R1*%
X160020000Y-39370000D03*
D13*
X170180000Y-39370000D03*
%TD*%
D16*
%TO.C,C6*%
X223520000Y-30480000D03*
D12*
X223520000Y-28480000D03*
%TD*%
%TO.C,R2*%
X157480000Y-59690000D03*
D13*
X167640000Y-59690000D03*
%TD*%
D10*
%TO.C,D7*%
X180340000Y-33020000D03*
D11*
X177800000Y-33020000D03*
%TD*%
D12*
%TO.C,R6*%
X219710000Y-67310000D03*
D13*
X219710000Y-57150000D03*
%TD*%
M02*
