%TF.GenerationSoftware,KiCad,Pcbnew,(6.0.1)*%
%TF.CreationDate,2022-02-03T11:52:22+01:00*%
%TF.ProjectId,ruetueta-pcb,72756574-7565-4746-912d-7063622e6b69,rev?*%
%TF.SameCoordinates,Original*%
%TF.FileFunction,Soldermask,Top*%
%TF.FilePolarity,Negative*%
%FSLAX46Y46*%
G04 Gerber Fmt 4.6, Leading zero omitted, Abs format (unit mm)*
G04 Created by KiCad (PCBNEW (6.0.1)) date 2022-02-03 11:52:22*
%MOMM*%
%LPD*%
G01*
G04 APERTURE LIST*
%ADD10R,1.800000X1.800000*%
%ADD11C,1.800000*%
%ADD12C,1.600000*%
%ADD13O,1.600000X1.600000*%
%ADD14R,1.700000X1.700000*%
%ADD15O,1.700000X1.700000*%
%ADD16R,1.600000X1.600000*%
%ADD17R,1.500000X1.050000*%
%ADD18O,1.500000X1.050000*%
G04 APERTURE END LIST*
%TO.C,REF\u002A\u002A*%
G36*
X233463831Y-49719149D02*
G01*
X233463831Y-47557447D01*
X234184398Y-47557447D01*
X234184398Y-46116313D01*
X234904965Y-46116313D01*
X234904965Y-44675178D01*
X234184398Y-44675178D01*
X234184398Y-45395745D01*
X229140426Y-45395745D01*
X229140426Y-46836880D01*
X228419859Y-46836880D01*
X228419859Y-50439717D01*
X227699292Y-50439717D01*
X227699292Y-56924823D01*
X226978724Y-56924823D01*
X226978724Y-60527660D01*
X226258157Y-60527660D01*
X226258157Y-63409930D01*
X225537589Y-63409930D01*
X225537589Y-66292199D01*
X223375887Y-66292199D01*
X223375887Y-65571632D01*
X222655320Y-65571632D01*
X222655320Y-64851064D01*
X221934753Y-64851064D01*
X221934753Y-63409930D01*
X221214185Y-63409930D01*
X221214185Y-55483688D01*
X221934753Y-55483688D01*
X221934753Y-51160284D01*
X222655320Y-51160284D01*
X222655320Y-46836880D01*
X223375887Y-46836880D01*
X223375887Y-46116313D01*
X220493618Y-46116313D01*
X220493618Y-46836880D01*
X219052483Y-46836880D01*
X219052483Y-51880852D01*
X218331916Y-51880852D01*
X218331916Y-58365958D01*
X217611348Y-58365958D01*
X217611348Y-63409930D01*
X216890781Y-63409930D01*
X216890781Y-64130497D01*
X216170214Y-64130497D01*
X216170214Y-64851064D01*
X214008511Y-64851064D01*
X214008511Y-64130497D01*
X213287944Y-64130497D01*
X213287944Y-63409930D01*
X212567377Y-63409930D01*
X212567377Y-61248227D01*
X211846809Y-61248227D01*
X211846809Y-61968795D01*
X210405675Y-61968795D01*
X210405675Y-62689362D01*
X206082270Y-62689362D01*
X206082270Y-61968795D01*
X204641136Y-61968795D01*
X204641136Y-61248227D01*
X203920568Y-61248227D01*
X203920568Y-60527660D01*
X203200001Y-60527660D01*
X203200001Y-59807093D01*
X202479433Y-59807093D01*
X202479433Y-58365958D01*
X201758866Y-58365958D01*
X201758866Y-54763121D01*
X202479433Y-54763121D01*
X202479433Y-48278015D01*
X203200001Y-48278015D01*
X203200001Y-45395745D01*
X199597164Y-45395745D01*
X199597164Y-46836880D01*
X198876597Y-46836880D01*
X198876597Y-50439717D01*
X198156029Y-50439717D01*
X198156029Y-54042554D01*
X197435462Y-54042554D01*
X197435462Y-61248227D01*
X196714894Y-61248227D01*
X196714894Y-64130497D01*
X195994327Y-64130497D01*
X195994327Y-64851064D01*
X195273760Y-64851064D01*
X195273760Y-65571632D01*
X193112058Y-65571632D01*
X193112058Y-64851064D01*
X192391490Y-64851064D01*
X192391490Y-63409930D01*
X191670923Y-63409930D01*
X191670923Y-55483688D01*
X192391490Y-55483688D01*
X192391490Y-51160284D01*
X193112058Y-51160284D01*
X193112058Y-46836880D01*
X193832625Y-46836880D01*
X193832625Y-46116313D01*
X188788653Y-46116313D01*
X188788653Y-53321986D01*
X188068086Y-53321986D01*
X188068086Y-59807093D01*
X187347519Y-59807093D01*
X187347519Y-64130497D01*
X186626951Y-64130497D01*
X186626951Y-64851064D01*
X184465249Y-64851064D01*
X184465249Y-64130497D01*
X183744682Y-64130497D01*
X183744682Y-63409930D01*
X183024114Y-63409930D01*
X183024114Y-61248227D01*
X182303547Y-61248227D01*
X182303547Y-61968795D01*
X180862412Y-61968795D01*
X180862412Y-62689362D01*
X179421277Y-62689362D01*
X179421277Y-63409930D01*
X177259575Y-63409930D01*
X177259575Y-62689362D01*
X175818441Y-62689362D01*
X175818441Y-64130497D01*
X175097873Y-64130497D01*
X175097873Y-65571632D01*
X172936171Y-65571632D01*
X172936171Y-64851064D01*
X172215604Y-64851064D01*
X172215604Y-64130497D01*
X170774469Y-64130497D01*
X170774469Y-63409930D01*
X170053902Y-63409930D01*
X170053902Y-62689362D01*
X175097873Y-62689362D01*
X175818441Y-62689362D01*
X175818441Y-61968795D01*
X175097873Y-61968795D01*
X175097873Y-62689362D01*
X170053902Y-62689362D01*
X169333334Y-62689362D01*
X169333334Y-61968795D01*
X174377306Y-61968795D01*
X175097873Y-61968795D01*
X175097873Y-61248227D01*
X174377306Y-61248227D01*
X174377306Y-61968795D01*
X169333334Y-61968795D01*
X168612767Y-61968795D01*
X168612767Y-61248227D01*
X167892199Y-61248227D01*
X167892199Y-60527660D01*
X173656738Y-60527660D01*
X174377306Y-60527660D01*
X174377306Y-59807093D01*
X173656738Y-59807093D01*
X173656738Y-60527660D01*
X167892199Y-60527660D01*
X167171632Y-60527660D01*
X167171632Y-59807093D01*
X172936171Y-59807093D01*
X173656738Y-59807093D01*
X173656738Y-59086525D01*
X172936171Y-59086525D01*
X172936171Y-59807093D01*
X167171632Y-59807093D01*
X166451065Y-59807093D01*
X166451065Y-59086525D01*
X172215604Y-59086525D01*
X172936171Y-59086525D01*
X172936171Y-57645391D01*
X172215604Y-57645391D01*
X172215604Y-59086525D01*
X166451065Y-59086525D01*
X165730497Y-59086525D01*
X165730497Y-58365958D01*
X165009930Y-58365958D01*
X165009930Y-56924823D01*
X164289363Y-56924823D01*
X164289363Y-57645391D01*
X163568795Y-57645391D01*
X163568795Y-62689362D01*
X161407093Y-62689362D01*
X161407093Y-61968795D01*
X159965958Y-61968795D01*
X159965958Y-61248227D01*
X159245391Y-61248227D01*
X159245391Y-60527660D01*
X158524824Y-60527660D01*
X158524824Y-57645391D01*
X159245391Y-57645391D01*
X159245391Y-54042554D01*
X168612767Y-54042554D01*
X169333334Y-54042554D01*
X169333334Y-54763121D01*
X170053902Y-54763121D01*
X170053902Y-56204256D01*
X170774469Y-56204256D01*
X170774469Y-56924823D01*
X171495036Y-56924823D01*
X171495036Y-57645391D01*
X172215604Y-57645391D01*
X172215604Y-51880852D01*
X172936171Y-51880852D01*
X172936171Y-48278015D01*
X172215604Y-48278015D01*
X172215604Y-48998582D01*
X171495036Y-48998582D01*
X171495036Y-50439717D01*
X170774469Y-50439717D01*
X170774469Y-51160284D01*
X170053902Y-51160284D01*
X170053902Y-51880852D01*
X169333334Y-51880852D01*
X169333334Y-53321986D01*
X168612767Y-53321986D01*
X168612767Y-54042554D01*
X159245391Y-54042554D01*
X159245391Y-52601419D01*
X159965958Y-52601419D01*
X159965958Y-49719149D01*
X160686526Y-49719149D01*
X160686526Y-48998582D01*
X165009930Y-48998582D01*
X165730497Y-48998582D01*
X165730497Y-48278015D01*
X167171632Y-48278015D01*
X167171632Y-47557447D01*
X167892199Y-47557447D01*
X167892199Y-46836880D01*
X168612767Y-46836880D01*
X168612767Y-45395745D01*
X165730497Y-45395745D01*
X165730497Y-46836880D01*
X165009930Y-46836880D01*
X165009930Y-48998582D01*
X160686526Y-48998582D01*
X160686526Y-47557447D01*
X161407093Y-47557447D01*
X161407093Y-46116313D01*
X159965958Y-46116313D01*
X159965958Y-44675178D01*
X159245391Y-44675178D01*
X159245391Y-42513476D01*
X160686526Y-42513476D01*
X160686526Y-41792908D01*
X163568795Y-41792908D01*
X163568795Y-41072341D01*
X169333334Y-41072341D01*
X169333334Y-41792908D01*
X170774469Y-41792908D01*
X170774469Y-42513476D01*
X171495036Y-42513476D01*
X171495036Y-43234043D01*
X172215604Y-43234043D01*
X172215604Y-43954610D01*
X172936171Y-43954610D01*
X172936171Y-48278015D01*
X173656738Y-48278015D01*
X173656738Y-45395745D01*
X174377306Y-45395745D01*
X174377306Y-43234043D01*
X175097873Y-43234043D01*
X175097873Y-42513476D01*
X176539008Y-42513476D01*
X176539008Y-41792908D01*
X178700710Y-41792908D01*
X178700710Y-42513476D01*
X179421277Y-42513476D01*
X179421277Y-46116313D01*
X178700710Y-46116313D01*
X178700710Y-50439717D01*
X177980143Y-50439717D01*
X177980143Y-54763121D01*
X177259575Y-54763121D01*
X177259575Y-56204256D01*
X177980143Y-56204256D01*
X177980143Y-56924823D01*
X179421277Y-56924823D01*
X179421277Y-56204256D01*
X181582980Y-56204256D01*
X181582980Y-55483688D01*
X182303547Y-55483688D01*
X182303547Y-54042554D01*
X183024114Y-54042554D01*
X183024114Y-51160284D01*
X183744682Y-51160284D01*
X183744682Y-42513476D01*
X185185816Y-42513476D01*
X185185816Y-41792908D01*
X187347519Y-41792908D01*
X187347519Y-42513476D01*
X189509221Y-42513476D01*
X189509221Y-41792908D01*
X193112058Y-41792908D01*
X193112058Y-41072341D01*
X206802838Y-41072341D01*
X206802838Y-41792908D01*
X207523405Y-41792908D01*
X207523405Y-42513476D01*
X208243972Y-42513476D01*
X208243972Y-43234043D01*
X208964540Y-43234043D01*
X208964540Y-47557447D01*
X208243972Y-47557447D01*
X208243972Y-51160284D01*
X207523405Y-51160284D01*
X207523405Y-56924823D01*
X208243972Y-56924823D01*
X208243972Y-57645391D01*
X208964540Y-57645391D01*
X208964540Y-56924823D01*
X209685107Y-56924823D01*
X209685107Y-56204256D01*
X211126242Y-56204256D01*
X211126242Y-55483688D01*
X211846809Y-55483688D01*
X211846809Y-54042554D01*
X212567377Y-54042554D01*
X212567377Y-51880852D01*
X213287944Y-51880852D01*
X213287944Y-43234043D01*
X214008511Y-43234043D01*
X214008511Y-42513476D01*
X216890781Y-42513476D01*
X216890781Y-43234043D01*
X217611348Y-43234043D01*
X217611348Y-42513476D01*
X219052483Y-42513476D01*
X219052483Y-41792908D01*
X221214185Y-41792908D01*
X221214185Y-41072341D01*
X234184398Y-41072341D01*
X234184398Y-42513476D01*
X234904965Y-42513476D01*
X234904965Y-43954610D01*
X235625533Y-43954610D01*
X235625533Y-42513476D01*
X236346100Y-42513476D01*
X236346100Y-41072341D01*
X237787235Y-41072341D01*
X237787235Y-40351774D01*
X242110639Y-40351774D01*
X242110639Y-41072341D01*
X243551774Y-41072341D01*
X243551774Y-42513476D01*
X244272341Y-42513476D01*
X244272341Y-45395745D01*
X244992909Y-45395745D01*
X244992909Y-48278015D01*
X245713476Y-48278015D01*
X245713476Y-50439717D01*
X246434043Y-50439717D01*
X246434043Y-51160284D01*
X247875178Y-51160284D01*
X247875178Y-51880852D01*
X248595745Y-51880852D01*
X248595745Y-53321986D01*
X247875178Y-53321986D01*
X247875178Y-54042554D01*
X246434043Y-54042554D01*
X246434043Y-61968795D01*
X247154611Y-61968795D01*
X247154611Y-67012766D01*
X244272341Y-67012766D01*
X244272341Y-66292199D01*
X243551774Y-66292199D01*
X243551774Y-64851064D01*
X242831206Y-64851064D01*
X242831206Y-63409930D01*
X242110639Y-63409930D01*
X242110639Y-61968795D01*
X241390072Y-61968795D01*
X241390072Y-57645391D01*
X240669504Y-57645391D01*
X240669504Y-56204256D01*
X238507802Y-56204256D01*
X238507802Y-56924823D01*
X237066667Y-56924823D01*
X237066667Y-57645391D01*
X236346100Y-57645391D01*
X236346100Y-59086525D01*
X235625533Y-59086525D01*
X235625533Y-60527660D01*
X234904965Y-60527660D01*
X234904965Y-61968795D01*
X234184398Y-61968795D01*
X234184398Y-62689362D01*
X233463831Y-62689362D01*
X233463831Y-63409930D01*
X232022696Y-63409930D01*
X232022696Y-62689362D01*
X231302128Y-62689362D01*
X231302128Y-61968795D01*
X230581561Y-61968795D01*
X230581561Y-61248227D01*
X229860994Y-61248227D01*
X229860994Y-59807093D01*
X229140426Y-59807093D01*
X229140426Y-58365958D01*
X229860994Y-58365958D01*
X229860994Y-56924823D01*
X230581561Y-56924823D01*
X230581561Y-55483688D01*
X231302128Y-55483688D01*
X231302128Y-53321986D01*
X232022696Y-53321986D01*
X232022696Y-51880852D01*
X232743263Y-51880852D01*
X232743263Y-51160284D01*
X239228370Y-51160284D01*
X239948937Y-51160284D01*
X239948937Y-48998582D01*
X239228370Y-48998582D01*
X239228370Y-51160284D01*
X232743263Y-51160284D01*
X232743263Y-49719149D01*
X233463831Y-49719149D01*
G37*
G36*
X211126242Y-37469504D02*
G01*
X210405675Y-37469504D01*
X210405675Y-38910639D01*
X209685107Y-38910639D01*
X209685107Y-39631206D01*
X208964540Y-39631206D01*
X208964540Y-38910639D01*
X208243972Y-38910639D01*
X208243972Y-38190071D01*
X207523405Y-38190071D01*
X207523405Y-36748937D01*
X208964540Y-36748937D01*
X208964540Y-36028369D01*
X211126242Y-36028369D01*
X211126242Y-37469504D01*
G37*
G36*
X185906384Y-36028369D02*
G01*
X186626951Y-36028369D01*
X186626951Y-37469504D01*
X185906384Y-37469504D01*
X185906384Y-38190071D01*
X185185816Y-38190071D01*
X185185816Y-38910639D01*
X184465249Y-38910639D01*
X184465249Y-38190071D01*
X183744682Y-38190071D01*
X183744682Y-36748937D01*
X184465249Y-36748937D01*
X184465249Y-36028369D01*
X185185816Y-36028369D01*
X185185816Y-35307802D01*
X185906384Y-35307802D01*
X185906384Y-36028369D01*
G37*
G36*
X180862412Y-36028369D02*
G01*
X181582980Y-36028369D01*
X181582980Y-37469504D01*
X180862412Y-37469504D01*
X180862412Y-38190071D01*
X180141845Y-38190071D01*
X180141845Y-38910639D01*
X179421277Y-38910639D01*
X179421277Y-38190071D01*
X178700710Y-38190071D01*
X178700710Y-37469504D01*
X177980143Y-37469504D01*
X177980143Y-36028369D01*
X178700710Y-36028369D01*
X178700710Y-35307802D01*
X180862412Y-35307802D01*
X180862412Y-36028369D01*
G37*
G36*
X216170214Y-36748937D02*
G01*
X216890781Y-36748937D01*
X216890781Y-38190071D01*
X216170214Y-38190071D01*
X216170214Y-38910639D01*
X215449646Y-38910639D01*
X215449646Y-39631206D01*
X214008511Y-39631206D01*
X214008511Y-38190071D01*
X213287944Y-38190071D01*
X213287944Y-37469504D01*
X214008511Y-37469504D01*
X214008511Y-36748937D01*
X215449646Y-36748937D01*
X215449646Y-36028369D01*
X216170214Y-36028369D01*
X216170214Y-36748937D01*
G37*
%TD*%
D10*
%TO.C,D2*%
X215900000Y-58420000D03*
D11*
X213360000Y-58420000D03*
%TD*%
D10*
%TO.C,D5*%
X198120000Y-44450000D03*
D11*
X195580000Y-44450000D03*
%TD*%
D10*
%TO.C,D1*%
X165100000Y-53340000D03*
D11*
X162560000Y-53340000D03*
%TD*%
D10*
%TO.C,D3*%
X185420000Y-58420000D03*
D11*
X182880000Y-58420000D03*
%TD*%
D10*
%TO.C,D4*%
X227330000Y-44450000D03*
D11*
X224790000Y-44450000D03*
%TD*%
D10*
%TO.C,D6*%
X243840000Y-53340000D03*
D11*
X241300000Y-53340000D03*
%TD*%
D12*
%TO.C,R5*%
X200660000Y-59690000D03*
D13*
X190500000Y-59690000D03*
%TD*%
D12*
%TO.C,R8*%
X233680000Y-39370000D03*
D13*
X243840000Y-39370000D03*
%TD*%
D14*
%TO.C,J1*%
X160020000Y-35560000D03*
D15*
X160020000Y-33020000D03*
%TD*%
D16*
%TO.C,C3*%
X176530000Y-66040000D03*
D12*
X176530000Y-64040000D03*
%TD*%
D16*
%TO.C,C5*%
X228600000Y-63500000D03*
D12*
X228600000Y-61500000D03*
%TD*%
%TO.C,R9*%
X218440000Y-29210000D03*
D13*
X208280000Y-29210000D03*
%TD*%
D17*
%TO.C,Q4*%
X224790000Y-67310000D03*
D18*
X224790000Y-68580000D03*
X224790000Y-69850000D03*
%TD*%
D12*
%TO.C,R10*%
X236220000Y-33020000D03*
D13*
X246380000Y-33020000D03*
%TD*%
D16*
%TO.C,C1*%
X172720000Y-35560000D03*
D12*
X172720000Y-33560000D03*
%TD*%
D16*
%TO.C,C2*%
X160020000Y-64770000D03*
D12*
X160020000Y-62770000D03*
%TD*%
D17*
%TO.C,Q3*%
X203200000Y-68580000D03*
D18*
X203200000Y-69850000D03*
X203200000Y-71120000D03*
%TD*%
D10*
%TO.C,D9*%
X210820000Y-33020000D03*
D11*
X208280000Y-33020000D03*
%TD*%
D17*
%TO.C,Q2*%
X177800000Y-69850000D03*
D18*
X177800000Y-71120000D03*
X177800000Y-72390000D03*
%TD*%
D17*
%TO.C,Q1*%
X165100000Y-68580000D03*
D18*
X165100000Y-69850000D03*
X165100000Y-71120000D03*
%TD*%
D17*
%TO.C,Q5*%
X223520000Y-34290000D03*
D18*
X223520000Y-35560000D03*
X223520000Y-36830000D03*
%TD*%
D16*
%TO.C,C4*%
X203200000Y-64770000D03*
D12*
X203200000Y-62770000D03*
%TD*%
D10*
%TO.C,D8*%
X186690000Y-33020000D03*
D11*
X184150000Y-33020000D03*
%TD*%
D10*
%TO.C,D10*%
X217170000Y-33020000D03*
D11*
X214630000Y-33020000D03*
%TD*%
D12*
%TO.C,R4*%
X170180000Y-59690000D03*
D13*
X170180000Y-49530000D03*
%TD*%
D12*
%TO.C,R7*%
X187960000Y-29210000D03*
D13*
X177800000Y-29210000D03*
%TD*%
D12*
%TO.C,R3*%
X172720000Y-53340000D03*
D13*
X182880000Y-53340000D03*
%TD*%
D12*
%TO.C,R1*%
X160020000Y-39370000D03*
D13*
X170180000Y-39370000D03*
%TD*%
D16*
%TO.C,C6*%
X223520000Y-30480000D03*
D12*
X223520000Y-28480000D03*
%TD*%
%TO.C,R2*%
X157480000Y-59690000D03*
D13*
X167640000Y-59690000D03*
%TD*%
D10*
%TO.C,D7*%
X180340000Y-33020000D03*
D11*
X177800000Y-33020000D03*
%TD*%
D12*
%TO.C,R6*%
X219710000Y-67310000D03*
D13*
X219710000Y-57150000D03*
%TD*%
M02*
