M48
; DRILL file {KiCad (6.0.1)} date Do 03 Feb 2022 11:52:30 CET
; FORMAT={-:-/ absolute / inch / decimal}
; #@! TF.CreationDate,2022-02-03T11:52:30+01:00
; #@! TF.GenerationSoftware,Kicad,Pcbnew,(6.0.1)
; #@! TF.FileFunction,Plated,1,2,PTH
FMAT,2
INCH
; #@! TA.AperFunction,Plated,PTH,ViaDrill
T1C0.0157
; #@! TA.AperFunction,Plated,PTH,ComponentDrill
T2C0.0295
; #@! TA.AperFunction,Plated,PTH,ComponentDrill
T3C0.0315
; #@! TA.AperFunction,Plated,PTH,ComponentDrill
T4C0.0354
; #@! TA.AperFunction,Plated,PTH,ComponentDrill
T5C0.0394
%
G90
G05
T1
X6.65Y-2.5
X6.65Y-2.6
X7.55Y-2.25
X8.25Y-2.15
X8.4Y-1.75
X9.15Y-1.85
T2
X6.5Y-2.7
X6.5Y-2.75
X6.5Y-2.8
X7.0Y-2.75
X7.0Y-2.8
X7.0Y-2.85
X8.0Y-2.7
X8.0Y-2.75
X8.0Y-2.8
X8.8Y-1.35
X8.8Y-1.4
X8.8Y-1.45
X8.85Y-2.65
X8.85Y-2.7
X8.85Y-2.75
T3
X6.2Y-2.35
X6.3Y-1.55
X6.3Y-2.4713
X6.3Y-2.55
X6.6Y-2.35
X6.7Y-1.55
X6.7Y-1.95
X6.7Y-2.35
X6.8Y-1.3213
X6.8Y-1.4
X6.8Y-2.1
X6.95Y-2.5213
X6.95Y-2.6
X7.0Y-1.15
X7.2Y-2.1
X7.4Y-1.15
X7.5Y-2.35
X7.9Y-2.35
X8.0Y-2.4713
X8.0Y-2.55
X8.2Y-1.15
X8.6Y-1.15
X8.65Y-2.25
X8.65Y-2.65
X8.8Y-1.1213
X8.8Y-1.2
X9.0Y-2.4213
X9.0Y-2.5
X9.2Y-1.55
X9.3Y-1.3
X9.6Y-1.55
X9.7Y-1.3
T4
X6.4Y-2.1
X6.5Y-2.1
X7.0Y-1.3
X7.1Y-1.3
X7.2Y-2.3
X7.25Y-1.3
X7.3Y-2.3
X7.35Y-1.3
X7.7Y-1.75
X7.8Y-1.75
X8.2Y-1.3
X8.3Y-1.3
X8.4Y-2.3
X8.45Y-1.3
X8.5Y-2.3
X8.55Y-1.3
X8.85Y-1.75
X8.95Y-1.75
X9.5Y-2.1
X9.6Y-2.1
T5
X6.3Y-1.3
X6.3Y-1.4
T0
M30
