%TF.GenerationSoftware,KiCad,Pcbnew,(6.0.1)*%
%TF.CreationDate,2022-02-03T11:52:21+01:00*%
%TF.ProjectId,ruetueta-pcb,72756574-7565-4746-912d-7063622e6b69,rev?*%
%TF.SameCoordinates,Original*%
%TF.FileFunction,Legend,Bot*%
%TF.FilePolarity,Positive*%
%FSLAX46Y46*%
G04 Gerber Fmt 4.6, Leading zero omitted, Abs format (unit mm)*
G04 Created by KiCad (PCBNEW (6.0.1)) date 2022-02-03 11:52:21*
%MOMM*%
%LPD*%
G01*
G04 APERTURE LIST*
%ADD10C,0.150000*%
%ADD11C,0.120000*%
G04 APERTURE END LIST*
D10*
X220980000Y-55880000D02*
X187960000Y-55880000D01*
X187960000Y-55880000D02*
X187960000Y-48260000D01*
X187960000Y-48260000D02*
X220980000Y-48260000D01*
X220980000Y-48260000D02*
X220980000Y-55880000D01*
G36*
X220980000Y-55880000D02*
G01*
X187960000Y-55880000D01*
X187960000Y-48260000D01*
X220980000Y-48260000D01*
X220980000Y-55880000D01*
G37*
X220980000Y-55880000D02*
X187960000Y-55880000D01*
X187960000Y-48260000D01*
X220980000Y-48260000D01*
X220980000Y-55880000D01*
X244998095Y-66944761D02*
X244998095Y-65611428D01*
X244998095Y-65992380D02*
X244902857Y-65801904D01*
X244807619Y-65706666D01*
X244617142Y-65611428D01*
X244426666Y-65611428D01*
X242902857Y-65611428D02*
X242902857Y-66944761D01*
X243760000Y-65611428D02*
X243760000Y-66659047D01*
X243664761Y-66849523D01*
X243474285Y-66944761D01*
X243188571Y-66944761D01*
X242998095Y-66849523D01*
X242902857Y-66754285D01*
X243664761Y-64944761D02*
X243569523Y-65040000D01*
X243664761Y-65135238D01*
X243760000Y-65040000D01*
X243664761Y-64944761D01*
X243664761Y-65135238D01*
X242902857Y-64944761D02*
X242807619Y-65040000D01*
X242902857Y-65135238D01*
X242998095Y-65040000D01*
X242902857Y-64944761D01*
X242902857Y-65135238D01*
X242236190Y-65611428D02*
X241474285Y-65611428D01*
X241950476Y-64944761D02*
X241950476Y-66659047D01*
X241855238Y-66849523D01*
X241664761Y-66944761D01*
X241474285Y-66944761D01*
X239950476Y-65611428D02*
X239950476Y-66944761D01*
X240807619Y-65611428D02*
X240807619Y-66659047D01*
X240712380Y-66849523D01*
X240521904Y-66944761D01*
X240236190Y-66944761D01*
X240045714Y-66849523D01*
X239950476Y-66754285D01*
X240712380Y-64944761D02*
X240617142Y-65040000D01*
X240712380Y-65135238D01*
X240807619Y-65040000D01*
X240712380Y-64944761D01*
X240712380Y-65135238D01*
X239950476Y-64944761D02*
X239855238Y-65040000D01*
X239950476Y-65135238D01*
X240045714Y-65040000D01*
X239950476Y-64944761D01*
X239950476Y-65135238D01*
X239283809Y-65611428D02*
X238521904Y-65611428D01*
X238998095Y-64944761D02*
X238998095Y-66659047D01*
X238902857Y-66849523D01*
X238712380Y-66944761D01*
X238521904Y-66944761D01*
X236998095Y-66944761D02*
X236998095Y-65897142D01*
X237093333Y-65706666D01*
X237283809Y-65611428D01*
X237664761Y-65611428D01*
X237855238Y-65706666D01*
X236998095Y-66849523D02*
X237188571Y-66944761D01*
X237664761Y-66944761D01*
X237855238Y-66849523D01*
X237950476Y-66659047D01*
X237950476Y-66468571D01*
X237855238Y-66278095D01*
X237664761Y-66182857D01*
X237188571Y-66182857D01*
X236998095Y-66087619D01*
X236045714Y-66754285D02*
X235950476Y-66849523D01*
X236045714Y-66944761D01*
X236140952Y-66849523D01*
X236045714Y-66754285D01*
X236045714Y-66944761D01*
X234236190Y-66944761D02*
X234236190Y-64944761D01*
X234236190Y-66849523D02*
X234426666Y-66944761D01*
X234807619Y-66944761D01*
X234998095Y-66849523D01*
X235093333Y-66754285D01*
X235188571Y-66563809D01*
X235188571Y-65992380D01*
X235093333Y-65801904D01*
X234998095Y-65706666D01*
X234807619Y-65611428D01*
X234426666Y-65611428D01*
X234236190Y-65706666D01*
X232521904Y-66849523D02*
X232712380Y-66944761D01*
X233093333Y-66944761D01*
X233283809Y-66849523D01*
X233379047Y-66659047D01*
X233379047Y-65897142D01*
X233283809Y-65706666D01*
X233093333Y-65611428D01*
X232712380Y-65611428D01*
X232521904Y-65706666D01*
X232426666Y-65897142D01*
X232426666Y-66087619D01*
X233379047Y-66278095D01*
X221263809Y-46624761D02*
X221263809Y-44624761D01*
X220787619Y-44624761D01*
X220501904Y-44720000D01*
X220311428Y-44910476D01*
X220216190Y-45100952D01*
X220120952Y-45481904D01*
X220120952Y-45767619D01*
X220216190Y-46148571D01*
X220311428Y-46339047D01*
X220501904Y-46529523D01*
X220787619Y-46624761D01*
X221263809Y-46624761D01*
X219263809Y-46624761D02*
X219263809Y-45291428D01*
X219263809Y-44624761D02*
X219359047Y-44720000D01*
X219263809Y-44815238D01*
X219168571Y-44720000D01*
X219263809Y-44624761D01*
X219263809Y-44815238D01*
X217549523Y-46529523D02*
X217740000Y-46624761D01*
X218120952Y-46624761D01*
X218311428Y-46529523D01*
X218406666Y-46339047D01*
X218406666Y-45577142D01*
X218311428Y-45386666D01*
X218120952Y-45291428D01*
X217740000Y-45291428D01*
X217549523Y-45386666D01*
X217454285Y-45577142D01*
X217454285Y-45767619D01*
X218406666Y-45958095D01*
X216692380Y-46529523D02*
X216501904Y-46624761D01*
X216120952Y-46624761D01*
X215930476Y-46529523D01*
X215835238Y-46339047D01*
X215835238Y-46243809D01*
X215930476Y-46053333D01*
X216120952Y-45958095D01*
X216406666Y-45958095D01*
X216597142Y-45862857D01*
X216692380Y-45672380D01*
X216692380Y-45577142D01*
X216597142Y-45386666D01*
X216406666Y-45291428D01*
X216120952Y-45291428D01*
X215930476Y-45386666D01*
X214216190Y-46529523D02*
X214406666Y-46624761D01*
X214787619Y-46624761D01*
X214978095Y-46529523D01*
X215073333Y-46339047D01*
X215073333Y-45577142D01*
X214978095Y-45386666D01*
X214787619Y-45291428D01*
X214406666Y-45291428D01*
X214216190Y-45386666D01*
X214120952Y-45577142D01*
X214120952Y-45767619D01*
X215073333Y-45958095D01*
X211740000Y-46624761D02*
X211740000Y-44624761D01*
X210978095Y-44624761D01*
X210787619Y-44720000D01*
X210692380Y-44815238D01*
X210597142Y-45005714D01*
X210597142Y-45291428D01*
X210692380Y-45481904D01*
X210787619Y-45577142D01*
X210978095Y-45672380D01*
X211740000Y-45672380D01*
X209454285Y-46624761D02*
X209644761Y-46529523D01*
X209740000Y-46339047D01*
X209740000Y-44624761D01*
X207835238Y-46624761D02*
X207835238Y-45577142D01*
X207930476Y-45386666D01*
X208120952Y-45291428D01*
X208501904Y-45291428D01*
X208692380Y-45386666D01*
X207835238Y-46529523D02*
X208025714Y-46624761D01*
X208501904Y-46624761D01*
X208692380Y-46529523D01*
X208787619Y-46339047D01*
X208787619Y-46148571D01*
X208692380Y-45958095D01*
X208501904Y-45862857D01*
X208025714Y-45862857D01*
X207835238Y-45767619D01*
X207168571Y-45291428D02*
X206406666Y-45291428D01*
X206882857Y-44624761D02*
X206882857Y-46339047D01*
X206787619Y-46529523D01*
X206597142Y-46624761D01*
X206406666Y-46624761D01*
X205740000Y-46624761D02*
X205740000Y-45291428D01*
X205740000Y-44624761D02*
X205835238Y-44720000D01*
X205740000Y-44815238D01*
X205644761Y-44720000D01*
X205740000Y-44624761D01*
X205740000Y-44815238D01*
X204787619Y-45291428D02*
X204787619Y-46624761D01*
X204787619Y-45481904D02*
X204692380Y-45386666D01*
X204501904Y-45291428D01*
X204216190Y-45291428D01*
X204025714Y-45386666D01*
X203930476Y-45577142D01*
X203930476Y-46624761D01*
X202216190Y-46529523D02*
X202406666Y-46624761D01*
X202787619Y-46624761D01*
X202978095Y-46529523D01*
X203073333Y-46339047D01*
X203073333Y-45577142D01*
X202978095Y-45386666D01*
X202787619Y-45291428D01*
X202406666Y-45291428D01*
X202216190Y-45386666D01*
X202120952Y-45577142D01*
X202120952Y-45767619D01*
X203073333Y-45958095D01*
X198882857Y-45291428D02*
X198882857Y-46910476D01*
X198978095Y-47100952D01*
X199073333Y-47196190D01*
X199263809Y-47291428D01*
X199549523Y-47291428D01*
X199740000Y-47196190D01*
X198882857Y-46529523D02*
X199073333Y-46624761D01*
X199454285Y-46624761D01*
X199644761Y-46529523D01*
X199740000Y-46434285D01*
X199835238Y-46243809D01*
X199835238Y-45672380D01*
X199740000Y-45481904D01*
X199644761Y-45386666D01*
X199454285Y-45291428D01*
X199073333Y-45291428D01*
X198882857Y-45386666D01*
X197168571Y-46529523D02*
X197359047Y-46624761D01*
X197740000Y-46624761D01*
X197930476Y-46529523D01*
X198025714Y-46339047D01*
X198025714Y-45577142D01*
X197930476Y-45386666D01*
X197740000Y-45291428D01*
X197359047Y-45291428D01*
X197168571Y-45386666D01*
X197073333Y-45577142D01*
X197073333Y-45767619D01*
X198025714Y-45958095D01*
X196216190Y-46624761D02*
X196216190Y-44624761D01*
X195359047Y-46624761D02*
X195359047Y-45577142D01*
X195454285Y-45386666D01*
X195644761Y-45291428D01*
X195930476Y-45291428D01*
X196120952Y-45386666D01*
X196216190Y-45481904D01*
X194120952Y-46624761D02*
X194311428Y-46529523D01*
X194406666Y-46434285D01*
X194501904Y-46243809D01*
X194501904Y-45672380D01*
X194406666Y-45481904D01*
X194311428Y-45386666D01*
X194120952Y-45291428D01*
X193835238Y-45291428D01*
X193644761Y-45386666D01*
X193549523Y-45481904D01*
X193454285Y-45672380D01*
X193454285Y-46243809D01*
X193549523Y-46434285D01*
X193644761Y-46529523D01*
X193835238Y-46624761D01*
X194120952Y-46624761D01*
X194311428Y-44624761D02*
X194216190Y-44720000D01*
X194311428Y-44815238D01*
X194406666Y-44720000D01*
X194311428Y-44624761D01*
X194311428Y-44815238D01*
X193549523Y-44624761D02*
X193454285Y-44720000D01*
X193549523Y-44815238D01*
X193644761Y-44720000D01*
X193549523Y-44624761D01*
X193549523Y-44815238D01*
X192597142Y-46624761D02*
X192597142Y-45291428D01*
X192597142Y-45672380D02*
X192501904Y-45481904D01*
X192406666Y-45386666D01*
X192216190Y-45291428D01*
X192025714Y-45291428D01*
X191644761Y-45291428D02*
X190882857Y-45291428D01*
X191359047Y-44624761D02*
X191359047Y-46339047D01*
X191263809Y-46529523D01*
X191073333Y-46624761D01*
X190882857Y-46624761D01*
X190216190Y-46434285D02*
X190120952Y-46529523D01*
X190216190Y-46624761D01*
X190311428Y-46529523D01*
X190216190Y-46434285D01*
X190216190Y-46624761D01*
X190216190Y-45386666D02*
X190120952Y-45481904D01*
X190216190Y-45577142D01*
X190311428Y-45481904D01*
X190216190Y-45386666D01*
X190216190Y-45577142D01*
%TO.C,R5*%
X195746666Y-57772380D02*
X196080000Y-57296190D01*
X196318095Y-57772380D02*
X196318095Y-56772380D01*
X195937142Y-56772380D01*
X195841904Y-56820000D01*
X195794285Y-56867619D01*
X195746666Y-56962857D01*
X195746666Y-57105714D01*
X195794285Y-57200952D01*
X195841904Y-57248571D01*
X195937142Y-57296190D01*
X196318095Y-57296190D01*
X194841904Y-56772380D02*
X195318095Y-56772380D01*
X195365714Y-57248571D01*
X195318095Y-57200952D01*
X195222857Y-57153333D01*
X194984761Y-57153333D01*
X194889523Y-57200952D01*
X194841904Y-57248571D01*
X194794285Y-57343809D01*
X194794285Y-57581904D01*
X194841904Y-57677142D01*
X194889523Y-57724761D01*
X194984761Y-57772380D01*
X195222857Y-57772380D01*
X195318095Y-57724761D01*
X195365714Y-57677142D01*
%TO.C,R8*%
X238926666Y-42192380D02*
X239260000Y-41716190D01*
X239498095Y-42192380D02*
X239498095Y-41192380D01*
X239117142Y-41192380D01*
X239021904Y-41240000D01*
X238974285Y-41287619D01*
X238926666Y-41382857D01*
X238926666Y-41525714D01*
X238974285Y-41620952D01*
X239021904Y-41668571D01*
X239117142Y-41716190D01*
X239498095Y-41716190D01*
X238355238Y-41620952D02*
X238450476Y-41573333D01*
X238498095Y-41525714D01*
X238545714Y-41430476D01*
X238545714Y-41382857D01*
X238498095Y-41287619D01*
X238450476Y-41240000D01*
X238355238Y-41192380D01*
X238164761Y-41192380D01*
X238069523Y-41240000D01*
X238021904Y-41287619D01*
X237974285Y-41382857D01*
X237974285Y-41430476D01*
X238021904Y-41525714D01*
X238069523Y-41573333D01*
X238164761Y-41620952D01*
X238355238Y-41620952D01*
X238450476Y-41668571D01*
X238498095Y-41716190D01*
X238545714Y-41811428D01*
X238545714Y-42001904D01*
X238498095Y-42097142D01*
X238450476Y-42144761D01*
X238355238Y-42192380D01*
X238164761Y-42192380D01*
X238069523Y-42144761D01*
X238021904Y-42097142D01*
X237974285Y-42001904D01*
X237974285Y-41811428D01*
X238021904Y-41716190D01*
X238069523Y-41668571D01*
X238164761Y-41620952D01*
%TO.C,J1*%
X160353333Y-37342380D02*
X160353333Y-38056666D01*
X160400952Y-38199523D01*
X160496190Y-38294761D01*
X160639047Y-38342380D01*
X160734285Y-38342380D01*
X159353333Y-38342380D02*
X159924761Y-38342380D01*
X159639047Y-38342380D02*
X159639047Y-37342380D01*
X159734285Y-37485238D01*
X159829523Y-37580476D01*
X159924761Y-37628095D01*
%TO.C,C3*%
X180637142Y-64873333D02*
X180684761Y-64825714D01*
X180732380Y-64682857D01*
X180732380Y-64587619D01*
X180684761Y-64444761D01*
X180589523Y-64349523D01*
X180494285Y-64301904D01*
X180303809Y-64254285D01*
X180160952Y-64254285D01*
X179970476Y-64301904D01*
X179875238Y-64349523D01*
X179780000Y-64444761D01*
X179732380Y-64587619D01*
X179732380Y-64682857D01*
X179780000Y-64825714D01*
X179827619Y-64873333D01*
X179732380Y-65206666D02*
X179732380Y-65825714D01*
X180113333Y-65492380D01*
X180113333Y-65635238D01*
X180160952Y-65730476D01*
X180208571Y-65778095D01*
X180303809Y-65825714D01*
X180541904Y-65825714D01*
X180637142Y-65778095D01*
X180684761Y-65730476D01*
X180732380Y-65635238D01*
X180732380Y-65349523D01*
X180684761Y-65254285D01*
X180637142Y-65206666D01*
%TO.C,C5*%
X232707142Y-62333333D02*
X232754761Y-62285714D01*
X232802380Y-62142857D01*
X232802380Y-62047619D01*
X232754761Y-61904761D01*
X232659523Y-61809523D01*
X232564285Y-61761904D01*
X232373809Y-61714285D01*
X232230952Y-61714285D01*
X232040476Y-61761904D01*
X231945238Y-61809523D01*
X231850000Y-61904761D01*
X231802380Y-62047619D01*
X231802380Y-62142857D01*
X231850000Y-62285714D01*
X231897619Y-62333333D01*
X231802380Y-63238095D02*
X231802380Y-62761904D01*
X232278571Y-62714285D01*
X232230952Y-62761904D01*
X232183333Y-62857142D01*
X232183333Y-63095238D01*
X232230952Y-63190476D01*
X232278571Y-63238095D01*
X232373809Y-63285714D01*
X232611904Y-63285714D01*
X232707142Y-63238095D01*
X232754761Y-63190476D01*
X232802380Y-63095238D01*
X232802380Y-62857142D01*
X232754761Y-62761904D01*
X232707142Y-62714285D01*
%TO.C,R9*%
X213526666Y-27292380D02*
X213860000Y-26816190D01*
X214098095Y-27292380D02*
X214098095Y-26292380D01*
X213717142Y-26292380D01*
X213621904Y-26340000D01*
X213574285Y-26387619D01*
X213526666Y-26482857D01*
X213526666Y-26625714D01*
X213574285Y-26720952D01*
X213621904Y-26768571D01*
X213717142Y-26816190D01*
X214098095Y-26816190D01*
X213050476Y-27292380D02*
X212860000Y-27292380D01*
X212764761Y-27244761D01*
X212717142Y-27197142D01*
X212621904Y-27054285D01*
X212574285Y-26863809D01*
X212574285Y-26482857D01*
X212621904Y-26387619D01*
X212669523Y-26340000D01*
X212764761Y-26292380D01*
X212955238Y-26292380D01*
X213050476Y-26340000D01*
X213098095Y-26387619D01*
X213145714Y-26482857D01*
X213145714Y-26720952D01*
X213098095Y-26816190D01*
X213050476Y-26863809D01*
X212955238Y-26911428D01*
X212764761Y-26911428D01*
X212669523Y-26863809D01*
X212621904Y-26816190D01*
X212574285Y-26720952D01*
%TO.C,Q4*%
X221777619Y-68484761D02*
X221730000Y-68389523D01*
X221634761Y-68294285D01*
X221491904Y-68151428D01*
X221444285Y-68056190D01*
X221444285Y-67960952D01*
X221682380Y-68008571D02*
X221634761Y-67913333D01*
X221539523Y-67818095D01*
X221349047Y-67770476D01*
X221015714Y-67770476D01*
X220825238Y-67818095D01*
X220730000Y-67913333D01*
X220682380Y-68008571D01*
X220682380Y-68199047D01*
X220730000Y-68294285D01*
X220825238Y-68389523D01*
X221015714Y-68437142D01*
X221349047Y-68437142D01*
X221539523Y-68389523D01*
X221634761Y-68294285D01*
X221682380Y-68199047D01*
X221682380Y-68008571D01*
X221015714Y-69294285D02*
X221682380Y-69294285D01*
X220634761Y-69056190D02*
X221349047Y-68818095D01*
X221349047Y-69437142D01*
%TO.C,R10*%
X241942857Y-35842380D02*
X242276190Y-35366190D01*
X242514285Y-35842380D02*
X242514285Y-34842380D01*
X242133333Y-34842380D01*
X242038095Y-34890000D01*
X241990476Y-34937619D01*
X241942857Y-35032857D01*
X241942857Y-35175714D01*
X241990476Y-35270952D01*
X242038095Y-35318571D01*
X242133333Y-35366190D01*
X242514285Y-35366190D01*
X240990476Y-35842380D02*
X241561904Y-35842380D01*
X241276190Y-35842380D02*
X241276190Y-34842380D01*
X241371428Y-34985238D01*
X241466666Y-35080476D01*
X241561904Y-35128095D01*
X240371428Y-34842380D02*
X240276190Y-34842380D01*
X240180952Y-34890000D01*
X240133333Y-34937619D01*
X240085714Y-35032857D01*
X240038095Y-35223333D01*
X240038095Y-35461428D01*
X240085714Y-35651904D01*
X240133333Y-35747142D01*
X240180952Y-35794761D01*
X240276190Y-35842380D01*
X240371428Y-35842380D01*
X240466666Y-35794761D01*
X240514285Y-35747142D01*
X240561904Y-35651904D01*
X240609523Y-35461428D01*
X240609523Y-35223333D01*
X240561904Y-35032857D01*
X240514285Y-34937619D01*
X240466666Y-34890000D01*
X240371428Y-34842380D01*
%TO.C,C1*%
X176827142Y-34393333D02*
X176874761Y-34345714D01*
X176922380Y-34202857D01*
X176922380Y-34107619D01*
X176874761Y-33964761D01*
X176779523Y-33869523D01*
X176684285Y-33821904D01*
X176493809Y-33774285D01*
X176350952Y-33774285D01*
X176160476Y-33821904D01*
X176065238Y-33869523D01*
X175970000Y-33964761D01*
X175922380Y-34107619D01*
X175922380Y-34202857D01*
X175970000Y-34345714D01*
X176017619Y-34393333D01*
X176922380Y-35345714D02*
X176922380Y-34774285D01*
X176922380Y-35060000D02*
X175922380Y-35060000D01*
X176065238Y-34964761D01*
X176160476Y-34869523D01*
X176208095Y-34774285D01*
%TO.C,C2*%
X164127142Y-63603333D02*
X164174761Y-63555714D01*
X164222380Y-63412857D01*
X164222380Y-63317619D01*
X164174761Y-63174761D01*
X164079523Y-63079523D01*
X163984285Y-63031904D01*
X163793809Y-62984285D01*
X163650952Y-62984285D01*
X163460476Y-63031904D01*
X163365238Y-63079523D01*
X163270000Y-63174761D01*
X163222380Y-63317619D01*
X163222380Y-63412857D01*
X163270000Y-63555714D01*
X163317619Y-63603333D01*
X163317619Y-63984285D02*
X163270000Y-64031904D01*
X163222380Y-64127142D01*
X163222380Y-64365238D01*
X163270000Y-64460476D01*
X163317619Y-64508095D01*
X163412857Y-64555714D01*
X163508095Y-64555714D01*
X163650952Y-64508095D01*
X164222380Y-63936666D01*
X164222380Y-64555714D01*
%TO.C,Q3*%
X200187619Y-69754761D02*
X200140000Y-69659523D01*
X200044761Y-69564285D01*
X199901904Y-69421428D01*
X199854285Y-69326190D01*
X199854285Y-69230952D01*
X200092380Y-69278571D02*
X200044761Y-69183333D01*
X199949523Y-69088095D01*
X199759047Y-69040476D01*
X199425714Y-69040476D01*
X199235238Y-69088095D01*
X199140000Y-69183333D01*
X199092380Y-69278571D01*
X199092380Y-69469047D01*
X199140000Y-69564285D01*
X199235238Y-69659523D01*
X199425714Y-69707142D01*
X199759047Y-69707142D01*
X199949523Y-69659523D01*
X200044761Y-69564285D01*
X200092380Y-69469047D01*
X200092380Y-69278571D01*
X199092380Y-70040476D02*
X199092380Y-70659523D01*
X199473333Y-70326190D01*
X199473333Y-70469047D01*
X199520952Y-70564285D01*
X199568571Y-70611904D01*
X199663809Y-70659523D01*
X199901904Y-70659523D01*
X199997142Y-70611904D01*
X200044761Y-70564285D01*
X200092380Y-70469047D01*
X200092380Y-70183333D01*
X200044761Y-70088095D01*
X199997142Y-70040476D01*
%TO.C,D9*%
X210288095Y-29512380D02*
X210288095Y-28512380D01*
X210050000Y-28512380D01*
X209907142Y-28560000D01*
X209811904Y-28655238D01*
X209764285Y-28750476D01*
X209716666Y-28940952D01*
X209716666Y-29083809D01*
X209764285Y-29274285D01*
X209811904Y-29369523D01*
X209907142Y-29464761D01*
X210050000Y-29512380D01*
X210288095Y-29512380D01*
X209240476Y-29512380D02*
X209050000Y-29512380D01*
X208954761Y-29464761D01*
X208907142Y-29417142D01*
X208811904Y-29274285D01*
X208764285Y-29083809D01*
X208764285Y-28702857D01*
X208811904Y-28607619D01*
X208859523Y-28560000D01*
X208954761Y-28512380D01*
X209145238Y-28512380D01*
X209240476Y-28560000D01*
X209288095Y-28607619D01*
X209335714Y-28702857D01*
X209335714Y-28940952D01*
X209288095Y-29036190D01*
X209240476Y-29083809D01*
X209145238Y-29131428D01*
X208954761Y-29131428D01*
X208859523Y-29083809D01*
X208811904Y-29036190D01*
X208764285Y-28940952D01*
%TO.C,Q2*%
X174787619Y-71024761D02*
X174740000Y-70929523D01*
X174644761Y-70834285D01*
X174501904Y-70691428D01*
X174454285Y-70596190D01*
X174454285Y-70500952D01*
X174692380Y-70548571D02*
X174644761Y-70453333D01*
X174549523Y-70358095D01*
X174359047Y-70310476D01*
X174025714Y-70310476D01*
X173835238Y-70358095D01*
X173740000Y-70453333D01*
X173692380Y-70548571D01*
X173692380Y-70739047D01*
X173740000Y-70834285D01*
X173835238Y-70929523D01*
X174025714Y-70977142D01*
X174359047Y-70977142D01*
X174549523Y-70929523D01*
X174644761Y-70834285D01*
X174692380Y-70739047D01*
X174692380Y-70548571D01*
X173787619Y-71358095D02*
X173740000Y-71405714D01*
X173692380Y-71500952D01*
X173692380Y-71739047D01*
X173740000Y-71834285D01*
X173787619Y-71881904D01*
X173882857Y-71929523D01*
X173978095Y-71929523D01*
X174120952Y-71881904D01*
X174692380Y-71310476D01*
X174692380Y-71929523D01*
%TO.C,Q1*%
X162087619Y-69754761D02*
X162040000Y-69659523D01*
X161944761Y-69564285D01*
X161801904Y-69421428D01*
X161754285Y-69326190D01*
X161754285Y-69230952D01*
X161992380Y-69278571D02*
X161944761Y-69183333D01*
X161849523Y-69088095D01*
X161659047Y-69040476D01*
X161325714Y-69040476D01*
X161135238Y-69088095D01*
X161040000Y-69183333D01*
X160992380Y-69278571D01*
X160992380Y-69469047D01*
X161040000Y-69564285D01*
X161135238Y-69659523D01*
X161325714Y-69707142D01*
X161659047Y-69707142D01*
X161849523Y-69659523D01*
X161944761Y-69564285D01*
X161992380Y-69469047D01*
X161992380Y-69278571D01*
X161992380Y-70659523D02*
X161992380Y-70088095D01*
X161992380Y-70373809D02*
X160992380Y-70373809D01*
X161135238Y-70278571D01*
X161230476Y-70183333D01*
X161278095Y-70088095D01*
%TO.C,Q5*%
X220507619Y-35464761D02*
X220460000Y-35369523D01*
X220364761Y-35274285D01*
X220221904Y-35131428D01*
X220174285Y-35036190D01*
X220174285Y-34940952D01*
X220412380Y-34988571D02*
X220364761Y-34893333D01*
X220269523Y-34798095D01*
X220079047Y-34750476D01*
X219745714Y-34750476D01*
X219555238Y-34798095D01*
X219460000Y-34893333D01*
X219412380Y-34988571D01*
X219412380Y-35179047D01*
X219460000Y-35274285D01*
X219555238Y-35369523D01*
X219745714Y-35417142D01*
X220079047Y-35417142D01*
X220269523Y-35369523D01*
X220364761Y-35274285D01*
X220412380Y-35179047D01*
X220412380Y-34988571D01*
X219412380Y-36321904D02*
X219412380Y-35845714D01*
X219888571Y-35798095D01*
X219840952Y-35845714D01*
X219793333Y-35940952D01*
X219793333Y-36179047D01*
X219840952Y-36274285D01*
X219888571Y-36321904D01*
X219983809Y-36369523D01*
X220221904Y-36369523D01*
X220317142Y-36321904D01*
X220364761Y-36274285D01*
X220412380Y-36179047D01*
X220412380Y-35940952D01*
X220364761Y-35845714D01*
X220317142Y-35798095D01*
%TO.C,C4*%
X207307142Y-63603333D02*
X207354761Y-63555714D01*
X207402380Y-63412857D01*
X207402380Y-63317619D01*
X207354761Y-63174761D01*
X207259523Y-63079523D01*
X207164285Y-63031904D01*
X206973809Y-62984285D01*
X206830952Y-62984285D01*
X206640476Y-63031904D01*
X206545238Y-63079523D01*
X206450000Y-63174761D01*
X206402380Y-63317619D01*
X206402380Y-63412857D01*
X206450000Y-63555714D01*
X206497619Y-63603333D01*
X206735714Y-64460476D02*
X207402380Y-64460476D01*
X206354761Y-64222380D02*
X207069047Y-63984285D01*
X207069047Y-64603333D01*
%TO.C,D8*%
X186158095Y-29512380D02*
X186158095Y-28512380D01*
X185920000Y-28512380D01*
X185777142Y-28560000D01*
X185681904Y-28655238D01*
X185634285Y-28750476D01*
X185586666Y-28940952D01*
X185586666Y-29083809D01*
X185634285Y-29274285D01*
X185681904Y-29369523D01*
X185777142Y-29464761D01*
X185920000Y-29512380D01*
X186158095Y-29512380D01*
X185015238Y-28940952D02*
X185110476Y-28893333D01*
X185158095Y-28845714D01*
X185205714Y-28750476D01*
X185205714Y-28702857D01*
X185158095Y-28607619D01*
X185110476Y-28560000D01*
X185015238Y-28512380D01*
X184824761Y-28512380D01*
X184729523Y-28560000D01*
X184681904Y-28607619D01*
X184634285Y-28702857D01*
X184634285Y-28750476D01*
X184681904Y-28845714D01*
X184729523Y-28893333D01*
X184824761Y-28940952D01*
X185015238Y-28940952D01*
X185110476Y-28988571D01*
X185158095Y-29036190D01*
X185205714Y-29131428D01*
X185205714Y-29321904D01*
X185158095Y-29417142D01*
X185110476Y-29464761D01*
X185015238Y-29512380D01*
X184824761Y-29512380D01*
X184729523Y-29464761D01*
X184681904Y-29417142D01*
X184634285Y-29321904D01*
X184634285Y-29131428D01*
X184681904Y-29036190D01*
X184729523Y-28988571D01*
X184824761Y-28940952D01*
%TO.C,D10*%
X217114285Y-29512380D02*
X217114285Y-28512380D01*
X216876190Y-28512380D01*
X216733333Y-28560000D01*
X216638095Y-28655238D01*
X216590476Y-28750476D01*
X216542857Y-28940952D01*
X216542857Y-29083809D01*
X216590476Y-29274285D01*
X216638095Y-29369523D01*
X216733333Y-29464761D01*
X216876190Y-29512380D01*
X217114285Y-29512380D01*
X215590476Y-29512380D02*
X216161904Y-29512380D01*
X215876190Y-29512380D02*
X215876190Y-28512380D01*
X215971428Y-28655238D01*
X216066666Y-28750476D01*
X216161904Y-28798095D01*
X214971428Y-28512380D02*
X214876190Y-28512380D01*
X214780952Y-28560000D01*
X214733333Y-28607619D01*
X214685714Y-28702857D01*
X214638095Y-28893333D01*
X214638095Y-29131428D01*
X214685714Y-29321904D01*
X214733333Y-29417142D01*
X214780952Y-29464761D01*
X214876190Y-29512380D01*
X214971428Y-29512380D01*
X215066666Y-29464761D01*
X215114285Y-29417142D01*
X215161904Y-29321904D01*
X215209523Y-29131428D01*
X215209523Y-28893333D01*
X215161904Y-28702857D01*
X215114285Y-28607619D01*
X215066666Y-28560000D01*
X214971428Y-28512380D01*
%TO.C,R4*%
X173002380Y-54443333D02*
X172526190Y-54110000D01*
X173002380Y-53871904D02*
X172002380Y-53871904D01*
X172002380Y-54252857D01*
X172050000Y-54348095D01*
X172097619Y-54395714D01*
X172192857Y-54443333D01*
X172335714Y-54443333D01*
X172430952Y-54395714D01*
X172478571Y-54348095D01*
X172526190Y-54252857D01*
X172526190Y-53871904D01*
X172335714Y-55300476D02*
X173002380Y-55300476D01*
X171954761Y-55062380D02*
X172669047Y-54824285D01*
X172669047Y-55443333D01*
%TO.C,R7*%
X183046666Y-27292380D02*
X183380000Y-26816190D01*
X183618095Y-27292380D02*
X183618095Y-26292380D01*
X183237142Y-26292380D01*
X183141904Y-26340000D01*
X183094285Y-26387619D01*
X183046666Y-26482857D01*
X183046666Y-26625714D01*
X183094285Y-26720952D01*
X183141904Y-26768571D01*
X183237142Y-26816190D01*
X183618095Y-26816190D01*
X182713333Y-26292380D02*
X182046666Y-26292380D01*
X182475238Y-27292380D01*
%TO.C,R3*%
X177966666Y-56162380D02*
X178300000Y-55686190D01*
X178538095Y-56162380D02*
X178538095Y-55162380D01*
X178157142Y-55162380D01*
X178061904Y-55210000D01*
X178014285Y-55257619D01*
X177966666Y-55352857D01*
X177966666Y-55495714D01*
X178014285Y-55590952D01*
X178061904Y-55638571D01*
X178157142Y-55686190D01*
X178538095Y-55686190D01*
X177633333Y-55162380D02*
X177014285Y-55162380D01*
X177347619Y-55543333D01*
X177204761Y-55543333D01*
X177109523Y-55590952D01*
X177061904Y-55638571D01*
X177014285Y-55733809D01*
X177014285Y-55971904D01*
X177061904Y-56067142D01*
X177109523Y-56114761D01*
X177204761Y-56162380D01*
X177490476Y-56162380D01*
X177585714Y-56114761D01*
X177633333Y-56067142D01*
%TO.C,R1*%
X165266666Y-42192380D02*
X165600000Y-41716190D01*
X165838095Y-42192380D02*
X165838095Y-41192380D01*
X165457142Y-41192380D01*
X165361904Y-41240000D01*
X165314285Y-41287619D01*
X165266666Y-41382857D01*
X165266666Y-41525714D01*
X165314285Y-41620952D01*
X165361904Y-41668571D01*
X165457142Y-41716190D01*
X165838095Y-41716190D01*
X164314285Y-42192380D02*
X164885714Y-42192380D01*
X164600000Y-42192380D02*
X164600000Y-41192380D01*
X164695238Y-41335238D01*
X164790476Y-41430476D01*
X164885714Y-41478095D01*
%TO.C,C6*%
X227627142Y-29313333D02*
X227674761Y-29265714D01*
X227722380Y-29122857D01*
X227722380Y-29027619D01*
X227674761Y-28884761D01*
X227579523Y-28789523D01*
X227484285Y-28741904D01*
X227293809Y-28694285D01*
X227150952Y-28694285D01*
X226960476Y-28741904D01*
X226865238Y-28789523D01*
X226770000Y-28884761D01*
X226722380Y-29027619D01*
X226722380Y-29122857D01*
X226770000Y-29265714D01*
X226817619Y-29313333D01*
X226722380Y-30170476D02*
X226722380Y-29980000D01*
X226770000Y-29884761D01*
X226817619Y-29837142D01*
X226960476Y-29741904D01*
X227150952Y-29694285D01*
X227531904Y-29694285D01*
X227627142Y-29741904D01*
X227674761Y-29789523D01*
X227722380Y-29884761D01*
X227722380Y-30075238D01*
X227674761Y-30170476D01*
X227627142Y-30218095D01*
X227531904Y-30265714D01*
X227293809Y-30265714D01*
X227198571Y-30218095D01*
X227150952Y-30170476D01*
X227103333Y-30075238D01*
X227103333Y-29884761D01*
X227150952Y-29789523D01*
X227198571Y-29741904D01*
X227293809Y-29694285D01*
%TO.C,R2*%
X162726666Y-62512380D02*
X163060000Y-62036190D01*
X163298095Y-62512380D02*
X163298095Y-61512380D01*
X162917142Y-61512380D01*
X162821904Y-61560000D01*
X162774285Y-61607619D01*
X162726666Y-61702857D01*
X162726666Y-61845714D01*
X162774285Y-61940952D01*
X162821904Y-61988571D01*
X162917142Y-62036190D01*
X163298095Y-62036190D01*
X162345714Y-61607619D02*
X162298095Y-61560000D01*
X162202857Y-61512380D01*
X161964761Y-61512380D01*
X161869523Y-61560000D01*
X161821904Y-61607619D01*
X161774285Y-61702857D01*
X161774285Y-61798095D01*
X161821904Y-61940952D01*
X162393333Y-62512380D01*
X161774285Y-62512380D01*
%TO.C,D7*%
X179808095Y-29512380D02*
X179808095Y-28512380D01*
X179570000Y-28512380D01*
X179427142Y-28560000D01*
X179331904Y-28655238D01*
X179284285Y-28750476D01*
X179236666Y-28940952D01*
X179236666Y-29083809D01*
X179284285Y-29274285D01*
X179331904Y-29369523D01*
X179427142Y-29464761D01*
X179570000Y-29512380D01*
X179808095Y-29512380D01*
X178903333Y-28512380D02*
X178236666Y-28512380D01*
X178665238Y-29512380D01*
%TO.C,R6*%
X222532380Y-62063333D02*
X222056190Y-61730000D01*
X222532380Y-61491904D02*
X221532380Y-61491904D01*
X221532380Y-61872857D01*
X221580000Y-61968095D01*
X221627619Y-62015714D01*
X221722857Y-62063333D01*
X221865714Y-62063333D01*
X221960952Y-62015714D01*
X222008571Y-61968095D01*
X222056190Y-61872857D01*
X222056190Y-61491904D01*
X221532380Y-62920476D02*
X221532380Y-62730000D01*
X221580000Y-62634761D01*
X221627619Y-62587142D01*
X221770476Y-62491904D01*
X221960952Y-62444285D01*
X222341904Y-62444285D01*
X222437142Y-62491904D01*
X222484761Y-62539523D01*
X222532380Y-62634761D01*
X222532380Y-62825238D01*
X222484761Y-62920476D01*
X222437142Y-62968095D01*
X222341904Y-63015714D01*
X222103809Y-63015714D01*
X222008571Y-62968095D01*
X221960952Y-62920476D01*
X221913333Y-62825238D01*
X221913333Y-62634761D01*
X221960952Y-62539523D01*
X222008571Y-62491904D01*
X222103809Y-62444285D01*
D11*
%TO.C,R5*%
X191540000Y-59690000D02*
X192310000Y-59690000D01*
X199620000Y-59690000D02*
X198850000Y-59690000D01*
X198850000Y-58320000D02*
X198850000Y-61060000D01*
X192310000Y-61060000D02*
X192310000Y-58320000D01*
X198850000Y-61060000D02*
X192310000Y-61060000D01*
X192310000Y-58320000D02*
X198850000Y-58320000D01*
%TO.C,R8*%
X242800000Y-39370000D02*
X242030000Y-39370000D01*
X234720000Y-39370000D02*
X235490000Y-39370000D01*
X235490000Y-40740000D02*
X235490000Y-38000000D01*
X242030000Y-38000000D02*
X242030000Y-40740000D01*
X235490000Y-38000000D02*
X242030000Y-38000000D01*
X242030000Y-40740000D02*
X235490000Y-40740000D01*
%TO.C,J1*%
X158690000Y-35560000D02*
X158690000Y-36890000D01*
X158690000Y-31690000D02*
X161350000Y-31690000D01*
X158690000Y-34290000D02*
X158690000Y-31690000D01*
X158690000Y-34290000D02*
X161350000Y-34290000D01*
X158690000Y-36890000D02*
X160020000Y-36890000D01*
X161350000Y-34290000D02*
X161350000Y-31690000D01*
%TO.C,C3*%
X175490000Y-63039000D02*
X174877000Y-63039000D01*
X175490000Y-63719000D02*
X174306000Y-63719000D01*
X175490000Y-64840000D02*
X173957000Y-64840000D01*
X178798000Y-63799000D02*
X177570000Y-63799000D01*
X178859000Y-63919000D02*
X177570000Y-63919000D01*
X178840000Y-63879000D02*
X177570000Y-63879000D01*
X178501000Y-63359000D02*
X177570000Y-63359000D01*
X175490000Y-63079000D02*
X174831000Y-63079000D01*
X175490000Y-63399000D02*
X174526000Y-63399000D01*
X179106000Y-64880000D02*
X177570000Y-64880000D01*
X178595000Y-63479000D02*
X177570000Y-63479000D01*
X175490000Y-65000000D02*
X173950000Y-65000000D01*
X175490000Y-64319000D02*
X174050000Y-64319000D01*
X178958000Y-64159000D02*
X177570000Y-64159000D01*
X178944000Y-64119000D02*
X177570000Y-64119000D01*
X178431000Y-63279000D02*
X177570000Y-63279000D01*
X179041000Y-64440000D02*
X177570000Y-64440000D01*
X175490000Y-64800000D02*
X173961000Y-64800000D01*
X175490000Y-64199000D02*
X174088000Y-64199000D01*
X175490000Y-64480000D02*
X174010000Y-64480000D01*
X175490000Y-63759000D02*
X174283000Y-63759000D01*
X175490000Y-63639000D02*
X174355000Y-63639000D01*
X175490000Y-64920000D02*
X173952000Y-64920000D01*
X179058000Y-64520000D02*
X177570000Y-64520000D01*
X178679000Y-63599000D02*
X177570000Y-63599000D01*
X178356000Y-63199000D02*
X177570000Y-63199000D01*
X178183000Y-63039000D02*
X177570000Y-63039000D01*
X175490000Y-63999000D02*
X174165000Y-63999000D01*
X179110000Y-65040000D02*
X177570000Y-65040000D01*
X179091000Y-64720000D02*
X177570000Y-64720000D01*
X178895000Y-63999000D02*
X177570000Y-63999000D01*
X179066000Y-64560000D02*
X177570000Y-64560000D01*
X177335000Y-62559000D02*
X175725000Y-62559000D01*
X177781000Y-62759000D02*
X175279000Y-62759000D01*
X178030000Y-62919000D02*
X175030000Y-62919000D01*
X175490000Y-64680000D02*
X173974000Y-64680000D01*
X175490000Y-63959000D02*
X174182000Y-63959000D01*
X177207000Y-62519000D02*
X175853000Y-62519000D01*
X175490000Y-63479000D02*
X174465000Y-63479000D01*
X175490000Y-63519000D02*
X174435000Y-63519000D01*
X178998000Y-64279000D02*
X177570000Y-64279000D01*
X175490000Y-64039000D02*
X174148000Y-64039000D01*
X175490000Y-64159000D02*
X174102000Y-64159000D01*
X178878000Y-63959000D02*
X177570000Y-63959000D01*
X175490000Y-63799000D02*
X174262000Y-63799000D01*
X178315000Y-63159000D02*
X177570000Y-63159000D01*
X178625000Y-63519000D02*
X177570000Y-63519000D01*
X175490000Y-64720000D02*
X173969000Y-64720000D01*
X175490000Y-64119000D02*
X174116000Y-64119000D01*
X175490000Y-64079000D02*
X174132000Y-64079000D01*
X175490000Y-64880000D02*
X173954000Y-64880000D01*
X178912000Y-64039000D02*
X177570000Y-64039000D01*
X179021000Y-64360000D02*
X177570000Y-64360000D01*
X177541000Y-62639000D02*
X175519000Y-62639000D01*
X178084000Y-62959000D02*
X174976000Y-62959000D01*
X177445000Y-62599000D02*
X175615000Y-62599000D01*
X178005000Y-67844775D02*
X178005000Y-67344775D01*
X175490000Y-65040000D02*
X173950000Y-65040000D01*
X178985000Y-64239000D02*
X177570000Y-64239000D01*
X178652000Y-63559000D02*
X177570000Y-63559000D01*
X175490000Y-63839000D02*
X174240000Y-63839000D01*
X178730000Y-63679000D02*
X177570000Y-63679000D01*
X178394000Y-63239000D02*
X177570000Y-63239000D01*
X175490000Y-63119000D02*
X174787000Y-63119000D01*
X177628000Y-62679000D02*
X175432000Y-62679000D01*
X179108000Y-64920000D02*
X177570000Y-64920000D01*
X179095000Y-64760000D02*
X177570000Y-64760000D01*
X179109000Y-64960000D02*
X177570000Y-64960000D01*
X179103000Y-64840000D02*
X177570000Y-64840000D01*
X175490000Y-63239000D02*
X174666000Y-63239000D01*
X175490000Y-63919000D02*
X174201000Y-63919000D01*
X177048000Y-62479000D02*
X176012000Y-62479000D01*
X176814000Y-62439000D02*
X176246000Y-62439000D01*
X175490000Y-64440000D02*
X174019000Y-64440000D01*
X175490000Y-63319000D02*
X174593000Y-63319000D01*
X175490000Y-63879000D02*
X174220000Y-63879000D01*
X175490000Y-64640000D02*
X173980000Y-64640000D01*
X177849000Y-62799000D02*
X175211000Y-62799000D01*
X177913000Y-62839000D02*
X175147000Y-62839000D01*
X178928000Y-64079000D02*
X177570000Y-64079000D01*
X178777000Y-63759000D02*
X177570000Y-63759000D01*
X177708000Y-62719000D02*
X175352000Y-62719000D01*
X175490000Y-63679000D02*
X174330000Y-63679000D01*
X178273000Y-63119000D02*
X177570000Y-63119000D01*
X178565000Y-63439000D02*
X177570000Y-63439000D01*
X178135000Y-62999000D02*
X174925000Y-62999000D01*
X175490000Y-63559000D02*
X174408000Y-63559000D01*
X175490000Y-64279000D02*
X174062000Y-64279000D01*
X175490000Y-64520000D02*
X174002000Y-64520000D01*
X178972000Y-64199000D02*
X177570000Y-64199000D01*
X179086000Y-64680000D02*
X177570000Y-64680000D01*
X175490000Y-64600000D02*
X173987000Y-64600000D01*
X177973000Y-62879000D02*
X175087000Y-62879000D01*
X175490000Y-63199000D02*
X174704000Y-63199000D01*
X175490000Y-64239000D02*
X174075000Y-64239000D01*
X175490000Y-64760000D02*
X173965000Y-64760000D01*
X175490000Y-64960000D02*
X173951000Y-64960000D01*
X175490000Y-64360000D02*
X174039000Y-64360000D01*
X175490000Y-63159000D02*
X174745000Y-63159000D01*
X179010000Y-64319000D02*
X177570000Y-64319000D01*
X178534000Y-63399000D02*
X177570000Y-63399000D01*
X175490000Y-63599000D02*
X174381000Y-63599000D01*
X178705000Y-63639000D02*
X177570000Y-63639000D01*
X178820000Y-63839000D02*
X177570000Y-63839000D01*
X179099000Y-64800000D02*
X177570000Y-64800000D01*
X178467000Y-63319000D02*
X177570000Y-63319000D01*
X179073000Y-64600000D02*
X177570000Y-64600000D01*
X175490000Y-64400000D02*
X174029000Y-64400000D01*
X178754000Y-63719000D02*
X177570000Y-63719000D01*
X178255000Y-67594775D02*
X177755000Y-67594775D01*
X179080000Y-64640000D02*
X177570000Y-64640000D01*
X175490000Y-63359000D02*
X174559000Y-63359000D01*
X175490000Y-64560000D02*
X173994000Y-64560000D01*
X179050000Y-64480000D02*
X177570000Y-64480000D01*
X175490000Y-63439000D02*
X174495000Y-63439000D01*
X175490000Y-63279000D02*
X174629000Y-63279000D01*
X179110000Y-65000000D02*
X177570000Y-65000000D01*
X179031000Y-64400000D02*
X177570000Y-64400000D01*
X178229000Y-63079000D02*
X177570000Y-63079000D01*
X179150000Y-65040000D02*
G75*
G03*
X179150000Y-65040000I-2620000J0D01*
G01*
%TO.C,C5*%
X227560000Y-60499000D02*
X226947000Y-60499000D01*
X227560000Y-61179000D02*
X226376000Y-61179000D01*
X227560000Y-62300000D02*
X226027000Y-62300000D01*
X230868000Y-61259000D02*
X229640000Y-61259000D01*
X230929000Y-61379000D02*
X229640000Y-61379000D01*
X230910000Y-61339000D02*
X229640000Y-61339000D01*
X230571000Y-60819000D02*
X229640000Y-60819000D01*
X227560000Y-60539000D02*
X226901000Y-60539000D01*
X227560000Y-60859000D02*
X226596000Y-60859000D01*
X231176000Y-62340000D02*
X229640000Y-62340000D01*
X230665000Y-60939000D02*
X229640000Y-60939000D01*
X227560000Y-62460000D02*
X226020000Y-62460000D01*
X227560000Y-61779000D02*
X226120000Y-61779000D01*
X231028000Y-61619000D02*
X229640000Y-61619000D01*
X231014000Y-61579000D02*
X229640000Y-61579000D01*
X230501000Y-60739000D02*
X229640000Y-60739000D01*
X231111000Y-61900000D02*
X229640000Y-61900000D01*
X227560000Y-62260000D02*
X226031000Y-62260000D01*
X227560000Y-61659000D02*
X226158000Y-61659000D01*
X227560000Y-61940000D02*
X226080000Y-61940000D01*
X227560000Y-61219000D02*
X226353000Y-61219000D01*
X227560000Y-61099000D02*
X226425000Y-61099000D01*
X227560000Y-62380000D02*
X226022000Y-62380000D01*
X231128000Y-61980000D02*
X229640000Y-61980000D01*
X230749000Y-61059000D02*
X229640000Y-61059000D01*
X230426000Y-60659000D02*
X229640000Y-60659000D01*
X230253000Y-60499000D02*
X229640000Y-60499000D01*
X227560000Y-61459000D02*
X226235000Y-61459000D01*
X231180000Y-62500000D02*
X229640000Y-62500000D01*
X231161000Y-62180000D02*
X229640000Y-62180000D01*
X230965000Y-61459000D02*
X229640000Y-61459000D01*
X231136000Y-62020000D02*
X229640000Y-62020000D01*
X229405000Y-60019000D02*
X227795000Y-60019000D01*
X229851000Y-60219000D02*
X227349000Y-60219000D01*
X230100000Y-60379000D02*
X227100000Y-60379000D01*
X227560000Y-62140000D02*
X226044000Y-62140000D01*
X227560000Y-61419000D02*
X226252000Y-61419000D01*
X229277000Y-59979000D02*
X227923000Y-59979000D01*
X227560000Y-60939000D02*
X226535000Y-60939000D01*
X227560000Y-60979000D02*
X226505000Y-60979000D01*
X231068000Y-61739000D02*
X229640000Y-61739000D01*
X227560000Y-61499000D02*
X226218000Y-61499000D01*
X227560000Y-61619000D02*
X226172000Y-61619000D01*
X230948000Y-61419000D02*
X229640000Y-61419000D01*
X227560000Y-61259000D02*
X226332000Y-61259000D01*
X230385000Y-60619000D02*
X229640000Y-60619000D01*
X230695000Y-60979000D02*
X229640000Y-60979000D01*
X227560000Y-62180000D02*
X226039000Y-62180000D01*
X227560000Y-61579000D02*
X226186000Y-61579000D01*
X227560000Y-61539000D02*
X226202000Y-61539000D01*
X227560000Y-62340000D02*
X226024000Y-62340000D01*
X230982000Y-61499000D02*
X229640000Y-61499000D01*
X231091000Y-61820000D02*
X229640000Y-61820000D01*
X229611000Y-60099000D02*
X227589000Y-60099000D01*
X230154000Y-60419000D02*
X227046000Y-60419000D01*
X229515000Y-60059000D02*
X227685000Y-60059000D01*
X230075000Y-65304775D02*
X230075000Y-64804775D01*
X227560000Y-62500000D02*
X226020000Y-62500000D01*
X231055000Y-61699000D02*
X229640000Y-61699000D01*
X230722000Y-61019000D02*
X229640000Y-61019000D01*
X227560000Y-61299000D02*
X226310000Y-61299000D01*
X230800000Y-61139000D02*
X229640000Y-61139000D01*
X230464000Y-60699000D02*
X229640000Y-60699000D01*
X227560000Y-60579000D02*
X226857000Y-60579000D01*
X229698000Y-60139000D02*
X227502000Y-60139000D01*
X231178000Y-62380000D02*
X229640000Y-62380000D01*
X231165000Y-62220000D02*
X229640000Y-62220000D01*
X231179000Y-62420000D02*
X229640000Y-62420000D01*
X231173000Y-62300000D02*
X229640000Y-62300000D01*
X227560000Y-60699000D02*
X226736000Y-60699000D01*
X227560000Y-61379000D02*
X226271000Y-61379000D01*
X229118000Y-59939000D02*
X228082000Y-59939000D01*
X228884000Y-59899000D02*
X228316000Y-59899000D01*
X227560000Y-61900000D02*
X226089000Y-61900000D01*
X227560000Y-60779000D02*
X226663000Y-60779000D01*
X227560000Y-61339000D02*
X226290000Y-61339000D01*
X227560000Y-62100000D02*
X226050000Y-62100000D01*
X229919000Y-60259000D02*
X227281000Y-60259000D01*
X229983000Y-60299000D02*
X227217000Y-60299000D01*
X230998000Y-61539000D02*
X229640000Y-61539000D01*
X230847000Y-61219000D02*
X229640000Y-61219000D01*
X229778000Y-60179000D02*
X227422000Y-60179000D01*
X227560000Y-61139000D02*
X226400000Y-61139000D01*
X230343000Y-60579000D02*
X229640000Y-60579000D01*
X230635000Y-60899000D02*
X229640000Y-60899000D01*
X230205000Y-60459000D02*
X226995000Y-60459000D01*
X227560000Y-61019000D02*
X226478000Y-61019000D01*
X227560000Y-61739000D02*
X226132000Y-61739000D01*
X227560000Y-61980000D02*
X226072000Y-61980000D01*
X231042000Y-61659000D02*
X229640000Y-61659000D01*
X231156000Y-62140000D02*
X229640000Y-62140000D01*
X227560000Y-62060000D02*
X226057000Y-62060000D01*
X230043000Y-60339000D02*
X227157000Y-60339000D01*
X227560000Y-60659000D02*
X226774000Y-60659000D01*
X227560000Y-61699000D02*
X226145000Y-61699000D01*
X227560000Y-62220000D02*
X226035000Y-62220000D01*
X227560000Y-62420000D02*
X226021000Y-62420000D01*
X227560000Y-61820000D02*
X226109000Y-61820000D01*
X227560000Y-60619000D02*
X226815000Y-60619000D01*
X231080000Y-61779000D02*
X229640000Y-61779000D01*
X230604000Y-60859000D02*
X229640000Y-60859000D01*
X227560000Y-61059000D02*
X226451000Y-61059000D01*
X230775000Y-61099000D02*
X229640000Y-61099000D01*
X230890000Y-61299000D02*
X229640000Y-61299000D01*
X231169000Y-62260000D02*
X229640000Y-62260000D01*
X230537000Y-60779000D02*
X229640000Y-60779000D01*
X231143000Y-62060000D02*
X229640000Y-62060000D01*
X227560000Y-61860000D02*
X226099000Y-61860000D01*
X230824000Y-61179000D02*
X229640000Y-61179000D01*
X230325000Y-65054775D02*
X229825000Y-65054775D01*
X231150000Y-62100000D02*
X229640000Y-62100000D01*
X227560000Y-60819000D02*
X226629000Y-60819000D01*
X227560000Y-62020000D02*
X226064000Y-62020000D01*
X231120000Y-61940000D02*
X229640000Y-61940000D01*
X227560000Y-60899000D02*
X226565000Y-60899000D01*
X227560000Y-60739000D02*
X226699000Y-60739000D01*
X231180000Y-62460000D02*
X229640000Y-62460000D01*
X231101000Y-61860000D02*
X229640000Y-61860000D01*
X230299000Y-60539000D02*
X229640000Y-60539000D01*
X231220000Y-62500000D02*
G75*
G03*
X231220000Y-62500000I-2620000J0D01*
G01*
%TO.C,R9*%
X209320000Y-29210000D02*
X210090000Y-29210000D01*
X217400000Y-29210000D02*
X216630000Y-29210000D01*
X216630000Y-27840000D02*
X216630000Y-30580000D01*
X210090000Y-30580000D02*
X210090000Y-27840000D01*
X216630000Y-30580000D02*
X210090000Y-30580000D01*
X210090000Y-27840000D02*
X216630000Y-27840000D01*
%TO.C,Q4*%
X226640000Y-66780000D02*
X226640000Y-70380000D01*
X222189999Y-68580000D02*
G75*
G03*
X226628478Y-70418478I2600001J0D01*
G01*
X226628478Y-66741522D02*
G75*
G03*
X222190000Y-68580000I-1838478J-1838478D01*
G01*
%TO.C,R10*%
X245340000Y-33020000D02*
X244570000Y-33020000D01*
X237260000Y-33020000D02*
X238030000Y-33020000D01*
X238030000Y-34390000D02*
X238030000Y-31650000D01*
X244570000Y-31650000D02*
X244570000Y-34390000D01*
X238030000Y-31650000D02*
X244570000Y-31650000D01*
X244570000Y-34390000D02*
X238030000Y-34390000D01*
%TO.C,C1*%
X171680000Y-32559000D02*
X171067000Y-32559000D01*
X171680000Y-33239000D02*
X170496000Y-33239000D01*
X171680000Y-34360000D02*
X170147000Y-34360000D01*
X174988000Y-33319000D02*
X173760000Y-33319000D01*
X175049000Y-33439000D02*
X173760000Y-33439000D01*
X175030000Y-33399000D02*
X173760000Y-33399000D01*
X174691000Y-32879000D02*
X173760000Y-32879000D01*
X171680000Y-32599000D02*
X171021000Y-32599000D01*
X171680000Y-32919000D02*
X170716000Y-32919000D01*
X175296000Y-34400000D02*
X173760000Y-34400000D01*
X174785000Y-32999000D02*
X173760000Y-32999000D01*
X171680000Y-34520000D02*
X170140000Y-34520000D01*
X171680000Y-33839000D02*
X170240000Y-33839000D01*
X175148000Y-33679000D02*
X173760000Y-33679000D01*
X175134000Y-33639000D02*
X173760000Y-33639000D01*
X174621000Y-32799000D02*
X173760000Y-32799000D01*
X175231000Y-33960000D02*
X173760000Y-33960000D01*
X171680000Y-34320000D02*
X170151000Y-34320000D01*
X171680000Y-33719000D02*
X170278000Y-33719000D01*
X171680000Y-34000000D02*
X170200000Y-34000000D01*
X171680000Y-33279000D02*
X170473000Y-33279000D01*
X171680000Y-33159000D02*
X170545000Y-33159000D01*
X171680000Y-34440000D02*
X170142000Y-34440000D01*
X175248000Y-34040000D02*
X173760000Y-34040000D01*
X174869000Y-33119000D02*
X173760000Y-33119000D01*
X174546000Y-32719000D02*
X173760000Y-32719000D01*
X174373000Y-32559000D02*
X173760000Y-32559000D01*
X171680000Y-33519000D02*
X170355000Y-33519000D01*
X175300000Y-34560000D02*
X173760000Y-34560000D01*
X175281000Y-34240000D02*
X173760000Y-34240000D01*
X175085000Y-33519000D02*
X173760000Y-33519000D01*
X175256000Y-34080000D02*
X173760000Y-34080000D01*
X173525000Y-32079000D02*
X171915000Y-32079000D01*
X173971000Y-32279000D02*
X171469000Y-32279000D01*
X174220000Y-32439000D02*
X171220000Y-32439000D01*
X171680000Y-34200000D02*
X170164000Y-34200000D01*
X171680000Y-33479000D02*
X170372000Y-33479000D01*
X173397000Y-32039000D02*
X172043000Y-32039000D01*
X171680000Y-32999000D02*
X170655000Y-32999000D01*
X171680000Y-33039000D02*
X170625000Y-33039000D01*
X175188000Y-33799000D02*
X173760000Y-33799000D01*
X171680000Y-33559000D02*
X170338000Y-33559000D01*
X171680000Y-33679000D02*
X170292000Y-33679000D01*
X175068000Y-33479000D02*
X173760000Y-33479000D01*
X171680000Y-33319000D02*
X170452000Y-33319000D01*
X174505000Y-32679000D02*
X173760000Y-32679000D01*
X174815000Y-33039000D02*
X173760000Y-33039000D01*
X171680000Y-34240000D02*
X170159000Y-34240000D01*
X171680000Y-33639000D02*
X170306000Y-33639000D01*
X171680000Y-33599000D02*
X170322000Y-33599000D01*
X171680000Y-34400000D02*
X170144000Y-34400000D01*
X175102000Y-33559000D02*
X173760000Y-33559000D01*
X175211000Y-33880000D02*
X173760000Y-33880000D01*
X173731000Y-32159000D02*
X171709000Y-32159000D01*
X174274000Y-32479000D02*
X171166000Y-32479000D01*
X173635000Y-32119000D02*
X171805000Y-32119000D01*
X174195000Y-37364775D02*
X174195000Y-36864775D01*
X171680000Y-34560000D02*
X170140000Y-34560000D01*
X175175000Y-33759000D02*
X173760000Y-33759000D01*
X174842000Y-33079000D02*
X173760000Y-33079000D01*
X171680000Y-33359000D02*
X170430000Y-33359000D01*
X174920000Y-33199000D02*
X173760000Y-33199000D01*
X174584000Y-32759000D02*
X173760000Y-32759000D01*
X171680000Y-32639000D02*
X170977000Y-32639000D01*
X173818000Y-32199000D02*
X171622000Y-32199000D01*
X175298000Y-34440000D02*
X173760000Y-34440000D01*
X175285000Y-34280000D02*
X173760000Y-34280000D01*
X175299000Y-34480000D02*
X173760000Y-34480000D01*
X175293000Y-34360000D02*
X173760000Y-34360000D01*
X171680000Y-32759000D02*
X170856000Y-32759000D01*
X171680000Y-33439000D02*
X170391000Y-33439000D01*
X173238000Y-31999000D02*
X172202000Y-31999000D01*
X173004000Y-31959000D02*
X172436000Y-31959000D01*
X171680000Y-33960000D02*
X170209000Y-33960000D01*
X171680000Y-32839000D02*
X170783000Y-32839000D01*
X171680000Y-33399000D02*
X170410000Y-33399000D01*
X171680000Y-34160000D02*
X170170000Y-34160000D01*
X174039000Y-32319000D02*
X171401000Y-32319000D01*
X174103000Y-32359000D02*
X171337000Y-32359000D01*
X175118000Y-33599000D02*
X173760000Y-33599000D01*
X174967000Y-33279000D02*
X173760000Y-33279000D01*
X173898000Y-32239000D02*
X171542000Y-32239000D01*
X171680000Y-33199000D02*
X170520000Y-33199000D01*
X174463000Y-32639000D02*
X173760000Y-32639000D01*
X174755000Y-32959000D02*
X173760000Y-32959000D01*
X174325000Y-32519000D02*
X171115000Y-32519000D01*
X171680000Y-33079000D02*
X170598000Y-33079000D01*
X171680000Y-33799000D02*
X170252000Y-33799000D01*
X171680000Y-34040000D02*
X170192000Y-34040000D01*
X175162000Y-33719000D02*
X173760000Y-33719000D01*
X175276000Y-34200000D02*
X173760000Y-34200000D01*
X171680000Y-34120000D02*
X170177000Y-34120000D01*
X174163000Y-32399000D02*
X171277000Y-32399000D01*
X171680000Y-32719000D02*
X170894000Y-32719000D01*
X171680000Y-33759000D02*
X170265000Y-33759000D01*
X171680000Y-34280000D02*
X170155000Y-34280000D01*
X171680000Y-34480000D02*
X170141000Y-34480000D01*
X171680000Y-33880000D02*
X170229000Y-33880000D01*
X171680000Y-32679000D02*
X170935000Y-32679000D01*
X175200000Y-33839000D02*
X173760000Y-33839000D01*
X174724000Y-32919000D02*
X173760000Y-32919000D01*
X171680000Y-33119000D02*
X170571000Y-33119000D01*
X174895000Y-33159000D02*
X173760000Y-33159000D01*
X175010000Y-33359000D02*
X173760000Y-33359000D01*
X175289000Y-34320000D02*
X173760000Y-34320000D01*
X174657000Y-32839000D02*
X173760000Y-32839000D01*
X175263000Y-34120000D02*
X173760000Y-34120000D01*
X171680000Y-33920000D02*
X170219000Y-33920000D01*
X174944000Y-33239000D02*
X173760000Y-33239000D01*
X174445000Y-37114775D02*
X173945000Y-37114775D01*
X175270000Y-34160000D02*
X173760000Y-34160000D01*
X171680000Y-32879000D02*
X170749000Y-32879000D01*
X171680000Y-34080000D02*
X170184000Y-34080000D01*
X175240000Y-34000000D02*
X173760000Y-34000000D01*
X171680000Y-32959000D02*
X170685000Y-32959000D01*
X171680000Y-32799000D02*
X170819000Y-32799000D01*
X175300000Y-34520000D02*
X173760000Y-34520000D01*
X175221000Y-33920000D02*
X173760000Y-33920000D01*
X174419000Y-32599000D02*
X173760000Y-32599000D01*
X175340000Y-34560000D02*
G75*
G03*
X175340000Y-34560000I-2620000J0D01*
G01*
%TO.C,C2*%
X158980000Y-61769000D02*
X158367000Y-61769000D01*
X158980000Y-62449000D02*
X157796000Y-62449000D01*
X158980000Y-63570000D02*
X157447000Y-63570000D01*
X162288000Y-62529000D02*
X161060000Y-62529000D01*
X162349000Y-62649000D02*
X161060000Y-62649000D01*
X162330000Y-62609000D02*
X161060000Y-62609000D01*
X161991000Y-62089000D02*
X161060000Y-62089000D01*
X158980000Y-61809000D02*
X158321000Y-61809000D01*
X158980000Y-62129000D02*
X158016000Y-62129000D01*
X162596000Y-63610000D02*
X161060000Y-63610000D01*
X162085000Y-62209000D02*
X161060000Y-62209000D01*
X158980000Y-63730000D02*
X157440000Y-63730000D01*
X158980000Y-63049000D02*
X157540000Y-63049000D01*
X162448000Y-62889000D02*
X161060000Y-62889000D01*
X162434000Y-62849000D02*
X161060000Y-62849000D01*
X161921000Y-62009000D02*
X161060000Y-62009000D01*
X162531000Y-63170000D02*
X161060000Y-63170000D01*
X158980000Y-63530000D02*
X157451000Y-63530000D01*
X158980000Y-62929000D02*
X157578000Y-62929000D01*
X158980000Y-63210000D02*
X157500000Y-63210000D01*
X158980000Y-62489000D02*
X157773000Y-62489000D01*
X158980000Y-62369000D02*
X157845000Y-62369000D01*
X158980000Y-63650000D02*
X157442000Y-63650000D01*
X162548000Y-63250000D02*
X161060000Y-63250000D01*
X162169000Y-62329000D02*
X161060000Y-62329000D01*
X161846000Y-61929000D02*
X161060000Y-61929000D01*
X161673000Y-61769000D02*
X161060000Y-61769000D01*
X158980000Y-62729000D02*
X157655000Y-62729000D01*
X162600000Y-63770000D02*
X161060000Y-63770000D01*
X162581000Y-63450000D02*
X161060000Y-63450000D01*
X162385000Y-62729000D02*
X161060000Y-62729000D01*
X162556000Y-63290000D02*
X161060000Y-63290000D01*
X160825000Y-61289000D02*
X159215000Y-61289000D01*
X161271000Y-61489000D02*
X158769000Y-61489000D01*
X161520000Y-61649000D02*
X158520000Y-61649000D01*
X158980000Y-63410000D02*
X157464000Y-63410000D01*
X158980000Y-62689000D02*
X157672000Y-62689000D01*
X160697000Y-61249000D02*
X159343000Y-61249000D01*
X158980000Y-62209000D02*
X157955000Y-62209000D01*
X158980000Y-62249000D02*
X157925000Y-62249000D01*
X162488000Y-63009000D02*
X161060000Y-63009000D01*
X158980000Y-62769000D02*
X157638000Y-62769000D01*
X158980000Y-62889000D02*
X157592000Y-62889000D01*
X162368000Y-62689000D02*
X161060000Y-62689000D01*
X158980000Y-62529000D02*
X157752000Y-62529000D01*
X161805000Y-61889000D02*
X161060000Y-61889000D01*
X162115000Y-62249000D02*
X161060000Y-62249000D01*
X158980000Y-63450000D02*
X157459000Y-63450000D01*
X158980000Y-62849000D02*
X157606000Y-62849000D01*
X158980000Y-62809000D02*
X157622000Y-62809000D01*
X158980000Y-63610000D02*
X157444000Y-63610000D01*
X162402000Y-62769000D02*
X161060000Y-62769000D01*
X162511000Y-63090000D02*
X161060000Y-63090000D01*
X161031000Y-61369000D02*
X159009000Y-61369000D01*
X161574000Y-61689000D02*
X158466000Y-61689000D01*
X160935000Y-61329000D02*
X159105000Y-61329000D01*
X161495000Y-66574775D02*
X161495000Y-66074775D01*
X158980000Y-63770000D02*
X157440000Y-63770000D01*
X162475000Y-62969000D02*
X161060000Y-62969000D01*
X162142000Y-62289000D02*
X161060000Y-62289000D01*
X158980000Y-62569000D02*
X157730000Y-62569000D01*
X162220000Y-62409000D02*
X161060000Y-62409000D01*
X161884000Y-61969000D02*
X161060000Y-61969000D01*
X158980000Y-61849000D02*
X158277000Y-61849000D01*
X161118000Y-61409000D02*
X158922000Y-61409000D01*
X162598000Y-63650000D02*
X161060000Y-63650000D01*
X162585000Y-63490000D02*
X161060000Y-63490000D01*
X162599000Y-63690000D02*
X161060000Y-63690000D01*
X162593000Y-63570000D02*
X161060000Y-63570000D01*
X158980000Y-61969000D02*
X158156000Y-61969000D01*
X158980000Y-62649000D02*
X157691000Y-62649000D01*
X160538000Y-61209000D02*
X159502000Y-61209000D01*
X160304000Y-61169000D02*
X159736000Y-61169000D01*
X158980000Y-63170000D02*
X157509000Y-63170000D01*
X158980000Y-62049000D02*
X158083000Y-62049000D01*
X158980000Y-62609000D02*
X157710000Y-62609000D01*
X158980000Y-63370000D02*
X157470000Y-63370000D01*
X161339000Y-61529000D02*
X158701000Y-61529000D01*
X161403000Y-61569000D02*
X158637000Y-61569000D01*
X162418000Y-62809000D02*
X161060000Y-62809000D01*
X162267000Y-62489000D02*
X161060000Y-62489000D01*
X161198000Y-61449000D02*
X158842000Y-61449000D01*
X158980000Y-62409000D02*
X157820000Y-62409000D01*
X161763000Y-61849000D02*
X161060000Y-61849000D01*
X162055000Y-62169000D02*
X161060000Y-62169000D01*
X161625000Y-61729000D02*
X158415000Y-61729000D01*
X158980000Y-62289000D02*
X157898000Y-62289000D01*
X158980000Y-63009000D02*
X157552000Y-63009000D01*
X158980000Y-63250000D02*
X157492000Y-63250000D01*
X162462000Y-62929000D02*
X161060000Y-62929000D01*
X162576000Y-63410000D02*
X161060000Y-63410000D01*
X158980000Y-63330000D02*
X157477000Y-63330000D01*
X161463000Y-61609000D02*
X158577000Y-61609000D01*
X158980000Y-61929000D02*
X158194000Y-61929000D01*
X158980000Y-62969000D02*
X157565000Y-62969000D01*
X158980000Y-63490000D02*
X157455000Y-63490000D01*
X158980000Y-63690000D02*
X157441000Y-63690000D01*
X158980000Y-63090000D02*
X157529000Y-63090000D01*
X158980000Y-61889000D02*
X158235000Y-61889000D01*
X162500000Y-63049000D02*
X161060000Y-63049000D01*
X162024000Y-62129000D02*
X161060000Y-62129000D01*
X158980000Y-62329000D02*
X157871000Y-62329000D01*
X162195000Y-62369000D02*
X161060000Y-62369000D01*
X162310000Y-62569000D02*
X161060000Y-62569000D01*
X162589000Y-63530000D02*
X161060000Y-63530000D01*
X161957000Y-62049000D02*
X161060000Y-62049000D01*
X162563000Y-63330000D02*
X161060000Y-63330000D01*
X158980000Y-63130000D02*
X157519000Y-63130000D01*
X162244000Y-62449000D02*
X161060000Y-62449000D01*
X161745000Y-66324775D02*
X161245000Y-66324775D01*
X162570000Y-63370000D02*
X161060000Y-63370000D01*
X158980000Y-62089000D02*
X158049000Y-62089000D01*
X158980000Y-63290000D02*
X157484000Y-63290000D01*
X162540000Y-63210000D02*
X161060000Y-63210000D01*
X158980000Y-62169000D02*
X157985000Y-62169000D01*
X158980000Y-62009000D02*
X158119000Y-62009000D01*
X162600000Y-63730000D02*
X161060000Y-63730000D01*
X162521000Y-63130000D02*
X161060000Y-63130000D01*
X161719000Y-61809000D02*
X161060000Y-61809000D01*
X162640000Y-63770000D02*
G75*
G03*
X162640000Y-63770000I-2620000J0D01*
G01*
%TO.C,Q3*%
X205050000Y-68050000D02*
X205050000Y-71650000D01*
X200599999Y-69850000D02*
G75*
G03*
X205038478Y-71688478I2600001J0D01*
G01*
X205038478Y-68011522D02*
G75*
G03*
X200600000Y-69850000I-1838478J-1838478D01*
G01*
%TO.C,D9*%
X212110000Y-31475000D02*
X212110000Y-34565000D01*
X212110000Y-31475170D02*
G75*
G03*
X206560000Y-33020462I-2560000J-1544830D01*
G01*
X206560000Y-33019538D02*
G75*
G03*
X212110000Y-34564830I2990000J-462D01*
G01*
X212050000Y-33020000D02*
G75*
G03*
X212050000Y-33020000I-2500000J0D01*
G01*
%TO.C,Q2*%
X179650000Y-69320000D02*
X179650000Y-72920000D01*
X175199999Y-71120000D02*
G75*
G03*
X179638478Y-72958478I2600001J0D01*
G01*
X179638478Y-69281522D02*
G75*
G03*
X175200000Y-71120000I-1838478J-1838478D01*
G01*
%TO.C,Q1*%
X166950000Y-68050000D02*
X166950000Y-71650000D01*
X162499999Y-69850000D02*
G75*
G03*
X166938478Y-71688478I2600001J0D01*
G01*
X166938478Y-68011522D02*
G75*
G03*
X162500000Y-69850000I-1838478J-1838478D01*
G01*
%TO.C,Q5*%
X225370000Y-33760000D02*
X225370000Y-37360000D01*
X220919999Y-35560000D02*
G75*
G03*
X225358478Y-37398478I2600001J0D01*
G01*
X225358478Y-33721522D02*
G75*
G03*
X220920000Y-35560000I-1838478J-1838478D01*
G01*
%TO.C,C4*%
X202160000Y-61769000D02*
X201547000Y-61769000D01*
X202160000Y-62449000D02*
X200976000Y-62449000D01*
X202160000Y-63570000D02*
X200627000Y-63570000D01*
X205468000Y-62529000D02*
X204240000Y-62529000D01*
X205529000Y-62649000D02*
X204240000Y-62649000D01*
X205510000Y-62609000D02*
X204240000Y-62609000D01*
X205171000Y-62089000D02*
X204240000Y-62089000D01*
X202160000Y-61809000D02*
X201501000Y-61809000D01*
X202160000Y-62129000D02*
X201196000Y-62129000D01*
X205776000Y-63610000D02*
X204240000Y-63610000D01*
X205265000Y-62209000D02*
X204240000Y-62209000D01*
X202160000Y-63730000D02*
X200620000Y-63730000D01*
X202160000Y-63049000D02*
X200720000Y-63049000D01*
X205628000Y-62889000D02*
X204240000Y-62889000D01*
X205614000Y-62849000D02*
X204240000Y-62849000D01*
X205101000Y-62009000D02*
X204240000Y-62009000D01*
X205711000Y-63170000D02*
X204240000Y-63170000D01*
X202160000Y-63530000D02*
X200631000Y-63530000D01*
X202160000Y-62929000D02*
X200758000Y-62929000D01*
X202160000Y-63210000D02*
X200680000Y-63210000D01*
X202160000Y-62489000D02*
X200953000Y-62489000D01*
X202160000Y-62369000D02*
X201025000Y-62369000D01*
X202160000Y-63650000D02*
X200622000Y-63650000D01*
X205728000Y-63250000D02*
X204240000Y-63250000D01*
X205349000Y-62329000D02*
X204240000Y-62329000D01*
X205026000Y-61929000D02*
X204240000Y-61929000D01*
X204853000Y-61769000D02*
X204240000Y-61769000D01*
X202160000Y-62729000D02*
X200835000Y-62729000D01*
X205780000Y-63770000D02*
X204240000Y-63770000D01*
X205761000Y-63450000D02*
X204240000Y-63450000D01*
X205565000Y-62729000D02*
X204240000Y-62729000D01*
X205736000Y-63290000D02*
X204240000Y-63290000D01*
X204005000Y-61289000D02*
X202395000Y-61289000D01*
X204451000Y-61489000D02*
X201949000Y-61489000D01*
X204700000Y-61649000D02*
X201700000Y-61649000D01*
X202160000Y-63410000D02*
X200644000Y-63410000D01*
X202160000Y-62689000D02*
X200852000Y-62689000D01*
X203877000Y-61249000D02*
X202523000Y-61249000D01*
X202160000Y-62209000D02*
X201135000Y-62209000D01*
X202160000Y-62249000D02*
X201105000Y-62249000D01*
X205668000Y-63009000D02*
X204240000Y-63009000D01*
X202160000Y-62769000D02*
X200818000Y-62769000D01*
X202160000Y-62889000D02*
X200772000Y-62889000D01*
X205548000Y-62689000D02*
X204240000Y-62689000D01*
X202160000Y-62529000D02*
X200932000Y-62529000D01*
X204985000Y-61889000D02*
X204240000Y-61889000D01*
X205295000Y-62249000D02*
X204240000Y-62249000D01*
X202160000Y-63450000D02*
X200639000Y-63450000D01*
X202160000Y-62849000D02*
X200786000Y-62849000D01*
X202160000Y-62809000D02*
X200802000Y-62809000D01*
X202160000Y-63610000D02*
X200624000Y-63610000D01*
X205582000Y-62769000D02*
X204240000Y-62769000D01*
X205691000Y-63090000D02*
X204240000Y-63090000D01*
X204211000Y-61369000D02*
X202189000Y-61369000D01*
X204754000Y-61689000D02*
X201646000Y-61689000D01*
X204115000Y-61329000D02*
X202285000Y-61329000D01*
X204675000Y-66574775D02*
X204675000Y-66074775D01*
X202160000Y-63770000D02*
X200620000Y-63770000D01*
X205655000Y-62969000D02*
X204240000Y-62969000D01*
X205322000Y-62289000D02*
X204240000Y-62289000D01*
X202160000Y-62569000D02*
X200910000Y-62569000D01*
X205400000Y-62409000D02*
X204240000Y-62409000D01*
X205064000Y-61969000D02*
X204240000Y-61969000D01*
X202160000Y-61849000D02*
X201457000Y-61849000D01*
X204298000Y-61409000D02*
X202102000Y-61409000D01*
X205778000Y-63650000D02*
X204240000Y-63650000D01*
X205765000Y-63490000D02*
X204240000Y-63490000D01*
X205779000Y-63690000D02*
X204240000Y-63690000D01*
X205773000Y-63570000D02*
X204240000Y-63570000D01*
X202160000Y-61969000D02*
X201336000Y-61969000D01*
X202160000Y-62649000D02*
X200871000Y-62649000D01*
X203718000Y-61209000D02*
X202682000Y-61209000D01*
X203484000Y-61169000D02*
X202916000Y-61169000D01*
X202160000Y-63170000D02*
X200689000Y-63170000D01*
X202160000Y-62049000D02*
X201263000Y-62049000D01*
X202160000Y-62609000D02*
X200890000Y-62609000D01*
X202160000Y-63370000D02*
X200650000Y-63370000D01*
X204519000Y-61529000D02*
X201881000Y-61529000D01*
X204583000Y-61569000D02*
X201817000Y-61569000D01*
X205598000Y-62809000D02*
X204240000Y-62809000D01*
X205447000Y-62489000D02*
X204240000Y-62489000D01*
X204378000Y-61449000D02*
X202022000Y-61449000D01*
X202160000Y-62409000D02*
X201000000Y-62409000D01*
X204943000Y-61849000D02*
X204240000Y-61849000D01*
X205235000Y-62169000D02*
X204240000Y-62169000D01*
X204805000Y-61729000D02*
X201595000Y-61729000D01*
X202160000Y-62289000D02*
X201078000Y-62289000D01*
X202160000Y-63009000D02*
X200732000Y-63009000D01*
X202160000Y-63250000D02*
X200672000Y-63250000D01*
X205642000Y-62929000D02*
X204240000Y-62929000D01*
X205756000Y-63410000D02*
X204240000Y-63410000D01*
X202160000Y-63330000D02*
X200657000Y-63330000D01*
X204643000Y-61609000D02*
X201757000Y-61609000D01*
X202160000Y-61929000D02*
X201374000Y-61929000D01*
X202160000Y-62969000D02*
X200745000Y-62969000D01*
X202160000Y-63490000D02*
X200635000Y-63490000D01*
X202160000Y-63690000D02*
X200621000Y-63690000D01*
X202160000Y-63090000D02*
X200709000Y-63090000D01*
X202160000Y-61889000D02*
X201415000Y-61889000D01*
X205680000Y-63049000D02*
X204240000Y-63049000D01*
X205204000Y-62129000D02*
X204240000Y-62129000D01*
X202160000Y-62329000D02*
X201051000Y-62329000D01*
X205375000Y-62369000D02*
X204240000Y-62369000D01*
X205490000Y-62569000D02*
X204240000Y-62569000D01*
X205769000Y-63530000D02*
X204240000Y-63530000D01*
X205137000Y-62049000D02*
X204240000Y-62049000D01*
X205743000Y-63330000D02*
X204240000Y-63330000D01*
X202160000Y-63130000D02*
X200699000Y-63130000D01*
X205424000Y-62449000D02*
X204240000Y-62449000D01*
X204925000Y-66324775D02*
X204425000Y-66324775D01*
X205750000Y-63370000D02*
X204240000Y-63370000D01*
X202160000Y-62089000D02*
X201229000Y-62089000D01*
X202160000Y-63290000D02*
X200664000Y-63290000D01*
X205720000Y-63210000D02*
X204240000Y-63210000D01*
X202160000Y-62169000D02*
X201165000Y-62169000D01*
X202160000Y-62009000D02*
X201299000Y-62009000D01*
X205780000Y-63730000D02*
X204240000Y-63730000D01*
X205701000Y-63130000D02*
X204240000Y-63130000D01*
X204899000Y-61809000D02*
X204240000Y-61809000D01*
X205820000Y-63770000D02*
G75*
G03*
X205820000Y-63770000I-2620000J0D01*
G01*
%TO.C,D8*%
X187980000Y-31475000D02*
X187980000Y-34565000D01*
X187980000Y-31475170D02*
G75*
G03*
X182430000Y-33020462I-2560000J-1544830D01*
G01*
X182430000Y-33019538D02*
G75*
G03*
X187980000Y-34564830I2990000J-462D01*
G01*
X187920000Y-33020000D02*
G75*
G03*
X187920000Y-33020000I-2500000J0D01*
G01*
%TO.C,D10*%
X218460000Y-31475000D02*
X218460000Y-34565000D01*
X218460000Y-31475170D02*
G75*
G03*
X212910000Y-33020462I-2560000J-1544830D01*
G01*
X212910000Y-33019538D02*
G75*
G03*
X218460000Y-34564830I2990000J-462D01*
G01*
X218400000Y-33020000D02*
G75*
G03*
X218400000Y-33020000I-2500000J0D01*
G01*
%TO.C,R4*%
X170180000Y-50570000D02*
X170180000Y-51340000D01*
X170180000Y-58650000D02*
X170180000Y-57880000D01*
X171550000Y-57880000D02*
X168810000Y-57880000D01*
X168810000Y-51340000D02*
X171550000Y-51340000D01*
X168810000Y-57880000D02*
X168810000Y-51340000D01*
X171550000Y-51340000D02*
X171550000Y-57880000D01*
%TO.C,R7*%
X178840000Y-29210000D02*
X179610000Y-29210000D01*
X186920000Y-29210000D02*
X186150000Y-29210000D01*
X186150000Y-27840000D02*
X186150000Y-30580000D01*
X179610000Y-30580000D02*
X179610000Y-27840000D01*
X186150000Y-30580000D02*
X179610000Y-30580000D01*
X179610000Y-27840000D02*
X186150000Y-27840000D01*
%TO.C,R3*%
X181840000Y-53340000D02*
X181070000Y-53340000D01*
X173760000Y-53340000D02*
X174530000Y-53340000D01*
X174530000Y-54710000D02*
X174530000Y-51970000D01*
X181070000Y-51970000D02*
X181070000Y-54710000D01*
X174530000Y-51970000D02*
X181070000Y-51970000D01*
X181070000Y-54710000D02*
X174530000Y-54710000D01*
%TO.C,R1*%
X169140000Y-39370000D02*
X168370000Y-39370000D01*
X161060000Y-39370000D02*
X161830000Y-39370000D01*
X161830000Y-40740000D02*
X161830000Y-38000000D01*
X168370000Y-38000000D02*
X168370000Y-40740000D01*
X161830000Y-38000000D02*
X168370000Y-38000000D01*
X168370000Y-40740000D02*
X161830000Y-40740000D01*
%TO.C,C6*%
X222480000Y-27479000D02*
X221867000Y-27479000D01*
X222480000Y-28159000D02*
X221296000Y-28159000D01*
X222480000Y-29280000D02*
X220947000Y-29280000D01*
X225788000Y-28239000D02*
X224560000Y-28239000D01*
X225849000Y-28359000D02*
X224560000Y-28359000D01*
X225830000Y-28319000D02*
X224560000Y-28319000D01*
X225491000Y-27799000D02*
X224560000Y-27799000D01*
X222480000Y-27519000D02*
X221821000Y-27519000D01*
X222480000Y-27839000D02*
X221516000Y-27839000D01*
X226096000Y-29320000D02*
X224560000Y-29320000D01*
X225585000Y-27919000D02*
X224560000Y-27919000D01*
X222480000Y-29440000D02*
X220940000Y-29440000D01*
X222480000Y-28759000D02*
X221040000Y-28759000D01*
X225948000Y-28599000D02*
X224560000Y-28599000D01*
X225934000Y-28559000D02*
X224560000Y-28559000D01*
X225421000Y-27719000D02*
X224560000Y-27719000D01*
X226031000Y-28880000D02*
X224560000Y-28880000D01*
X222480000Y-29240000D02*
X220951000Y-29240000D01*
X222480000Y-28639000D02*
X221078000Y-28639000D01*
X222480000Y-28920000D02*
X221000000Y-28920000D01*
X222480000Y-28199000D02*
X221273000Y-28199000D01*
X222480000Y-28079000D02*
X221345000Y-28079000D01*
X222480000Y-29360000D02*
X220942000Y-29360000D01*
X226048000Y-28960000D02*
X224560000Y-28960000D01*
X225669000Y-28039000D02*
X224560000Y-28039000D01*
X225346000Y-27639000D02*
X224560000Y-27639000D01*
X225173000Y-27479000D02*
X224560000Y-27479000D01*
X222480000Y-28439000D02*
X221155000Y-28439000D01*
X226100000Y-29480000D02*
X224560000Y-29480000D01*
X226081000Y-29160000D02*
X224560000Y-29160000D01*
X225885000Y-28439000D02*
X224560000Y-28439000D01*
X226056000Y-29000000D02*
X224560000Y-29000000D01*
X224325000Y-26999000D02*
X222715000Y-26999000D01*
X224771000Y-27199000D02*
X222269000Y-27199000D01*
X225020000Y-27359000D02*
X222020000Y-27359000D01*
X222480000Y-29120000D02*
X220964000Y-29120000D01*
X222480000Y-28399000D02*
X221172000Y-28399000D01*
X224197000Y-26959000D02*
X222843000Y-26959000D01*
X222480000Y-27919000D02*
X221455000Y-27919000D01*
X222480000Y-27959000D02*
X221425000Y-27959000D01*
X225988000Y-28719000D02*
X224560000Y-28719000D01*
X222480000Y-28479000D02*
X221138000Y-28479000D01*
X222480000Y-28599000D02*
X221092000Y-28599000D01*
X225868000Y-28399000D02*
X224560000Y-28399000D01*
X222480000Y-28239000D02*
X221252000Y-28239000D01*
X225305000Y-27599000D02*
X224560000Y-27599000D01*
X225615000Y-27959000D02*
X224560000Y-27959000D01*
X222480000Y-29160000D02*
X220959000Y-29160000D01*
X222480000Y-28559000D02*
X221106000Y-28559000D01*
X222480000Y-28519000D02*
X221122000Y-28519000D01*
X222480000Y-29320000D02*
X220944000Y-29320000D01*
X225902000Y-28479000D02*
X224560000Y-28479000D01*
X226011000Y-28800000D02*
X224560000Y-28800000D01*
X224531000Y-27079000D02*
X222509000Y-27079000D01*
X225074000Y-27399000D02*
X221966000Y-27399000D01*
X224435000Y-27039000D02*
X222605000Y-27039000D01*
X224995000Y-32284775D02*
X224995000Y-31784775D01*
X222480000Y-29480000D02*
X220940000Y-29480000D01*
X225975000Y-28679000D02*
X224560000Y-28679000D01*
X225642000Y-27999000D02*
X224560000Y-27999000D01*
X222480000Y-28279000D02*
X221230000Y-28279000D01*
X225720000Y-28119000D02*
X224560000Y-28119000D01*
X225384000Y-27679000D02*
X224560000Y-27679000D01*
X222480000Y-27559000D02*
X221777000Y-27559000D01*
X224618000Y-27119000D02*
X222422000Y-27119000D01*
X226098000Y-29360000D02*
X224560000Y-29360000D01*
X226085000Y-29200000D02*
X224560000Y-29200000D01*
X226099000Y-29400000D02*
X224560000Y-29400000D01*
X226093000Y-29280000D02*
X224560000Y-29280000D01*
X222480000Y-27679000D02*
X221656000Y-27679000D01*
X222480000Y-28359000D02*
X221191000Y-28359000D01*
X224038000Y-26919000D02*
X223002000Y-26919000D01*
X223804000Y-26879000D02*
X223236000Y-26879000D01*
X222480000Y-28880000D02*
X221009000Y-28880000D01*
X222480000Y-27759000D02*
X221583000Y-27759000D01*
X222480000Y-28319000D02*
X221210000Y-28319000D01*
X222480000Y-29080000D02*
X220970000Y-29080000D01*
X224839000Y-27239000D02*
X222201000Y-27239000D01*
X224903000Y-27279000D02*
X222137000Y-27279000D01*
X225918000Y-28519000D02*
X224560000Y-28519000D01*
X225767000Y-28199000D02*
X224560000Y-28199000D01*
X224698000Y-27159000D02*
X222342000Y-27159000D01*
X222480000Y-28119000D02*
X221320000Y-28119000D01*
X225263000Y-27559000D02*
X224560000Y-27559000D01*
X225555000Y-27879000D02*
X224560000Y-27879000D01*
X225125000Y-27439000D02*
X221915000Y-27439000D01*
X222480000Y-27999000D02*
X221398000Y-27999000D01*
X222480000Y-28719000D02*
X221052000Y-28719000D01*
X222480000Y-28960000D02*
X220992000Y-28960000D01*
X225962000Y-28639000D02*
X224560000Y-28639000D01*
X226076000Y-29120000D02*
X224560000Y-29120000D01*
X222480000Y-29040000D02*
X220977000Y-29040000D01*
X224963000Y-27319000D02*
X222077000Y-27319000D01*
X222480000Y-27639000D02*
X221694000Y-27639000D01*
X222480000Y-28679000D02*
X221065000Y-28679000D01*
X222480000Y-29200000D02*
X220955000Y-29200000D01*
X222480000Y-29400000D02*
X220941000Y-29400000D01*
X222480000Y-28800000D02*
X221029000Y-28800000D01*
X222480000Y-27599000D02*
X221735000Y-27599000D01*
X226000000Y-28759000D02*
X224560000Y-28759000D01*
X225524000Y-27839000D02*
X224560000Y-27839000D01*
X222480000Y-28039000D02*
X221371000Y-28039000D01*
X225695000Y-28079000D02*
X224560000Y-28079000D01*
X225810000Y-28279000D02*
X224560000Y-28279000D01*
X226089000Y-29240000D02*
X224560000Y-29240000D01*
X225457000Y-27759000D02*
X224560000Y-27759000D01*
X226063000Y-29040000D02*
X224560000Y-29040000D01*
X222480000Y-28840000D02*
X221019000Y-28840000D01*
X225744000Y-28159000D02*
X224560000Y-28159000D01*
X225245000Y-32034775D02*
X224745000Y-32034775D01*
X226070000Y-29080000D02*
X224560000Y-29080000D01*
X222480000Y-27799000D02*
X221549000Y-27799000D01*
X222480000Y-29000000D02*
X220984000Y-29000000D01*
X226040000Y-28920000D02*
X224560000Y-28920000D01*
X222480000Y-27879000D02*
X221485000Y-27879000D01*
X222480000Y-27719000D02*
X221619000Y-27719000D01*
X226100000Y-29440000D02*
X224560000Y-29440000D01*
X226021000Y-28840000D02*
X224560000Y-28840000D01*
X225219000Y-27519000D02*
X224560000Y-27519000D01*
X226140000Y-29480000D02*
G75*
G03*
X226140000Y-29480000I-2620000J0D01*
G01*
%TO.C,R2*%
X166600000Y-59690000D02*
X165830000Y-59690000D01*
X158520000Y-59690000D02*
X159290000Y-59690000D01*
X159290000Y-61060000D02*
X159290000Y-58320000D01*
X165830000Y-58320000D02*
X165830000Y-61060000D01*
X159290000Y-58320000D02*
X165830000Y-58320000D01*
X165830000Y-61060000D02*
X159290000Y-61060000D01*
%TO.C,D7*%
X181630000Y-31475000D02*
X181630000Y-34565000D01*
X181630000Y-31475170D02*
G75*
G03*
X176080000Y-33020462I-2560000J-1544830D01*
G01*
X176080000Y-33019538D02*
G75*
G03*
X181630000Y-34564830I2990000J-462D01*
G01*
X181570000Y-33020000D02*
G75*
G03*
X181570000Y-33020000I-2500000J0D01*
G01*
%TO.C,R6*%
X219710000Y-58190000D02*
X219710000Y-58960000D01*
X219710000Y-66270000D02*
X219710000Y-65500000D01*
X221080000Y-65500000D02*
X218340000Y-65500000D01*
X218340000Y-58960000D02*
X221080000Y-58960000D01*
X218340000Y-65500000D02*
X218340000Y-58960000D01*
X221080000Y-58960000D02*
X221080000Y-65500000D01*
%TD*%
M02*
