%TF.GenerationSoftware,KiCad,Pcbnew,(6.0.1)*%
%TF.CreationDate,2022-02-03T11:52:23+01:00*%
%TF.ProjectId,ruetueta-pcb,72756574-7565-4746-912d-7063622e6b69,rev?*%
%TF.SameCoordinates,Original*%
%TF.FileFunction,Profile,NP*%
%FSLAX46Y46*%
G04 Gerber Fmt 4.6, Leading zero omitted, Abs format (unit mm)*
G04 Created by KiCad (PCBNEW (6.0.1)) date 2022-02-03 11:52:23*
%MOMM*%
%LPD*%
G01*
G04 APERTURE LIST*
%TA.AperFunction,Profile*%
%ADD10C,0.132291*%
%TD*%
G04 APERTURE END LIST*
D10*
X247729370Y-69056250D02*
X247729370Y-69056250D01*
X206718957Y-25400000D02*
X206718957Y-25400000D01*
X225239789Y-25400000D02*
X225239789Y-26061459D01*
X233177287Y-26061459D02*
X233177287Y-26061459D01*
X169677293Y-26722917D02*
X169677293Y-26722917D01*
X247067911Y-28045834D02*
X247067911Y-27384375D01*
X204734580Y-74347912D02*
X204734580Y-74347912D01*
X198120000Y-25400000D02*
X198120000Y-25400000D01*
X225901248Y-74347912D02*
X225901248Y-74347912D01*
X191505418Y-24738542D02*
X191505418Y-25400000D01*
X188198125Y-26061459D02*
X188198125Y-26061459D01*
X247067911Y-27384375D02*
X247067911Y-27384375D01*
X216640832Y-25400000D02*
X215979373Y-25400000D01*
X180922084Y-74347912D02*
X180922084Y-74347912D01*
X184890833Y-26722917D02*
X184890833Y-26722917D01*
X163724168Y-28045834D02*
X161078335Y-28045834D01*
X157109585Y-71040622D02*
X157109585Y-71040622D01*
X180260625Y-25400000D02*
X180260625Y-24738542D01*
X190182500Y-73024999D02*
X190182500Y-73024999D01*
X182906458Y-74347912D02*
X182906458Y-73024999D01*
X209364788Y-25400000D02*
X209364788Y-24738542D01*
X209364788Y-25400000D02*
X209364788Y-25400000D01*
X156448127Y-58472916D02*
X156448127Y-58472916D01*
X233838746Y-73686458D02*
X235823118Y-73686458D01*
X157771043Y-69717704D02*
X157771043Y-71040622D01*
X216640832Y-73024999D02*
X216640832Y-72363540D01*
X165047084Y-73686458D02*
X165047084Y-74347912D01*
X167692917Y-28045834D02*
X167692917Y-28045834D01*
X210687706Y-73024999D02*
X210687706Y-73024999D01*
X169015834Y-73686458D02*
X171661668Y-73686458D01*
X176953335Y-74347912D02*
X179599168Y-74347912D01*
X183567917Y-26722917D02*
X183567917Y-26722917D01*
X174968959Y-26061459D02*
X174968959Y-26061459D01*
X231192915Y-25400000D02*
X231192915Y-25400000D01*
X174307501Y-73024999D02*
X176953335Y-73024999D01*
X251036665Y-55827083D02*
X251036665Y-55827083D01*
X213333542Y-24738542D02*
X213333542Y-24738542D01*
X249713747Y-48551041D02*
X249713747Y-48551041D01*
X163062709Y-73686458D02*
X163062709Y-73686458D01*
X240453331Y-26061459D02*
X240453331Y-26061459D01*
X157771043Y-69717704D02*
X157771043Y-69717704D01*
X248390829Y-32676041D02*
X247729370Y-32676041D01*
X204734580Y-26722917D02*
X204734580Y-26722917D01*
X247729370Y-34660416D02*
X248390829Y-34660416D01*
X223916871Y-73024999D02*
X223916871Y-73686458D01*
X231192915Y-24738542D02*
X231192915Y-24738542D01*
X249052288Y-41936457D02*
X249713747Y-41936457D01*
X165708543Y-27384375D02*
X165708543Y-28707292D01*
X248390829Y-34660416D02*
X248390829Y-34660416D01*
X203411667Y-74347912D02*
X203411667Y-74347912D01*
X250375206Y-67071873D02*
X250375206Y-67071873D01*
X218625204Y-25400000D02*
X218625204Y-24738542D01*
X215979373Y-25400000D02*
X215979373Y-25400000D01*
X249713747Y-45905208D02*
X249713747Y-44582291D01*
X188198125Y-25400000D02*
X185552292Y-25400000D01*
X249052288Y-41936457D02*
X249052288Y-41936457D01*
X157771043Y-47889582D02*
X157771043Y-47889582D01*
X214656455Y-25400000D02*
X214656455Y-25400000D01*
X247729370Y-69717704D02*
X247729370Y-69717704D01*
X235823118Y-73686458D02*
X235823118Y-72363540D01*
X172323125Y-25400000D02*
X172323125Y-25400000D01*
X245083534Y-27384375D02*
X245083534Y-27384375D01*
X157771043Y-71040622D02*
X157771043Y-71040622D01*
X231854374Y-72363540D02*
X231854374Y-72363540D01*
X203411667Y-74347912D02*
X204734580Y-74347912D01*
X169677293Y-28045834D02*
X167692917Y-28045834D01*
X165047084Y-73686458D02*
X165047084Y-73686458D01*
X249713747Y-56488539D02*
X250375206Y-56488539D01*
X243099167Y-26722917D02*
X243099167Y-27384375D01*
X171661668Y-72363540D02*
X174307501Y-72363540D01*
X251036665Y-48551041D02*
X251036665Y-48551041D01*
X246406452Y-70379163D02*
X246406452Y-69056250D01*
X156448127Y-55827083D02*
X155786668Y-55827083D01*
X239130413Y-26061459D02*
X239130413Y-26061459D01*
X185552292Y-26061459D02*
X184890833Y-26061459D01*
X198120000Y-25400000D02*
X198120000Y-26061459D01*
X202088749Y-26722917D02*
X202088749Y-26061459D01*
X250375206Y-59134373D02*
X249713747Y-59134373D01*
X231192915Y-24738542D02*
X231192915Y-25400000D01*
X214656455Y-25400000D02*
X213333542Y-25400000D01*
X196135623Y-73686458D02*
X196135623Y-73024999D01*
X207380416Y-73024999D02*
X210687706Y-73024999D01*
X158432502Y-37306249D02*
X158432502Y-37306249D01*
X239130413Y-26722917D02*
X239130413Y-26722917D01*
X180260625Y-24738542D02*
X180260625Y-24738542D01*
X157109585Y-51858331D02*
X157109585Y-51858331D01*
X215979373Y-26061459D02*
X214656455Y-26061459D01*
X157771043Y-45905208D02*
X157771043Y-45905208D01*
X213333542Y-25400000D02*
X213333542Y-25400000D01*
X163062709Y-73024999D02*
X163062709Y-73686458D01*
X223916871Y-73686458D02*
X225901248Y-73686458D01*
X156448127Y-55827083D02*
X156448127Y-55827083D01*
X200765831Y-72363540D02*
X202088749Y-72363540D01*
X249713747Y-40613541D02*
X248390829Y-40613541D01*
X163724168Y-28707292D02*
X163724168Y-28045834D01*
X199442918Y-26061459D02*
X199442918Y-26061459D01*
X212672083Y-73686458D02*
X215317914Y-73686458D01*
X202088749Y-73686458D02*
X203411667Y-73686458D01*
X231854374Y-73024999D02*
X233838746Y-73024999D01*
X180260625Y-24738542D02*
X176953335Y-24738542D01*
X176953335Y-73024999D02*
X176953335Y-73024999D01*
X176953335Y-26061459D02*
X176953335Y-26061459D01*
X249713747Y-40613541D02*
X249713747Y-40613541D01*
X231854374Y-72363540D02*
X231854374Y-73024999D01*
X241776249Y-71040622D02*
X241776249Y-71040622D01*
X182906458Y-74347912D02*
X182906458Y-74347912D01*
X166370001Y-74347912D02*
X166370001Y-74347912D01*
X231854374Y-73024999D02*
X231854374Y-73024999D01*
X156448127Y-50535416D02*
X156448127Y-47889582D01*
X237807495Y-72363540D02*
X237807495Y-71702081D01*
X212672083Y-74347912D02*
X212672083Y-74347912D01*
X249052288Y-44582291D02*
X249052288Y-44582291D01*
X182906458Y-26061459D02*
X182906458Y-25400000D01*
X189521041Y-25400000D02*
X189521041Y-26061459D01*
X184890833Y-73686458D02*
X184890833Y-73686458D01*
X239130413Y-72363540D02*
X239130413Y-72363540D01*
X169677293Y-28045834D02*
X169677293Y-28045834D01*
X243099167Y-26722917D02*
X243099167Y-26722917D01*
X156448127Y-40613541D02*
X156448127Y-40613541D01*
X204734580Y-73686458D02*
X204734580Y-73686458D01*
X197458541Y-73686458D02*
X197458541Y-73686458D01*
X156448127Y-47889582D02*
X156448127Y-47889582D01*
X247729370Y-30691667D02*
X247729370Y-30691667D01*
X157771043Y-31353125D02*
X157109585Y-31353125D01*
X218625204Y-73024999D02*
X220609581Y-73024999D01*
X158432502Y-34660416D02*
X158432502Y-34660416D01*
X193489792Y-74347912D02*
X193489792Y-73686458D01*
X185552292Y-25400000D02*
X185552292Y-25400000D01*
X182906458Y-26061459D02*
X182906458Y-26061459D01*
X216640832Y-72363540D02*
X218625204Y-72363540D01*
X210687706Y-24738542D02*
X210687706Y-25400000D01*
X248390829Y-40613541D02*
X248390829Y-37967708D01*
X157109585Y-34660416D02*
X157109585Y-32014584D01*
X199442918Y-25400000D02*
X198120000Y-25400000D01*
X156448127Y-63103124D02*
X157109585Y-63103124D01*
X157109585Y-63103124D02*
X157109585Y-61118750D01*
X249052288Y-37967708D02*
X249052288Y-37967708D01*
X203411667Y-73686458D02*
X203411667Y-73686458D01*
X155786668Y-43920833D02*
X156448127Y-43920833D01*
X170338751Y-26061459D02*
X170338751Y-26061459D01*
X241776249Y-71702081D02*
X241776249Y-71702081D01*
X198120000Y-26061459D02*
X198120000Y-26061459D01*
X176953335Y-73024999D02*
X176953335Y-74347912D01*
X219948122Y-25400000D02*
X218625204Y-25400000D01*
X246406452Y-69056250D02*
X247729370Y-69056250D01*
X157771043Y-47889582D02*
X157771043Y-45905208D01*
X247729370Y-34660416D02*
X247729370Y-34660416D01*
X216640832Y-24738542D02*
X216640832Y-24738542D01*
X190182500Y-74347912D02*
X190182500Y-74347912D01*
X227885625Y-25400000D02*
X227885625Y-25400000D01*
X156448127Y-43920833D02*
X156448127Y-40613541D01*
X207380416Y-73686458D02*
X207380416Y-73686458D01*
X167692917Y-27384375D02*
X165708543Y-27384375D01*
X243760626Y-71040622D02*
X243760626Y-71040622D01*
X174307501Y-72363540D02*
X174307501Y-73024999D01*
X215317914Y-73686458D02*
X215317914Y-73686458D01*
X156448127Y-50535416D02*
X156448127Y-50535416D01*
X188198125Y-73024999D02*
X188198125Y-73024999D01*
X155125210Y-54504165D02*
X155125210Y-54504165D01*
X240453331Y-27384375D02*
X240453331Y-26061459D01*
X202088749Y-26061459D02*
X202088749Y-26061459D01*
X248390829Y-30691667D02*
X248390829Y-28045834D01*
X233838746Y-73686458D02*
X233838746Y-73686458D01*
X159093960Y-29368750D02*
X159093960Y-30030208D01*
X182906458Y-73024999D02*
X182906458Y-73024999D01*
X250375206Y-54504165D02*
X250375206Y-54504165D01*
X198120000Y-26061459D02*
X195474164Y-26061459D01*
X249713747Y-48551041D02*
X249713747Y-47228123D01*
X212672083Y-73686458D02*
X212672083Y-73686458D01*
X206718957Y-24738542D02*
X206718957Y-24738542D01*
X159755418Y-73024999D02*
X159755418Y-73024999D01*
X158432502Y-34660416D02*
X157109585Y-34660416D01*
X225239789Y-26061459D02*
X223255417Y-26061459D01*
X165708543Y-27384375D02*
X165708543Y-27384375D01*
X246406452Y-70379163D02*
X246406452Y-70379163D01*
X157109585Y-31353125D02*
X157109585Y-31353125D01*
X202088749Y-26722917D02*
X202088749Y-26722917D01*
X180922084Y-73686458D02*
X180922084Y-74347912D01*
X249713747Y-59134373D02*
X249713747Y-59134373D01*
X195474164Y-26061459D02*
X195474164Y-26061459D01*
X166370001Y-73024999D02*
X166370001Y-73024999D01*
X247729370Y-69056250D02*
X247729370Y-69717704D01*
X155786668Y-45905208D02*
X155786668Y-45905208D01*
X205396039Y-25400000D02*
X205396039Y-26061459D01*
X229869997Y-73686458D02*
X229869997Y-72363540D01*
X221932499Y-24738542D02*
X219948122Y-24738542D01*
X220609581Y-73024999D02*
X220609581Y-73686458D01*
X156448127Y-47889582D02*
X157771043Y-47889582D01*
X200104372Y-73686458D02*
X200104372Y-73024999D01*
X163062709Y-73024999D02*
X163062709Y-73024999D01*
X229869997Y-72363540D02*
X231854374Y-72363540D01*
X155786668Y-58472916D02*
X156448127Y-58472916D01*
X200765831Y-73024999D02*
X200765831Y-73024999D01*
X193489792Y-73686458D02*
X193489792Y-73686458D01*
X172323125Y-26061459D02*
X172323125Y-26061459D01*
X243760626Y-70379163D02*
X243760626Y-70379163D01*
X246406452Y-69056250D02*
X246406452Y-69056250D01*
X229208538Y-26061459D02*
X229208538Y-26061459D01*
X223255417Y-26061459D02*
X223255417Y-25400000D01*
X170338751Y-26061459D02*
X170338751Y-26722917D01*
X156448127Y-69717704D02*
X156448127Y-69717704D01*
X157771043Y-40613541D02*
X157771043Y-37306249D01*
X249713747Y-56488539D02*
X249713747Y-56488539D01*
X249713747Y-67071873D02*
X250375206Y-67071873D01*
X250375206Y-60457291D02*
X250375206Y-59134373D01*
X167692917Y-27384375D02*
X167692917Y-27384375D01*
X191505418Y-24738542D02*
X191505418Y-24738542D01*
X189521041Y-25400000D02*
X189521041Y-25400000D01*
X157109585Y-61118750D02*
X155786668Y-61118750D01*
X251036665Y-54504165D02*
X251036665Y-54504165D01*
X222593958Y-73024999D02*
X222593958Y-73024999D01*
X190182500Y-73024999D02*
X190182500Y-74347912D01*
X196135623Y-73024999D02*
X196135623Y-73024999D01*
X233177287Y-24738542D02*
X231192915Y-24738542D01*
X243760626Y-71040622D02*
X243760626Y-70379163D01*
X247729370Y-36644792D02*
X247729370Y-36644792D01*
X167692917Y-28045834D02*
X167692917Y-27384375D01*
X206718957Y-24738542D02*
X206718957Y-25400000D01*
X216640832Y-24738542D02*
X216640832Y-25400000D01*
X227224166Y-74347912D02*
X227224166Y-73686458D01*
X239130413Y-26061459D02*
X239130413Y-26722917D01*
X185552292Y-26061459D02*
X185552292Y-26061459D01*
X225901248Y-74347912D02*
X227224166Y-74347912D01*
X196135623Y-73024999D02*
X197458541Y-73024999D01*
X182906458Y-25400000D02*
X182906458Y-25400000D01*
X239130413Y-71702081D02*
X239130413Y-71702081D01*
X220609581Y-73686458D02*
X220609581Y-73686458D01*
X179599168Y-74347912D02*
X179599168Y-73686458D01*
X157771043Y-45905208D02*
X155786668Y-45905208D01*
X157109585Y-67071873D02*
X156448127Y-67071873D01*
X204734580Y-26722917D02*
X202088749Y-26722917D01*
X251036665Y-51196875D02*
X251036665Y-48551041D01*
X156448127Y-67071873D02*
X156448127Y-69717704D01*
X188198125Y-26061459D02*
X188198125Y-25400000D01*
X189521041Y-26061459D02*
X188198125Y-26061459D01*
X214656455Y-26061459D02*
X214656455Y-25400000D01*
X209364788Y-24738542D02*
X206718957Y-24738542D01*
X223916871Y-73024999D02*
X223916871Y-73024999D01*
X247729370Y-69717704D02*
X249713747Y-69717704D01*
X219948122Y-24738542D02*
X219948122Y-24738542D01*
X171661668Y-72363540D02*
X171661668Y-72363540D01*
X197458541Y-73024999D02*
X197458541Y-73024999D01*
X220609581Y-73024999D02*
X220609581Y-73024999D01*
X223916871Y-73686458D02*
X223916871Y-73686458D01*
X202088749Y-73686458D02*
X202088749Y-73686458D01*
X233838746Y-73024999D02*
X233838746Y-73686458D01*
X174968959Y-26061459D02*
X174968959Y-25400000D01*
X250375206Y-60457291D02*
X250375206Y-60457291D01*
X174968959Y-25400000D02*
X172323125Y-25400000D01*
X200765831Y-72363540D02*
X200765831Y-72363540D01*
X215979373Y-25400000D02*
X215979373Y-26061459D01*
X179599168Y-73686458D02*
X180922084Y-73686458D01*
X229869997Y-73686458D02*
X229869997Y-73686458D01*
X225239789Y-26061459D02*
X225239789Y-26061459D01*
X229869997Y-72363540D02*
X229869997Y-72363540D01*
X250375206Y-65087496D02*
X251036665Y-65087496D01*
X250375206Y-55827083D02*
X250375206Y-55827083D01*
X180260625Y-25400000D02*
X180260625Y-25400000D01*
X202088749Y-26061459D02*
X199442918Y-26061459D01*
X248390829Y-32676041D02*
X248390829Y-32676041D01*
X250375206Y-55827083D02*
X251036665Y-55827083D01*
X239130413Y-26722917D02*
X237146036Y-26722917D01*
X249052288Y-36644792D02*
X249052288Y-36644792D01*
X237807495Y-71702081D02*
X237807495Y-71702081D01*
X250375206Y-67071873D02*
X250375206Y-65087496D01*
X218625204Y-25400000D02*
X218625204Y-25400000D01*
X182906458Y-73024999D02*
X184890833Y-73024999D01*
X221932499Y-25400000D02*
X221932499Y-25400000D01*
X183567917Y-26061459D02*
X182906458Y-26061459D01*
X155786668Y-55827083D02*
X155786668Y-55827083D01*
X239130413Y-72363540D02*
X241114790Y-72363540D01*
X184890833Y-26061459D02*
X184890833Y-26061459D01*
X231192915Y-25400000D02*
X229208538Y-25400000D01*
X218625204Y-72363540D02*
X218625204Y-73024999D01*
X249713747Y-47228123D02*
X250375206Y-47228123D01*
X157771043Y-30030208D02*
X157771043Y-31353125D01*
X241114790Y-71702081D02*
X241114790Y-71702081D01*
X227224166Y-73686458D02*
X227224166Y-73686458D01*
X251036665Y-54504165D02*
X250375206Y-54504165D01*
X156448127Y-40613541D02*
X157771043Y-40613541D01*
X170338751Y-26722917D02*
X170338751Y-26722917D01*
X248390829Y-40613541D02*
X248390829Y-40613541D01*
X188198125Y-73686458D02*
X188198125Y-73024999D01*
X250375206Y-59134373D02*
X250375206Y-59134373D01*
X225901248Y-73686458D02*
X225901248Y-74347912D01*
X166370001Y-73024999D02*
X169015834Y-73024999D01*
X161078335Y-28045834D02*
X161078335Y-29368750D01*
X240453331Y-27384375D02*
X240453331Y-27384375D01*
X157109585Y-50535416D02*
X156448127Y-50535416D01*
X250375206Y-65087496D02*
X250375206Y-65087496D01*
X213333542Y-24738542D02*
X210687706Y-24738542D01*
X199442918Y-26061459D02*
X199442918Y-25400000D01*
X202088749Y-72363540D02*
X202088749Y-73686458D01*
X229208538Y-25400000D02*
X229208538Y-26061459D01*
X200104372Y-73686458D02*
X200104372Y-73686458D01*
X199442918Y-25400000D02*
X199442918Y-25400000D01*
X218625204Y-72363540D02*
X218625204Y-72363540D01*
X155786668Y-43920833D02*
X155786668Y-43920833D01*
X250375206Y-47228123D02*
X250375206Y-47228123D01*
X251036665Y-51196875D02*
X251036665Y-51196875D01*
X169677293Y-26722917D02*
X169677293Y-28045834D01*
X157109585Y-64426040D02*
X157109585Y-64426040D01*
X190182500Y-74347912D02*
X193489792Y-74347912D01*
X207380416Y-73024999D02*
X207380416Y-73024999D01*
X247729370Y-30691667D02*
X248390829Y-30691667D01*
X210687706Y-24738542D02*
X210687706Y-24738542D01*
X157109585Y-61118750D02*
X157109585Y-61118750D01*
X249713747Y-67071873D02*
X249713747Y-67071873D01*
X241114790Y-71702081D02*
X241776249Y-71702081D01*
X155786668Y-54504165D02*
X155786668Y-54504165D01*
X197458541Y-73024999D02*
X197458541Y-73686458D01*
X157109585Y-63103124D02*
X157109585Y-63103124D01*
X250375206Y-51196875D02*
X250375206Y-51196875D01*
X237807495Y-71702081D02*
X239130413Y-71702081D01*
X215317914Y-73024999D02*
X216640832Y-73024999D01*
X219948122Y-24738542D02*
X219948122Y-25400000D01*
X163724168Y-28707292D02*
X163724168Y-28707292D01*
X204734580Y-73686458D02*
X207380416Y-73686458D01*
X204734580Y-26061459D02*
X204734580Y-26722917D01*
X223255417Y-26061459D02*
X223255417Y-26061459D01*
X222593958Y-73686458D02*
X222593958Y-73024999D01*
X241776249Y-71040622D02*
X243760626Y-71040622D01*
X248390829Y-28045834D02*
X247067911Y-28045834D01*
X169015834Y-73024999D02*
X169015834Y-73024999D01*
X157771043Y-40613541D02*
X157771043Y-40613541D01*
X202088749Y-72363540D02*
X202088749Y-72363540D01*
X235823118Y-73686458D02*
X235823118Y-73686458D01*
X247729370Y-36644792D02*
X247729370Y-34660416D01*
X189521041Y-26061459D02*
X189521041Y-26061459D01*
X240453331Y-26061459D02*
X239130413Y-26061459D01*
X157771043Y-37306249D02*
X157771043Y-37306249D01*
X174307501Y-72363540D02*
X174307501Y-72363540D01*
X249713747Y-47228123D02*
X249713747Y-47228123D01*
X165708543Y-28707292D02*
X163724168Y-28707292D01*
X165047084Y-74347912D02*
X166370001Y-74347912D01*
X156448127Y-64426040D02*
X156448127Y-63103124D01*
X221932499Y-24738542D02*
X221932499Y-24738542D01*
X163062709Y-73686458D02*
X165047084Y-73686458D01*
X249713747Y-44582291D02*
X249713747Y-44582291D01*
X159755418Y-73024999D02*
X163062709Y-73024999D01*
X247067911Y-28045834D02*
X247067911Y-28045834D01*
X227224166Y-74347912D02*
X227224166Y-74347912D01*
X169015834Y-73686458D02*
X169015834Y-73686458D01*
X248390829Y-37967708D02*
X248390829Y-37967708D01*
X237807495Y-72363540D02*
X237807495Y-72363540D01*
X220609581Y-73686458D02*
X222593958Y-73686458D01*
X188198125Y-25400000D02*
X188198125Y-25400000D01*
X216640832Y-73024999D02*
X216640832Y-73024999D01*
X249052288Y-37967708D02*
X249052288Y-36644792D01*
X205396039Y-26061459D02*
X204734580Y-26061459D01*
X233177287Y-24738542D02*
X233177287Y-24738542D01*
X212672083Y-74347912D02*
X212672083Y-73686458D01*
X245083534Y-27384375D02*
X245083534Y-26722917D01*
X207380416Y-73686458D02*
X207380416Y-73024999D01*
X250375206Y-45905208D02*
X249713747Y-45905208D01*
X157109585Y-34660416D02*
X157109585Y-34660416D01*
X176953335Y-24738542D02*
X176953335Y-26061459D01*
X182906458Y-25400000D02*
X180260625Y-25400000D01*
X155786668Y-55827083D02*
X155786668Y-54504165D01*
X155125210Y-51858331D02*
X155125210Y-51858331D01*
X195474164Y-24738542D02*
X191505418Y-24738542D01*
X210687706Y-74347912D02*
X210687706Y-74347912D01*
X214656455Y-26061459D02*
X214656455Y-26061459D01*
X204734580Y-74347912D02*
X204734580Y-73686458D01*
X237146036Y-26722917D02*
X237146036Y-25400000D01*
X157109585Y-72363540D02*
X157109585Y-72363540D01*
X215317914Y-73686458D02*
X215317914Y-73024999D01*
X157771043Y-30030208D02*
X157771043Y-30030208D01*
X179599168Y-73686458D02*
X179599168Y-73686458D01*
X157771043Y-37306249D02*
X158432502Y-37306249D01*
X249713747Y-41936457D02*
X249713747Y-41936457D01*
X193489792Y-74347912D02*
X193489792Y-74347912D01*
X233177287Y-26061459D02*
X233177287Y-24738542D01*
X250375206Y-54504165D02*
X250375206Y-51196875D01*
X193489792Y-73686458D02*
X196135623Y-73686458D01*
X249052288Y-36644792D02*
X247729370Y-36644792D01*
X245083534Y-26722917D02*
X243099167Y-26722917D01*
X156448127Y-67071873D02*
X156448127Y-67071873D01*
X169015834Y-73024999D02*
X169015834Y-73686458D01*
X165047084Y-74347912D02*
X165047084Y-74347912D01*
X159093960Y-30030208D02*
X157771043Y-30030208D01*
X237146036Y-26722917D02*
X237146036Y-26722917D01*
X251036665Y-60457291D02*
X251036665Y-60457291D01*
X249713747Y-69717704D02*
X249713747Y-67071873D01*
X243099167Y-27384375D02*
X240453331Y-27384375D01*
X172323125Y-26061459D02*
X170338751Y-26061459D01*
X165708543Y-28707292D02*
X165708543Y-28707292D01*
X180922084Y-74347912D02*
X182906458Y-74347912D01*
X219948122Y-25400000D02*
X219948122Y-25400000D01*
X174968959Y-25400000D02*
X174968959Y-25400000D01*
X209364788Y-24738542D02*
X209364788Y-24738542D01*
X157771043Y-31353125D02*
X157771043Y-31353125D01*
X183567917Y-26061459D02*
X183567917Y-26061459D01*
X237146036Y-25400000D02*
X237146036Y-25400000D01*
X155786668Y-61118750D02*
X155786668Y-58472916D01*
X172323125Y-25400000D02*
X172323125Y-26061459D01*
X200765831Y-73024999D02*
X200765831Y-72363540D01*
X249713747Y-69717704D02*
X249713747Y-69717704D01*
X227224166Y-73686458D02*
X229869997Y-73686458D01*
X163724168Y-28045834D02*
X163724168Y-28045834D01*
X155786668Y-54504165D02*
X155125210Y-54504165D01*
X249052288Y-44582291D02*
X249052288Y-41936457D01*
X166370001Y-74347912D02*
X166370001Y-73024999D01*
X248390829Y-30691667D02*
X248390829Y-30691667D01*
X234500205Y-25400000D02*
X234500205Y-26061459D01*
X247729370Y-32676041D02*
X247729370Y-32676041D01*
X251036665Y-48551041D02*
X249713747Y-48551041D01*
X251036665Y-65087496D02*
X251036665Y-65087496D01*
X210687706Y-73024999D02*
X210687706Y-74347912D01*
X200104372Y-73024999D02*
X200104372Y-73024999D01*
X171661668Y-73686458D02*
X171661668Y-73686458D01*
X157771043Y-71040622D02*
X157109585Y-71040622D01*
X249713747Y-41936457D02*
X249713747Y-40613541D01*
X234500205Y-26061459D02*
X234500205Y-26061459D01*
X215979373Y-26061459D02*
X215979373Y-26061459D01*
X159755418Y-72363540D02*
X159755418Y-72363540D01*
X213333542Y-25400000D02*
X213333542Y-24738542D01*
X210687706Y-25400000D02*
X210687706Y-25400000D01*
X249713747Y-44582291D02*
X249052288Y-44582291D01*
X171661668Y-73686458D02*
X171661668Y-72363540D01*
X161078335Y-28045834D02*
X161078335Y-28045834D01*
X248390829Y-37967708D02*
X249052288Y-37967708D01*
X159093960Y-29368750D02*
X159093960Y-29368750D01*
X218625204Y-24738542D02*
X218625204Y-24738542D01*
X223255417Y-25400000D02*
X223255417Y-25400000D01*
X227885625Y-25400000D02*
X225239789Y-25400000D01*
X250375206Y-45905208D02*
X250375206Y-45905208D01*
X195474164Y-24738542D02*
X195474164Y-24738542D01*
X210687706Y-25400000D02*
X209364788Y-25400000D01*
X250375206Y-47228123D02*
X250375206Y-45905208D01*
X176953335Y-26061459D02*
X174968959Y-26061459D01*
X235823118Y-72363540D02*
X237807495Y-72363540D01*
X222593958Y-73024999D02*
X223916871Y-73024999D01*
X216640832Y-72363540D02*
X216640832Y-72363540D01*
X205396039Y-26061459D02*
X205396039Y-26061459D01*
X204734580Y-26061459D02*
X204734580Y-26061459D01*
X225239789Y-25400000D02*
X225239789Y-25400000D01*
X157109585Y-31353125D02*
X157109585Y-32014584D01*
X248390829Y-28045834D02*
X248390829Y-28045834D01*
X239130413Y-71702081D02*
X239130413Y-72363540D01*
X234500205Y-26061459D02*
X233177287Y-26061459D01*
X227885625Y-26061459D02*
X227885625Y-25400000D01*
X243099167Y-27384375D02*
X243099167Y-27384375D01*
X221932499Y-25400000D02*
X221932499Y-24738542D01*
X159093960Y-30030208D02*
X159093960Y-30030208D01*
X156448127Y-43920833D02*
X156448127Y-43920833D01*
X210687706Y-74347912D02*
X212672083Y-74347912D01*
X248390829Y-34660416D02*
X248390829Y-32676041D01*
X191505418Y-25400000D02*
X189521041Y-25400000D01*
X251036665Y-65087496D02*
X251036665Y-60457291D01*
X229208538Y-26061459D02*
X227885625Y-26061459D01*
X155125210Y-54504165D02*
X155125210Y-51858331D01*
X227885625Y-26061459D02*
X227885625Y-26061459D01*
X176953335Y-74347912D02*
X176953335Y-74347912D01*
X237146036Y-25400000D02*
X234500205Y-25400000D01*
X158432502Y-37306249D02*
X158432502Y-34660416D01*
X216640832Y-25400000D02*
X216640832Y-25400000D01*
X157109585Y-72363540D02*
X159755418Y-72363540D01*
X161078335Y-29368750D02*
X159093960Y-29368750D01*
X205396039Y-25400000D02*
X205396039Y-25400000D01*
X206718957Y-25400000D02*
X205396039Y-25400000D01*
X170338751Y-26722917D02*
X169677293Y-26722917D01*
X250375206Y-56488539D02*
X250375206Y-56488539D01*
X159755418Y-72363540D02*
X159755418Y-73024999D01*
X157109585Y-64426040D02*
X157109585Y-67071873D01*
X235823118Y-72363540D02*
X235823118Y-72363540D01*
X185552292Y-25400000D02*
X185552292Y-26061459D01*
X245083534Y-26722917D02*
X245083534Y-26722917D01*
X249713747Y-45905208D02*
X249713747Y-45905208D01*
X218625204Y-73024999D02*
X218625204Y-73024999D01*
X215317914Y-73024999D02*
X215317914Y-73024999D01*
X174307501Y-73024999D02*
X174307501Y-73024999D01*
X156448127Y-69717704D02*
X157771043Y-69717704D01*
X195474164Y-26061459D02*
X195474164Y-24738542D01*
X184890833Y-73024999D02*
X184890833Y-73024999D01*
X225901248Y-73686458D02*
X225901248Y-73686458D01*
X157109585Y-51858331D02*
X157109585Y-50535416D01*
X179599168Y-74347912D02*
X179599168Y-74347912D01*
X247729370Y-32676041D02*
X247729370Y-30691667D01*
X157109585Y-67071873D02*
X157109585Y-67071873D01*
X155786668Y-61118750D02*
X155786668Y-61118750D01*
X157109585Y-71040622D02*
X157109585Y-72363540D01*
X155786668Y-58472916D02*
X155786668Y-58472916D01*
X233838746Y-73024999D02*
X233838746Y-73024999D01*
X222593958Y-73686458D02*
X222593958Y-73686458D01*
X161078335Y-29368750D02*
X161078335Y-29368750D01*
X200104372Y-73024999D02*
X200765831Y-73024999D01*
X184890833Y-73686458D02*
X188198125Y-73686458D01*
X184890833Y-73024999D02*
X184890833Y-73686458D01*
X197458541Y-73686458D02*
X200104372Y-73686458D01*
X188198125Y-73024999D02*
X190182500Y-73024999D01*
X183567917Y-26722917D02*
X183567917Y-26061459D01*
X241776249Y-71702081D02*
X241776249Y-71040622D01*
X241114790Y-72363540D02*
X241114790Y-71702081D01*
X191505418Y-25400000D02*
X191505418Y-25400000D01*
X251036665Y-55827083D02*
X251036665Y-54504165D01*
X250375206Y-51196875D02*
X251036665Y-51196875D01*
X184890833Y-26061459D02*
X184890833Y-26722917D01*
X203411667Y-73686458D02*
X203411667Y-74347912D01*
X157109585Y-50535416D02*
X157109585Y-50535416D01*
X188198125Y-73686458D02*
X188198125Y-73686458D01*
X247067911Y-27384375D02*
X245083534Y-27384375D01*
X156448127Y-64426040D02*
X157109585Y-64426040D01*
X243760626Y-70379163D02*
X246406452Y-70379163D01*
X241114790Y-72363540D02*
X241114790Y-72363540D01*
X249713747Y-59134373D02*
X249713747Y-56488539D01*
X218625204Y-24738542D02*
X216640832Y-24738542D01*
X251036665Y-60457291D02*
X250375206Y-60457291D01*
X223255417Y-25400000D02*
X221932499Y-25400000D01*
X250375206Y-56488539D02*
X250375206Y-55827083D01*
X156448127Y-63103124D02*
X156448127Y-63103124D01*
X156448127Y-58472916D02*
X156448127Y-55827083D01*
X184890833Y-26722917D02*
X183567917Y-26722917D01*
X176953335Y-24738542D02*
X176953335Y-24738542D01*
X234500205Y-25400000D02*
X234500205Y-25400000D01*
X180922084Y-73686458D02*
X180922084Y-73686458D01*
X229208538Y-25400000D02*
X229208538Y-25400000D01*
X155786668Y-45905208D02*
X155786668Y-43920833D01*
X155125210Y-51858331D02*
X157109585Y-51858331D01*
X196135623Y-73686458D02*
X196135623Y-73686458D01*
M02*
