<?xml version="1.0" encoding="UTF-8" standalone="no"?>
<svg
   viewBox="0 -0.5 125 45"
   shape-rendering="crispEdges"
   version="1.1"
   id="svg10"
   sodipodi:docname="logo_shape_silkscreen_holes.svg"
   inkscape:version="1.1.1 (3bf5ae0d25, 2021-09-20, custom)"
   width="125"
   height="45"
   xmlns:inkscape="http://www.inkscape.org/namespaces/inkscape"
   xmlns:sodipodi="http://sodipodi.sourceforge.net/DTD/sodipodi-0.dtd"
   xmlns="http://www.w3.org/2000/svg"
   xmlns:svg="http://www.w3.org/2000/svg">
  <defs
     id="defs14" />
  <sodipodi:namedview
     id="namedview12"
     pagecolor="#ffffff"
     bordercolor="#666666"
     borderopacity="1.0"
     inkscape:pageshadow="2"
     inkscape:pageopacity="0.0"
     inkscape:pagecheckerboard="0"
     showgrid="true"
     inkscape:zoom="10.933012"
     inkscape:cx="53.004607"
     inkscape:cy="21.997598"
     inkscape:window-width="2560"
     inkscape:window-height="1351"
     inkscape:window-x="26"
     inkscape:window-y="23"
     inkscape:window-maximized="0"
     inkscape:current-layer="layer1"
     units="mm"
     width="145px">
    <inkscape:grid
       type="xygrid"
       id="grid6474" />
  </sodipodi:namedview>
  <g
     inkscape:groupmode="layer"
     id="layer1"
     inkscape:label="back"
     style="display:inline" />
  <g
     inkscape:groupmode="layer"
     id="layer2"
     inkscape:label="Layer 1">
    <g
       id="path4">
      <path
         style="color:#000000;fill:#000000;-inkscape-stroke:none"
         d="m 28,1 h 3 m 6,0 h 1 M 27,2 h 5 m 4,0 h 3 m 31,0 h 3 m 6,0 h 1 M 27,3 h 5 m 3,0 h 4 m 29,0 h 5 m 4,0 h 4 M 28,4 h 3 m 4,0 h 3 m 30,0 h 4 m 4,0 h 5 M 29,5 h 1 m 6,0 h 1 m 32,0 h 3 m 5,0 h 3 M 70,6 h 1 m 6,0 h 2 m 32.00001,2.9999996 h 5 m -108.0000096,1 H 15 m 33,0 h 17 m 1,0 h 1 m 20,0 h 17 m 6.00001,0 h 7 M 4,11 h 13 m 8,0 h 3 m 10,0 h 2 m 3,0 h 22 m 1,0 h 2 m 16,0 h 21 m 4.00001,0 h 9 M 3,12 h 15 m 6,0 h 4 m 9,0 h 3 m 1,0 h 22 m 2,0 h 4 m 9,0 h 3 m 1,0 h 23 m 4.00001,0 h 9 M 3,13 h 7 m 5,0 h 4 m 5,0 h 4 m 9,0 h 3 m 1,0 h 17 m 7,0 h 4 m 9,0 h 4 m 1,0 h 14.999996 m 10.000014,0 h 10 M 4,14 H 9.0000004 M 16,14 h 3 m 4,0 h 5 m 9,0 h 4 m 10,0 h 5 m 8,0 h 5 m 9,0 h 4 m 1,0 h 3 m 6,0 h 4.999996 m 11.000014,0 h 10 M 6,15 H 9.0000004 M 16,15 h 3 m 4,0 h 4 m 10,0 h 4 m 10,0 h 5 m 8,0 h 5 m 9,0 h 5 m 9,0 h 4.999996 m 11.000014,0 h 11 M 6,16 H 8.0000004 M 16,16 h 3 m 4,0 h 4 m 10,0 h 4 m 10,0 h 5 m 8,0 h 5 m 9,0 h 5 m 9,0 h 4 m 11,0 h 6.00001 m 1,0 h 5 M 6,17 H 8.0000004 M 15,17 h 4 m 4,0 h 4 m 10,0 h 4 m 9,0 h 5 m 9,0 h 5 m 9,0 h 5 m 8,0 h 5 m 11,0 h 5.00001 m 2,0 h 5 M 5,18 H 8.0000004 M 14,18 h 5 m 4,0 h 4 m 10,0 h 4 m 9,0 h 5 m 9,0 h 4 m 10,0 h 5 m 8,0 h 5 m 10,0 h 6.00001 m 3,0 h 4 M 5,19 H 8.0000004 M 13,19 h 5 m 4,0 h 5 m 10,0 h 4 m 9,0 h 5 m 8,0 h 5 m 10,0 h 5 m 8,0 h 5 m 10,0 h 5.00001 m 4,0 h 5 M 5,20 H 8.0000004 M 11,20 h 6 m 5,0 h 5 m 10,0 h 4 m 9,0 h 5 m 8,0 h 5 m 10,0 h 5 m 8,0 h 5 m 10,0 h 5.00001 m 4,0 h 5 M 4,21 h 4.0000004 m 1,0 H 17 m 5,0 h 4 m 11,0 h 4 m 9,0 h 5 m 8,0 h 5 m 10,0 h 5 m 8,0 h 4 m 10,0 h 6.00001 m 4,0 h 5 M 4,22 h 12 m 6,0 h 4 m 11,0 h 4 m 9,0 h 4 m 9,0 h 5 m 10,0 h 5 m 8,0 h 4 m 10,0 h 5.00001 m 5,0 h 6 M 4,23 h 11 m 7,0 h 4 m 10,0 h 5 m 8,0 h 5 m 9,0 h 4 m 11,0 h 4 m 8,0 h 5 m 10,0 h 5.00001 m 4,0 h 8 M 4,24 h 10 m 7,0 h 5 m 10,0 h 5 m 8,0 h 5 m 9,0 h 4 m 10,0 h 5 m 8,0 h 5 m 9,0 h 20.00001 M 3,25 h 11 m 7,0 h 5 m 10,0 h 5 m 8,0 h 5 m 9,0 h 4 m 10,0 h 5 m 8,0 h 5 m 9,0 h 18.00001 M 3,26 h 10 m 8,0 h 5 m 10,0 h 4 m 9,0 h 5 m 9,0 h 4 m 10,0 h 5 m 8,0 h 5 m 8,0 h 18.00001 M 3,27 h 5.0000004 m 1,0 H 14 m 7,0 h 5 m 9,0 h 5 m 9,0 h 4 m 10,0 h 4 m 9,0 h 6 m 8,0 h 5 m 8,0 h 11.00001 m 2,0 h 5 M 3,28 h 4.0000004 m 2,0 H 15 m 6,0 h 4 m 10,0 h 5 m 9,0 h 4 m 9,0 h 5 m 9,0 h 6 m 8,0 h 5 m 8,0 h 8.00001 m 5,0 h 5 M 3,29 H 7.0000004 M 10,29 h 5 m 6,0 h 4 m 9,0 h 6 m 8,0 h 5 m 9,0 h 5 m 8,0 h 7 m 7,0 h 6 m 7,0 h 6.00001 m 8,0 h 5 M 3,30 H 7.0000004 M 10,30 h 6 m 5,0 h 5 m 7,0 h 7 m 8,0 h 5 m 9,0 h 5 m 7,0 h 8 m 7,0 h 6 m 7,0 h 6.00001 m 8,0 h 5 M 3,31 h 3 m 5,0 h 6 m 4,0 h 6 m 3,0 h 10 m 8,0 h 5 m 9,0 h 6 m 4,0 h 10 m 7,0 h 5 m 7,0 h 6 m 9.00001,0 h 5 M 2,32 h 4 m 5,0 h 7 m 4,0 h 18 m 8,0 h 5 m 9,0 h 6 m 3,0 h 10 m 8,0 h 5 m 7,0 h 6 m 10.00001,0 h 4 M 2,33 h 4 m 6,0 h 6 m 4,0 h 18 m 8,0 h 5 m 10,0 h 18 m 8,0 h 5 m 5.999996,0 H 106 m 11.00001,0 h 4 M 2,34 h 4 m 7,0 h 6 m 4,0 h 17 m 8,0 h 5 m 10,0 h 18 m 8,0 h 5 m 5.999996,0 H 106 m 11.00001,0 h 4 M 2,35 h 4 m 8,0 h 6 m 4,0 h 9 m 2,0 h 4 m 9,0 h 5 m 11,0 h 10 m 2,0 h 5 m 8,0 h 5 m 7,0 h 4 m 12.00001,0 h 4 M 4,36 h 2 m 9,0 h 6 m 3,0 h 7 m 4,0 h 4 m 9,0 h 5 m 13,0 h 6 m 5,0 h 4 m 8,0 h 4 m 8,0 h 3 m 13.00001,0 h 4 M 16,37 h 5 m 5,0 h 3 m 7,0 h 3 m 9,0 h 4 m 25,0 h 4 m 8,0 h 4 m 9,0 h 2 m 13.00001,0 h 4 M 17,38 h 5 m 14,0 h 3 m 9,0 h 4 m 25,0 h 4 m 8,0 h 4 m 25.00001,0 h 4 M 19,39 h 4 m 13,0 h 3 m 9,0 h 4 m 25,0 h 3 m 9,0 h 4 m 25.00001,0 h 4 M 20,40 h 3 m 26,0 h 3 m 38,0 h 2 m 27.00001,0 h 3 M 49,41 h 1 m 40,0 h 2 m 27.00001,0 h 3 m -2,1 h 2"
         id="path4887" />
      <path
         id="path4889"
         style="color:#000000;fill:#ffffff;-inkscape-stroke:none"
         d="m 121,24 v 1 h -1 v 1 h -1 v 1 1 h -1 v 1 1 1 h -1 v 1 1 h -1 v 1 1 1 h -1 v 1 1 1 h -1 v 1 1 h -1 v 1 1 1 h -1 v 1 1 h -1 v 1 1 h -1 v 1 1 h 1 v 1 1 h 1 v 1 h 2 v -1 -1 h 1 v -1 h 1 v -1 -1 h 1 v -1 -1 h 1 v -1 -1 h 3 v -1 h 3 v -1 h 2 v 1 1 1 1 1 h 1 v 1 1 1 1 1 1 h 1 v 1 1 h 1 v 1 1 h 1 v 1 h 2 v -1 -1 -1 -1 -1 h -1 v -1 -1 -1 -1 -1 -1 -1 -1 -1 -1 -1 -1 h 1 v -1 h 2 v -1 h -2 v -1 h -1 v -1 h -1 v -1 -1 -1 h -1 v -1 -1 -1 -1 h -1 v -1 -1 -1 -1 h -1 v -1 h -1 V 24 Z M 18,25 v 1 h -4 v 1 h -1 v 1 1 h 1 v 1 h 2 v 1 1 1 h -1 v 1 1 1 h -1 v 1 1 1 1 h -1 v 1 1 1 1 1 1 1 h -1 v 1 1 1 1 h 2 v 1 h 2 v -1 -1 -1 -1 -1 -1 h 1 v -1 -1 -1 h 1 v -1 h 1 v 1 1 h 1 v 1 1 h 1 v 1 1 h 1 v 1 h 1 v 1 h 1 v 1 h 1 v 1 h 1 v 1 h 1 v 1 h 2 v 1 h 1 v 1 h 3 v -1 -1 h -1 v -1 h -1 v -1 -1 h -1 v -1 h -1 v -1 h -1 v -1 -1 h -1 v -1 h -1 v -1 h -1 v -1 -1 h -1 v -1 h -1 v -1 h 1 v -1 -1 h 1 v -1 h 1 v -1 h 1 v -1 -1 h 1 v -1 h 1 v -1 -1 -1 -1 -1 -1 h -1 v -1 h -1 v -1 h -2 v -1 z m 40,0 v 1 h -5 v 1 h -2 v 1 1 h 10 v 1 1 1 h -1 v 1 1 1 1 1 1 h -1 v 1 1 1 1 1 1 h -1 v 1 1 1 1 1 1 1 1 1 1 1 h 1 v 1 1 h 1 v -1 h 2 v -1 -1 -1 -1 h 1 v -1 -1 -1 -1 -1 -1 -1 -1 -1 -1 h 1 v -1 -1 -1 -1 -1 h 1 v -1 -1 -1 -1 -1 h 1 v -1 -1 -1 h 2 v -1 h 5 v -1 h 2 v -1 -1 z m 17,2 v 1 1 h -1 v 1 1 1 1 1 h -1 v 1 1 1 1 1 1 1 1 1 h -1 v 1 1 1 1 1 h 1 v 1 1 h 1 v 1 h 2 v 1 h 6 v -1 h 2 v -1 h 2 v 1 h 1 v 1 1 1 1 h 3 v -1 h 1 v -1 -1 -1 -1 -1 -1 -1 h 1 v -1 -1 -1 -1 -1 -1 -1 -1 -1 h 1 v -1 -1 -1 -1 -1 -1 -1 -1 h -1 v -1 -1 h -1 v -1 h -3 v 1 1 1 1 1 1 1 1 1 1 1 1 h -1 v 1 1 1 h -1 v 1 1 h -1 v 1 h -1 v 1 h -2 v 1 h -1 v 1 h -3 v -1 -1 h -1 v -1 -1 -1 -1 -1 -1 -1 -1 h 1 v -1 -1 -1 -1 -1 h 1 v -1 -1 -1 -1 -1 -1 h -1 v -1 h -1 v -1 h -1 v 1 1 z m 17,1 h 1 v 1 1 h 3 v -1 h 6 v 1 1 1 h -1 v 1 1 1 1 1 1 h -1 v 1 1 1 1 1 1 h -1 v 1 1 1 1 1 1 1 1 1 1 1 h 1 v 1 1 h 2 v -1 -1 h 1 v -1 -1 -1 -1 h 1 v -1 -1 -1 -1 -1 h 1 v -1 -1 -1 -1 -1 -1 -1 -1 -1 -1 h 1 v -1 -1 -1 -1 -1 h 1 v -1 -1 h 1 v -1 h 7 v -1 -1 h -1 V 25 H 97 v 1 h -3 v 1 h -2 z m -41,1 h -1 v -1 -1 -1 h -2 v 1 h -1 v 1 1 1 1 1 1 1 1 1 1 1 h -1 v 1 1 1 1 h -1 v 1 1 h -1 v 1 h -1 v 1 h -3 v 1 h -3 v -1 h -1 v -1 h -1 v -1 -1 h 1 v -1 -1 -1 -1 -1 -1 -1 h 1 v -1 -1 -1 -1 -1 -1 h 1 v -1 -1 -1 -1 h -3 v 1 h -1 v 1 1 h -1 v 1 1 1 1 1 h -1 v 1 1 1 1 1 h -1 v 1 1 1 1 1 1 1 1 h 1 v 1 1 h 1 v 1 h 1 v 1 1 h 2 v 1 h 3 v -1 h 2 v -1 h 2 v -1 h 2 v 1 1 h 1 v 1 1 1 h 3 v -1 -1 -1 -1 -1 h 1 v -1 -1 -1 -1 -1 -1 -1 -1 -1 h 1 V 40 39 38 37 36 35 34 33 32 31 30 Z M 20,28 h 5 v 1 h 1 v 1 1 1 h -1 v 1 h -1 v 1 h -1 v 1 h -2 v 1 h -2 v 1 h -1 v -1 -1 -1 -1 -1 -1 h 1 v -1 -1 h 1 z m 103,3 h 1 v 1 1 h 1 v 1 1 1 1 1 h -1 v 1 h -4 v -1 -1 h 1 v -1 -1 -1 h 1 v -1 -1 h 1 z"
         transform="translate(-10,-15.5)" />
    </g>
  </g>
  <g
     inkscape:groupmode="layer"
     id="layer3"
     inkscape:label="copper"
     sodipodi:insensitive="true"
     style="display:inline" />
</svg>
