<?xml version="1.0" encoding="UTF-8" standalone="no"?>
<svg
   viewBox="0 -0.5 145 75"
   shape-rendering="crispEdges"
   version="1.1"
   id="svg10"
   sodipodi:docname="logo_cutout.svg"
   inkscape:version="1.1.1 (3bf5ae0d25, 2021-09-20, custom)"
   width="145"
   height="75"
   xmlns:inkscape="http://www.inkscape.org/namespaces/inkscape"
   xmlns:sodipodi="http://sodipodi.sourceforge.net/DTD/sodipodi-0.dtd"
   xmlns="http://www.w3.org/2000/svg"
   xmlns:svg="http://www.w3.org/2000/svg">
  <defs
     id="defs14" />
  <sodipodi:namedview
     id="namedview12"
     pagecolor="#ffffff"
     bordercolor="#666666"
     borderopacity="1.0"
     inkscape:pageshadow="2"
     inkscape:pageopacity="0.0"
     inkscape:pagecheckerboard="0"
     showgrid="true"
     inkscape:zoom="5.4665059"
     inkscape:cx="67.776383"
     inkscape:cy="31.92167"
     inkscape:window-width="2560"
     inkscape:window-height="1351"
     inkscape:window-x="26"
     inkscape:window-y="23"
     inkscape:window-maximized="0"
     inkscape:current-layer="layer1"
     units="mm"
     width="145px">
    <inkscape:grid
       type="xygrid"
       id="grid6474" />
  </sodipodi:namedview>
  <g
     inkscape:groupmode="layer"
     id="layer1"
     inkscape:label="back"
     style="display:inline" />
  <g
     inkscape:groupmode="layer"
     id="layer2"
     inkscape:label="Layer 1">
    <path
       id="path6956"
       style="fill:none;stroke:#000000;stroke-width:0.2;stroke-linecap:butt;stroke-linejoin:miter;stroke-opacity:1;stroke-miterlimit:4;stroke-dasharray:none"
       d="m 2,59.5 h 1 v 4 H 2 v 4 h 2 v 2 H 3 v 2 h 4 v 1 h 5 v 1 h 3 v 1 h 2 v -2 h 4 v 1 h 4 v -2 h 4 v 1 h 4 v 2 h 4 v -1 h 2 v 1 h 3 v -2 h 3 v 1 h 5 v -1 h 3 v 2 h 5 v -1 h 4 v -1 h 2 v 1 h 4 v -1 h 1 v -1 h 2 v 2 h 2 v 1 h 2 v -1 h 4 v -1 h 5 v 2 h 3 v -1 h 4 v -1 h 2 v -1 h 3 v 1 h 3 v 1 h 3 v -1 h 2 v 1 h 3 v 1 h 2 v -1 h 4 v -2 h 3 v 1 h 3 v 1 h 3 v -2 h 3 v -1 h 2 v 1 h 3 v -1 h 1 v -1 h 3 v -1 h 4 v -2 h 2 v 1 h 3 v -4 h 1 v -3 h 1 v -7 h -1 v -2 h -1 v -4 h 1 v -1 h 1 v -2 h -1 v -5 h 1 v -4 h -2 v -2 h 1 v -2 h -1 v -2 h -1 v -4 h 1 v -2 h -2 v -4 h 1 v -2 h -2 v -3 h 1 v -3 h -1 v -3 h 1 v -4 h -2 v -1 h -3 v -1 h -3 v 1 h -4 v -2 h -2 v 1 h -3 v -2 h -4 v 1 h -2 v -2 h -3 v 1 h -3 v 1 h -2 v -1 h -4 v 1 h -3 v -1 h -2 v -1 h -3 v 1 h -2 v -1 h -3 v 1 h -1 v 1 h -2 v -1 h -2 v -1 h -4 v 1 h -2 v -1 h -4 v 1 h -2 v 1 h -1 v 1 h -4 v -1 h -4 v -1 h -2 v 1 h -4 v -2 h -6 v 1 h -3 v 1 h -2 v -1 h -4 v 1 h -1 v 1 h -2 v -1 h -1 v -1 h -4 v -1 h -5 v 2 h -3 v -1 h -4 v 1 h -3 v 1 h -1 v 2 h -3 v -1 h -3 v 2 h -3 v -1 H 9 v 2 H 6 v 1 H 4 v 2 H 3 v 1 m -1,49 v -2 h 1 v -3 H 1 v -4 h 1 v -4 H 1 v -2 H 0 v -4 h 3 v -2 H 2 v -4 h 2 v -3 H 1 v -3 h 1 v -5 h 2 v -5 h 1 v -4 H 3 v -4" />
  </g>
  <g
     inkscape:groupmode="layer"
     id="layer3"
     inkscape:label="copper"
     sodipodi:insensitive="true"
     style="display:inline" />
</svg>
