<?xml version="1.0" encoding="UTF-8" standalone="no"?>
<svg
   viewBox="0 -0.5 125 45"
   shape-rendering="crispEdges"
   version="1.1"
   id="svg10"
   sodipodi:docname="logo_shape_mask_holes.svg"
   inkscape:version="1.1.1 (3bf5ae0d25, 2021-09-20, custom)"
   width="125"
   height="45"
   xmlns:inkscape="http://www.inkscape.org/namespaces/inkscape"
   xmlns:sodipodi="http://sodipodi.sourceforge.net/DTD/sodipodi-0.dtd"
   xmlns="http://www.w3.org/2000/svg"
   xmlns:svg="http://www.w3.org/2000/svg">
  <defs
     id="defs14" />
  <sodipodi:namedview
     id="namedview12"
     pagecolor="#ffffff"
     bordercolor="#666666"
     borderopacity="1.0"
     inkscape:pageshadow="2"
     inkscape:pageopacity="0.0"
     inkscape:pagecheckerboard="0"
     showgrid="true"
     inkscape:zoom="10.933012"
     inkscape:cx="69.102641"
     inkscape:cy="22.454929"
     inkscape:window-width="2560"
     inkscape:window-height="1351"
     inkscape:window-x="26"
     inkscape:window-y="23"
     inkscape:window-maximized="0"
     inkscape:current-layer="layer2"
     units="mm"
     width="145px">
    <inkscape:grid
       type="xygrid"
       id="grid6474" />
  </sodipodi:namedview>
  <g
     inkscape:groupmode="layer"
     id="layer1"
     inkscape:label="back"
     style="display:inline">
    <path
       style="fill:#00ff00;stroke:#000000;stroke-width:0;stroke-linecap:butt;stroke-linejoin:miter;stroke-opacity:1;stroke-miterlimit:4;stroke-dasharray:none"
       d="m 27,3.5 v -2 h 1 v -1 h 3 v 1 h 1 v 2 h -1 v 1 h -1 v 1 h -1 v -1 h -1 v -1 z"
       id="path10541" />
    <path
       style="fill:#00ff00;stroke:#000000;stroke-width:0;stroke-linecap:butt;stroke-linejoin:miter;stroke-opacity:1;stroke-miterlimit:4;stroke-dasharray:none"
       d="m 35,2.5 v 2 h 1 v 1 h 1 v -1 h 1 v -1 h 1 v -2 h -1 v -1 h -1 v 1 h -1 v 1 h -1"
       id="path10543" />
    <path
       style="fill:#00ff00;stroke:#000000;stroke-width:0;stroke-linecap:butt;stroke-linejoin:miter;stroke-opacity:1;stroke-miterlimit:4;stroke-dasharray:none"
       d="m 68,2.5 v 2 h 1 v 1 h 1 v 1 h 1 v -1 h 1 v -2 h 1 v -2 h -3 v 1 h -2"
       id="path10545" />
    <path
       style="fill:#00ff00;stroke:#000000;stroke-width:0;stroke-linecap:butt;stroke-linejoin:miter;stroke-opacity:1;stroke-miterlimit:4;stroke-dasharray:none"
       d="m 76,3.5 v 1 h 1 v 2 h 2 v -1 h 1 v -1 h 1 v -2 h -1 v -1 h -1 v 1 h -2 v 1 h -1"
       id="path10547" />
  </g>
  <g
     inkscape:groupmode="layer"
     id="layer2"
     inkscape:label="Layer 1" />
  <g
     inkscape:groupmode="layer"
     id="layer3"
     inkscape:label="copper"
     sodipodi:insensitive="true"
     style="display:inline" />
</svg>
