<?xml version="1.0" encoding="UTF-8" standalone="no"?>
<svg
   viewBox="0 -0.5 125 45"
   shape-rendering="crispEdges"
   version="1.1"
   id="svg10"
   sodipodi:docname="logo_shape_silkscreen.svg"
   inkscape:version="1.1.1 (3bf5ae0d25, 2021-09-20, custom)"
   xmlns:inkscape="http://www.inkscape.org/namespaces/inkscape"
   xmlns:sodipodi="http://sodipodi.sourceforge.net/DTD/sodipodi-0.dtd"
   xmlns="http://www.w3.org/2000/svg"
   xmlns:svg="http://www.w3.org/2000/svg">
  <defs
     id="defs14" />
  <sodipodi:namedview
     id="namedview12"
     pagecolor="#ffffff"
     bordercolor="#666666"
     borderopacity="1.0"
     inkscape:pageshadow="2"
     inkscape:pageopacity="0.0"
     inkscape:pagecheckerboard="0"
     showgrid="false"
     inkscape:zoom="9.4016918"
     inkscape:cx="51.692824"
     inkscape:cy="23.665953"
     inkscape:window-width="1920"
     inkscape:window-height="1015"
     inkscape:window-x="26"
     inkscape:window-y="23"
     inkscape:window-maximized="0"
     inkscape:current-layer="layer2" />
  <g
     inkscape:groupmode="layer"
     id="layer1"
     inkscape:label="back"
     style="display:inline" />
  <g
     inkscape:groupmode="layer"
     id="layer2"
     inkscape:label="Layer 1">
    <g
       id="path2">
      <path
         style="color:#000000;fill:#000000;-inkscape-stroke:none"
         d="m 28,0 h 3 m 6,0 h 1 M 27,1 h 1 m 3,0 h 1 m 4,0 h 1 m 1,0 h 1 m 31,0 h 3 m 6,0 h 1 M 26,2 h 1 m 5,0 h 1 m 2,0 h 1 m 3,0 h 1 m 28,0 h 2 m 3,0 h 1 m 3,0 h 2 m 1,0 h 1 M 26,3 h 1 m 5,0 h 1 m 1,0 h 1 m 4,0 h 1 m 27,0 h 1 m 5,0 h 1 m 2,0 h 1 m 4,0 h 1 M 27,4 h 1 m 3,0 h 1 m 2,0 h 1 m 3,0 h 1 m 28,0 h 1 m 4,0 h 1 m 2,0 h 1 m 5,0 h 1 M 28,5 h 1 m 1,0 h 1 m 4,0 h 1 m 1,0 h 1 m 30,0 h 1 m 3,0 h 1 m 3,0 h 1 m 3,0 h 1 M 29,6 h 1 m 6,0 h 1 m 32,0 h 1 m 1,0 h 1 m 4,0 h 1 m 2,0 h 1 M 70,7 h 1 m 6,0 h 2 m 32.00001,1 h 5 M 8.0000004,8.9999996 H 15 m 33,0 h 17 m 1,0 h 1 m 20,0 h 18 m 4.00001,0 h 2 m 5,0 h 2 M 4,9.9999996 h 4.0000004 m 6.9999996,0 h 2 m 8,0 h 3 m 10,0 h 2 m 3,0 h 5 m 17,0 h 1 m 1,0 h 1 m 16,0 h 3 m 17,0 h 1 m 4.00001,0 h 1 m 7,0 h 1 M 2,11 h 2 m 13,0 h 1 m 5,0 h 2 m 3,0 h 1 m 7,0 h 2 m 2,0 h 3 m 22,0 h 1 m 2,0 h 1 m 9,0 h 3 m 1,0 h 2 m 21,0 h 1 m 2.00001,0 h 1 m 9,0 h 1 M 2,12 h 1 m 15,0 h 1 m 4,0 h 1 m 4,0 h 1 m 7,0 h 1 m 3,0 h 1 m 22,0 h 2 m 4,0 h 1 m 7,0 h 1 m 3,0 h 1 m 23,0 h 1 m 2.00001,0 h 1 m 9,0 h 1 M 2,13 h 1 m 7,0 h 5 m 4,0 h 1 m 3,0 h 1 m 4,0 h 1 m 7,0 h 1 m 3,0 h 1 m 17,0 h 5 m 1,0 h 1 m 4,0 h 1 m 7,0 h 1 m 4,0 h 1 m 14.999996,0 H 105 m 2,0 h 1.00001 m 10,0 h 1 M 3,14 h 1 m 5.0000004,0 H 10 m 5,0 h 1 m 3,0 h 1 m 2,0 h 1 m 5,0 h 1 m 7,0 h 1 m 4,0 h 10 m 5,0 h 2 m 5,0 h 1 m 5,0 h 1 m 7,0 h 1 m 4,0 h 1 m 3,0 h 6 m 4.999996,0 h 1 M 107,14 h 1.00001 m 10,0 h 1 M 3,15 h 3 m 3.0000004,0 H 10 m 5,0 h 1 m 3,0 h 1 m 2,0 h 1 m 4,0 h 1 m 8,0 h 1 m 4,0 h 1 m 8,0 h 1 m 5,0 h 1 m 6,0 h 1 m 5,0 h 1 m 7,0 h 1 m 5,0 h 3 m 5,0 h 1 m 4.999996,0 h 1 M 107,15 h 1.00001 m 11,0 h 1 M 5,16 h 1 m 2.0000004,0 h 1 M 15,16 h 1 m 3,0 h 1 m 2,0 h 1 m 4,0 h 1 m 8,0 h 1 m 4,0 h 1 m 8,0 h 1 m 5,0 h 1 m 6,0 h 1 m 5,0 h 1 m 7,0 h 1 m 5,0 h 1 m 7,0 h 1 m 4,0 h 0.999996 M 106,16 h 1 m 6.00001,0 h 1 m 5,0 h 1 M 5,17 h 1 m 2.0000004,0 h 1 M 14,17 h 1 m 4,0 h 1 m 2,0 h 1 m 4,0 h 1 m 8,0 h 1 m 4,0 h 1 m 7,0 h 1 m 5,0 h 1 m 7,0 h 1 m 5,0 h 1 m 7,0 h 1 m 5,0 h 1 m 6,0 h 1 m 5,0 h 0.999996 M 106,17 h 1 m 5.00001,0 h 2 m 5,0 h 1 M 4,18 h 1 m 3.0000004,0 h 1 M 13,18 h 1 m 5,0 h 1 m 2,0 h 1 m 4,0 h 1 m 8,0 h 1 m 4,0 h 1 m 7,0 h 1 m 5,0 h 1 m 7,0 h 1 m 4,0 h 1 m 8,0 h 1 m 5,0 h 1 m 6,0 h 1 m 5,0 h 0.999996 M 105,18 h 1 m 6.00001,0 h 1 m 1,0 h 1 m 4,0 h 1 M 4,19 h 1 m 3.0000004,0 h 1 M 11,19 h 2 m 5,0 h 1 m 2,0 h 1 m 5,0 h 1 m 8,0 h 1 m 4,0 h 1 m 7,0 h 1 m 5,0 h 1 m 6,0 h 1 m 5,0 h 1 m 8,0 h 1 m 5,0 h 1 m 6,0 h 1 m 5,0 h 0.999996 M 105,19 h 1 m 5.00001,0 h 1 m 2,0 h 1 m 5,0 h 1 M 4,20 h 1 m 3.0000004,0 H 11 m 6,0 h 1 m 3,0 h 1 m 5,0 h 1 m 8,0 h 1 m 4,0 h 1 m 7,0 h 1 m 5,0 h 1 m 6,0 h 1 m 5,0 h 1 m 8,0 h 1 m 5,0 h 1 m 6,0 h 1 m 5,0 h 0.999996 M 105,20 h 1 m 5.00001,0 h 1 m 2,0 h 1 m 5,0 h 1 M 3,21 h 1 m 4.0000004,0 h 1 M 17,21 h 1 m 3,0 h 1 m 4,0 h 1 m 9,0 h 1 m 4,0 h 1 m 7,0 h 1 m 5,0 h 1 m 6,0 h 1 m 5,0 h 1 m 8,0 h 1 m 5,0 h 1 m 6,0 h 1 m 4,0 h 1 m 8,0 h 1 m 6.00001,0 h 1 m 2,0 h 1 m 5,0 h 1 M 3,22 h 1 m 12,0 h 1 m 4,0 h 1 m 4,0 h 1 m 9,0 h 1 m 4,0 h 1 m 7,0 h 1 m 4,0 h 1 m 7,0 h 1 m 5,0 h 1 m 8,0 h 1 m 5,0 h 1 m 6,0 h 1 m 4,0 h 1 m 8,0 h 1 m 5.00001,0 h 1 m 3,0 h 1 m 6,0 h 1 M 3,23 h 1 m 11,0 h 1 m 5,0 h 1 m 4,0 h 1 m 8,0 h 1 m 5,0 h 1 m 6,0 h 1 m 5,0 h 1 m 7,0 h 1 m 4,0 h 1 m 9,0 h 1 m 4,0 h 1 m 6,0 h 1 m 5,0 h 1 m 8,0 h 1 m 5.00001,0 h 4 m 8,0 h 2 M 3,24 h 1 m 10,0 h 1 m 5,0 h 1 m 5,0 h 1 m 8,0 h 1 m 5,0 h 1 m 6,0 h 1 m 5,0 h 1 m 7,0 h 1 m 4,0 h 1 m 8,0 h 1 m 5,0 h 1 m 6,0 h 1 m 5,0 h 1 m 7,0 h 1 m 20.00001,0 h 1 M 2,25 h 1 m 11,0 h 1 m 5,0 h 1 m 5,0 h 1 m 8,0 h 1 m 5,0 h 1 m 6,0 h 1 m 5,0 h 1 m 7,0 h 1 m 4,0 h 1 m 8,0 h 1 m 5,0 h 1 m 6,0 h 1 m 5,0 h 1 m 7,0 h 1 m 18.00001,0 h 2 M 2,26 h 1 m 10,0 h 1 m 6,0 h 1 m 5,0 h 1 m 8,0 h 1 m 4,0 h 1 m 7,0 h 1 m 5,0 h 1 m 7,0 h 1 m 4,0 h 1 m 8,0 h 1 m 5,0 h 1 m 6,0 h 1 m 5,0 h 1 m 6,0 h 1 m 18.00001,0 h 1 M 2,27 h 1 m 5.0000004,0 h 1 M 14,27 h 1 m 5,0 h 1 m 5,0 h 1 m 7,0 h 1 m 5,0 h 1 m 7,0 h 1 m 4,0 h 1 m 8,0 h 1 m 4,0 h 1 m 7,0 h 1 m 6,0 h 1 m 6,0 h 1 m 5,0 h 1 m 6,0 h 1 m 11.00001,0 h 2 m 5,0 h 1 M 2,28 h 1 m 4.0000004,0 h 2 M 15,28 h 1 m 4,0 h 1 m 4,0 h 1 m 8,0 h 1 m 5,0 h 1 m 7,0 h 1 m 4,0 h 1 m 7,0 h 1 m 5,0 h 1 m 7,0 h 1 m 6,0 h 1 m 6,0 h 1 m 5,0 h 1 m 6,0 h 1 m 8.00001,0 h 3 m 1,0 h 1 m 5,0 h 1 M 2,29 h 1 m 4.0000004,0 h 1 m 1,0 H 10 m 5,0 h 1 m 4,0 h 1 m 4,0 h 1 m 7,0 h 1 m 6,0 h 1 m 6,0 h 1 m 5,0 h 1 m 7,0 h 1 m 5,0 h 1 m 6,0 h 1 m 7,0 h 1 m 5,0 h 1 m 6,0 h 1 m 5,0 h 1 m 6.00001,0 h 3 m 4,0 h 1 m 5,0 h 1 M 2,30 h 1 m 4.0000004,0 h 1 m 1,0 H 10 m 6,0 h 1 m 3,0 h 1 m 5,0 h 1 m 3,0 h 3 m 7,0 h 1 m 6,0 h 1 m 5,0 h 1 m 7,0 h 1 m 5,0 h 1 m 4,0 h 2 m 8,0 h 1 m 5,0 h 1 m 6,0 h 1 m 5,0 h 1 m 6.00001,0 h 1 m 6,0 h 1 m 5,0 h 1 M 2,31 h 1 m 3,0 H 7.0000004 M 10,31 h 1 m 6,0 h 1 m 2,0 h 1 m 6,0 h 3 m 10,0 h 1 m 6,0 h 1 m 5,0 h 1 m 7,0 h 1 m 6,0 h 1 m 2,0 h 1 m 10,0 h 1 m 5,0 h 1 m 5,0 h 1 m 4.999996,0 H 101 m 6,0 h 1.00001 m 7,0 h 1 m 5,0 h 1 M 1,32 h 1 m 4,0 H 7.0000004 M 10,32 h 1 m 7,0 h 1 m 2,0 h 1 m 18,0 h 1 m 6,0 h 1 m 5,0 h 1 m 7,0 h 1 m 6,0 h 3 m 10,0 h 1 m 6,0 h 1 m 5,0 h 1 m 4.999996,0 H 101 m 6,0 h 1.00001 m 8,0 h 1 m 4,0 h 1 M 1,33 h 1 m 4,0 H 7.0000004 M 11,33 h 1 m 6,0 h 1 m 2,0 h 1 m 18,0 h 1 m 6,0 h 1 m 5,0 h 1 m 8,0 h 1 m 18,0 h 1 m 6,0 h 1 m 5,0 h 1 m 3.999996,0 h 1 M 106,33 h 1 m 9.00001,0 h 1 m 4,0 h 1 M 1,34 h 1 m 4,0 H 7.0000004 M 12,34 h 1 m 6,0 h 1 m 2,0 h 1 m 17,0 h 1 m 6,0 h 1 m 5,0 h 1 m 8,0 h 1 m 18,0 h 1 m 6,0 h 1 m 5,0 h 1 m 3.999996,0 h 1 M 106,34 h 1 m 9.00001,0 h 1 m 4,0 h 1 M 1,35 h 1 m 4,0 H 7.0000004 M 13,35 h 1 m 6,0 h 1 m 2,0 h 1 m 9,0 h 2 m 4,0 h 1 m 7,0 h 1 m 5,0 h 1 m 9,0 h 1 m 10,0 h 2 m 5,0 h 1 m 6,0 h 1 m 5,0 h 1 m 4.999996,0 H 101 m 4,0 h 1 m 10.00001,0 h 1 m 4,0 h 1 M 2,36 h 2 m 2,0 H 7.0000004 M 14,36 h 1 m 6,0 h 1 m 1,0 h 1 m 7,0 h 2 m 1,0 h 1 m 4,0 h 1 m 7,0 h 1 m 5,0 h 1 m 10,0 h 2 m 6,0 h 2 m 2,0 h 1 m 4,0 h 1 m 6,0 h 1 m 4,0 h 1 m 5.999996,0 H 101 m 3,0 h 1 m 11.00001,0 h 1 m 4,0 h 1 M 4,37 H 7.0000004 M 15,37 h 1 m 5,0 h 1 m 2,0 h 2 m 3,0 h 2 m 4,0 h 1 m 3,0 h 1 m 7,0 h 1 m 4,0 h 1 m 13,0 h 6 m 4,0 h 1 m 4,0 h 1 m 6,0 h 1 m 4,0 h 1 m 7,0 h 1 m 2,0 h 1 m 11.00001,0 h 1 m 4,0 h 1 M 16,38 h 1 m 5,0 h 1 m 3,0 h 3 m 6,0 h 1 m 3,0 h 1 m 7,0 h 1 m 4,0 h 1 m 23,0 h 1 m 4,0 h 1 m 6,0 h 1 m 4,0 h 1 m 8,0 h 2 m 13.00001,0 h 1 m 4,0 h 1 M 17,39 h 2 m 4,0 h 1 m 11,0 h 1 m 3,0 h 1 m 7,0 h 1 m 4,0 h 1 m 23,0 h 1 m 3,0 h 1 m 7,0 h 1 m 4,0 h 1 m 23.00001,0 h 1 m 4,0 h 1 M 19,40 h 1 m 3,0 h 1 m 12,0 h 3 m 9,0 h 1 m 3,0 h 1 m 24,0 h 3 m 9,0 h 1 m 2,0 h 1 m 25.00001,0 h 1 m 3,0 h 1 M 20,41 h 3 m 25,0 h 1 m 1,0 h 2 m 37,0 h 1 m 2,0 h 1 m 25.00001,0 h 1 m 3,0 h 1 M 49,42 h 1 m 40,0 h 3 m 26.00001,0 h 1 m 2,0 h 1 m -4,1 h 4"
         id="path5270" />
      <path
         style="color:#000000;fill:#181425;-inkscape-stroke:none"
         d="m 28,-0.5 v 1 h 3 v -1 z m 3,1 v 1 h 1 v -1 z m 1,1 v 1 1 h 1 v -1 -1 z m 0,2 h -1 v 1 h 1 z m -1,1 h -1 v 1 h 1 z m -1,1 h -1 v 1 h 1 z m -1,0 v -1 h -1 v 1 z m -1,-1 v -1 h -1 v 1 z m -1,-1 v -1 -1 h -1 v 1 1 z m 0,-2 h 1 v -1 h -1 z m 10,-2 v 1 h 1 v -1 z m 1,1 v 1 h 1 v -1 z m 1,1 v 1 1 h 1 v -1 -1 z m 0,2 h -1 v 1 h 1 z m -1,1 h -1 v 1 h 1 z m -1,1 h -1 v 1 h 1 z m -1,0 v -1 h -1 v 1 z m -1,-1 v -1 -1 h -1 v 1 1 z m 0,-2 h 1 v -1 h -1 z m 1,-1 h 1 v -1 h -1 z m 34,-1 v 1 h 3 v -1 z m 3,1 v 1 1 h 1 v -1 -1 z m 0,2 h -1 v 1 1 h 1 v -1 z m -1,2 h -1 v 1 h 1 z m -1,1 h -1 v 1 h 1 z m -1,0 v -1 h -1 v 1 z m -1,-1 v -1 h -1 v 1 z m -1,-1 v -1 -1 h -1 v 1 1 z m 0,-2 h 2 v -1 h -2 z m 11,-2 v 1 h 1 v -1 z m 1,1 v 1 h 1 v -1 z m 1,1 v 1 1 h 1 v -1 -1 z m 0,2 h -1 v 1 h 1 z m -1,1 h -1 v 1 h 1 z m -1,1 h -2 v 1 h 2 z m -2,0 v -1 -1 h -1 v 1 1 z m -1,-2 v -1 h -1 v 1 z m 0,-1 h 1 v -1 h -1 z m 1,-1 h 2 v -1 h -2 z m 34,5 v 1 h 5 v -1 z m 5,1 v 1 h 1 v 1 h 1 v -1 -1 z m 2,2 v 1 1 1 1 h 1 v -1 -1 -1 -1 z m 1,4 v 1 1 1 1 h 1 v -1 -1 -1 -1 z m 1,4 v 1 1 1 h 1 v -1 -1 -1 z m 1,3 v 1 h 1 v -1 z m 1,1 v 1 h 2 v -1 z m 2,1 v 1 h 1 v -1 z m 0,1 h -2 v 1 h 2 z m -2,1 h -1 v 1 1 1 1 1 1 1 1 1 1 1 1 h 1 v -1 -1 -1 -1 -1 -1 -1 -1 -1 -1 -1 z m 0,12 v 1 1 1 1 1 h -2 v -1 h -1 v 1 1 h 4 v -1 -1 -1 -1 -1 -1 z m -3,4 v -1 -1 h -1 v 1 1 z m -1,-2 v -1 -1 h -1 v 1 1 z m -1,-2 v -1 -1 -1 -1 -1 -1 h -1 v 1 1 1 1 1 1 z m -1,-6 v -1 -1 -1 -1 -1 h -2 v 1 h 1 v 1 1 1 1 z m -2,-4 h -3 v 1 h 3 z m -3,1 h -3 v 1 1 h 1 v -1 h 2 z m -3,2 h -1 v 1 1 h 1 v -1 z m -1,2 h -1 v 1 1 h 1 v -1 z m -1,2 h -1 v 1 h 1 z m -1,1 h -1 v 1 1 h 1 v -1 z m -1,2 h -2 v 1 h 2 z m -2,0 v -1 h -1 v 1 z m -1,-1 v -1 -1 h -1 v 1 1 z m -1,-2 v -1 -1 h -1 v 1 1 z m 0,-2 h 1 v -1 -1 h -1 v 1 z m 1,-2 h 1 v -1 -1 h -1 v 1 z m 1,-2 h 1 v -1 -1 -1 h -1 v 1 1 z m 1,-3 h 1 v -1 -1 h -1 v 1 z m 1,-2 h 1 v -1 -1 -1 h -1 v 1 1 z m 1,-3 h 1 v -1 -1 -1 h -1 v 1 1 z m 1,-3 h 1 v -1 -1 h -1 v 1 z m 1,-2 h 1 v -1 -1 -1 h -1 v 1 1 z m 1,-3 h 1 v -1 -1 h -1 v 1 z m 1,-2 h 1 v -1 h 1 v -1 h -2 v 1 z M 8,8.5 v 1 h 7 v -1 z m 7,1 v 1 h 2 v -1 z m 2,1 v 1 h 1 v -1 z m 1,1 v 1 h 1 v -1 z m 1,1 v 1 1 1 1 1 1 h 1 v -1 -1 -1 -1 -1 -1 z m 0,6 h -1 v 1 h 1 z m -1,1 h -1 v 1 1 h 1 v -1 z m -1,2 h -1 v 1 h 1 z m -1,1 h -1 v 1 h 1 z m -1,1 h -1 v 1 1 h 1 v -1 z m -1,2 h -1 v 1 h 1 z m 0,1 v 1 h 1 v -1 z m 1,1 v 1 1 h 1 v -1 -1 z m 1,2 v 1 h 1 v -1 z m 1,1 v 1 h 1 v -1 z m 1,1 v 1 1 h 1 v -1 -1 z m 1,2 v 1 h 1 v -1 z m 1,1 v 1 h 1 v -1 z m 1,1 v 1 1 h 1 v -1 -1 z m 1,2 v 1 h 1 v -1 z m 1,1 v 1 1 h 1 v -1 -1 z m 0,2 h -3 v 1 h 3 z m -3,0 v -1 h -1 v 1 z m -1,-1 v -1 h -2 v 1 z m -2,-1 v -1 h -1 v 1 z m -1,-1 v -1 h -1 v 1 z m -1,-1 v -1 h -1 v 1 z m -1,-1 v -1 h -1 v 1 z m -1,-1 v -1 h -1 v 1 z m -1,-1 v -1 h -1 v 1 z m -1,-1 v -1 -1 h -1 v 1 1 z m -1,-2 v -1 -1 H 9 v 1 1 z m -1,-2 v -1 -1 H 8 v 1 H 7 v 1 1 1 h 1 v -1 -1 z m -2,2 H 6 v 1 1 1 1 1 1 H 4 v 1 h 3 v -1 -1 -1 -1 -1 -1 z m -3,6 v -1 H 2 v 1 z m -2,-1 v -1 -1 -1 -1 H 1 v 1 1 1 1 z m 0,-4 h 1 v -1 -1 -1 -1 -1 -1 -1 H 2 v 1 1 1 1 1 1 z m 1,-7 h 1 v -1 -1 -1 -1 H 3 v 1 1 1 z m 1,-4 h 1 v -1 -1 -1 H 4 v 1 1 z m 1,-3 h 1 v -1 -1 -1 H 4 v -1 H 3 v 1 1 h 2 v 1 z m -2,-4 v -1 -1 h 1 v -1 H 2 v 1 1 1 z m 1,-3 h 4 v -1 H 4 Z m 44,-2 v 1 h 17 v -1 z m 17,1 v 1 1 h 1 v -1 -1 z m 1,0 h 1 v -1 h -1 z m 1,0 v 1 h 1 v -1 z m 1,1 v 1 h 1 v -1 z m 1,1 v 1 1 1 1 1 1 h 1 v -1 -1 -1 -1 -1 -1 z m 0,6 h -1 v 1 1 1 1 1 h 1 v -1 -1 -1 -1 z m -1,5 h -1 v 1 1 1 1 1 1 1 1 h 1 v -1 -1 -1 -1 -1 -1 -1 z m 0,8 v 1 1 h 3 v -1 h -2 v -1 z m 3,1 h 1 v -1 h -1 z m 1,-1 h 2 v -1 h -2 z m 2,-1 h 1 v -1 h -1 z m 1,-1 h 1 v -1 -1 h -1 v 1 z m 1,-2 h 1 v -1 -1 -1 h -1 v 1 1 z m 1,-3 h 1 v -1 -1 -1 -1 -1 -1 -1 -1 -1 -1 -1 -1 h -1 v 1 1 1 1 1 1 1 1 1 1 1 z m 1,-12 h 3 v -1 h -3 z m 3,0 v 1 h 1 v -1 z m 1,0 h 2 v -1 h -2 z m 2,-1 h 3 v -1 h -3 z m 3,-1 h 17 v 1 h 1 v -1 -1 H 87 Z m 18,1 v 1 1 h 1 v -1 -1 z m 0,2 h -7 v 1 h 7 z m -7,1 h -1 v 1 1 h 1 v -1 z m -1,2 h -1 v 1 1 1 1 1 h 1 v -1 -1 -1 -1 z m -1,5 h -1 v 1 1 1 1 1 1 1 1 1 1 h 1 v -1 -1 -1 -1 -1 -1 -1 -1 -1 z m -1,10 h -1 v 1 1 1 1 1 h 1 v -1 -1 -1 -1 z m -1,5 h -1 v 1 1 1 1 h 1 v -1 -1 -1 z m -1,4 h -1 v 1 1 h -2 v 1 h 3 v -1 -1 z m -3,2 v -1 -1 h -1 v 1 1 z m -1,-2 v -1 -1 -1 -1 -1 -1 -1 -1 -1 -1 -1 h -1 v 1 1 1 1 1 1 1 1 1 1 1 z m 0,-11 h 1 v -1 -1 -1 -1 -1 -1 h -1 v 1 1 1 1 1 z m 1,-6 h 1 v -1 -1 -1 -1 -1 -1 h -1 v 1 1 1 1 1 z m 1,-6 h 1 v -1 -1 -1 h -6 v 1 h 5 v 1 z m -5,-2 h -3 v 1 1 1 1 1 1 1 1 h 1 v -1 -1 -1 -1 -1 -1 -1 h 2 z m -3,8 h -1 v 1 1 1 1 1 1 1 1 1 h 1 v -1 -1 -1 -1 -1 -1 -1 -1 z m -1,9 h -1 v 1 1 1 1 1 1 1 h 1 v -1 -1 -1 -1 -1 -1 z m -1,7 h -1 v 1 h 1 z m -1,1 h -3 v 1 h 3 z m -3,0 v -1 -1 -1 -1 h -1 v 1 1 1 1 z m -1,-4 v -1 h -2 v 1 z m -2,0 h -2 v 1 h 2 z m -2,1 h -6 v 1 h 6 z m -6,0 v -1 h -2 v 1 z m -2,-1 v -1 h -1 v 1 z m -1,-1 v -1 -1 h -1 v 1 1 z m -1,-2 v -1 -1 -1 -1 -1 h -1 v 1 1 1 1 1 z m 0,-5 h 1 v -1 -1 -1 -1 -1 -1 -1 -1 -1 h -1 v 1 1 1 1 1 1 1 1 z m 1,-9 h 1 v -1 -1 -1 -1 -1 h -1 v 1 1 1 1 z m 0,-5 v -1 h -5 v 1 z m -5,0 h -2 v 1 1 1 h 1 v -1 -1 h 1 z m -2,3 h -1 v 1 1 1 1 1 h 1 v -1 -1 -1 -1 z m -1,5 h -1 v 1 1 1 1 1 h 1 v -1 -1 -1 -1 z m -1,5 h -1 v 1 1 1 1 1 1 1 1 1 1 h 1 v -1 -1 -1 -1 -1 -1 -1 -1 -1 z m -1,10 h -1 v 1 1 1 1 h 1 v -1 -1 -1 z m -1,4 h -2 v 1 h 2 z m -2,1 h -1 v 1 h 1 z m -1,0 v -1 -1 h -1 v 1 1 z m -1,-2 v -1 -1 -1 -1 -1 -1 -1 -1 -1 -1 -1 h -1 v 1 1 1 1 1 1 1 1 1 1 1 z m 0,-11 h 1 v -1 -1 -1 -1 -1 -1 h -1 v 1 1 1 1 1 z m 1,-6 h 1 v -1 -1 -1 -1 -1 -1 h -1 v 1 1 1 1 1 z m 1,-6 h 1 v -1 -1 -1 H 41 v 1 1 1 1 1 1 1 1 1 1 1 1 h 1 v -1 -1 -1 -1 -1 -1 -1 -1 -1 -1 -1 h 8 v 1 z m -9,9 h -1 v 1 1 1 1 1 1 1 1 1 h 1 v -1 -1 -1 -1 -1 -1 -1 -1 z m -1,9 h -1 v 1 1 1 1 1 h 1 v -1 -1 -1 -1 z m -1,5 h -3 v 1 h 3 z m -3,0 v -1 -1 -1 h -1 v 1 1 1 z m -1,-3 v -1 -1 h -2 v 1 h 1 v 1 z m -2,-1 h -2 v 1 h 2 z m -2,1 h -2 v 1 h 2 z m -2,1 h -3 v 1 h 3 z m -3,0 v -1 h -2 v 1 z m -2,-1 v -1 -1 h -1 v 1 1 z m -1,-2 v -1 h -1 v 1 z m -1,-1 v -1 -1 h -1 v 1 1 z m -1,-2 v -1 -1 -1 -1 -1 -1 -1 -1 h -1 v 1 1 1 1 1 1 1 1 z m 0,-8 h 1 v -1 -1 -1 -1 -1 h -1 v 1 1 1 1 z m 1,-5 h 1 v -1 -1 -1 -1 -1 h -1 v 1 1 1 1 z m 1,-5 h 1 v -1 -1 h 1 v -1 h -2 v 1 1 z m 2,-3 h 3 v -1 h -3 z m 3,0 v 1 1 1 1 h 1 v -1 -1 -1 -1 z m 0,4 h -1 v 1 1 1 1 1 1 h 1 v -1 -1 -1 -1 -1 z m -1,6 h -1 v 1 1 1 1 1 1 1 h 1 v -1 -1 -1 -1 -1 -1 z m -1,7 h -1 v 1 1 h 1 v -1 z m 0,2 v 1 h 1 v -1 z m 1,1 v 1 h 3 v -1 z m 3,0 h 3 v -1 h -3 z m 3,-1 h 1 v -1 h -1 z m 1,-1 h 1 v -1 -1 h -1 v 1 z m 1,-2 h 1 v -1 -1 -1 -1 h -1 v 1 1 1 z m 1,-4 h 1 v -1 -1 -1 -1 -1 -1 -1 -1 -1 -1 -1 h 1 v -1 h -2 v 1 1 1 1 1 1 1 1 1 1 1 z m 2,-12 h 2 v -1 h -2 z m 2,0 v 1 1 1 h 1 v -1 -1 h 2 v -1 z m 3,0 h 5 v -1 h -5 z m 20,2 h 1 v 1 h 1 v -1 -1 h -2 z m 20,2 v -1 -1 h -1 v 1 1 z m -73,-2 v 1 h 5 v -1 z m 5,1 v 1 1 1 h 1 v -1 -1 -1 z m 0,3 h -1 v 1 h 1 z m -1,1 h -1 v 1 h 1 z m -1,1 h -2 v 1 h 2 z m -2,1 H 9 v -1 -1 -1 -1 H 8 v 1 1 1 1 1 1 h 1 v -1 h 2 z m -2,-4 h 1 v -1 -1 H 9 v 1 z m 104,0 v 1 h -1 v 1 1 h 1 v -1 h 1 v -1 -1 z m 1,2 v 1 1 1 1 1 h 1 v -1 -1 -1 -1 -1 z m 0,5 h -3 v -1 h -1 v 1 1 h 4 z m -3,-1 h 1 v -1 -1 -1 h -1 v 1 1 z"
         id="path5272" />
    </g>
    <g
       id="path4">
      <path
         style="color:#000000;fill:#000000;-inkscape-stroke:none"
         d="m 28,1 h 3 m 6,0 h 1 M 27,2 h 5 m 4,0 h 3 m 31,0 h 3 m 6,0 h 1 M 27,3 h 5 m 3,0 h 4 m 29,0 h 5 m 4,0 h 4 M 28,4 h 3 m 4,0 h 3 m 30,0 h 4 m 4,0 h 5 M 29,5 h 1 m 6,0 h 1 m 32,0 h 3 m 5,0 h 3 M 70,6 h 1 m 6,0 h 2 m 32.00001,2.9999996 h 5 m -108.0000096,1 H 15 m 33,0 h 17 m 1,0 h 1 m 20,0 h 17 m 6.00001,0 h 7 M 4,11 h 13 m 8,0 h 3 m 10,0 h 2 m 3,0 h 22 m 1,0 h 2 m 16,0 h 21 m 4.00001,0 h 9 M 3,12 h 15 m 6,0 h 4 m 9,0 h 3 m 1,0 h 22 m 2,0 h 4 m 9,0 h 3 m 1,0 h 23 m 4.00001,0 h 9 M 3,13 h 7 m 5,0 h 4 m 5,0 h 4 m 9,0 h 3 m 1,0 h 17 m 7,0 h 4 m 9,0 h 4 m 1,0 h 14.999996 m 10.000014,0 h 10 M 4,14 H 9.0000004 M 16,14 h 3 m 4,0 h 5 m 9,0 h 4 m 10,0 h 5 m 8,0 h 5 m 9,0 h 4 m 1,0 h 3 m 6,0 h 4.999996 m 11.000014,0 h 10 M 6,15 H 9.0000004 M 16,15 h 3 m 4,0 h 4 m 10,0 h 4 m 10,0 h 5 m 8,0 h 5 m 9,0 h 5 m 9,0 h 4.999996 m 11.000014,0 h 11 M 6,16 H 8.0000004 M 16,16 h 3 m 4,0 h 4 m 10,0 h 4 m 10,0 h 5 m 8,0 h 5 m 9,0 h 5 m 9,0 h 4 m 11,0 h 6.00001 m 1,0 h 5 M 6,17 H 8.0000004 M 15,17 h 4 m 4,0 h 4 m 10,0 h 4 m 9,0 h 5 m 9,0 h 5 m 9,0 h 5 m 8,0 h 5 m 11,0 h 5.00001 m 2,0 h 5 M 5,18 H 8.0000004 M 14,18 h 5 m 4,0 h 4 m 10,0 h 4 m 9,0 h 5 m 9,0 h 4 m 10,0 h 5 m 8,0 h 5 m 10,0 h 6.00001 m 3,0 h 4 M 5,19 H 8.0000004 M 13,19 h 5 m 4,0 h 5 m 10,0 h 4 m 9,0 h 5 m 8,0 h 5 m 10,0 h 5 m 8,0 h 5 m 10,0 h 5.00001 m 4,0 h 5 M 5,20 H 8.0000004 M 11,20 h 6 m 5,0 h 5 m 10,0 h 4 m 9,0 h 5 m 8,0 h 5 m 10,0 h 5 m 8,0 h 5 m 10,0 h 5.00001 m 4,0 h 5 M 4,21 h 4.0000004 m 1,0 H 17 m 5,0 h 4 m 11,0 h 4 m 9,0 h 5 m 8,0 h 5 m 10,0 h 5 m 8,0 h 4 m 10,0 h 6.00001 m 4,0 h 5 M 4,22 h 12 m 6,0 h 4 m 11,0 h 4 m 9,0 h 4 m 9,0 h 5 m 10,0 h 5 m 8,0 h 4 m 10,0 h 5.00001 m 5,0 h 6 M 4,23 h 11 m 7,0 h 4 m 10,0 h 5 m 8,0 h 5 m 9,0 h 4 m 11,0 h 4 m 8,0 h 5 m 10,0 h 5.00001 m 4,0 h 8 M 4,24 h 10 m 7,0 h 5 m 10,0 h 5 m 8,0 h 5 m 9,0 h 4 m 10,0 h 5 m 8,0 h 5 m 9,0 h 20.00001 M 3,25 h 11 m 7,0 h 5 m 10,0 h 5 m 8,0 h 5 m 9,0 h 4 m 10,0 h 5 m 8,0 h 5 m 9,0 h 18.00001 M 3,26 h 10 m 8,0 h 5 m 10,0 h 4 m 9,0 h 5 m 9,0 h 4 m 10,0 h 5 m 8,0 h 5 m 8,0 h 18.00001 M 3,27 h 5.0000004 m 1,0 H 14 m 7,0 h 5 m 9,0 h 5 m 9,0 h 4 m 10,0 h 4 m 9,0 h 6 m 8,0 h 5 m 8,0 h 11.00001 m 2,0 h 5 M 3,28 h 4.0000004 m 2,0 H 15 m 6,0 h 4 m 10,0 h 5 m 9,0 h 4 m 9,0 h 5 m 9,0 h 6 m 8,0 h 5 m 8,0 h 8.00001 m 5,0 h 5 M 3,29 H 7.0000004 M 10,29 h 5 m 6,0 h 4 m 9,0 h 6 m 8,0 h 5 m 9,0 h 5 m 8,0 h 7 m 7,0 h 6 m 7,0 h 6.00001 m 8,0 h 5 M 3,30 H 7.0000004 M 10,30 h 6 m 5,0 h 5 m 7,0 h 7 m 8,0 h 5 m 9,0 h 5 m 7,0 h 8 m 7,0 h 6 m 7,0 h 6.00001 m 8,0 h 5 M 3,31 h 3 m 5,0 h 6 m 4,0 h 6 m 3,0 h 10 m 8,0 h 5 m 9,0 h 6 m 4,0 h 10 m 7,0 h 5 m 7,0 h 6 m 9.00001,0 h 5 M 2,32 h 4 m 5,0 h 7 m 4,0 h 18 m 8,0 h 5 m 9,0 h 6 m 3,0 h 10 m 8,0 h 5 m 7,0 h 6 m 10.00001,0 h 4 M 2,33 h 4 m 6,0 h 6 m 4,0 h 18 m 8,0 h 5 m 10,0 h 18 m 8,0 h 5 m 5.999996,0 H 106 m 11.00001,0 h 4 M 2,34 h 4 m 7,0 h 6 m 4,0 h 17 m 8,0 h 5 m 10,0 h 18 m 8,0 h 5 m 5.999996,0 H 106 m 11.00001,0 h 4 M 2,35 h 4 m 8,0 h 6 m 4,0 h 9 m 2,0 h 4 m 9,0 h 5 m 11,0 h 10 m 2,0 h 5 m 8,0 h 5 m 7,0 h 4 m 12.00001,0 h 4 M 4,36 h 2 m 9,0 h 6 m 3,0 h 7 m 4,0 h 4 m 9,0 h 5 m 13,0 h 6 m 5,0 h 4 m 8,0 h 4 m 8,0 h 3 m 13.00001,0 h 4 M 16,37 h 5 m 5,0 h 3 m 7,0 h 3 m 9,0 h 4 m 25,0 h 4 m 8,0 h 4 m 9,0 h 2 m 13.00001,0 h 4 M 17,38 h 5 m 14,0 h 3 m 9,0 h 4 m 25,0 h 4 m 8,0 h 4 m 25.00001,0 h 4 M 19,39 h 4 m 13,0 h 3 m 9,0 h 4 m 25,0 h 3 m 9,0 h 4 m 25.00001,0 h 4 M 20,40 h 3 m 26,0 h 3 m 38,0 h 2 m 27.00001,0 h 3 M 49,41 h 1 m 40,0 h 2 m 27.00001,0 h 3 m -2,1 h 2"
         id="path4887" />
      <path
         style="color:#000000;fill:#ffffff;-inkscape-stroke:none"
         d="m 28,0.5 v 1 h -1 v 1 1 h 1 v 1 h 1 v 1 h 1 v -1 h 1 v -1 h 1 v -1 -1 h -1 v -1 z m 9,0 v 1 h -1 v 1 h -1 v 1 1 h 1 v 1 h 1 v -1 h 1 v -1 h 1 v -1 -1 h -1 v -1 z m 33,1 v 1 h -2 v 1 1 h 1 v 1 h 1 v 1 h 1 v -1 h 1 v -1 -1 h 1 v -1 -1 z m 9,0 v 1 h -2 v 1 h -1 v 1 h 1 v 1 1 h 2 v -1 h 1 v -1 h 1 v -1 -1 h -1 v -1 z m 32,7 v 1 h -1 v 1 h -1 v 1 1 h -1 v 1 1 1 h -1 v 1 1 h -1 v 1 1 1 h -1 v 1 1 1 h -1 v 1 1 h -1 v 1 1 1 h -1 v 1 1 h -1 v 1 1 h -1 v 1 1 h 1 v 1 1 h 1 v 1 h 2 v -1 -1 h 1 v -1 h 1 v -1 -1 h 1 v -1 -1 h 1 v -1 -1 h 3 v -1 h 3 v -1 h 2 v 1 1 1 1 1 h 1 v 1 1 1 1 1 1 h 1 v 1 1 h 1 v 1 1 h 1 v 1 h 2 v -1 -1 -1 -1 -1 h -1 v -1 -1 -1 -1 -1 -1 -1 -1 -1 -1 -1 -1 h 1 v -1 h 2 v -1 h -2 v -1 h -1 v -1 h -1 v -1 -1 -1 h -1 v -1 -1 -1 -1 h -1 v -1 -1 -1 -1 h -1 v -1 h -1 v -1 z M 8,9.5 v 1 H 4 v 1 H 3 v 1 1 h 1 v 1 h 2 v 1 1 1 H 5 v 1 1 1 H 4 v 1 1 1 1 H 3 v 1 1 1 1 1 1 1 H 2 v 1 1 1 1 h 2 v 1 h 2 v -1 -1 -1 -1 -1 -1 h 1 v -1 -1 -1 h 1 v -1 h 1 v 1 1 h 1 v 1 1 h 1 v 1 1 h 1 v 1 h 1 v 1 h 1 v 1 h 1 v 1 h 1 v 1 h 1 v 1 h 2 v 1 h 1 v 1 h 3 v -1 -1 h -1 v -1 h -1 v -1 -1 h -1 v -1 h -1 v -1 h -1 v -1 -1 h -1 v -1 h -1 v -1 h -1 v -1 -1 h -1 v -1 h -1 v -1 h 1 v -1 -1 h 1 v -1 h 1 v -1 h 1 v -1 -1 h 1 v -1 h 1 v -1 -1 -1 -1 -1 -1 h -1 v -1 h -1 v -1 h -2 v -1 z m 40,0 v 1 h -5 v 1 h -2 v 1 1 h 10 v 1 1 1 h -1 v 1 1 1 1 1 1 h -1 v 1 1 1 1 1 1 h -1 v 1 1 1 1 1 1 1 1 1 1 1 h 1 v 1 1 h 1 v -1 h 2 v -1 -1 -1 -1 h 1 v -1 -1 -1 -1 -1 -1 -1 -1 -1 -1 h 1 v -1 -1 -1 -1 -1 h 1 v -1 -1 -1 -1 -1 h 1 v -1 -1 -1 h 2 v -1 h 5 v -1 h 2 v -1 -1 z m 17,2 v 1 1 h -1 v 1 1 1 1 1 h -1 v 1 1 1 1 1 1 1 1 1 h -1 v 1 1 1 1 1 h 1 v 1 1 h 1 v 1 h 2 v 1 h 6 v -1 h 2 v -1 h 2 v 1 h 1 v 1 1 1 1 h 3 v -1 h 1 v -1 -1 -1 -1 -1 -1 -1 h 1 v -1 -1 -1 -1 -1 -1 -1 -1 -1 h 1 v -1 -1 -1 -1 -1 -1 -1 -1 h -1 v -1 -1 h -1 v -1 h -3 v 1 1 1 1 1 1 1 1 1 1 1 1 h -1 v 1 1 1 h -1 v 1 1 h -1 v 1 h -1 v 1 h -2 v 1 h -1 v 1 h -3 v -1 -1 h -1 v -1 -1 -1 -1 -1 -1 -1 -1 h 1 v -1 -1 -1 -1 -1 h 1 v -1 -1 -1 -1 -1 -1 h -1 v -1 h -1 v -1 h -1 v 1 1 z m 17,1 h 1 v 1 1 h 3 v -1 h 6 v 1 1 1 h -1 v 1 1 1 1 1 1 h -1 v 1 1 1 1 1 1 h -1 v 1 1 1 1 1 1 1 1 1 1 1 h 1 v 1 1 h 2 v -1 -1 h 1 v -1 -1 -1 -1 h 1 v -1 -1 -1 -1 -1 h 1 v -1 -1 -1 -1 -1 -1 -1 -1 -1 -1 h 1 v -1 -1 -1 -1 -1 h 1 v -1 -1 h 1 v -1 h 7 v -1 -1 h -1 v -1 H 87 v 1 h -3 v 1 h -2 z m -41,1 h -1 v -1 -1 -1 h -2 v 1 h -1 v 1 1 1 1 1 1 1 1 1 1 1 h -1 v 1 1 1 1 h -1 v 1 1 h -1 v 1 h -1 v 1 h -3 v 1 h -3 v -1 h -1 v -1 h -1 v -1 -1 h 1 v -1 -1 -1 -1 -1 -1 -1 h 1 v -1 -1 -1 -1 -1 -1 h 1 v -1 -1 -1 -1 h -3 v 1 h -1 v 1 1 h -1 v 1 1 1 1 1 h -1 v 1 1 1 1 1 h -1 v 1 1 1 1 1 1 1 1 h 1 v 1 1 h 1 v 1 h 1 v 1 1 h 2 v 1 h 3 v -1 h 2 v -1 h 2 v -1 h 2 v 1 1 h 1 v 1 1 1 h 3 v -1 -1 -1 -1 -1 h 1 v -1 -1 -1 -1 -1 -1 -1 -1 -1 h 1 v -1 -1 -1 -1 -1 -1 -1 -1 -1 -1 -1 z m -31,-1 h 5 v 1 h 1 v 1 1 1 h -1 v 1 h -1 v 1 h -1 v 1 h -2 v 1 H 9 v 1 H 8 v -1 -1 -1 -1 -1 -1 h 1 v -1 -1 h 1 z m 103,3 h 1 v 1 1 h 1 v 1 1 1 1 1 h -1 v 1 h -4 v -1 -1 h 1 v -1 -1 -1 h 1 v -1 -1 h 1 z"
         id="path4889" />
    </g>
    <g
       id="path6">
      <path
         style="color:#000000;fill:#000000;-inkscape-stroke:none"
         d="m 26,4 h 1 m 0,1 h 1 m 6,0 h 1 m 32,0 h 1 m 7,0 h 1 M 28,6 h 1 m 1,0 h 1 m 4,0 h 1 m 1,0 h 1 m 30,0 h 1 m 6,0 h 1 m -7,1 h 1 m 1,0 h 1 m 4,0 h 1 m 2,0 h 1 m -3,1 h 2 M 65,8.9999996 h 1 m 42.00001,1 h 1 M 1,12 h 1 m 20,0 h 1 m 12,0 h 1 m 71,0 h 1.00001 M 1,13 h 1 m 20,0 h 1 m 12,0 h 1 m 27,0 h 1 m 12,0 h 1 m 28,0 h 1 M 2,14 h 1 m 7,0 h 5 m 20,0 h 1 m 22,0 h 5 m 13,0 h 1 m 20.999996,0 H 105 m 1,0 h 1 M 2,15 h 1 m 11,0 h 1 m 6,0 h 1 m 6,0 h 1 m 6,0 h 1 m 6,0 h 8 m 12,0 h 1 m 13,0 h 1 m 9,0 h 5 m 15,0 h 1 M 4,16 h 1 m 4.0000004,0 H 10 m 4,0 h 1 m 6,0 h 1 m 13,0 h 1 m 13,0 h 1 m 12,0 h 1 m 13,0 h 1 m 7,0 h 2 m 4,0 h 1 m 5.999996,0 h 1 M 4,17 h 1 m 8,0 h 1 m 7,0 h 1 m 13,0 h 1 m 12,0 h 1 m 13,0 h 1 m 13,0 h 1 m 12,0 h 1 m 15,0 h 1 m -94,1 h 1 m 8,0 h 1 m 13,0 h 1 m 12,0 h 1 m 13,0 h 1 m 13,0 h 1 m 12,0 h 1 m 23.00001,0 h 1 M 3,19 h 1 m 6,0 h 1 m 24,0 h 1 m 12,0 h 1 m 12,0 h 1 m 14,0 h 1 m 12,0 h 1 m 14,0 h 1 m 7.00001,0 h 2 M 3,20 h 1 m 16,0 h 1 m 14,0 h 1 m 12,0 h 1 m 12,0 h 1 m 14,0 h 1 m 12,0 h 1 m 14,0 h 1 m 8.00001,0 h 1 M 20,21 h 1 m 6,0 h 1 m 7,0 h 1 m 12,0 h 1 m 12,0 h 1 m 14,0 h 1 m 12,0 h 1 m 6,0 h 0.999996 m 16.000014,0 h 1 M 2,22 h 1 m 17,0 h 1 m 14,0 h 1 m 12,0 h 1 m 12,0 h 1 m 14,0 h 1 m 12,0 h 1 m 13,0 h 1 m 7.00001,0 h 1 m 1,0 h 1 M 2,23 h 1 m 17,0 h 1 m 26,0 h 1 m 13,0 h 1 m 14,0 h 1 m 6,0 h 1 m 4,0 h 1 m 14,0 h 1 M 2,24 h 1 m 31,0 h 1 m 12,0 h 1 m 13,0 h 1 m 13,0 h 1 m 12,0 h 1 m 13,0 h 1 m -84,1 h 1 m 14,0 h 1 m 12,0 h 1 m 13,0 h 1 m 13,0 h 1 m 12,0 h 1 m 13,0 h 1 M 1,26 h 1 m 17,0 h 1 m 14,0 h 1 m 12,0 h 1 m 13,0 h 1 m 13,0 h 1 m 12,0 h 1 m 12,0 h 1 m 20.00001,0 h 2 M 1,27 h 1 m 17,0 h 1 m 27,0 h 1 m 13,0 h 1 m 12,0 h 1 m 13,0 h 1 m 12,0 h 1 M 1,28 h 1 m 17,0 h 1 m 13,0 h 1 m 13,0 h 1 m 12,0 h 1 m 13,0 h 1 m 13,0 h 1 m 12,0 h 1 m 12.00001,0 h 1 M 1,29 h 1 m 6.0000004,0 h 1 M 19,29 h 1 m 12,0 h 1 m 13,0 h 1 m 13,0 h 1 m 12,0 h 1 m 13,0 h 1 m 11.999996,0 H 101 m 10.00001,0 h 4 M 1,30 h 1 m 6.0000004,0 h 1 M 19,30 h 1 m 9,0 h 1 m 16,0 h 1 m 13,0 h 1 m 10,0 h 1 m 15,0 h 1 m 11.999996,0 H 101 m 8.00001,0 h 2 m 3,0 h 1 M 1,31 h 1 m 5.0000004,0 h 1 m 1,0 H 10 m 9,0 h 1 m 26,0 h 1 m 13,0 h 1 m 9,0 h 1 m 16,0 h 1 m 10.999996,0 h 1 m 8.000014,0 h 1 m 5,0 h 1 M 9.0000004,32 H 10 m 10,0 h 1 m 25,0 h 1 m 13,0 h 1 m 21,0 h 1 m 4,0 h 1 m 10.999996,0 h 1 m 15.000014,0 h 1 M 0,33 h 1 m 9,0 h 1 m 9,0 h 1 m 25,0 h 1 m 14,0 h 1 m 25,0 h 1 m 9.999996,0 h 1 M 107,33 h 1.00001 m 7,0 h 1 M 0,34 h 1 m 10,0 h 1 m 9,0 h 1 m 24,0 h 1 m 14,0 h 1 m 25,0 h 1 m 9.999996,0 h 1 m 16.000014,0 h 1 M 0,35 h 1 m 11,0 h 1 m 9,0 h 1 m 23,0 h 1 m 15,0 h 1 m 24,0 h 1 m 10.999996,0 h 1 M 106,35 h 1 m 8.00001,0 h 1 M 1,36 h 1 m 11,0 h 1 m 8,0 h 1 m 10,0 h 1 m 12,0 h 1 m 16,0 h 1 m 10,0 h 2 m 11,0 h 1 m 10.999996,0 h 1 M 105,36 h 1 m 9.00001,0 h 1 M 2,37 h 2 m 10,0 h 1 m 8,0 h 1 m 7,0 h 2 m 1,0 h 1 m 11,0 h 1 m 17,0 h 2 m 6,0 h 2 m 1,0 h 1 m 11,0 h 1 m 11.999996,0 H 101 m 4,0 h 1 m 9.00001,0 h 1 M 4,38 H 7.0000004 M 15,38 h 1 m 8,0 h 2 m 3,0 h 2 m 3,0 h 1 m 11,0 h 1 m 19,0 h 6 m 3,0 h 1 m 11,0 h 1 m 13,0 h 1 m 2,0 h 1 m 11.00001,0 h 1 M 16,39 h 1 m 9,0 h 3 m 5,0 h 1 m 11,0 h 1 m 28,0 h 1 m 5,0 h 1 m 5,0 h 1 m 14,0 h 2 m 12.00001,0 h 1 M 17,40 h 2 m 16,0 h 1 m 11,0 h 1 m 28,0 h 1 m 3,0 h 1 m 7,0 h 1 m 28.00001,0 h 1 M 19,41 h 1 m 16,0 h 3 m 8,0 h 1 m 29,0 h 3 m 8,0 h 1 m 28.00001,0 h 1 M 20,42 h 3 m 25,0 h 1 m 1,0 h 1 m 38,0 h 1 m 28.00001,0 h 1 M 90,43 h 2 m 26.00001,0 h 1 m 0,1 h 2"
         id="path5264" />
      <path
         style="color:#000000;fill:#262b44;-inkscape-stroke:none"
         d="m 26,3.5 v 1 h 1 v -1 z m 1,1 v 1 h 1 v -1 z m 1,1 v 1 h 1 v -1 z m 6,-1 v 1 h 1 v -1 z m 1,1 v 1 h 1 v -1 z m 32,-1 v 1 h 1 v -1 z m 1,1 v 1 h 1 v -1 z m 1,1 v 1 h 1 v -1 z m 6,-2 v 1 1 h 1 v -1 -1 z m 1,2 v 1 h 1 v -1 z m 1,1 v 1 h 2 v -1 z m 2,0 h 1 v -1 h -1 z m -49,-2 v 1 h 1 v -1 z m 7,0 v 1 h 1 v -1 z m 34,1 v 1 h 1 v -1 z m -6,2 v 1 h 1 v -1 z m 43,1 v 1 h 1 v -1 z m -107,2 v 1 1 h 1 v -1 -1 z m 1,2 v 1 1 h 1 v -1 -1 z m 20,-2 v 1 1 h 1 v -1 -1 z m 13,0 v 1 1 1 1 1 1 1 1 1 1 1 h 1 v -1 -1 -1 -1 -1 -1 -1 -1 -1 -1 -1 z m 72,0 v 1 h 1 v -1 z m -44,1 v 1 h 1 v -1 z m 0,1 h -5 v 1 h 4 v 1 1 1 1 h 1 v -1 -1 -1 -1 z m -1,5 h -1 v 1 1 1 1 1 1 1 1 1 h 1 v -1 -1 -1 -1 -1 -1 -1 -1 z m -1,9 h -1 v 1 1 1 1 1 h 1 v -1 -1 -1 -1 z m 0,5 v 1 1 h 1 v -1 -1 z m 1,2 v 1 h 1 v -1 z m 1,1 v 1 h 1 v -1 z m 1,1 v 1 h 2 v -1 z m 2,1 v 1 h 6 v -1 z m 6,0 h 2 v -1 h -2 z m 2,-1 h 1 v 1 1 1 h 1 v -1 -1 -1 -1 h -2 z m 2,3 v 1 h 1 v -1 z m 1,1 v 1 h 3 v -1 z m 3,0 h 1 v -1 h -1 z m 1,-1 h 1 v -1 h -1 z m -5,-27 v 1 1 1 1 1 1 1 1 1 1 1 h 1 v -1 -1 -1 -1 -1 -1 -1 -1 -1 -1 -1 z m 0,11 h -1 v 1 1 1 h 1 v -1 -1 z m -1,3 h -1 v 1 1 h 1 v -1 z m -1,2 h -1 v 1 h 1 z m 31,-16 v 1 h 1 v -1 z m 1,1 v 1 1 h 1 v -1 -1 z m -1,0 h -7 v 1 h 7 z m -95,0 v 1 h 4 v 1 1 h 1 v -1 -1 -1 z m 4,3 h -1 v 1 h 1 z m -1,1 h -1 v 1 h 1 z m 8,-3 v 1 1 1 1 h 1 v -1 -1 -1 -1 z m 7,0 v 1 h 1 v -1 z m 14,0 v 1 h 7 v 1 h 1 v -1 -1 z m 7,2 h -1 v 1 1 1 1 1 1 h 1 v -1 -1 -1 -1 -1 z m -1,6 h -1 v 1 1 1 1 1 1 h 1 v -1 -1 -1 -1 -1 z m -1,6 h -1 v 1 1 1 1 1 1 1 1 1 1 1 h 1 v -1 -1 -1 -1 -1 -1 -1 -1 -1 -1 z m 0,11 v 1 1 h 1 v -1 -1 z m 1,2 v 1 h 1 v -1 z m 38,-27 v 1 h 4 v 1 h 1 v -1 -1 z m 4,2 h -1 v 1 1 1 1 1 1 h 1 v -1 -1 -1 -1 -1 z m -1,6 h -1 v 1 1 1 1 1 1 h 1 v -1 -1 -1 -1 -1 z m -1,6 h -1 v 1 1 1 1 1 1 1 1 1 1 1 h 1 v -1 -1 -1 -1 -1 -1 -1 -1 -1 -1 z m 0,11 v 1 1 h 1 v -1 -1 z m 1,2 v 1 h 1 v -1 z m 1,1 v 1 h 2 v -1 z m -4,-27 h -2 v 1 h 2 z m -82,0 v 1 1 h 1 v -1 -1 z m 5,0 v 1 h 1 v -1 z m 88,0 v 1 h 1 v -1 z m 8,1 v 1 h 1 v -1 z m 8,1 v 1 h -1 v 1 h 1 v 1 1 1 h 1 v -1 -1 -1 -1 -1 z m -110,1 v 1 1 h 1 v -1 -1 z m 7,0 v 1 h 1 v -1 z m 94,0 v 1 1 h 1 v -1 -1 z m -84,1 v 1 1 1 1 h 1 v -1 -1 -1 -1 z m 7,1 v 1 h 1 v -1 z m 69,0 v 1 h 1 v -1 z m -94,1 v 1 1 1 h 1 v -1 -1 -1 z m 101,0 v 1 1 h 1 v -1 -1 z m 0,2 h -1 v 1 1 h 1 v -1 z m -1,2 h -1 v 1 1 1 h 1 v -1 -1 z m -1,3 h -1 v 1 1 h 1 v -1 z m -1,2 h -1 v 1 1 h 1 v -1 z m -1,2 h -1 v 1 1 h 1 v -1 z m 0,2 v 1 1 h 1 v -1 -1 z m 1,2 v 1 h 1 v -1 z m 1,1 v 1 h 1 v -1 z m 1,1 v 1 h 2 v -1 z m 2,0 h 1 v -1 h -1 z m 1,-1 h 1 v -1 -1 h -1 v 1 z m 1,-2 h 1 v -1 h -1 z m 5,-14 v 1 h 1 v -1 z m -28,1 v 1 h 1 v -1 z m -49,1 v 1 1 1 h 1 v -1 -1 -1 z m -15,1 v 1 1 1 1 1 1 1 h 1 v -1 -1 -1 -1 -1 -1 -1 z m 1,7 v 1 1 h 1 v -1 -1 z m 1,2 v 1 h 1 v -1 z m 1,1 v 1 1 h 1 v -1 -1 z m 1,2 v 1 h 1 v -1 z m 1,1 v 1 h 2 v -1 z m 2,1 v 1 h 3 v -1 z m 3,0 h 2 v -1 h -2 z m 2,-1 h 2 v -1 h -2 z m 2,-1 h 1 v -1 h -1 z m 1,0 v 1 1 1 h 1 v -1 -1 -1 z m 1,3 v 1 h 1 v -1 z m 1,1 v 1 h 3 v -1 z M 1,25.5 v 1 1 1 1 1 1 h 1 v -1 -1 -1 -1 -1 -1 z m 121,0 v 1 h 2 v -1 z m -89,2 v 1 h 1 v -1 z m 0,1 h -1 v 1 h 1 z m 81,-1 v 1 h -3 v 1 h 3 v 1 1 h 1 v -1 -1 -1 -1 z m 1,4 v 1 1 1 1 1 1 h 1 v -1 -1 -1 -1 -1 -1 z m 1,6 v 1 1 h 1 v -1 -1 z m 1,2 v 1 1 h 1 v -1 -1 z m 1,2 v 1 1 h 1 v -1 -1 z m 1,2 v 1 h 2 v -1 z m -8,-14 h -2 v 1 h 2 z m -2,1 h -1 v 1 h 1 z M 8,28.5 v 1 1 h 1 v -1 -1 z m 1,2 v 1 1 h 1 v -1 -1 z m 1,2 v 1 h 1 v -1 z m 1,1 v 1 h 1 v -1 z m 1,1 v 1 h 1 v -1 z m 1,1 v 1 h 1 v -1 z m 1,1 v 1 h 1 v -1 z m 1,1 v 1 h 1 v -1 z m 1,1 v 1 h 1 v -1 z m 1,1 v 1 h 2 v -1 z m 2,1 v 1 h 1 v -1 z m 1,1 v 1 h 3 v -1 z M 8,30.5 H 7 v 1 h 1 z m 21,-1 v 1 h 1 v -1 z m 42,0 v 1 h 1 v -1 z m 0,1 h -1 v 1 h 1 z m 11,1 v 1 h 1 v -1 z m -82,1 v 1 1 1 h 1 v -1 -1 -1 z m 1,3 v 1 h 1 v -1 z m 1,1 v 1 h 2 v -1 z m 2,1 v 1 h 3 v -1 z m 103,-5 v 1 h 1 v -1 z m -57,9 v 1 h 1 v -1 z"
         id="path5266" />
    </g>
    <g
       id="path8">
      <path
         style="color:#000000;fill:#000000;-inkscape-stroke:none"
         d="m 32,4 h 1 m 6,0 h 1 m 33,0 h 1 M 31,5 h 1 m 6,0 h 1 m 42,0 h 1 M 72,6 h 1 m 7,0 h 1 m 29.00001,2 h 1 M 7.0000004,8.9999996 h 1 m 100.0000096,0 h 1 M 3,9.9999996 h 1 m 33,0 h 1 M 1,11 h 1 m 33,0 h 1 m 41,0 h 1 m 29,0 h 1.00001 M 76,12 h 1 m 29,1 h 1 m -2,3 h 1 M 3,18 h 1 m 100,0 h 1 m -85,1 h 1 M 2,21 h 1 m 100,0 h 1 m -70,2 h 1 m -16,1 h 1 M 1,25 h 1 m 122.00001,0 h 1 M 33,27 h 1 M 0,32 h 1 m 38,8 h 1 m 52,3 h 1 m 28.00001,1 h 2"
         id="path5220" />
      <path
         style="color:#000000;fill:#3a4466;-inkscape-stroke:none"
         d="m 32,3.5 v 1 h 1 v -1 z m 0,1 h -1 v 1 h 1 z m 7,-1 v 1 h 1 v -1 z m 0,1 h -1 v 1 h 1 z m 34,-1 v 1 h 1 v -1 z m 8,1 v 1 h 1 v -1 z m 0,1 h -1 v 1 h 1 z m -9,0 v 1 h 1 v -1 z m 38,2 v 1 h 1 v -1 z M 7,8.5 v 1 h 1 v -1 z m 101,0 v 1 h 1 v -1 z M 3,9.5 v 1 h 1 v -1 z m 34,0 v 1 h 1 v -1 z m -36,1 v 1 h 1 v -1 z m 34,0 v 1 h 1 v -1 z m 42,0 v 1 h 1 v -1 z m 0,1 h -1 v 1 h 1 z m 30,-1 v 1 h 1 v -1 z m -1,2 v 1 h 1 v -1 z m -1,3 v 1 h 1 v -1 z m -102,2 v 1 h 1 v -1 z m 101,0 v 1 h 1 v -1 z m -84,1 v 1 h 1 v -1 z m -18,2 v 1 h 1 v -1 z m 101,0 v 1 h 1 v -1 z m -69,2 v 1 h 1 v -1 z m -15,1 v 1 h 1 v -1 z m -18,1 v 1 h 1 v -1 z m 123,0 v 1 h 1 v -1 z m -91,2 v 1 h 1 v -1 z m -33,5 v 1 h 1 v -1 z m 39,8 v 1 h 1 v -1 z m 53,3 v 1 h 1 v -1 z m 29,1 v 1 h 2 v -1 z"
         id="path5222" />
    </g>
  </g>
  <g
     inkscape:groupmode="layer"
     id="layer3"
     inkscape:label="copper"
     sodipodi:insensitive="true"
     style="display:inline" />
</svg>
